<?xml version="1.0" standalone="no"?>
<!DOCTYPE svg PUBLIC "-//W3C//DTD SVG 20010904//EN"
 "http://www.w3.org/TR/2001/REC-SVG-20010904/DTD/svg10.dtd">
<svg version="1.0" xmlns="http://www.w3.org/2000/svg"
 width="300.000000pt" height="363.000000pt" viewBox="0 0 300.000000 363.000000"
 preserveAspectRatio="xMidYMid meet">
<metadata>
Created by potrace 1.10, written by Peter Selinger 2001-2011
</metadata>
<g transform="translate(0.000000,363.000000) scale(0.050000,-0.050000)"
fill="#86007d" stroke="none">
<path d="M1560 7232 c0 -29 -151 -72 -256 -72 -30 0 -98 -14 -152 -30 -54 -17
-131 -30 -171 -30 -93 0 -536 -113 -595 -151 -413 -270 -319 -926 162 -1139
66 -29 141 -70 168 -91 27 -22 73 -39 102 -39 42 0 66 -21 118 -105 35 -58 84
-130 108 -160 43 -54 43 -56 7 -130 -20 -41 -43 -106 -52 -145 -8 -38 -30
-124 -48 -190 -34 -118 -83 -428 -105 -655 -10 -102 -5 -125 42 -195 80 -121
65 -251 -63 -560 -188 -452 -177 -1027 27 -1476 26 -58 48 -123 48 -144 0
-121 288 -455 420 -487 62 -15 240 -132 267 -175 15 -25 4 -59 -46 -139 -55
-91 -63 -117 -51 -187 19 -117 19 -270 1 -356 -44 -205 259 -476 531 -476 11
0 53 -23 94 -50 93 -64 94 -64 225 21 l109 71 440 -12 c903 -25 1050 -22 1143
26 284 146 378 566 202 902 l-74 143 69 76 c39 43 102 86 145 99 204 61 341
203 592 608 272 442 272 1137 -1 1688 l-70 141 52 165 c100 316 70 866 -67
1210 -78 195 -77 205 19 362 44 72 80 138 80 147 0 43 79 83 165 83 51 0 116
9 144 20 63 24 211 -94 211 -169 0 -63 48 -120 87 -105 23 9 33 37 33 92 0 53
17 106 50 154 65 95 63 132 -10 215 -79 90 -77 137 19 453 64 212 -13 449
-189 583 -113 86 -161 98 -391 94 -94 -1 -189 3 -211 10 -43 14 -415 53 -643
67 -108 7 -145 16 -145 38 0 23 -80 28 -489 28 -411 0 -488 -4 -479 -28 19
-50 -36 -61 -73 -15 -45 55 -1499 70 -1499 15z m1785 -88 c-2 -12 27 -32 66
-44 38 -13 64 -32 58 -42 -7 -10 -19 -14 -28 -9 -9 6 -27 -2 -39 -17 -25 -30
8 -52 77 -52 20 0 47 -13 60 -29 13 -16 37 -24 52 -18 38 15 37 47 0 47 -17 0
-25 12 -20 26 7 17 32 24 69 18 49 -7 63 0 79 44 25 66 53 67 69 2 11 -45 45
-62 101 -51 10 2 44 9 75 15 46 9 56 4 56 -29 0 -74 50 -94 146 -58 109 42
160 41 240 -2 46 -24 115 -35 244 -36 99 -2 212 -10 250 -19 88 -20 155 -20
327 0 l137 16 63 -70 c35 -39 66 -83 71 -98 23 -84 13 -213 -23 -294 -22 -49
-43 -118 -48 -152 -36 -243 -78 -281 -295 -265 -82 6 -167 20 -189 31 -34 19
-41 11 -64 -73 -33 -121 -27 -105 -60 -175 -16 -33 -34 -64 -41 -70 -6 -5 -27
-42 -45 -81 -19 -39 -61 -100 -93 -136 -63 -68 -70 -148 -23 -235 44 -83 108
-239 116 -285 5 -27 18 -67 30 -88 11 -21 16 -43 11 -48 -5 -5 1 -52 14 -103
25 -101 27 -459 3 -599 -8 -46 -15 -91 -15 -100 0 -8 -10 -33 -22 -55 -12 -22
-24 -51 -26 -65 -2 -13 -19 -39 -37 -57 -33 -33 -27 -144 9 -168 55 -37 203
-382 232 -540 5 -27 15 -68 22 -90 21 -68 23 -355 3 -448 -10 -48 -21 -111
-25 -140 -4 -29 -18 -92 -32 -142 -13 -49 -27 -99 -29 -110 -14 -59 -58 -141
-141 -259 -50 -72 -84 -131 -76 -132 9 0 -1 -13 -23 -30 -21 -16 -33 -29 -26
-29 7 0 -9 -22 -37 -50 -27 -27 -58 -50 -69 -50 -10 0 -19 -8 -19 -17 0 -19
-146 -80 -228 -94 -113 -21 -152 -47 -152 -100 0 -70 -58 -148 -179 -240 -114
-87 -114 -86 9 -149 95 -49 207 -197 180 -239 -7 -12 -6 -31 1 -42 7 -12 13
-86 13 -164 0 -241 -123 -340 -370 -298 -105 18 -190 19 -234 3 -13 -5 -208
-4 -215 1 -3 2 -30 7 -60 10 -30 3 -80 12 -110 20 -30 7 -70 7 -90 -2 -19 -8
-42 -14 -50 -12 -8 2 -15 -7 -15 -19 0 -17 -7 -17 -27 0 -20 16 -154 20 -455
13 -236 -5 -464 -9 -508 -10 -44 0 -120 19 -170 43 -49 23 -103 49 -120 56
-43 20 -39 59 17 149 51 84 71 184 39 203 -10 7 -27 31 -37 55 -10 24 -30 59
-44 79 -21 31 -19 41 15 64 73 52 113 98 157 184 30 58 29 61 -48 155 -43 52
-74 102 -69 111 12 20 -47 70 -63 54 -7 -7 -41 10 -76 37 -36 27 -78 49 -94
49 -16 0 -60 35 -98 78 -74 84 -99 87 -99 12 0 -26 -9 -53 -20 -60 -11 -7 -20
-3 -20 9 0 44 -3 52 -32 97 -26 40 -26 49 2 77 41 41 3 94 -54 76 -51 -16
-141 7 -126 32 7 10 34 19 61 19 30 0 49 12 49 30 0 17 -8 30 -18 30 -47 0
-141 223 -224 530 -46 169 -20 640 43 780 22 49 53 133 58 160 3 11 36 64 75
118 l71 98 -48 37 -47 37 42 35 c80 67 102 184 51 279 -20 37 -23 50 -23 88 0
14 -19 18 -50 10 -61 -15 -71 80 -21 199 16 39 31 140 34 225 3 84 14 166 25
181 11 14 20 64 21 110 1 65 16 98 63 148 61 63 81 128 40 123 -75 -9 -102 32
-37 56 51 19 114 73 121 104 14 66 -139 282 -200 282 -10 0 -8 18 4 40 12 22
17 41 11 43 -6 1 -20 4 -31 7 -11 3 -28 6 -38 8 -9 1 -22 25 -27 53 -7 37 -3
49 17 41 58 -22 47 30 -12 55 -104 44 -148 137 -97 203 52 65 38 82 -36 44
-31 -16 -68 -24 -82 -20 -14 5 -25 0 -25 -10 0 -11 -17 -16 -38 -10 -20 5 -66
-5 -101 -24 -205 -105 -464 439 -308 645 50 66 153 133 173 112 11 -11 189 23
254 48 17 6 37 10 45 8 8 -2 15 5 15 14 0 10 59 14 131 9 107 -7 143 -1 199
34 54 33 90 40 183 33 95 -7 134 0 212 40 53 27 105 43 116 37 10 -7 19 -5 19
5 0 9 110 16 245 16 208 -1 622 18 655 30 6 2 19 5 30 7 60 12 143 40 163 56
36 28 107 36 107 12 0 -12 -15 -33 -34 -46 -28 -21 -12 -25 95 -23 118 3 130
7 135 48 6 42 64 66 64 27 0 -19 122 -102 149 -102 12 0 4 42 -25 118 -7 17 0
24 18 17 15 -5 26 -19 23 -31z m-2514 -1246 c21 -33 -26 -71 -53 -44 -23 23
-9 66 22 66 10 0 24 -10 31 -22z m4756 9 c14 -15 -43 -87 -70 -87 -13 0 -12
49 2 95 3 11 55 4 68 -8z m-3346 -5629 c24 -45 13 -98 -21 -98 -26 0 -58 81
-45 115 14 37 41 30 66 -17z"/>
<path d="M2400 6946 c-44 -16 -80 -68 -80 -116 0 -24 -22 -64 -49 -89 l-49
-46 11 71 c20 119 -4 174 -74 174 -65 0 -92 -38 -69 -95 8 -19 18 -98 23 -175
16 -273 28 -302 124 -277 38 10 43 24 40 110 -2 54 7 109 20 122 17 17 23 15
23 -11 0 -19 8 -34 18 -34 10 0 28 -25 39 -55 47 -123 138 -174 194 -109 27
32 47 36 106 23 40 -9 135 -22 210 -30 l137 -14 -6 57 c-10 94 -33 110 -137
96 -74 -10 -101 -5 -128 22 -56 56 -29 80 92 80 186 0 175 71 -18 111 -175 36
-126 69 102 69 l195 0 -13 -173 c-14 -177 17 -257 99 -257 12 0 40 -14 61 -30
22 -17 30 -29 19 -26 -25 5 -155 -62 -175 -92 -22 -33 -52 23 -39 74 9 34 4
38 -28 26 -21 -8 -65 -20 -98 -27 -33 -6 -70 -26 -83 -43 -21 -28 -32 -27
-105 15 l-82 46 0 -52 c0 -60 0 -60 -93 -21 -57 24 -79 25 -102 6 -23 -19 -36
-15 -65 24 l-36 47 -130 -35 c-72 -20 -196 -37 -277 -39 -155 -4 -206 -21
-190 -62 22 -57 -23 -80 -62 -32 -37 46 -41 46 -86 14 -52 -36 -130 -44 -148
-15 -26 43 -108 36 -133 -12 -45 -84 236 -285 323 -230 47 29 92 13 105 -38
10 -38 153 -46 188 -10 6 6 30 -3 53 -19 39 -27 45 -26 75 14 l33 44 51 -51
c33 -34 59 -45 77 -34 49 31 112 20 123 -22 9 -37 25 -40 160 -35 170 6 171 5
181 -82 5 -36 11 -67 15 -70 169 -111 288 -126 264 -34 -14 52 45 78 151 68
51 -6 82 -2 75 9 -32 52 86 126 181 114 53 -6 125 0 165 14 40 13 77 25 82 27
28 7 101 38 196 82 58 27 113 44 122 38 10 -6 28 2 41 18 13 15 48 25 77 22
109 -12 214 79 194 168 -24 111 -47 118 -424 114 -348 -3 -407 8 -337 59 39
28 39 30 2 99 -53 98 -87 123 -105 76 -18 -47 -101 -138 -115 -125 -5 5 -15
99 -22 208 -6 109 -17 206 -23 217 -8 12 13 14 54 6 80 -16 118 11 105 75 -12
64 -54 69 -485 65 l-350 -3 -2 -220 c-3 -270 -1 -261 -40 -229 -102 85 -143
242 -84 325 48 67 63 114 36 114 -9 0 -29 4 -43 8 -15 5 -40 4 -57 -2z m1057
-847 c57 -54 39 -79 -55 -79 -42 0 -116 -21 -164 -46 -282 -148 -322 -152
-448 -37 -99 91 -76 106 173 112 166 4 224 14 287 47 102 54 151 54 207 3z"/>
<path d="M3760 6918 c0 -10 -13 -18 -28 -18 -65 0 -168 -157 -163 -246 12
-193 103 -272 308 -264 97 4 134 -3 173 -34 54 -42 79 -31 125 55 38 71 157
43 141 -33 -8 -36 140 -103 230 -103 41 0 80 -8 86 -18 24 -39 48 10 48 97 l0
92 110 -13 c85 -10 110 -7 110 13 0 40 -83 110 -140 117 -34 5 -50 19 -50 47
0 43 20 44 206 18 l85 -12 -12 -73 c-12 -74 -38 -160 -71 -233 -9 -22 -15 -57
-11 -78 6 -38 29 -47 138 -57 30 -3 55 -13 55 -23 0 -10 5 -13 12 -7 6 6 40 1
75 -12 88 -34 141 -29 149 13 11 55 -26 85 -146 123 -119 37 -151 65 -108 93
31 19 79 13 164 -20 83 -32 97 -28 90 30 -5 46 -89 97 -172 105 -8 1 -17 20
-20 42 -8 49 13 51 144 11 137 -42 167 -39 164 15 -2 53 -121 119 -225 126
-36 2 -93 15 -127 29 -47 19 -68 20 -85 3 -17 -17 -33 -13 -65 17 -23 21 -77
44 -121 49 -43 6 -117 16 -164 23 -79 12 -85 9 -88 -35 -4 -78 -10 -126 -28
-208 -21 -98 -24 -113 -27 -144 -1 -14 -17 -25 -35 -25 -19 0 -28 5 -22 12 7
7 4 35 -7 63 -11 28 -23 115 -28 193 -13 196 -114 288 -210 192 -22 -22 -35
-40 -30 -40 6 0 -7 -36 -30 -79 -22 -44 -40 -92 -40 -107 0 -55 -75 -103 -113
-72 -39 33 -102 26 -143 -15 -67 -67 -146 42 -116 160 25 103 115 138 142 54
17 -55 97 -89 147 -63 64 35 -6 173 -117 231 -56 30 -160 35 -160 9z m554
-344 c-8 -22 -90 -25 -111 -4 -5 5 3 23 16 39 29 35 109 5 95 -35z"/>
<path d="M1634 6884 c-71 -9 -83 -40 -54 -137 33 -110 50 -376 23 -359 -11 7
-59 91 -106 187 -106 219 -152 272 -222 254 -59 -14 -105 -105 -85 -168 11
-36 -11 -195 -43 -306 -21 -76 -61 -11 -77 125 -30 257 -92 369 -153 274 -7
-11 -34 -22 -60 -24 -43 -3 -48 -14 -57 -140 l-10 -138 -53 49 c-53 50 -57 57
-57 108 0 51 -65 70 -156 48 -93 -24 -120 -71 -81 -141 29 -52 36 -80 46 -168
4 -35 22 -91 40 -125 17 -35 26 -63 19 -63 -7 0 -3 -12 9 -27 27 -32 136 -19
151 18 6 15 2 33 -8 39 -23 14 -100 185 -100 223 0 45 39 31 64 -23 12 -27 30
-50 39 -50 9 0 17 -13 17 -28 0 -52 102 -155 148 -148 46 7 50 44 19 186 -10
44 -13 116 -6 160 l12 80 16 -60 c9 -33 26 -78 38 -100 26 -48 27 -54 31 -130
2 -71 77 -100 152 -60 25 14 56 19 68 11 41 -25 99 7 88 50 -28 107 80 126
206 36 83 -60 118 -63 118 -10 0 15 35 21 104 16 110 -7 118 4 70 91 -13 24
-24 62 -24 85 0 64 76 53 102 -14 44 -118 104 -157 188 -125 l53 20 -68 85
c-70 87 -76 137 -24 196 112 126 -91 235 -377 203z m262 -148 c8 -44 -62 -80
-126 -64 -94 23 -47 106 57 101 41 -2 65 -15 69 -37z m-544 -167 c16 -64 -23
-115 -53 -69 -10 17 -19 50 -19 75 0 63 56 57 72 -6z"/>
<path d="M5244 6805 c-90 -45 -77 -93 26 -101 121 -9 177 38 112 94 -56 49
-53 49 -138 7z"/>
<path d="M4418 6134 c-77 -72 -160 -191 -141 -202 9 -6 38 9 65 34 26 24 52
41 58 38 20 -12 100 81 100 117 0 57 -31 62 -82 13z"/>
<path d="M4690 6068 c-64 -56 -210 -142 -270 -159 -9 -2 -77 -29 -160 -62 -16
-7 -66 -16 -110 -21 -44 -4 -108 -17 -143 -28 -34 -11 -70 -18 -80 -16 -9 1
-21 1 -27 0 -5 -2 -67 -8 -137 -13 -70 -6 -144 -19 -164 -29 -20 -11 -50 -20
-66 -20 -17 0 -56 -10 -87 -23 -31 -13 -72 -26 -93 -30 -20 -4 -76 -35 -125
-68 -48 -34 -88 -55 -88 -48 0 7 -48 -37 -106 -98 l-107 -111 -34 59 c-19 32
-77 87 -129 122 -52 36 -98 69 -104 76 -14 16 -108 59 -283 128 -44 18 -166
32 -315 36 -133 4 -242 15 -242 25 0 10 -6 13 -13 6 -7 -7 -29 -4 -49 7 -20
11 -61 21 -92 23 -31 2 -72 16 -91 33 -19 16 -35 23 -35 16 0 -24 -187 81
-260 145 -38 34 -81 62 -95 62 -14 0 -31 2 -38 5 -39 15 -27 -192 16 -281 51
-106 206 -264 313 -319 93 -49 125 -99 83 -131 -38 -29 -166 -214 -149 -214 7
0 -6 -24 -28 -52 -23 -29 -36 -61 -30 -71 6 -10 2 -30 -8 -43 -161 -195 -130
-1014 39 -1048 32 -6 62 -18 67 -25 4 -8 48 -11 97 -7 68 6 91 1 101 -25 17
-46 -4 -72 -55 -66 -71 8 -139 -24 -223 -106 -44 -42 -86 -77 -95 -77 -8 0
-15 -10 -15 -23 0 -12 -25 -64 -57 -115 -64 -105 -128 -278 -111 -304 5 -10 3
-18 -6 -18 -33 0 -51 -423 -23 -550 49 -223 239 -411 381 -375 115 29 273 169
322 284 12 28 35 67 51 86 16 19 23 35 14 35 -8 0 4 30 27 67 23 37 37 71 31
77 -5 6 1 36 14 68 48 116 37 591 -16 708 -29 62 -43 120 -36 148 10 38 3 49
-38 59 -60 16 -218 219 -290 373 -63 138 -84 601 -31 703 16 31 25 57 20 57
-32 0 139 284 211 351 l87 80 155 -7 c191 -9 195 -26 16 -84 -106 -34 -156
-64 -215 -127 -87 -94 -175 -213 -157 -213 7 0 2 -20 -12 -45 -166 -311 -17
-844 294 -1048 172 -112 507 -70 659 83 208 207 337 607 250 770 -12 22 -15
40 -7 40 8 0 4 11 -9 24 -13 13 -24 39 -24 58 0 18 -13 44 -30 58 -16 14 -30
42 -30 63 0 21 -13 43 -30 50 -40 15 -39 47 2 47 47 0 177 -142 223 -245 13
-30 34 -55 45 -55 11 0 32 25 45 55 13 30 33 62 45 70 11 8 14 15 7 15 -25 0
141 167 172 172 38 5 41 -39 5 -76 -31 -31 -78 -117 -123 -228 -34 -81 -40
-368 -8 -368 12 0 42 -101 39 -129 -1 -6 16 -40 38 -76 22 -36 48 -84 58 -107
145 -326 626 -378 914 -99 214 208 300 758 147 942 -13 16 -18 29 -11 29 7 0
3 20 -10 44 -73 136 -241 280 -358 306 -83 18 -133 61 -75 65 14 1 78 7 143
13 l117 12 82 -93 c95 -108 193 -257 193 -293 0 -14 12 -43 26 -65 73 -111 61
-575 -19 -739 -74 -151 -104 -192 -257 -350 -106 -110 -332 -175 -496 -143
-68 13 -135 25 -149 26 -14 2 -25 11 -25 19 0 8 -18 21 -39 28 -111 35 -336
302 -380 450 -14 50 -35 120 -45 156 -18 58 -64 81 -67 32 -6 -87 -36 -230
-51 -239 -10 -6 -18 -27 -18 -46 0 -44 -273 -306 -385 -370 -112 -64 -298 -82
-428 -43 -54 16 -108 30 -122 30 -40 0 -29 -34 14 -45 130 -35 170 -516 70
-855 -31 -105 -46 -144 -122 -314 -66 -150 -318 -366 -427 -366 -81 0 -220 80
-278 160 -48 66 -61 75 -81 51 -61 -73 235 -371 369 -371 159 0 434 203 514
380 22 50 54 106 71 125 17 19 25 35 18 35 -8 0 1 22 19 50 18 27 27 50 20 50
-7 0 1 28 19 62 18 34 27 67 21 72 -6 6 1 39 15 74 42 102 54 362 29 637 -13
142 -11 155 23 155 100 0 131 -633 43 -865 -12 -30 -17 -55 -13 -55 5 0 -4
-31 -20 -70 -16 -38 -29 -75 -28 -81 4 -21 -51 -129 -66 -129 -8 0 -15 -19
-15 -41 0 -121 -369 -513 -441 -469 -10 7 -19 5 -19 -4 0 -27 -185 -11 -265
23 -71 30 -75 30 -75 -5 0 -37 177 -168 240 -178 164 -26 253 -7 384 81 71 48
114 32 218 -81 83 -90 83 -131 0 -87 -132 70 -363 -83 -315 -209 16 -42 68
-38 82 6 14 45 125 130 139 107 6 -10 -16 -59 -49 -111 -107 -169 -68 -202 73
-63 88 86 157 109 177 57 5 -14 -2 -32 -17 -40 -40 -24 -97 -122 -84 -143 20
-33 69 -13 140 55 88 85 203 102 355 51 178 -61 615 -50 659 16 7 10 46 11 90
2 43 -8 84 -14 91 -12 8 2 43 -29 79 -70 83 -95 118 -100 118 -19 0 40 -19 82
-54 118 -37 39 -45 57 -25 58 78 7 104 -10 168 -107 19 -30 48 -55 64 -55 49
0 54 61 10 121 -83 112 -39 135 72 37 80 -70 120 -55 94 36 -9 31 -16 64 -17
74 -3 26 -112 84 -189 101 -80 18 -80 51 1 118 59 49 156 73 156 38 0 -72 347
-121 415 -59 21 19 43 29 49 24 12 -13 156 121 156 145 0 25 -64 24 -97 -2
-31 -24 -53 -29 -181 -35 -157 -8 -410 197 -511 412 -119 256 -152 336 -143
344 5 6 1 32 -9 59 -10 27 -23 73 -28 103 -6 30 -18 99 -29 154 -31 163 -5
568 39 621 61 74 70 32 69 -326 0 -346 8 -410 77 -595 12 -33 24 -70 25 -82 7
-44 77 -179 145 -278 282 -412 615 -429 840 -42 82 141 25 179 -66 44 -56 -84
-200 -172 -282 -172 -185 0 -455 325 -541 650 -17 66 -37 143 -44 170 -41 153
-10 541 50 644 75 129 142 82 72 -50 -63 -119 -48 -578 24 -774 18 -49 35
-100 38 -113 2 -13 13 -35 25 -50 12 -15 36 -54 53 -87 33 -63 198 -239 227
-242 9 -1 43 -12 74 -25 101 -42 201 15 329 187 60 80 110 631 61 662 -10 6
-13 18 -8 27 40 64 -217 581 -288 581 -11 0 -21 8 -21 18 0 23 -130 84 -193
91 -65 7 -78 24 -47 61 29 35 86 39 143 8 64 -34 73 1 12 50 -30 24 -55 55
-55 68 0 39 101 5 153 -51 49 -53 120 -49 100 5 -7 17 -5 30 3 30 9 0 17 16
19 35 7 89 20 160 30 177 31 50 -1 640 -39 739 -70 180 -113 269 -130 269 -9
0 -16 12 -16 27 0 15 -27 64 -60 110 -74 101 -74 109 -5 144 114 58 341 317
315 359 -5 9 4 27 20 40 17 14 30 45 30 70 0 25 11 55 26 66 34 29 41 124 9
124 -14 0 -61 -32 -105 -72z m-3360 -208 c20 -22 41 -36 47 -30 5 6 26 -5 46
-23 21 -18 37 -26 37 -17 0 9 17 1 38 -18 21 -19 73 -39 115 -44 88 -12 157
-23 157 -27 0 -4 174 -19 336 -30 68 -4 124 -9 124 -11 0 -1 27 -6 60 -10 91
-12 116 -20 170 -50 28 -15 62 -30 76 -32 42 -7 268 -163 332 -228 67 -69 89
-61 251 81 49 44 101 79 115 79 14 0 26 9 26 20 0 11 9 20 21 20 11 0 57 17
101 39 44 21 109 44 144 52 35 8 73 19 84 25 25 15 60 19 285 27 102 3 185 11
185 17 0 5 25 11 55 12 90 4 277 67 352 117 181 123 203 50 33 -111 -124 -118
-192 -135 -570 -139 -192 -3 -323 -13 -363 -30 -35 -14 -69 -21 -75 -15 -6 6
-33 -3 -61 -21 -27 -18 -61 -33 -76 -33 -26 0 -227 -128 -265 -169 -11 -11
-49 -47 -84 -79 l-64 -58 -66 50 c-36 28 -95 78 -131 111 -79 74 -305 186
-400 197 -38 5 -84 16 -102 25 -18 9 -163 18 -323 21 -413 7 -622 79 -682 236
-36 95 5 121 72 46z m1070 -694 c88 -54 186 -156 193 -199 2 -18 13 -39 24
-45 11 -7 23 -35 27 -62 4 -28 14 -61 22 -74 57 -90 43 -482 -21 -598 -13 -24
-19 -47 -14 -53 17 -16 -203 -228 -272 -263 -86 -43 -319 -43 -405 0 -114 57
-297 289 -305 388 -2 17 -11 76 -20 130 -25 150 -24 212 4 305 14 47 19 85 11
86 -8 0 3 13 25 30 21 16 32 29 23 29 -51 0 167 271 235 292 22 7 56 28 75 45
56 52 308 45 398 -11z m1487 7 c93 -56 293 -250 293 -284 0 -14 11 -38 25 -53
64 -67 64 -522 0 -656 -169 -356 -568 -460 -816 -211 -63 62 -156 191 -138
191 8 0 -1 18 -22 41 -58 64 -55 573 4 622 14 11 20 32 15 46 -6 14 4 40 22
58 18 18 28 40 23 48 -17 28 54 102 165 172 137 86 312 97 429 26z m-708
-1368 c53 -52 119 -113 148 -135 l52 -40 -20 -230 c-11 -126 -16 -270 -10
-320 6 -49 15 -141 21 -204 6 -63 19 -137 30 -165 10 -28 15 -51 9 -51 -5 0 4
-31 20 -70 16 -38 24 -70 19 -70 -6 0 3 -25 19 -55 28 -52 50 -108 54 -140 1
-8 16 -31 34 -50 17 -19 26 -35 19 -35 -17 0 125 -215 177 -268 53 -55 44 -86
-42 -154 -48 -37 -88 -79 -88 -93 -1 -14 -8 -25 -17 -25 -16 0 -108 -68 -164
-122 -31 -29 -102 -64 -116 -58 -3 2 -28 -11 -55 -29 -27 -17 -49 -26 -49 -19
0 7 -15 1 -33 -15 -49 -40 -375 -44 -450 -6 -31 17 -57 26 -57 20 0 -45 -284
145 -461 307 -161 149 -160 147 -68 252 56 65 235 372 239 410 0 6 8 22 17 36
9 15 21 55 26 90 5 35 23 109 40 164 35 118 57 306 57 500 0 132 -7 189 -41
345 -13 61 -9 67 57 95 79 33 182 122 200 175 22 61 84 41 114 -36 50 -125
137 -128 139 -4 1 19 10 35 21 35 11 0 20 14 20 30 0 52 40 33 139 -65z m1137
-264 c219 -113 357 -725 224 -991 -127 -251 -386 141 -397 601 -9 400 21 469
173 390z m-2637 -20 c52 -97 25 -656 -38 -788 -265 -556 -544 -4 -291 577 81
185 276 311 329 211z"/>
<path d="M1943 5027 c4 -20 24 -40 44 -44 26 -5 35 4 30 30 -4 20 -24 40 -44
44 -26 5 -35 -4 -30 -30z"/>
<path d="M2020 4877 c-195 -141 -253 -486 -107 -633 15 -15 27 -38 27 -52 0
-13 28 -45 63 -71 34 -26 56 -35 47 -22 -8 14 9 10 37 -9 36 -24 73 -31 118
-22 36 6 72 12 81 11 9 0 52 37 96 83 323 337 -1 977 -362 715z m163 -120 c29
-42 4 -179 -41 -224 -76 -76 -165 6 -144 133 1 8 5 31 8 50 13 83 130 111 177
41z"/>
<path d="M3578 4902 c-215 -133 -291 -399 -180 -627 180 -369 660 -180 638
251 -6 119 -125 377 -165 357 -7 -3 -35 8 -62 26 -59 38 -164 35 -231 -7z
m270 -164 c73 -123 -15 -278 -125 -220 -82 45 -81 249 3 280 59 22 79 12 122
-60z"/>
<path d="M3045 3664 c-25 -4 -45 -14 -45 -22 0 -9 -29 -13 -65 -9 -36 4 -105
9 -155 12 l-90 5 -15 -110 c-8 -60 -10 -186 -4 -280 5 -93 2 -218 -8 -277 -19
-117 6 -152 79 -107 23 15 41 16 48 4 19 -31 -3 -53 -102 -101 l-92 -45 13
-125 c14 -131 -26 -246 -74 -216 -13 8 -15 3 -6 -12 9 -15 -3 -50 -30 -86 -36
-50 -40 -68 -22 -98 21 -33 17 -37 -34 -37 -79 0 -114 -77 -80 -172 14 -37 32
-68 41 -68 9 0 16 -16 16 -36 0 -19 12 -53 27 -75 15 -21 33 -62 40 -91 11
-47 21 -52 128 -56 145 -5 165 -9 218 -38 23 -13 95 -29 160 -36 64 -8 126
-21 138 -30 29 -23 57 2 88 77 14 36 36 67 48 68 21 4 46 6 134 14 37 4 179
184 179 228 0 21 -27 36 -82 45 -71 12 -80 20 -72 57 6 24 15 64 22 91 6 29
-3 68 -26 100 -62 88 -153 318 -133 338 13 13 -50 168 -85 209 -17 19 -23 35
-15 35 8 0 -4 33 -28 73 -50 84 -24 151 30 78 38 -50 52 -32 37 46 -14 70 -52
81 -92 28 -14 -19 -39 -34 -56 -32 -16 1 -41 3 -55 5 -38 3 -30 38 13 51 21 7
69 37 105 67 l67 54 -10 210 c-12 259 -27 284 -155 264z m-85 -339 c0 -41 -9
-88 -20 -105 -14 -21 -19 0 -20 75 0 58 9 105 20 105 11 0 20 -34 20 -75z
m140 -857 c77 -222 119 -390 127 -507 8 -125 -176 -169 -414 -98 -215 64 -260
126 -173 237 22 28 39 59 40 71 0 11 31 79 68 150 37 71 74 175 81 230 10 74
30 119 75 166 77 83 84 75 196 -249z"/>
<path d="M2300 1910 c0 -28 43 -90 62 -90 35 0 10 89 -27 96 -19 4 -35 1 -35
-6z"/>
<path d="M2825 1565 c-47 -16 -25 -45 35 -45 33 0 60 8 60 18 0 21 -61 39 -95
27z"/>
<path d="M980 5982 c0 -18 47 -42 81 -42 10 0 13 14 6 30 -12 32 -87 42 -87
12z"/>
<path d="M1930 1117 c-134 -81 -127 -237 11 -237 27 0 48 19 61 58 25 71 62
88 110 53 35 -25 10 -151 -30 -151 -24 0 -262 -244 -262 -268 0 -98 360 -167
480 -92 33 21 -10 129 -51 131 -50 3 -150 34 -159 49 -15 25 92 120 135 120
19 0 35 10 35 21 0 12 12 34 27 49 141 141 -175 377 -357 267z"/>
<path d="M2576 1095 c-13 -25 -25 -51 -25 -59 -1 -8 -15 -31 -33 -52 -17 -20
-49 -68 -70 -105 -21 -38 -49 -80 -63 -95 -28 -30 -27 -28 -35 -120 -7 -80 27
-101 150 -95 76 3 97 -4 139 -52 112 -127 214 49 125 215 -14 27 -18 107 -10
225 l12 183 -82 0 c-65 0 -88 -10 -108 -45z m66 -279 c18 -70 -19 -122 -83
-113 -62 9 -72 61 -25 126 45 63 89 58 108 -13z"/>
<path d="M2867 1110 c6 -16 13 -165 14 -330 3 -324 7 -337 115 -329 80 6 92
37 54 135 -48 126 -37 159 55 162 l75 2 0 -90 c1 -132 18 -179 74 -193 65 -16
154 30 124 65 -37 45 -48 220 -33 508 l5 90 -76 0 -77 0 -5 -125 c-6 -148 -12
-157 -97 -132 -67 19 -69 24 -55 167 9 94 3 100 -92 100 -73 0 -90 -6 -81 -30z"/>
<path d="M3780 1003 c0 -28 -93 -62 -114 -41 -29 29 -225 38 -229 11 -46 -321
-18 -513 73 -513 49 0 105 68 73 88 -26 16 -16 235 12 285 24 43 26 42 110
-43 47 -47 103 -89 125 -93 49 -9 54 -84 7 -93 -17 -3 -46 8 -63 25 -65 65
-133 25 -92 -53 52 -98 185 -171 236 -131 83 64 119 117 114 167 -6 50 -107
180 -126 160 -11 -10 -106 69 -106 88 0 20 67 17 93 -4 132 -103 186 -30 62
85 -76 70 -175 106 -175 62z"/>
<path d="M5871 5996 c-52 -74 -14 -157 84 -186 40 -11 45 -6 45 49 0 52 -8 61
-50 61 -27 0 -50 9 -50 20 0 11 23 20 50 20 37 0 50 11 50 40 0 56 -88 53
-129 -4z"/>
</g>
</svg>
