<?xml version="1.0" standalone="no"?>
<!DOCTYPE svg PUBLIC "-//W3C//DTD SVG 20010904//EN"
 "http://www.w3.org/TR/2001/REC-SVG-20010904/DTD/svg10.dtd">
<svg version="1.0" xmlns="http://www.w3.org/2000/svg"
 width="900.000000pt" height="576.000000pt" viewBox="0 0 900.000000 576.000000"
 preserveAspectRatio="xMidYMid meet">
<metadata>
Created by potrace 1.10, written by Peter Selinger 2001-2011
</metadata>
<g transform="translate(0.000000,576.000000) scale(0.100000,-0.100000)"
fill="#cccccc" stroke="none">
<path d="M3134 5707 c-16 -5 -45 -13 -64 -19 -19 -6 -63 -24 -98 -41 -112 -54
-237 -216 -258 -334 -3 -21 -17 -60 -31 -87 -30 -62 -30 -157 0 -214 49 -94
143 -183 208 -197 15 -4 61 -24 102 -45 93 -48 160 -56 277 -35 116 20 180 55
271 145 78 77 117 140 137 220 6 25 19 75 28 113 15 58 15 75 5 123 -33 148
-90 209 -282 307 -121 62 -140 68 -200 70 -36 1 -78 -2 -95 -6z m184 -120 c7
-5 29 -19 50 -31 73 -40 84 -51 76 -80 -8 -33 -27 -33 -52 -1 -19 24 -42 33
-42 17 0 -4 9 -15 20 -25 11 -9 20 -21 20 -25 0 -5 -45 -55 -100 -112 -55 -56
-100 -103 -100 -104 0 -1 13 -12 29 -24 27 -20 31 -20 59 -6 23 11 61 14 163
12 l133 -3 8 -40 c7 -30 5 -48 -9 -75 -10 -19 -21 -37 -24 -40 -4 -3 -10 -16
-14 -30 -9 -28 -123 -139 -143 -140 -8 0 -25 -9 -39 -20 -31 -24 -39 -24 -77
-5 -15 8 -42 15 -60 15 -29 -1 -30 -2 -12 -15 26 -20 11 -35 -34 -35 -49 0
-59 15 -23 34 l28 15 -26 1 c-15 0 -32 -7 -39 -15 -15 -18 -44 -19 -62 -2 -7
7 -31 24 -53 37 -22 13 -49 35 -59 48 l-19 24 -16 -21 c-18 -24 -55 -20 -65 7
-3 10 -17 37 -31 62 -24 42 -39 86 -52 153 l-6 29 69 -8 c38 -4 85 -8 104 -8
24 -1 36 -7 38 -19 5 -23 19 -22 34 2 9 15 16 17 29 10 11 -6 20 -5 24 1 7 11
45 14 45 4 0 -6 -30 -41 -112 -132 -22 -25 -28 -39 -24 -58 7 -27 31 -32 40
-9 5 13 9 13 26 3 16 -10 22 -10 32 0 10 10 8 14 -10 18 -30 8 -27 22 13 68
19 21 35 41 35 45 0 14 68 51 84 45 22 -8 21 15 -3 45 -15 20 -23 23 -47 16
-24 -6 -98 -7 -279 -1 -26 1 -30 5 -28 26 4 58 23 134 38 150 8 9 15 21 15 26
0 5 21 33 46 62 62 70 163 120 254 125 77 4 130 -2 148 -16z m256 -161 c14
-30 26 -61 26 -69 0 -8 7 -28 15 -43 19 -37 19 -78 1 -93 -12 -10 -17 -8 -25
8 -6 11 -11 28 -11 38 0 14 -3 12 -13 -7 -12 -23 -17 -25 -77 -22 -36 2 -72
10 -80 17 -13 11 -18 11 -34 -1 -22 -15 -102 -19 -110 -5 -3 5 4 16 17 24 12
8 36 27 52 41 30 26 30 26 44 6 26 -39 44 -11 19 29 -10 17 -7 25 23 59 19 22
42 41 52 41 9 1 17 7 17 14 0 7 5 18 12 25 19 19 44 -3 72 -62z"/>
<path d="M3110 5557 c0 -13 12 -16 70 -15 39 1 70 5 70 10 0 4 -11 8 -24 8
-13 0 -44 3 -70 6 -38 6 -46 4 -46 -9z"/>
<path d="M3052 5533 c-18 -7 -4 -23 19 -23 12 0 19 5 17 12 -5 14 -18 18 -36
11z"/>
<path d="M3223 5513 c-24 -9 -14 -33 13 -33 18 0 25 5 22 17 -3 18 -16 24 -35
16z"/>
<path d="M2981 5485 c-13 -14 -20 -29 -17 -33 4 -4 13 1 20 11 7 9 21 17 30
17 10 0 16 5 14 12 -7 21 -22 18 -47 -7z"/>
<path d="M3117 5474 c-3 -4 1 -17 10 -31 9 -14 16 -42 15 -65 -1 -22 1 -45 4
-50 10 -16 24 13 24 50 0 20 6 35 15 38 23 9 18 34 -7 34 -12 0 -29 7 -38 15
-9 8 -19 12 -23 9z"/>
<path d="M3229 5414 c-9 -11 -9 -18 -1 -26 14 -14 42 -3 42 16 0 20 -27 27
-41 10z"/>
<path d="M2967 5393 c-16 -15 -6 -33 18 -33 28 0 34 24 9 34 -19 7 -19 7 -27
-1z"/>
<path d="M3004 5315 c-22 -33 -10 -47 24 -29 15 7 33 14 40 14 21 0 13 27 -10
34 -34 9 -36 8 -54 -19z"/>
<path d="M2896 5291 c-9 -14 6 -51 20 -51 19 0 18 46 -1 53 -8 4 -17 3 -19 -2z"/>
<path d="M3290 5166 c0 -10 9 -16 21 -16 24 0 21 23 -4 28 -10 2 -17 -3 -17
-12z"/>
<path d="M3440 5165 c0 -12 7 -15 25 -13 14 2 26 8 26 13 0 6 -12 11 -26 13
-18 2 -25 -1 -25 -13z"/>
<path d="M3317 5116 c-9 -22 19 -42 37 -26 19 15 10 40 -14 40 -10 0 -20 -6
-23 -14z"/>
<path d="M3235 5100 c-9 -14 5 -110 15 -110 37 0 54 34 22 42 -15 4 -18 12
-15 35 5 31 -10 52 -22 33z"/>
<path d="M3106 5081 c-9 -14 4 -41 19 -41 12 0 25 21 25 41 0 12 -37 12 -44 0z"/>
<path d="M3382 5066 c2 -15 8 -26 13 -26 15 0 12 43 -3 48 -10 3 -13 -4 -10
-22z"/>
<path d="M2910 5030 c0 -19 11 -26 23 -14 8 8 -3 34 -14 34 -5 0 -9 -9 -9 -20z"/>
<path d="M3315 4970 c-9 -14 3 -30 22 -30 9 0 21 -7 28 -17 7 -9 17 -13 23 -9
18 11 14 26 -7 26 -11 0 -23 9 -26 20 -7 21 -30 27 -40 10z"/>
<path d="M3142 4959 c2 -6 8 -10 13 -10 5 0 11 4 13 10 2 6 -4 11 -13 11 -9 0
-15 -5 -13 -11z"/>
<path d="M3500 5406 c0 -8 7 -16 15 -20 8 -3 15 -16 15 -30 0 -26 19 -47 21
-24 2 21 -3 43 -10 48 -4 3 -10 13 -14 23 -8 20 -27 23 -27 3z"/>
<path d="M440 5659 c-100 -31 -107 -32 -141 -20 -45 15 -105 -15 -153 -76 -30
-38 -36 -55 -36 -93 0 -41 5 -53 41 -94 23 -26 53 -53 68 -60 15 -8 79 -17
151 -21 119 -7 126 -6 152 15 18 14 35 19 48 15 28 -9 25 -20 -14 -44 -30 -19
-34 -26 -40 -82 -9 -94 -7 -208 5 -230 5 -11 27 -35 47 -55 35 -33 40 -35 94
-31 65 4 100 28 125 85 17 40 19 220 3 272 -15 52 -13 57 24 64 21 4 55 27 95
64 53 50 61 62 61 93 0 44 -31 92 -86 135 -33 24 -55 32 -105 37 -35 3 -91 15
-123 27 -73 25 -132 25 -216 -1z m206 -91 c3 -5 -1 -24 -10 -42 -16 -34 -11
-80 8 -73 6 2 10 14 8 27 -1 13 6 28 15 36 20 14 92 16 109 3 7 -6 16 -4 24 6
13 15 70 21 70 8 1 -5 5 -28 10 -53 11 -57 0 -70 -57 -70 -47 0 -65 18 -43 45
11 13 7 15 -24 15 -35 0 -47 -12 -26 -25 8 -5 8 -11 0 -20 -8 -10 -41 -13
-131 -10 -107 2 -122 0 -145 -18 l-26 -20 -44 23 c-30 14 -49 19 -57 12 -7 -5
-40 -7 -74 -4 -68 5 -80 18 -41 44 l22 15 -22 12 c-26 14 -28 33 -6 55 18 18
66 21 95 6 21 -12 26 -55 7 -63 -10 -4 -9 -8 2 -16 24 -17 29 -14 58 34 43 72
85 73 80 2 -3 -36 0 -42 17 -42 25 0 32 38 15 71 -23 42 -9 50 79 51 45 0 84
-4 87 -9z m72 -342 c2 -27 10 -58 18 -71 10 -15 14 -47 13 -103 -2 -73 -4 -83
-25 -97 -27 -17 -81 -20 -118 -5 -26 9 -26 11 -26 109 0 80 3 103 17 117 10
10 16 31 16 53 -1 20 1 40 4 44 3 4 26 7 51 5 l47 -3 3 -49z"/>
<path d="M540 5525 c0 -10 7 -15 18 -13 21 4 19 22 -2 26 -10 2 -16 -3 -16
-13z"/>
<path d="M540 5465 c0 -10 7 -15 18 -13 21 4 19 22 -2 26 -10 2 -16 -3 -16
-13z"/>
<path d="M680 5130 c0 -5 7 -10 15 -10 8 0 15 5 15 10 0 6 -7 10 -15 10 -8 0
-15 -4 -15 -10z"/>
<path d="M624 5076 c-10 -27 4 -46 33 -46 37 0 56 13 51 36 -4 25 -75 33 -84
10z"/>
<path d="M1562 5670 c-12 -5 -43 -25 -67 -43 -44 -34 -45 -34 -173 -39 -144
-6 -170 -15 -233 -79 -69 -70 -72 -83 -59 -232 14 -163 38 -248 86 -310 63
-80 127 -105 232 -88 86 13 157 93 185 206 8 33 18 89 22 124 11 99 28 111
155 111 56 0 109 4 118 9 18 10 300 -11 321 -23 31 -20 -20 -87 -102 -134 -64
-37 -106 -75 -143 -131 -25 -38 -29 -56 -35 -145 -4 -70 -2 -110 6 -131 14
-36 71 -88 117 -108 85 -38 103 -41 242 -41 203 1 305 34 379 126 l30 37 -12
76 c-6 42 -11 96 -11 120 0 24 -5 56 -10 70 -16 43 -106 139 -182 196 -38 28
-72 58 -75 66 -3 9 11 32 34 56 23 23 46 52 52 64 42 83 -40 197 -152 212 -29
4 -172 8 -320 10 -188 2 -283 7 -320 17 -60 16 -55 16 -85 4z m85 -102 c16
-13 16 -20 -1 -43 -14 -19 -15 -19 -35 -1 -19 17 -21 17 -27 2 -11 -30 4 -48
38 -44 25 2 34 9 38 28 6 28 51 40 75 20 8 -7 15 -7 19 -1 9 15 130 25 153 12
14 -7 23 -7 30 0 7 7 17 8 29 1 11 -5 48 -6 84 -2 95 9 113 4 105 -31 -6 -25
-3 -29 14 -29 26 0 34 15 16 30 -8 7 -15 16 -15 20 0 15 49 20 75 8 19 -9 30
-8 49 1 12 7 34 11 47 9 21 -3 24 -8 26 -56 2 -60 -16 -88 -51 -77 -12 3 -68
7 -126 8 l-105 2 -3 28 c-2 15 -10 27 -17 27 -22 0 -29 -22 -11 -32 23 -13 20
-25 -10 -32 -31 -8 -74 25 -74 57 0 29 -25 14 -28 -17 -2 -15 -10 -30 -18 -33
-18 -7 -44 14 -44 36 0 9 -4 22 -9 29 -12 20 -52 -7 -50 -33 3 -38 -1 -45 -23
-45 -34 0 -50 15 -46 41 2 19 -2 25 -19 27 -26 4 -30 -10 -8 -28 37 -31 -7
-50 -47 -20 l-28 20 -20 -20 c-11 -11 -26 -20 -34 -20 -25 0 -74 49 -81 81
-16 71 76 124 132 77z m-217 -100 c22 -23 60 -94 60 -111 0 -5 -14 -22 -31
-38 -29 -27 -30 -30 -15 -50 13 -19 13 -25 0 -50 -8 -16 -14 -56 -14 -93 0
-36 -4 -68 -10 -71 -5 -3 -10 -17 -10 -29 0 -35 -17 -43 -108 -48 -91 -5 -113
3 -117 44 -2 14 -8 33 -14 44 -5 10 -13 72 -17 137 -3 64 -10 117 -15 117 -4
0 -13 9 -19 20 -16 30 5 94 41 124 29 24 37 26 139 26 100 0 111 -2 130 -22z
m845 -250 c0 -65 8 -78 33 -55 10 10 24 17 31 17 7 0 49 -36 93 -80 l81 -81 1
-97 1 -97 28 -3 c23 -3 27 -8 27 -33 0 -32 -1 -33 -92 -29 -47 1 -58 -1 -58
-14 0 -13 -24 -15 -157 -18 -144 -3 -160 -1 -176 16 -14 16 -27 18 -76 13 -37
-3 -63 -1 -70 6 -19 19 -12 47 13 56 30 12 42 77 24 127 -14 38 -6 61 28 77
10 6 26 14 34 18 8 4 35 17 60 29 25 12 57 27 71 34 18 9 31 10 44 3 16 -9 17
-6 11 31 -3 23 -2 43 4 47 5 3 7 19 3 35 -7 38 3 62 24 58 15 -3 18 -14 18
-60z"/>
<path d="M1193 5411 c-47 -40 -32 -46 104 -45 135 2 143 5 106 47 -24 26 -179
24 -210 -2z"/>
<path d="M1193 5314 c-3 -8 -2 -21 1 -29 5 -13 23 -15 103 -13 97 3 98 3 98
28 0 25 -1 25 -98 27 -77 1 -99 -2 -104 -13z"/>
<path d="M1276 5219 c-19 -15 -26 -30 -26 -54 0 -73 28 -85 79 -34 35 35 39
60 14 89 -22 25 -34 25 -67 -1z"/>
<path d="M1223 5048 c2 -9 26 -13 72 -13 46 0 70 4 73 13 3 9 -16 12 -73 12
-57 0 -76 -3 -72 -12z"/>
<path d="M2154 5019 c-10 -16 196 -24 231 -9 16 7 12 9 -20 11 -95 4 -207 4
-211 -2z"/>
<path d="M2082 4933 c-34 -3 -42 -8 -40 -21 3 -13 12 -16 38 -14 19 1 37 -3
41 -10 7 -11 12 -11 29 0 15 9 24 10 39 0 15 -9 24 -8 45 5 23 16 26 16 35 0
8 -15 12 -16 34 -4 20 10 29 11 47 1 20 -11 25 -10 37 6 11 15 17 16 32 7 15
-10 22 -9 31 2 8 10 8 15 -2 22 -13 8 -288 13 -366 6z"/>
<path d="M5409 5666 c-123 -33 -222 -185 -188 -287 19 -55 85 -134 137 -162
44 -24 57 -26 182 -27 201 -1 381 -1 418 1 38 3 62 -15 47 -35 -6 -7 -28 -39
-50 -71 l-40 -58 -5 -142 -5 -142 -40 -44 c-22 -24 -53 -58 -70 -75 -73 -73
-67 -141 18 -232 29 -30 71 -63 95 -73 l42 -18 0 -63 c0 -97 14 -132 79 -197
72 -72 110 -86 200 -76 36 4 77 6 91 5 14 0 87 -3 164 -6 136 -5 139 -5 177
20 43 29 84 33 113 11 24 -18 75 -19 110 -4 20 10 36 8 83 -9 50 -17 84 -20
237 -21 120 -1 187 -6 204 -14 28 -14 64 -94 82 -183 9 -43 21 -65 54 -100 39
-41 46 -44 94 -44 28 0 54 5 57 10 3 6 1 10 -4 10 -6 0 -11 7 -11 15 0 8 5 15
11 15 6 0 28 14 48 32 32 28 37 39 45 97 5 36 10 109 10 161 1 52 7 108 14
123 7 16 12 49 12 75 -1 44 -7 65 -41 149 -12 29 -10 35 14 71 26 40 29 57 42
203 8 85 -1 113 -52 161 -39 37 -73 48 -149 48 -106 0 -165 -38 -219 -142 -29
-55 -34 -147 -10 -188 25 -44 19 -69 -21 -86 -23 -9 -47 -13 -63 -8 -14 3
-213 7 -441 8 -229 1 -421 6 -428 10 -19 12 -15 20 47 94 53 63 60 78 71 139
8 43 11 141 8 270 l-3 201 -31 44 c-17 23 -53 58 -79 76 l-49 33 -118 -7 c-65
-4 -118 -4 -118 0 0 3 11 24 26 45 21 32 25 51 27 117 2 100 -20 159 -80 218
-48 48 -79 59 -127 45 -17 -6 -58 -7 -91 -3 -74 9 -88 7 -135 -17 -56 -29
-163 -30 -215 -2 -34 19 -109 44 -125 42 -3 0 -26 -6 -51 -13z m708 -102 c3
-10 -4 -26 -20 -42 l-27 -26 32 -11 c21 -6 36 -20 42 -36 15 -43 2 -59 -47
-59 -49 0 -62 -7 -46 -27 8 -9 23 -11 49 -7 51 8 62 -11 25 -44 -40 -34 -107
-27 -141 14 -43 53 -25 140 34 158 20 7 20 9 7 22 -16 16 -13 26 13 57 19 22
70 23 79 1z m-602 -4 c3 -5 17 -10 30 -10 28 0 41 -33 31 -75 -8 -31 -50 -35
-66 -5 -6 11 -19 24 -30 30 -59 31 -86 -65 -33 -115 33 -30 45 -31 84 -8 31
19 33 18 43 -14 11 -35 -45 -68 -115 -68 -50 0 -59 4 -94 36 -32 31 -38 44
-43 88 -4 42 0 57 18 84 13 19 35 41 49 49 29 18 116 23 126 8z m416 -7 c34
-20 38 -48 8 -63 -16 -9 -25 -8 -40 6 -14 12 -23 14 -30 7 -7 -7 1 -20 26 -41
36 -29 37 -30 20 -56 -16 -24 -16 -27 4 -52 40 -51 26 -64 -57 -56 -60 5 -71
19 -47 56 12 17 14 30 7 43 -5 10 -13 43 -16 74 -7 54 -6 58 21 77 34 26 66
27 104 5z m-204 -63 c32 -19 37 -30 48 -105 12 -87 18 -79 -65 -86 -92 -7
-107 -4 -115 28 -11 46 2 61 78 87 20 6 23 36 3 36 -7 0 -19 -7 -26 -15 -20
-25 -50 -19 -50 10 0 19 9 30 38 44 48 24 51 24 89 1z m743 -635 l0 -262 -37
-43 c-32 -35 -46 -43 -84 -47 -81 -9 -137 36 -126 103 9 55 63 94 131 94 l44
0 0 103 c0 56 -5 108 -10 115 -15 17 -62 15 -143 -9 -38 -11 -89 -23 -112 -26
-24 -3 -43 -11 -44 -17 0 -6 0 -59 1 -118 1 -59 -2 -146 -6 -193 -7 -83 -7
-85 -41 -105 -23 -13 -52 -20 -87 -20 -45 0 -57 4 -84 31 -41 41 -40 67 4 112
38 37 79 53 113 42 11 -3 22 -1 26 5 4 7 7 102 6 212 -2 211 1 228 43 228 12
0 31 7 42 15 10 8 37 15 59 15 22 0 58 5 80 11 47 13 170 26 203 20 l22 -3 0
-263z m1230 -126 c0 -5 14 -15 30 -21 51 -17 59 -57 22 -100 -11 -14 -13 -35
-10 -95 8 -120 6 -123 -101 -123 -90 0 -121 11 -121 43 0 7 -13 23 -30 37 -25
21 -30 32 -30 69 0 32 6 51 22 68 16 17 19 26 11 34 -17 17 24 69 53 69 12 0
24 7 28 15 6 18 126 22 126 4z m-1420 -407 c26 -12 36 -25 38 -45 7 -60 -39
-75 -81 -27 -15 17 -32 30 -39 30 -19 0 -48 -32 -48 -52 0 -30 26 -73 54 -87
21 -12 28 -12 49 2 16 10 28 12 40 6 13 -8 18 -2 27 30 12 44 71 101 105 101
11 -1 33 -11 48 -24 23 -18 28 -30 25 -57 -3 -32 -5 -34 -45 -37 -28 -2 -43
-8 -43 -17 0 -18 24 -26 60 -18 25 4 30 2 30 -14 0 -10 -13 -27 -30 -36 -40
-24 -90 -14 -124 24 -29 32 -46 37 -46 14 0 -47 -136 -66 -187 -25 -40 31 -63
75 -63 121 0 34 7 46 45 84 41 42 48 45 97 45 30 0 68 -8 88 -18z m340 -57
c15 -14 19 -14 30 0 9 11 17 12 32 4 15 -8 31 -8 59 1 20 7 49 10 63 6 20 -5
25 -13 28 -43 4 -45 28 -58 28 -15 0 39 25 64 59 60 35 -4 39 -33 8 -64 -14
-13 -35 -51 -47 -84 -32 -85 -64 -91 -94 -17 -31 77 -49 107 -63 107 -7 0 -13
-6 -13 -14 0 -19 -31 -29 -64 -20 -22 5 -26 3 -26 -16 0 -12 9 -33 20 -47 39
-50 22 -65 -65 -56 -55 6 -56 7 -49 32 4 14 8 55 8 89 1 61 2 64 31 77 39 17
36 17 55 0z m490 -15 l37 -29 11 24 c11 23 14 24 84 18 40 -3 77 -9 81 -13 5
-4 -5 -29 -22 -56 -42 -68 -29 -81 47 -44 23 11 53 25 67 30 28 11 34 40 9 40
-9 0 -22 -8 -29 -17 -11 -14 -16 -15 -28 -5 -21 18 -11 44 24 65 39 22 59 22
98 0 29 -17 31 -22 31 -75 0 -31 3 -59 8 -61 16 -9 82 6 82 19 0 8 -6 14 -13
14 -19 0 -37 43 -30 69 12 46 99 66 141 32 41 -35 18 -71 -33 -51 -14 5 -27 6
-30 0 -7 -12 13 -23 29 -17 14 6 56 -44 56 -65 -1 -7 -9 -23 -19 -35 -16 -19
-29 -23 -75 -23 -31 0 -56 4 -56 9 0 17 -33 21 -50 6 -19 -17 -170 -22 -170
-5 0 6 -9 10 -20 10 -11 0 -20 -4 -20 -10 0 -6 -33 -10 -80 -10 -80 0 -80 0
-80 26 0 14 14 44 31 66 21 25 28 43 22 49 -6 6 -14 4 -23 -6 -7 -8 -20 -15
-30 -15 -10 0 -23 -7 -30 -15 -7 -9 -29 -15 -51 -15 -27 0 -39 -4 -39 -14 0
-19 24 -27 61 -19 28 5 30 4 27 -18 -8 -57 -107 -62 -152 -8 -43 51 -28 124
32 161 39 24 60 21 102 -12z m612 -257 c22 -20 23 -38 2 -94 -10 -27 -16 -69
-15 -109 2 -62 1 -67 -28 -88 -33 -24 -80 -29 -99 -10 -7 7 -12 34 -12 61 0
30 -6 54 -15 63 -10 11 -13 27 -9 52 4 29 1 42 -15 61 -26 30 -26 38 2 62 30
25 161 27 189 2z"/>
<path d="M6045 5441 c-7 -12 12 -24 25 -16 11 7 4 25 -10 25 -5 0 -11 -4 -15
-9z"/>
<path d="M5666 5381 c-4 -6 -3 -19 3 -28 9 -17 10 -17 17 0 8 21 -10 45 -20
28z"/>
<path d="M7573 4677 c-23 -12 -42 -25 -43 -28 0 -8 136 -17 168 -11 32 6 27
24 -14 45 -44 21 -59 21 -111 -6z"/>
<path d="M7565 4565 c-23 -18 -26 -24 -13 -25 25 0 40 -34 29 -63 -13 -33 -7
-37 56 -37 58 0 66 9 28 34 -32 21 -32 33 1 49 l27 12 -24 5 c-13 3 -28 16
-34 28 -13 29 -33 28 -70 -3z"/>
<path d="M6410 4205 c0 -8 7 -15 15 -15 8 0 15 7 15 15 0 8 -7 15 -15 15 -8 0
-15 -7 -15 -15z"/>
<path d="M7040 4205 c0 -8 7 -15 15 -15 8 0 15 7 15 15 0 8 -7 15 -15 15 -8 0
-15 -7 -15 -15z"/>
<path d="M7572 3973 c-20 -8 -3 -23 25 -23 15 0 34 -7 43 -15 16 -14 19 -13
33 8 16 24 15 25 -21 31 -42 7 -62 7 -80 -1z"/>
<path d="M7640 3870 c0 -11 -11 -27 -25 -36 -23 -15 -23 -17 -8 -40 21 -33 31
-30 49 11 19 45 18 85 -1 85 -8 0 -15 -9 -15 -20z"/>
<path d="M4139 5603 c-60 -64 -82 -185 -54 -300 12 -49 16 -99 14 -166 -5
-113 -11 -123 -110 -173 -105 -52 -189 -158 -189 -237 0 -60 96 -170 164 -188
31 -8 55 -8 96 1 71 16 84 23 148 84 63 59 102 130 102 182 0 44 20 106 37
117 7 4 13 17 13 29 0 11 7 26 16 33 14 9 17 31 18 107 1 93 0 97 -30 135 -41
50 -113 105 -133 101 -10 -2 -15 -12 -14 -28 1 -14 5 -92 9 -175 8 -179 -12
-338 -49 -392 -26 -39 -132 -93 -181 -93 -40 0 -96 46 -96 80 0 76 114 160
216 160 58 0 70 9 54 39 -16 32 -23 256 -10 341 21 137 22 164 6 238 -18 85
-14 102 24 102 33 0 40 -14 40 -76 0 -55 15 -80 100 -164 70 -71 95 -104 122
-164 23 -48 24 -148 3 -166 -8 -7 -15 -28 -15 -47 0 -21 -6 -36 -15 -39 -16
-6 -21 -54 -6 -54 5 0 17 12 27 28 115 170 123 271 31 415 -43 67 -187 242
-231 279 -42 37 -65 35 -107 -9z"/>
<path d="M7470 5579 c-39 -11 -91 -17 -131 -16 -66 2 -67 1 -117 -43 -54 -48
-87 -121 -76 -166 8 -30 -7 -31 -32 -3 -10 12 -34 28 -51 36 -29 11 -37 11
-65 -2 -76 -35 -134 -93 -162 -160 -10 -22 -28 -51 -40 -65 -35 -38 -46 -64
-46 -113 0 -58 23 -111 72 -167 67 -76 111 -100 184 -100 35 0 65 4 68 9 3 4
19 11 34 14 33 7 131 92 174 151 43 60 36 156 -12 156 -13 0 -20 7 -20 18 0
10 -13 36 -28 58 -57 78 -47 101 26 61 61 -32 168 -40 367 -26 83 6 179 12
215 13 79 3 99 13 145 73 48 63 48 104 -2 167 -45 58 -70 72 -152 81 -35 4
-82 16 -105 26 -53 24 -158 23 -246 -2z m104 -75 c11 -4 16 -19 16 -42 0 -42
10 -37 19 10 6 30 10 33 41 33 33 0 35 -2 32 -30 -8 -78 -6 -108 6 -112 8 -3
12 9 12 41 l0 46 80 2 c44 1 92 2 108 2 23 1 27 -3 27 -29 1 -17 4 -36 9 -43
12 -20 -21 -62 -48 -62 -42 0 -56 11 -56 42 0 26 -3 29 -27 26 -28 -3 -30 -8
-18 -41 7 -16 -3 -17 -131 -16 -115 0 -140 -2 -150 -15 -14 -20 -28 -20 -58
-1 -18 12 -43 15 -103 11 -101 -5 -113 1 -83 44 21 29 22 33 7 42 -26 14 -20
35 15 52 39 20 48 20 76 -4 20 -16 21 -22 12 -41 -10 -17 -9 -23 1 -30 21 -13
22 -12 62 41 50 67 67 66 67 -4 0 -55 14 -80 31 -55 6 8 7 38 4 66 -8 70 3 85
49 67z m-500 -247 c4 -41 4 -81 0 -90 -9 -25 -33 -20 -40 8 -7 27 -24 34 -24
10 0 -16 -36 -39 -49 -30 -19 11 -32 71 -21 99 13 35 32 29 42 -12 13 -50 32
-40 25 13 -6 38 -3 46 15 60 38 26 45 19 52 -58z m91 -157 c70 -32 83 -67 40
-110 -37 -38 -53 -50 -67 -50 -7 0 -31 -12 -53 -25 -56 -35 -123 -34 -164 1
-17 14 -31 32 -31 39 0 7 -6 18 -14 24 -14 12 -32 114 -22 130 9 15 276 7 311
-9z"/>
<path d="M7584 5385 c-7 -17 4 -37 17 -30 12 8 12 45 -1 45 -6 0 -13 -7 -16
-15z"/>
<path d="M7143 5053 c-15 -5 -18 -73 -4 -73 10 0 41 44 41 59 0 11 -21 19 -37
14z"/>
<path d="M8191 5576 c-43 -32 -81 -84 -81 -111 0 -12 13 -42 30 -66 50 -74 39
-93 -81 -144 -182 -76 -307 -233 -256 -322 134 -237 229 -327 364 -347 46 -7
93 -25 93 -36 0 -13 -87 -21 -149 -14 l-59 6 -47 -43 c-89 -82 -110 -172 -57
-242 46 -62 86 -74 257 -82 83 -3 169 -11 192 -17 47 -11 96 -8 198 16 38 9
79 16 89 16 27 0 100 63 119 102 25 53 9 110 -47 167 l-47 48 -110 12 c-114
12 -164 25 -155 40 3 4 40 21 83 36 87 32 178 96 215 153 135 206 144 230 113
293 -38 76 -161 176 -258 210 -59 21 -71 39 -56 87 9 30 9 48 0 75 -17 50 -90
113 -142 121 -22 3 -65 20 -96 36 -31 17 -61 30 -67 30 -7 0 -27 -11 -45 -24z
m84 -36 c4 -6 1 -17 -5 -25 -18 -21 -3 -46 52 -90 57 -44 70 -65 40 -65 -23 0
-117 46 -156 77 -22 18 -27 28 -22 48 4 14 17 30 30 35 13 5 27 14 31 19 8 14
22 14 30 1z m175 -120 c43 -40 43 -40 24 -61 -10 -12 -33 -28 -51 -35 -17 -8
-34 -18 -38 -24 -3 -5 -17 -10 -30 -10 -13 0 -25 -5 -27 -11 -5 -16 -81 -30
-89 -17 -12 19 2 39 32 45 16 3 32 10 35 14 3 5 15 9 28 9 13 0 35 10 50 23
l27 23 -26 28 c-15 16 -24 35 -21 42 9 25 42 15 86 -26z m-96 -216 c9 -3 16
-15 16 -25 0 -22 26 -25 65 -7 21 10 31 9 55 -5 15 -9 35 -17 43 -17 9 0 30
-8 49 -17 60 -30 68 -33 82 -33 15 0 56 -37 56 -51 0 -11 -118 -68 -165 -80
-87 -23 -186 -31 -314 -25 -74 3 -139 10 -145 16 -5 5 -16 10 -24 10 -8 0 -34
10 -58 21 -39 20 -54 41 -54 79 0 18 53 50 85 50 12 0 28 7 35 15 7 8 20 15
29 15 10 0 26 7 37 15 10 8 29 15 41 15 23 0 83 -30 83 -43 0 -4 -16 -21 -35
-38 -35 -32 -47 -69 -21 -69 8 0 31 16 52 35 20 19 45 35 55 35 9 0 40 -18 67
-39 27 -22 53 -37 56 -34 14 15 3 37 -40 79 -35 33 -54 44 -79 44 -32 0 -82
39 -68 53 8 9 76 9 97 1z m-415 -195 c24 -39 44 -53 117 -81 55 -21 75 -23
264 -23 179 0 212 3 260 20 69 25 126 59 140 84 13 26 50 37 61 20 60 -95
-150 -179 -446 -179 -302 0 -497 74 -459 174 10 26 43 18 63 -15z m102 -170
c120 -64 446 -66 572 -3 32 16 73 18 81 5 3 -5 -18 -31 -48 -58 -78 -71 -142
-88 -321 -87 -116 0 -150 4 -200 21 -62 22 -170 106 -160 124 8 12 52 11 76
-2z m58 -403 c12 -18 21 -43 21 -54 0 -24 27 -55 40 -47 5 3 7 19 4 34 -4 18
-1 32 7 37 14 8 131 8 160 -1 16 -5 19 -1 19 25 0 27 3 31 23 28 19 -3 23 -10
28 -68 3 -36 6 -51 7 -33 4 67 96 93 109 31 5 -27 7 -28 16 -12 5 11 19 26 30
35 19 16 23 16 50 -5 l29 -21 15 23 c17 24 47 29 59 10 10 -15 15 -97 8 -119
-8 -27 -46 -31 -70 -8 -20 19 -54 18 -54 -2 0 -5 -11 -9 -25 -9 -18 0 -31 9
-43 30 -12 22 -24 30 -44 30 -16 0 -28 -4 -28 -10 0 -5 11 -10 24 -10 30 0 40
-14 32 -44 -10 -39 -106 -41 -106 -3 0 9 -39 11 -156 9 -103 -2 -161 1 -169 8
-10 9 -20 7 -39 -5 -14 -10 -33 -15 -41 -11 -20 7 -19 40 1 61 9 8 18 35 21
58 5 39 26 77 44 77 4 0 17 -15 28 -34z"/>
<path d="M8334 4366 c-4 -9 -2 -27 4 -39 10 -22 10 -21 17 6 9 33 -10 62 -21
33z"/>
<path d="M4820 5428 c-56 -57 -168 -228 -191 -291 -35 -96 -23 -143 55 -215
55 -51 99 -56 161 -17 50 31 58 31 103 0 68 -46 140 -24 215 64 30 37 33 65
13 132 -28 90 -117 232 -199 317 -67 68 -99 71 -157 10z m110 -26 c19 -15 21
-22 12 -37 -8 -15 -6 -25 7 -45 10 -14 24 -42 30 -62 7 -21 21 -40 32 -43 11
-4 19 -15 19 -30 0 -12 7 -25 15 -29 8 -3 15 -11 15 -18 0 -7 7 -26 15 -41 8
-15 17 -43 20 -61 6 -31 4 -34 -36 -55 -54 -29 -89 -22 -89 17 -1 15 -7 38
-15 52 -8 14 -14 39 -15 56 0 16 -5 35 -10 40 -8 8 -7 19 1 37 10 23 9 30 -4
45 -10 10 -17 28 -17 40 0 24 -18 40 -24 20 -1 -7 -8 -28 -14 -47 -8 -24 -8
-39 -1 -53 8 -14 8 -23 0 -31 -6 -6 -11 -23 -11 -37 0 -14 -9 -43 -20 -65 -11
-22 -20 -50 -20 -62 0 -32 -27 -40 -62 -20 -17 9 -36 17 -44 17 -25 0 -26 26
-5 66 12 21 21 48 21 60 0 12 7 27 15 34 8 7 15 23 15 35 0 16 8 25 25 29 14
4 25 13 25 22 0 8 9 35 21 60 15 35 25 45 42 44 59 -5 60 15 2 22 -24 2 -31 8
-33 31 -3 25 -1 27 31 27 19 0 45 -8 57 -18z"/>
<path d="M5383 5101 c-46 -8 -100 -41 -155 -95 -35 -34 -38 -41 -38 -94 0
-113 29 -308 53 -364 57 -128 170 -184 297 -148 38 11 123 89 147 135 14 26
25 94 37 230 2 22 7 60 10 85 5 31 2 59 -9 90 -17 47 -82 122 -126 145 -32 17
-159 26 -216 16z m221 -123 c20 -20 36 -48 40 -72 6 -34 4 -42 -20 -67 -24
-25 -26 -32 -16 -54 8 -18 9 -32 2 -45 -5 -10 -10 -48 -10 -84 0 -36 -4 -68
-10 -71 -5 -3 -10 -17 -10 -29 0 -13 -8 -33 -17 -45 -16 -20 -26 -22 -108 -19
l-90 3 -9 30 c-5 17 -12 39 -17 50 -8 20 -20 140 -21 208 0 27 -7 45 -24 62
-13 13 -24 28 -24 33 0 21 30 79 55 105 25 26 29 27 136 27 l111 0 32 -32z"/>
<path d="M5363 4931 c-48 -40 -36 -46 100 -47 70 0 130 3 132 7 3 4 -9 19 -26
33 -27 23 -39 26 -107 26 -60 -1 -82 -5 -99 -19z"/>
<path d="M5368 4839 c-5 -4 -8 -15 -6 -25 3 -17 13 -19 103 -19 96 0 100 1
103 23 2 12 0 22 -5 22 -78 4 -187 4 -195 -1z"/>
<path d="M5439 4734 c-17 -19 -23 -36 -23 -66 2 -50 19 -62 57 -40 39 22 59
68 43 96 -23 43 -43 46 -77 10z"/>
<path d="M5392 4568 c3 -9 26 -13 71 -13 92 0 91 19 -1 23 -57 2 -73 0 -70
-10z"/>
<path d="M484 4638 c-42 -37 -67 -88 -57 -115 4 -10 17 -35 30 -55 13 -21 23
-46 23 -57 0 -26 -50 -62 -125 -90 -124 -46 -255 -184 -255 -269 0 -32 128
-235 178 -282 100 -93 217 -126 417 -117 149 7 225 36 309 121 75 75 180 247
179 292 -2 76 -106 179 -251 249 -90 44 -94 47 -87 73 22 89 20 98 -37 157
-45 48 -60 57 -98 62 -25 4 -66 19 -91 35 -60 37 -90 36 -135 -4z m102 -29 c3
-6 1 -16 -5 -22 -20 -20 -12 -35 35 -69 25 -18 52 -45 60 -60 8 -16 19 -28 24
-28 18 0 10 42 -12 59 -25 20 -17 41 15 41 27 -1 72 -38 81 -67 5 -16 0 -28
-21 -47 -15 -14 -35 -26 -44 -26 -9 0 -22 -7 -29 -15 -7 -8 -21 -15 -32 -15
-11 0 -26 -7 -34 -15 -9 -8 -29 -15 -45 -15 -22 0 -29 5 -29 20 0 11 8 23 18
26 9 3 29 12 45 20 15 8 32 12 37 9 6 -3 15 -3 20 0 12 8 -17 31 -75 60 -69
34 -105 65 -105 92 0 16 7 27 20 30 11 3 20 9 20 13 0 7 16 15 42 19 4 0 10
-4 14 -10z m118 -337 c2 -4 -11 -18 -30 -31 l-35 -24 -44 22 c-25 12 -45 27
-45 32 0 11 147 12 154 1z m-164 -30 c0 -5 11 -14 25 -20 l26 -12 -46 -43
c-76 -73 -53 -93 30 -27 28 22 55 40 60 40 6 0 33 -18 60 -40 84 -67 106 -45
29 28 -25 24 -45 44 -43 45 80 43 92 45 135 22 16 -8 36 -15 44 -15 8 0 24 -7
34 -15 11 -8 26 -15 35 -15 8 0 32 -8 53 -17 29 -13 38 -23 38 -41 0 -39 -136
-94 -280 -112 -77 -10 -286 -3 -311 11 -10 5 -26 9 -36 9 -45 1 -133 65 -133
97 0 16 58 53 83 53 14 0 30 7 37 15 7 8 20 15 29 15 9 0 25 7 35 15 21 16 96
21 96 7z m-295 -152 c34 -49 60 -66 138 -92 88 -29 401 -30 492 -2 77 23 165
79 165 105 0 22 17 24 42 5 29 -22 22 -62 -16 -92 -96 -77 -426 -119 -616 -78
-204 43 -260 71 -260 129 0 37 8 65 20 65 4 0 20 -18 35 -40z m113 -179 c168
-68 386 -66 585 5 67 23 80 8 34 -42 -34 -38 -63 -56 -137 -85 -22 -8 -89 -15
-181 -17 -129 -3 -154 0 -210 18 -93 32 -177 95 -165 125 7 19 17 19 74 -4z"/>
<path d="M1990 4585 c-19 -11 -45 -13 -110 -9 -75 5 -91 4 -124 -14 -21 -12
-62 -24 -91 -27 -45 -6 -62 -3 -123 24 -78 34 -150 41 -205 17 -36 -15 -122
-98 -142 -136 -26 -49 -29 -114 -7 -163 25 -57 85 -123 133 -148 40 -20 71
-21 409 -20 74 0 175 1 223 1 99 0 135 16 195 84 37 42 46 70 46 146 0 69 -25
132 -72 184 -61 69 -93 84 -132 61z m87 -101 c2 -6 -8 -25 -22 -42 l-25 -30
28 -7 c17 -3 35 -18 46 -36 25 -42 8 -59 -55 -59 -35 0 -49 -4 -49 -14 0 -19
22 -26 64 -19 32 5 36 3 36 -15 0 -29 -37 -52 -83 -52 -31 0 -45 7 -68 31 -36
38 -48 92 -25 114 9 9 16 21 16 26 0 6 14 15 31 21 26 9 29 12 15 20 -20 11
-20 22 0 54 14 20 24 24 52 22 20 -2 37 -8 39 -14z m-593 -8 c47 -16 68 -50
54 -82 -17 -37 -37 -36 -75 1 -42 41 -61 41 -83 3 -14 -25 -13 -31 5 -64 27
-50 58 -63 97 -41 34 20 33 20 42 -9 4 -14 -1 -27 -20 -45 -21 -19 -36 -24
-82 -24 -89 0 -144 51 -145 134 -2 105 97 165 207 127z m401 -2 c28 -18 34
-61 10 -71 -9 -3 -24 2 -34 11 -21 19 -41 21 -41 3 0 -17 28 -43 57 -51 l23
-7 -21 -29 -22 -28 22 -30 c11 -17 21 -34 21 -40 0 -15 -31 -20 -89 -14 -62 6
-76 25 -40 53 23 18 24 19 7 51 -9 18 -17 56 -17 83 -1 44 2 52 26 67 36 21
68 22 98 2z m-180 -79 c25 -24 25 -28 29 -147 1 -21 -5 -23 -69 -29 -81 -7
-110 1 -118 32 -9 33 7 54 51 67 43 13 62 39 35 49 -9 4 -21 -1 -29 -11 -16
-23 -49 -17 -49 9 0 24 56 55 98 55 16 0 38 -10 52 -25z"/>
<path d="M2006 4373 c-12 -12 -6 -33 9 -33 8 0 15 6 15 14 0 17 -14 28 -24 19z"/>
<path d="M3555 4432 c-35 -12 -72 -42 -99 -81 -24 -35 -26 -45 -26 -149 0
-104 2 -115 26 -151 14 -22 44 -52 66 -68 l41 -28 235 -2 c182 -1 237 -5 244
-15 14 -21 0 -118 -22 -148 -11 -16 -20 -32 -20 -37 0 -4 -27 -46 -60 -93
-101 -144 -138 -225 -186 -409 -19 -70 -8 -103 54 -163 55 -54 115 -86 174
-94 37 -5 49 -2 85 24 22 17 62 60 88 96 26 36 52 66 58 66 7 0 23 -17 37 -38
37 -55 100 -122 131 -138 53 -27 162 8 232 75 73 69 80 103 46 229 -27 100
-82 224 -129 287 -37 50 -74 109 -125 199 -32 56 -36 118 -9 147 27 30 88 45
122 30 16 -8 82 -14 167 -16 161 -4 172 0 240 82 40 48 40 48 38 127 -3 85
-12 101 -92 171 l-34 30 -451 1 -451 0 -52 28 c-40 22 -59 27 -85 22 -87 -18
-96 -18 -136 3 -41 21 -70 24 -107 13z m110 -112 c18 -20 18 -21 -3 -41 -18
-16 -22 -31 -22 -83 0 -67 14 -92 43 -80 9 3 19 14 22 25 9 27 33 24 41 -6 3
-14 10 -22 15 -19 10 6 5 139 -6 167 -10 24 4 36 47 43 25 4 39 1 52 -11 16
-16 16 -19 1 -35 -11 -12 -13 -20 -6 -25 6 -3 11 -35 11 -71 0 -35 6 -73 13
-84 10 -17 9 -22 -3 -30 -16 -10 -347 -7 -357 4 -4 3 4 20 16 37 20 27 23 40
19 92 -4 48 -9 64 -26 75 -20 13 -20 15 -5 38 13 21 23 24 73 24 44 0 61 -4
75 -20z m389 -76 c9 -8 16 -26 16 -40 0 -31 18 -31 30 0 13 35 49 56 97 56 50
0 79 -25 89 -76 13 -68 -24 -115 -97 -122 -41 -4 -51 -1 -73 22 -15 14 -29 39
-32 56 -6 26 -11 30 -39 30 -25 0 -34 5 -38 22 -6 21 -7 21 -25 4 -39 -35 -1
-81 57 -70 37 8 42 -11 11 -44 -30 -32 -89 -30 -129 5 -26 23 -31 35 -31 71 0
62 40 102 104 102 27 0 51 -6 60 -16z m440 -9 c12 -47 -4 -61 -66 -56 -35 3
-36 -13 -4 -60 32 -46 20 -59 -51 -59 -64 0 -75 16 -48 67 18 32 18 36 2 63
-35 58 -25 65 95 67 62 1 67 -1 72 -22z m181 -2 l26 -28 20 28 c19 24 27 27
79 27 48 0 61 -4 70 -19 15 -29 13 -37 -17 -50 l-28 -13 28 -20 c33 -24 34
-44 5 -75 -30 -33 -106 -32 -144 0 -31 27 -26 47 12 47 29 0 30 7 3 40 -19 22
-22 23 -30 7 -7 -12 -23 -17 -58 -17 -57 0 -67 -7 -44 -32 12 -14 24 -17 50
-12 26 5 33 3 33 -9 0 -44 -91 -65 -138 -32 -45 32 -45 114 0 162 32 34 98 32
133 -4z m-453 -326 c-3 -52 13 -64 23 -18 8 37 53 70 66 50 13 -21 11 -39 -5
-45 -8 -3 -17 -16 -20 -29 -6 -25 -31 -35 -86 -35 -49 0 -78 26 -82 75 -2 34
0 40 16 40 13 0 23 -12 32 -35 7 -19 13 -28 15 -20 3 22 6 43 8 58 0 8 9 12
19 10 14 -3 16 -13 14 -51z m-27 -124 c13 -17 14 -17 32 0 11 9 34 17 53 17
32 0 33 0 27 -40 -4 -31 -1 -40 12 -45 19 -6 51 -55 51 -78 0 -8 -8 -18 -17
-22 -18 -7 -2 -19 72 -53 29 -14 58 -49 51 -61 -5 -7 -29 -8 -67 -4 -49 5 -63
3 -79 -12 -21 -19 -27 -45 -10 -45 5 0 13 6 17 14 4 7 34 16 65 20 53 6 59 4
83 -21 14 -16 28 -39 31 -53 3 -14 11 -38 19 -53 19 -37 19 -81 0 -97 -8 -7
-15 -18 -15 -25 0 -7 -15 -18 -32 -25 -33 -12 -33 -12 -10 -23 20 -9 26 -7 47
19 13 16 24 35 25 42 0 24 21 12 37 -23 15 -32 15 -36 -1 -54 -9 -10 -32 -22
-49 -25 -18 -4 -53 -17 -79 -30 -43 -21 -54 -21 -85 -2 -1 1 -4 13 -8 28 -6
22 -2 29 22 41 20 11 24 17 13 20 -8 3 -23 8 -32 11 -10 3 -27 27 -38 53 -12
26 -29 63 -37 81 -13 26 -14 37 -5 58 18 37 15 46 -8 34 -29 -15 -38 14 -17
54 9 17 19 47 23 68 5 30 2 38 -15 47 -17 10 -21 21 -21 63 0 48 -19 88 -41
88 -15 0 -36 -57 -27 -74 12 -21 -19 -87 -43 -93 -13 -4 -16 -10 -9 -22 20
-38 40 -90 40 -104 0 -8 -7 -20 -15 -27 -8 -7 -15 -29 -15 -49 0 -20 -9 -53
-20 -74 -11 -20 -20 -45 -20 -56 0 -21 -20 -41 -59 -57 l-26 -11 28 -8 c32 -9
35 -32 7 -68 l-20 -25 -77 31 c-144 56 -150 62 -103 109 21 20 30 39 30 61 0
18 6 44 14 59 8 15 17 42 21 60 4 18 14 38 23 44 9 6 15 25 14 44 -1 35 28 69
60 70 10 0 22 9 28 21 6 11 19 19 28 18 32 -3 34 1 12 19 -22 18 -22 19 -5 55
9 20 26 39 36 42 14 5 18 12 13 31 -3 13 -4 31 0 39 7 21 56 19 71 -2z"/>
<path d="M4167 4203 c-13 -12 -7 -60 8 -73 19 -16 45 -6 45 18 0 21 -43 66
-53 55z"/>
<path d="M4585 4209 c-10 -15 1 -23 20 -15 9 3 13 10 10 16 -8 13 -22 13 -30
-1z"/>
<path d="M3992 3493 c-25 -10 1 -23 48 -23 40 0 51 -4 61 -21 8 -15 14 -18 22
-10 8 8 4 18 -13 36 -18 19 -33 25 -64 24 -23 0 -47 -3 -54 -6z"/>
<path d="M3976 3385 c-24 -36 -7 -65 39 -65 25 0 37 6 46 21 10 19 7 25 -17
45 -37 30 -48 30 -68 -1z"/>
<path d="M4382 3385 c-20 -20 -22 -27 -12 -44 15 -29 72 -29 92 1 13 19 12 23
-8 45 -26 28 -42 28 -72 -2z"/>
<path d="M3890 3222 c0 -16 48 -54 59 -47 16 9 13 25 -4 25 -9 0 -18 7 -21 15
-6 16 -34 21 -34 7z"/>
<path d="M1625 4018 c-11 -6 -29 -19 -40 -28 -11 -10 -38 -23 -59 -30 -49 -16
-121 -81 -148 -135 -12 -22 -24 -67 -27 -100 -6 -55 -9 -61 -46 -86 -22 -15
-40 -34 -40 -43 0 -8 -10 -24 -23 -36 -12 -11 -22 -27 -22 -34 0 -8 -9 -20
-20 -27 -19 -13 -19 -19 -9 -79 20 -126 64 -224 136 -303 43 -48 40 -69 -12
-79 -22 -5 -54 -13 -72 -19 -35 -11 -57 -3 -129 46 -64 43 -95 34 -188 -53
l-59 -56 -61 66 c-86 94 -100 100 -216 106 -87 4 -104 2 -144 -18 -57 -27
-123 -100 -136 -151 -14 -49 11 -297 39 -392 23 -77 18 -84 -46 -74 -20 4 -49
1 -67 -7 -34 -14 -102 -85 -115 -119 -15 -42 -1 -95 40 -141 62 -70 91 -79
254 -79 77 -1 165 3 196 7 47 6 59 4 79 -12 l24 -19 -36 -36 c-45 -44 -62 -95
-55 -157 6 -52 -5 -97 -48 -200 -23 -56 -27 -75 -23 -135 5 -76 21 -115 70
-170 50 -57 76 -66 209 -70 l120 -4 67 -45 c53 -36 76 -46 108 -46 37 0 47 6
89 51 45 48 47 53 41 92 -6 36 -1 53 40 134 42 85 45 95 34 122 -13 32 -10 83
5 88 6 2 32 -15 59 -37 l48 -40 315 0 c301 0 317 1 349 21 52 32 93 91 100
143 8 53 -5 71 -79 123 l-40 28 -231 6 c-127 3 -270 11 -319 18 -73 9 -92 9
-116 -3 -45 -24 -88 -80 -96 -126 -4 -23 -13 -44 -20 -46 -7 -3 -30 4 -51 15
-27 15 -49 19 -70 15 -41 -8 -47 3 -55 95 -6 73 -7 75 -57 123 -57 54 -77 58
-143 28 -57 -26 -69 -25 -102 5 -32 30 -35 45 -9 45 31 0 79 28 112 66 63 72
61 118 -6 193 -31 35 -57 53 -89 62 -38 11 -45 17 -45 39 0 35 34 128 53 148
15 15 19 14 44 -10 16 -14 37 -28 48 -33 11 -4 175 -10 365 -14 339 -7 346 -8
390 -31 60 -33 166 -34 225 -4 62 32 221 59 270 45 22 -6 59 -11 83 -11 l43 0
-8 -117 c-4 -65 -7 -138 -6 -163 2 -42 -1 -49 -51 -100 -83 -85 -90 -107 -56
-181 11 -25 20 -66 20 -96 0 -50 2 -53 53 -96 84 -71 116 -80 198 -56 42 13
69 1 69 -30 0 -19 -70 -91 -88 -91 -7 0 -20 -4 -30 -10 -9 -5 -55 -27 -102
-49 -112 -52 -217 -152 -279 -267 -24 -43 -61 -103 -83 -132 -22 -30 -51 -79
-66 -110 -14 -31 -42 -82 -62 -112 -52 -78 -53 -86 -25 -134 17 -30 25 -58 25
-91 0 -42 5 -52 38 -86 l38 -38 75 6 75 6 80 -65 c90 -73 152 -111 216 -133
171 -58 401 -32 541 61 105 70 215 221 233 319 3 22 15 57 26 77 15 32 16 41
6 58 -7 11 -16 20 -19 20 -11 0 -19 29 -13 45 5 12 12 10 38 -10 34 -26 46
-24 46 7 0 10 25 48 55 83 61 73 85 114 85 147 0 40 -78 143 -145 191 -23 17
-41 21 -87 19 l-59 -3 -25 57 c-18 42 -50 82 -110 142 -80 80 -100 112 -71
112 6 0 160 0 340 0 l328 -1 43 26 c53 31 63 31 122 0 44 -23 57 -25 173 -24
70 1 138 -4 154 -10 23 -9 27 -16 27 -50 0 -34 -5 -44 -36 -68 -73 -56 -101
-83 -129 -122 -36 -53 -29 -81 36 -143 43 -42 54 -48 93 -48 24 0 63 7 87 15
78 28 79 27 45 -195 -9 -58 -13 -118 -10 -135 10 -48 44 -102 87 -136 39 -32
43 -33 125 -30 48 1 96 8 111 16 57 30 131 128 131 174 0 35 27 51 86 51 68 0
120 25 168 81 56 65 49 93 -44 194 -24 25 -42 58 -50 90 -22 85 -76 187 -129
243 -28 29 -51 57 -51 62 0 12 6 13 150 10 87 -1 124 3 154 15 30 13 45 14 69
6 23 -9 44 -7 88 5 57 16 59 16 101 -6 34 -18 54 -21 95 -17 62 7 93 0 93 -20
0 -9 -17 -38 -37 -66 -36 -49 -38 -56 -42 -140 -1 -48 0 -103 3 -121 8 -43 67
-111 119 -138 36 -18 52 -20 119 -14 43 4 88 11 101 17 17 8 39 6 85 -6 41
-10 79 -13 110 -9 57 7 162 -12 162 -30 0 -14 -17 -29 -102 -94 -104 -79 -130
-126 -140 -247 -5 -51 -44 -45 -192 30 -128 64 -130 65 -210 65 -157 -1 -259
-44 -364 -154 -79 -84 -114 -140 -137 -221 -9 -33 -28 -88 -41 -122 -29 -74
-29 -84 -4 -165 15 -49 33 -79 77 -127 60 -67 101 -91 155 -91 19 0 70 -18
118 -42 l85 -43 115 0 c111 0 117 1 183 34 130 66 239 199 273 334 9 34 22 81
30 105 8 23 14 62 14 86 0 62 18 75 78 54 26 -9 66 -19 89 -23 74 -12 79 -22
38 -85 -33 -52 -35 -59 -35 -143 0 -102 9 -125 73 -184 41 -38 50 -42 120 -48
41 -4 80 -4 85 -1 6 4 119 7 252 8 l242 1 41 31 c78 60 110 163 73 235 -19 36
-89 99 -118 106 -13 2 -111 6 -219 8 -181 3 -199 5 -242 27 -26 13 -47 27 -47
32 0 12 39 33 90 49 29 9 64 32 99 66 54 52 54 52 47 100 -4 26 -10 82 -15
123 -4 41 -17 93 -28 115 -26 51 -98 146 -118 158 -24 13 -17 35 13 41 15 3
119 7 232 8 113 1 215 5 228 10 32 11 110 94 127 136 8 19 15 52 15 73 0 48
11 50 31 7 98 -204 244 -347 380 -372 52 -9 63 -28 64 -105 0 -64 2 -70 42
-118 61 -72 85 -81 223 -76 147 5 235 5 448 -2 197 -7 205 -5 275 79 56 68 53
102 -20 177 l-58 60 -215 4 c-248 6 -340 13 -340 26 0 19 163 204 199 226 21
13 52 23 74 23 53 0 124 39 180 99 62 66 77 104 77 193 0 125 -62 207 -208
275 -40 19 -96 55 -125 81 -132 119 -161 127 -487 127 -259 0 -266 -1 -329
-25 -71 -28 -164 -110 -187 -166 -9 -21 -14 -70 -14 -131 0 -54 -3 -142 -7
-195 -6 -95 -6 -97 -27 -86 -11 6 -37 26 -56 45 -46 44 -79 53 -175 51 -117
-2 -198 11 -231 37 -16 13 -26 27 -22 31 4 4 38 8 75 9 171 5 151 -1 214 64
66 67 78 104 60 177 -12 47 -73 130 -117 159 -12 8 -49 18 -81 21 -32 4 -76
16 -98 27 -22 11 -60 23 -85 26 -42 6 -45 8 -44 36 3 79 35 288 48 313 15 29
16 29 133 36 97 5 127 3 167 -10 43 -15 56 -15 100 -4 32 8 111 12 225 12 142
-1 185 2 223 16 44 15 51 15 75 2 15 -9 37 -30 48 -48 79 -126 103 -156 144
-187 26 -19 69 -41 97 -51 27 -9 62 -25 77 -37 38 -26 139 -57 189 -57 58 0
197 29 238 50 55 28 145 102 188 154 41 49 102 186 102 228 0 13 8 44 17 71
15 40 15 55 5 103 -13 64 -38 119 -84 189 -21 32 -28 51 -22 60 5 7 37 45 71
84 70 80 90 129 72 180 -8 24 -16 31 -32 29 -15 -2 -23 5 -30 27 -21 62 -143
232 -180 251 -57 30 -133 -19 -210 -136 -20 -30 -51 -75 -69 -100 -26 -37 -33
-57 -38 -114 -3 -47 -10 -71 -20 -77 -8 -4 -54 -19 -101 -33 -87 -26 -150 -65
-243 -150 l-40 -36 -116 0 c-123 0 -201 15 -273 52 -35 18 -59 21 -147 21 -78
0 -114 -5 -137 -17 -18 -9 -43 -16 -57 -16 -14 0 -51 -11 -82 -25 -59 -26 -99
-32 -109 -15 -13 22 -88 32 -144 20 -49 -11 -56 -10 -80 9 -72 58 -147 101
-188 107 -24 3 -114 5 -201 2 l-157 -4 -63 -43 c-133 -90 -195 -247 -142 -362
12 -28 20 -66 20 -104 0 -33 8 -121 17 -195 8 -74 16 -155 17 -179 1 -44 0
-45 -37 -53 -20 -4 -47 -14 -60 -22 -40 -25 -116 -29 -612 -33 -269 -2 -507
-3 -527 -4 -21 0 -62 0 -91 2 -41 1 -64 -4 -102 -25 -61 -32 -66 -32 -113 -2
-20 13 -64 30 -97 36 -33 7 -77 21 -97 31 -66 34 -106 24 -220 -53 -31 -21
-64 -38 -73 -38 -8 0 -32 11 -53 24 -21 15 -60 28 -92 32 -30 3 -75 17 -99 30
-57 31 -88 30 -166 -6 -62 -29 -68 -30 -163 -24 -66 5 -111 3 -132 -5 -23 -8
-43 -8 -64 -1 -17 5 -48 12 -68 15 -46 7 -49 25 -13 77 22 32 25 48 25 118 0
45 -4 100 -9 123 -6 23 -12 54 -16 70 -3 15 -12 27 -21 27 -19 0 -94 42 -94
53 0 4 10 11 22 16 40 15 -3 26 -118 29 l-111 4 -7 81 c-4 48 -14 92 -23 107
-23 34 -74 85 -100 99 -24 12 -107 14 -138 2 -11 -5 -33 -4 -50 2 -16 5 -72 8
-124 8 -147 -3 -193 31 -113 84 73 49 87 59 111 79 30 26 101 122 101 136 0
14 56 13 83 -1 25 -14 145 -12 204 3 32 7 51 7 75 -2 39 -15 1079 -23 1116 -9
37 14 90 61 118 103 23 35 26 47 22 101 -7 77 -26 113 -84 162 -49 39 -67 43
-179 34 -68 -5 -190 15 -225 37 -43 27 -65 27 -132 2 -73 -27 -147 -26 -206 4
-65 33 -198 32 -255 -2 -57 -33 -141 -31 -215 7 -41 21 -78 31 -132 35 -69 6
-78 4 -122 -21 -50 -30 -108 -95 -108 -122 0 -9 -7 -27 -16 -39 -8 -12 -10
-22 -5 -22 6 0 11 -5 11 -12 0 -6 7 -19 16 -29 9 -10 13 -23 9 -28 -8 -14 -35
-14 -35 -1 0 6 -9 10 -21 10 -18 0 -20 4 -15 28 3 15 3 21 0 15 -7 -15 -54
-17 -54 -3 0 6 7 13 15 16 22 9 8 24 -22 24 -33 0 -93 62 -93 97 0 14 -12 64
-27 111 -23 76 -34 94 -83 144 -59 62 -64 64 -95 46z m74 -74 c3 -3 -1 -10 -7
-16 -17 -17 -15 -76 6 -130 10 -26 21 -50 25 -54 27 -27 -30 -154 -70 -154 -9
0 -13 14 -13 43 0 27 -11 63 -31 102 -37 73 -34 116 13 181 25 35 36 43 52 38
12 -4 23 -8 25 -10z m-169 -123 c0 -21 11 -60 25 -87 14 -27 25 -57 25 -66 0
-22 -66 -92 -80 -83 -5 3 -10 26 -10 50 0 24 -6 50 -14 57 -36 36 -31 107 10
151 31 34 44 27 44 -22z m803 -132 c42 -11 72 -50 83 -106 7 -39 21 -42 33
-10 14 36 40 52 83 51 39 -1 61 -20 80 -66 9 -23 -20 -39 -63 -36 -17 2 -34
-2 -36 -8 -6 -18 27 -46 46 -39 30 12 36 10 39 -12 2 -16 -5 -25 -33 -39 -34
-16 -38 -16 -73 0 -25 12 -43 30 -56 56 -11 22 -22 40 -26 40 -3 0 -13 -15
-21 -32 -21 -48 -50 -58 -165 -58 -81 0 -103 3 -108 15 -3 9 3 19 14 25 17 9
20 21 20 91 0 62 -3 81 -15 85 -20 8 -19 31 2 43 23 12 148 12 196 0z m401
-12 c16 -12 17 -17 6 -37 -13 -24 -16 -142 -5 -160 4 -6 15 -10 27 -10 18 0
20 5 17 58 -2 31 0 62 3 68 4 6 2 25 -5 43 -14 38 -2 51 51 51 39 0 56 -27 27
-43 -16 -9 -17 -11 -3 -21 12 -9 16 -33 18 -96 2 -47 2 -91 1 -97 -1 -15 -87
-18 -96 -4 -3 6 -23 4 -49 -5 -55 -19 -96 -6 -96 30 0 13 5 26 11 28 6 2 14
27 16 55 4 41 1 56 -16 80 -34 46 -19 64 60 72 8 0 23 -5 33 -12z m463 -2 c3
-9 -2 -22 -13 -30 -19 -13 -19 -14 0 -21 16 -6 18 -14 12 -60 -3 -30 -1 -65 5
-81 l11 -28 19 38 c17 32 24 37 54 37 31 0 35 3 35 25 0 25 -23 35 -35 15 -9
-15 -55 -12 -55 3 0 33 62 61 113 52 39 -8 59 -35 62 -85 1 -19 5 -50 9 -67 7
-29 4 -34 -19 -45 -21 -9 -31 -9 -47 1 -15 9 -23 10 -31 2 -15 -15 -47 -13
-77 4 -20 11 -28 11 -40 1 -28 -24 -64 -26 -98 -6 -32 20 -32 20 -64 0 -44
-27 -57 -25 -101 11 -33 27 -37 35 -37 78 0 70 31 103 95 103 26 0 51 -5 54
-10 3 -5 16 -14 29 -21 18 -10 23 -9 28 4 4 9 2 21 -5 28 -15 15 -14 54 2 60
29 12 88 7 94 -8z m4991 -61 c2 -21 8 -43 13 -48 16 -17 10 -62 -10 -80 -25
-22 -36 -15 -46 26 l-7 33 -10 -37 c-12 -47 -30 -48 -58 -3 -29 46 -24 79 12
83 18 2 38 16 54 38 33 43 48 39 52 -12z m-4600 4 c7 -7 12 -22 12 -35 0 -18
-6 -23 -25 -23 -29 0 -34 -17 -7 -27 43 -16 45 -73 2 -103 -27 -19 -34 -20
-72 -9 -59 17 -73 31 -59 58 14 25 27 27 35 4 5 -12 10 -13 18 -5 8 8 3 18
-20 39 -61 53 -27 110 69 112 19 1 40 -4 47 -11z m-1730 -96 c2 -6 19 -14 37
-18 49 -9 105 -66 105 -107 0 -61 -150 -196 -218 -197 -10 0 -34 -16 -56 -35
l-38 -35 -111 0 c-98 0 -114 3 -143 22 -18 13 -35 29 -38 38 -3 8 -15 29 -26
45 -11 17 -22 37 -26 45 -3 8 -12 29 -19 45 -14 30 -35 181 -28 200 5 15 556
12 561 -3z m6419 -98 c8 -8 22 -14 31 -14 10 0 26 -9 36 -21 15 -18 16 -25 6
-50 -13 -30 -69 -79 -92 -79 -7 0 -26 -9 -43 -20 -32 -21 -137 -28 -163 -11
-28 17 -72 112 -79 168 l-5 42 147 -1 c113 0 152 -3 162 -14z m-296 -274 c133
-62 190 -124 122 -132 -15 -2 -32 -12 -38 -23 -5 -11 -49 -59 -97 -106 -49
-47 -88 -90 -88 -97 0 -6 11 -22 24 -36 l23 -26 26 20 c20 16 41 20 99 20 46
1 80 6 91 14 17 13 16 15 -15 22 -18 4 -66 7 -105 5 -43 -1 -73 2 -73 7 0 18
93 73 104 62 5 -5 16 -10 23 -10 18 0 16 27 -2 34 -8 3 -15 9 -15 13 0 17 73
83 91 83 12 0 19 7 19 19 0 10 7 25 16 32 14 11 19 9 34 -11 29 -39 60 -105
60 -129 0 -12 7 -33 16 -46 21 -33 15 -80 -11 -80 -12 0 -21 9 -25 25 -6 25
-6 25 -18 -8 -10 -29 -14 -32 -38 -26 -20 5 -25 3 -22 -7 3 -8 16 -14 29 -15
13 -1 30 -2 37 -3 27 -3 9 -113 -25 -149 -7 -7 -13 -19 -13 -27 0 -21 -104
-117 -152 -141 -82 -41 -97 -47 -113 -40 -19 7 -11 26 11 26 17 0 19 17 2 23
-24 7 -47 -5 -50 -27 -6 -45 -182 -28 -211 20 -4 8 -14 14 -20 14 -7 0 -27 14
-45 30 -37 34 -47 37 -56 15 -9 -25 -44 -17 -60 13 -61 112 -68 134 -60 186
l9 51 85 0 c80 -1 85 -2 88 -23 4 -27 18 -28 31 -3 10 18 96 40 108 27 4 -3
-14 -27 -38 -53 -24 -27 -54 -61 -66 -78 -19 -27 -23 -28 -48 -17 -29 13 -45
9 -45 -14 0 -9 11 -14 30 -14 33 0 35 -3 20 -31 -9 -16 -7 -19 10 -19 11 0 25
9 32 19 9 15 15 17 29 8 25 -16 37 0 13 17 -19 14 -19 15 2 38 11 13 26 30 32
38 7 8 24 28 38 44 26 29 27 29 55 14 16 -10 31 -13 34 -7 8 13 -3 29 -21 29
-17 0 -18 12 -2 28 24 24 -10 31 -182 34 -149 3 -175 5 -172 18 2 8 8 41 13
73 16 99 88 191 193 247 37 20 69 30 84 27 14 -3 26 1 29 9 8 22 112 18 164
-6z m-1787 -84 c6 -11 23 -31 37 -45 42 -41 59 -84 59 -149 0 -55 -2 -60 -24
-66 -20 -5 -26 -14 -32 -52 -4 -30 -2 -54 6 -69 7 -14 9 -31 5 -42 -4 -10 -12
-58 -16 -108 -13 -131 -24 -192 -36 -207 -7 -7 -15 -37 -19 -66 l-7 -52 -193
0 -193 0 -7 48 c-3 26 -10 52 -14 57 -18 22 -36 125 -39 210 -2 62 -8 98 -19
118 -16 27 -16 29 1 41 33 25 15 110 -28 126 -20 7 -25 16 -25 42 0 75 13 110
56 157 24 25 50 54 59 64 15 17 34 18 217 15 187 -3 202 -4 212 -22z m-5481
-60 c30 -28 56 -84 49 -106 -2 -8 -16 -27 -30 -42 -23 -26 -24 -29 -9 -45 13
-16 14 -21 2 -43 -8 -14 -14 -51 -15 -83 0 -32 -7 -80 -16 -108 l-16 -49 -103
0 c-85 0 -104 3 -109 16 -3 9 -3 20 0 26 3 5 -1 17 -9 26 -15 17 -28 126 -27
220 1 23 -4 42 -9 42 -19 0 -32 40 -25 76 3 19 20 48 36 64 29 30 31 30 142
30 106 0 115 -2 139 -24z m6170 18 c40 -7 48 -26 23 -60 -18 -24 -4 -44 31
-44 27 0 42 25 24 43 -16 16 -13 54 5 61 9 3 36 6 60 6 56 0 63 -16 35 -70
-28 -53 -28 -117 0 -146 14 -15 19 -29 14 -43 -5 -18 -14 -21 -66 -21 -59 0
-59 0 -59 29 0 17 5 33 10 36 6 3 10 17 10 31 0 23 -3 25 -37 22 -43 -3 -54
-25 -28 -52 9 -9 15 -26 13 -38 -3 -20 -10 -23 -55 -26 -44 -3 -53 0 -63 18
-8 16 -7 25 5 42 16 24 21 133 6 142 -5 3 -12 18 -15 32 -11 41 11 50 87 38z
m-5806 -43 c10 -11 26 -37 37 -58 10 -21 25 -50 32 -65 8 -14 14 -31 14 -37 0
-7 10 -25 21 -41 35 -46 21 -62 -53 -58 -62 3 -63 4 -60 30 2 20 -2 28 -18 33
-28 9 -48 -10 -43 -39 4 -21 0 -25 -36 -31 -47 -8 -81 1 -81 20 0 7 14 26 30
42 17 15 30 34 30 41 0 7 6 23 14 35 8 12 19 47 26 77 7 30 18 58 24 62 19 13
45 9 63 -11z m591 11 c10 -7 11 -32 7 -105 -5 -89 -4 -97 15 -107 33 -18 43
-3 36 51 -6 45 -4 52 20 74 21 20 39 25 80 27 30 1 62 2 72 2 24 1 20 -44 -8
-89 -16 -25 -29 -35 -47 -35 -22 0 -24 3 -19 25 7 28 -10 69 -25 60 -5 -4 -9
-31 -9 -61 l0 -54 55 0 c49 0 57 -3 65 -24 22 -59 -23 -99 -112 -99 -48 0 -60
3 -77 24 -17 21 -18 26 -5 41 20 22 -1 35 -22 14 -18 -18 -109 -22 -119 -6 -4
7 -11 7 -18 2 -7 -5 -58 -9 -115 -10 -84 0 -104 2 -109 15 -5 13 -7 13 -15 -1
-6 -11 -23 -16 -54 -16 -52 0 -65 17 -40 55 18 27 22 85 6 85 -5 0 -10 9 -10
20 0 32 83 66 92 38 4 -10 14 -9 46 1 37 13 44 12 60 -2 23 -21 36 -21 52 -2
16 19 44 19 64 -1 11 -10 16 -34 16 -74 0 -64 9 -77 40 -60 24 13 27 62 5 80
-22 18 -18 37 8 44 l22 7 -23 11 c-32 16 -27 60 8 69 35 10 43 10 58 1z m5070
-1 c9 -6 13 -27 11 -69 -1 -33 2 -67 8 -74 19 -24 20 -52 1 -90 -15 -31 -24
-38 -47 -38 -23 0 -31 6 -40 30 -9 28 -13 30 -64 30 -45 0 -57 -4 -69 -22 -14
-20 -18 -21 -43 -10 -20 9 -48 11 -92 6 -58 -6 -63 -5 -63 13 0 10 20 40 45
67 50 53 50 71 -1 61 -25 -4 -36 -2 -40 9 -10 25 14 52 61 70 51 20 85 16 115
-14 28 -28 25 -54 -11 -95 -36 -41 -29 -56 18 -43 22 6 46 27 77 67 44 56 100
111 114 111 4 0 13 -4 20 -9z m452 -41 c0 -5 7 -10 15 -10 8 0 15 5 15 10 0
20 40 9 57 -16 23 -36 7 -59 -43 -60 -34 0 -39 -3 -42 -25 -2 -14 4 -32 12
-39 9 -7 16 -23 16 -37 0 -23 -2 -24 -62 -21 -70 3 -68 0 -52 89 3 20 1 46 -5
57 -9 17 -7 24 15 41 28 22 74 29 74 11z m253 -10 c21 -25 14 -40 -18 -40 -30
0 -42 -18 -18 -27 45 -17 55 -64 21 -100 -43 -46 -156 -18 -146 35 3 13 12 16
42 14 26 -3 36 0 32 7 -4 6 -14 11 -21 11 -33 0 -45 62 -19 98 21 31 101 32
127 2z m-5346 -32 c34 -39 47 -84 34 -117 -29 -69 -125 -95 -172 -45 -19 20
-24 36 -24 76 0 45 4 53 35 79 44 37 97 39 127 7z m216 -2 c14 -21 14 -26 2
-36 -9 -7 -26 -9 -41 -6 -19 5 -25 3 -22 -6 3 -7 13 -15 23 -17 19 -3 54 -39
55 -54 0 -5 -9 -22 -21 -38 -18 -26 -26 -29 -71 -29 -56 0 -88 19 -88 53 0 16
5 18 25 13 44 -11 47 4 10 40 l-37 34 22 35 c20 33 25 35 75 35 45 0 55 -4 68
-24z m262 -277 c3 -4 19 -2 34 4 15 6 36 7 45 4 15 -6 17 -15 11 -57 -6 -41
-4 -51 9 -56 31 -12 56 -127 32 -151 -3 -3 -6 -14 -6 -24 0 -31 -35 -39 -174
-39 l-134 0 -21 34 c-32 52 -29 119 10 167 26 33 29 43 23 75 -4 24 -3 39 6
44 14 9 156 8 165 -1z m-1930 -263 c0 -38 4 -61 13 -63 8 -3 12 5 12 24 0 39
9 49 52 56 26 4 40 1 49 -9 10 -13 14 -13 29 1 9 8 33 15 54 15 l37 0 -3 -62
-3 -63 -40 -3 c-53 -3 -74 10 -58 37 15 24 7 31 -29 24 -21 -4 -26 -10 -25
-32 l2 -26 -125 0 c-106 0 -129 -3 -153 -19 -26 -18 -29 -18 -46 -2 -11 10
-34 17 -52 17 -161 -2 -196 6 -151 36 27 19 28 29 2 36 -26 7 -25 22 1 48 15
15 30 19 62 17 38 -3 42 -6 45 -31 2 -16 -1 -34 -8 -41 -8 -10 -6 -15 6 -20
18 -7 48 19 79 67 27 42 60 34 61 -16 0 -40 15 -64 33 -53 16 10 13 72 -4 86
-34 29 -14 37 90 36 l70 -1 0 -59z m1691 -197 c5 -8 31 -10 85 -6 71 6 80 4
92 -14 12 -16 16 -17 26 -5 17 20 58 28 81 16 24 -13 25 -23 5 -44 -9 -9 -11
-17 -5 -21 5 -3 10 -37 10 -75 0 -51 4 -69 15 -74 20 -7 19 -32 -1 -40 -23 -9
-97 -7 -112 2 -10 7 -9 16 2 44 11 24 13 52 9 87 -6 53 -11 59 -31 39 -9 -9
-16 -7 -32 7 -31 28 -43 8 -38 -66 3 -42 10 -66 21 -74 41 -30 13 -45 -83 -45
-77 0 -106 17 -71 42 20 14 40 79 41 130 0 22 -4 26 -17 21 -10 -3 -26 -13
-36 -21 -41 -36 -56 49 -15 88 24 22 43 26 54 9z m985 -110 c-3 -109 6 -141
30 -97 15 29 28 38 56 38 28 0 50 37 33 54 -8 8 -15 6 -25 -7 -14 -19 -46 -20
-51 -2 -8 25 27 48 78 52 71 6 92 -10 93 -69 1 -25 7 -59 15 -77 10 -26 11
-34 1 -41 -7 -4 -98 -7 -202 -6 l-189 1 -25 30 c-28 35 -32 80 -9 115 25 37
45 50 76 50 25 0 28 3 22 25 -5 21 -2 25 23 30 15 4 33 8 38 10 36 13 40 2 36
-106z m548 97 c8 -10 9 -26 2 -57 -16 -66 -14 -134 4 -149 20 -17 19 -38 -2
-43 -27 -8 -168 -6 -179 1 -22 16 -44 64 -44 96 0 48 46 96 93 96 31 0 34 2
30 24 -4 21 0 26 28 35 48 13 55 13 68 -3z m1775 -9 c8 -13 8 -20 -3 -26 -9
-6 -11 -15 -6 -27 4 -11 9 -44 10 -74 2 -30 5 -68 7 -85 l3 -30 -110 -1 c-60
-1 -117 2 -126 7 -9 5 -20 4 -26 -2 -6 -6 -30 -9 -54 -7 -40 3 -44 5 -41 28 2
14 3 55 3 91 l0 67 36 5 c20 4 43 3 51 -2 8 -5 27 -4 43 2 20 8 35 8 53 -1 22
-10 25 -18 28 -74 3 -56 5 -63 25 -66 29 -4 40 36 23 78 -7 16 -9 41 -6 55 4
14 2 25 -4 25 -5 0 -10 9 -10 20 0 39 82 52 104 17z m775 4 c8 -14 7 -22 -4
-31 -12 -10 -13 -16 -4 -26 7 -9 10 -34 7 -63 -6 -62 2 -77 31 -62 11 7 21 16
21 21 0 6 13 10 28 10 30 0 52 16 52 37 0 16 -32 17 -47 2 -13 -13 -43 -5 -43
11 0 27 41 50 88 50 26 0 52 -4 59 -8 17 -11 34 -62 28 -82 -3 -9 2 -31 11
-49 24 -49 9 -60 -84 -59 -42 0 -85 5 -95 10 -12 6 -23 6 -32 -2 -7 -6 -35
-10 -62 -8 -42 3 -48 6 -51 27 -2 13 1 28 7 34 17 17 13 64 -5 71 -10 4 -23
-3 -34 -16 l-18 -23 -29 28 c-33 30 -43 27 -43 -14 0 -33 30 -54 62 -43 24 7
38 -9 31 -36 -5 -20 -31 -30 -76 -30 -42 0 -61 14 -82 60 -18 40 -18 42 3 85
16 33 28 45 52 50 48 10 96 -2 107 -28 l11 -22 12 26 c9 21 9 31 0 49 -13 24
-6 35 25 43 42 10 65 6 74 -12z m1271 -11 c0 -5 -7 -10 -15 -10 -8 0 -15 5
-15 10 0 6 7 10 15 10 8 0 15 -4 15 -10z m-4879 -51 c23 -12 41 -52 33 -74 -4
-10 -20 -15 -50 -15 -37 0 -44 -3 -44 -19 0 -24 32 -36 58 -22 22 12 32 5 32
-20 0 -23 -29 -39 -74 -39 -49 0 -63 7 -87 46 -26 42 -20 89 16 128 26 28 79
35 116 15z m148 2 c7 -5 25 -4 41 2 21 8 36 8 54 -1 24 -11 26 -17 26 -76 0
-44 5 -67 15 -76 12 -10 13 -16 4 -26 -13 -16 -86 -19 -109 -4 -9 5 -19 5 -26
-1 -7 -6 -32 -9 -56 -7 -39 3 -43 5 -40 28 2 14 3 55 3 92 0 61 2 67 22 71 38
7 52 7 66 -2z m1096 1 c20 -14 46 -64 41 -78 -4 -10 -22 -14 -61 -14 -42 0
-55 -4 -55 -15 0 -22 38 -39 56 -25 31 27 61 -19 32 -48 -13 -13 -106 -16
-124 -4 -17 11 -44 68 -44 92 0 28 26 77 47 89 21 12 93 14 108 3z m293 -1 c7
-4 17 -24 21 -44 8 -32 6 -36 -16 -40 -18 -3 -28 2 -40 19 -12 19 -19 22 -29
13 -38 -31 0 -84 53 -74 28 5 33 3 33 -13 0 -35 -35 -55 -88 -50 -64 6 -95 36
-96 92 -1 43 25 91 54 99 27 8 95 7 108 -2z m201 -1 c10 -5 26 -27 35 -49 14
-35 14 -44 1 -75 -19 -45 -50 -66 -98 -66 -51 0 -74 14 -92 55 -28 67 24 145
97 145 22 0 47 -4 57 -10z m265 0 c5 -5 36 -138 39 -170 2 -13 -18 -15 -116
-16 -134 -2 -141 2 -112 63 16 34 16 38 0 65 -20 35 -14 55 17 60 34 5 166 4
172 -2z m154 -28 c4 -44 36 -41 37 3 0 27 3 30 38 33 50 4 56 -16 17 -57 -16
-18 -30 -39 -30 -45 0 -7 -9 -31 -20 -54 -28 -58 -59 -58 -84 1 -26 63 -47
101 -64 114 -8 7 -12 19 -8 28 4 12 17 15 58 13 52 -3 53 -4 56 -36z m273 27
c23 -12 41 -52 33 -74 -4 -10 -20 -15 -50 -15 -37 0 -44 -3 -44 -19 0 -24 32
-36 58 -22 22 12 32 5 32 -20 0 -25 -30 -39 -84 -39 -36 0 -50 5 -71 27 -41
45 -30 117 23 161 19 15 76 16 103 1z m595 -16 c21 -23 27 -25 34 -13 6 8 10
18 10 21 0 11 73 19 84 10 6 -5 20 -5 31 0 61 24 95 -1 95 -70 0 -26 5 -52 11
-58 6 -6 9 -21 7 -34 -3 -24 -5 -24 -116 -26 -129 -2 -136 3 -107 68 14 30 15
43 7 51 -9 9 -16 7 -30 -5 -11 -10 -35 -17 -60 -17 -22 0 -44 -5 -47 -11 -11
-17 27 -39 58 -33 24 5 27 3 27 -19 0 -14 -7 -28 -16 -31 -24 -9 -83 -7 -104
4 -25 13 -43 73 -36 115 14 72 104 100 152 48z m1922 -5 c24 -11 59 -35 79
-54 32 -31 35 -37 28 -71 -4 -21 -7 -42 -8 -48 -1 -6 27 -9 73 -7 104 5 131
-3 179 -48 40 -38 41 -41 41 -105 0 -59 -3 -70 -32 -109 -27 -35 -44 -46 -91
-60 -34 -10 -70 -15 -87 -11 -34 7 -120 -4 -120 -15 0 -5 -16 -36 -36 -70 -43
-72 -123 -160 -146 -160 -8 0 -21 -7 -28 -15 -7 -8 -20 -15 -29 -15 -10 0 -26
-7 -37 -15 -13 -10 -45 -14 -101 -15 -77 0 -97 5 -163 42 -8 4 -24 12 -35 17
-29 13 -130 125 -154 172 -12 22 -21 50 -21 63 0 13 -6 29 -14 35 -9 7 -16 40
-19 89 -2 42 -10 128 -17 190 -15 134 -11 143 77 194 71 41 144 48 428 41 166
-4 196 -7 233 -25z m122 6 c0 -16 -16 -19 -25 -4 -8 13 4 32 16 25 5 -4 9 -13
9 -21z m-840 6 c0 -5 -7 -10 -15 -10 -8 0 -15 5 -15 10 0 6 7 10 15 10 8 0 15
-4 15 -10z m-6236 -40 c27 -10 34 -38 15 -57 -15 -15 -21 -161 -7 -169 17 -11
48 -94 48 -130 0 -23 5 -34 15 -34 8 0 17 -12 21 -27 3 -16 7 -32 10 -38 6
-16 -4 136 -11 177 -6 30 -3 43 19 71 20 26 26 45 26 85 0 28 -4 54 -10 57 -5
3 -10 17 -10 29 0 32 45 51 91 38 l34 -8 0 -102 c0 -86 3 -103 18 -114 18 -13
25 -69 15 -123 -2 -17 3 -21 33 -23 29 -2 39 2 53 23 9 14 16 41 14 60 -3 44
10 57 50 49 43 -9 42 -39 -2 -79 -38 -34 -36 -45 9 -60 35 -12 47 -51 19 -62
-10 -3 -35 -24 -56 -46 -30 -32 -38 -47 -38 -77 0 -21 -3 -45 -6 -53 -3 -10 3
-17 20 -21 19 -5 26 -13 26 -30 0 -36 -22 -47 -82 -44 -47 3 -53 6 -56 27 -3
16 4 30 18 41 19 14 20 22 14 68 -8 64 -24 68 -24 7 0 -25 -3 -45 -7 -45 -5 0
-44 -2 -88 -4 -44 -3 -82 0 -86 5 -3 5 -1 32 5 59 11 53 6 66 -19 57 -9 -4
-15 -19 -15 -36 0 -16 -8 -43 -17 -60 -17 -30 -21 -31 -83 -31 -68 0 -90 10
-90 41 0 9 -7 19 -15 23 -8 3 -15 16 -15 30 0 14 -4 28 -10 31 -13 8 -13 102
0 110 6 3 10 15 10 27 0 11 9 31 20 45 11 14 20 34 20 44 0 9 5 19 11 21 8 3
11 44 11 122 0 111 2 118 22 126 29 12 50 12 80 0z m677 -100 c6 0 9 -25 7
-57 -3 -57 -3 -58 26 -61 28 -3 28 -3 22 33 -9 46 16 94 40 74 8 -6 14 -27 14
-45 0 -34 0 -34 20 -14 23 23 72 26 90 5 11 -13 14 -13 27 0 19 19 62 19 69 0
5 -13 8 -13 27 0 26 18 78 20 95 3 9 -9 15 -9 24 0 16 16 43 15 61 -3 13 -13
16 -13 21 0 7 20 92 21 99 1 3 -7 1 -18 -5 -24 -7 -7 -6 -17 1 -30 9 -17 7
-25 -11 -42 -26 -23 -66 -26 -74 -5 -8 20 -24 19 -39 -2 -11 -15 -17 -15 -39
-5 -15 7 -32 26 -38 42 -13 39 -32 34 -38 -11 -6 -39 -34 -51 -55 -22 -13 17
-14 17 -45 0 -29 -17 -33 -18 -49 -3 -22 20 -30 20 -51 1 -15 -14 -21 -14 -52
-1 -26 11 -38 12 -46 4 -6 -6 -46 -13 -89 -15 l-78 -4 -1 90 c-1 93 5 106 44
95 8 -2 18 -4 23 -4z m6599 -10 c0 -5 -9 -10 -20 -10 -11 0 -20 5 -20 10 0 6
9 10 20 10 11 0 20 -4 20 -10z m-3807 -127 c26 -24 22 -70 -9 -98 -41 -38 -85
-31 -118 20 -15 23 -15 28 -1 56 26 50 85 60 128 22z m3937 -3 c0 -16 -4 -30
-10 -30 -5 0 -10 14 -10 30 0 17 5 30 10 30 6 0 10 -13 10 -30z m-2421 -20
c29 0 32 -2 21 -16 -34 -39 -149 -56 -182 -26 -10 8 -18 18 -18 22 0 17 49 29
95 25 28 -3 65 -5 84 -5z m475 -10 c14 -13 -2 -29 -42 -40 -56 -15 -97 -12
-123 9 -21 17 -22 21 -9 36 12 14 25 16 90 10 41 -4 79 -10 84 -15z m706 -54
c0 -8 -4 -18 -10 -21 -5 -3 -10 3 -10 14 0 12 5 21 10 21 6 0 10 -6 10 -14z
m-4268 -37 c79 -26 110 -42 145 -75 15 -14 41 -37 56 -50 17 -14 30 -38 34
-59 5 -34 4 -35 -25 -35 -23 0 -31 -5 -36 -24 -3 -13 -16 -30 -28 -38 -13 -9
-61 -52 -108 -97 -66 -63 -91 -81 -110 -79 -24 3 -25 7 -32 85 -3 44 -11 98
-17 120 -6 21 -11 71 -11 111 l0 72 49 0 c28 0 52 -4 55 -9 4 -5 27 -20 54
-32 26 -13 52 -28 57 -34 11 -13 61 -45 70 -45 3 0 5 5 5 11 0 18 -38 50 -90
76 -8 4 -21 13 -28 20 -7 7 -21 13 -30 13 -9 0 -26 7 -36 15 -11 9 -41 15 -68
15 -49 0 -56 7 -42 44 9 22 62 20 136 -5z m1701 6 c20 -8 50 -15 67 -15 50 0
76 -26 124 -124 50 -102 53 -111 32 -132 -30 -30 -56 -13 -88 59 -45 99 -51
106 -89 121 -44 18 -89 21 -89 7 0 -6 29 -53 65 -106 36 -53 65 -99 65 -101 0
-7 44 -68 55 -76 6 -4 55 -8 109 -8 78 0 103 -4 118 -17 23 -21 23 -34 -1 -60
-21 -22 -29 -22 -195 -3 -86 11 -88 12 -135 100 -42 80 -71 98 -71 45 0 -13
-6 -39 -14 -57 -31 -75 -46 -136 -46 -190 0 -32 4 -58 8 -58 5 0 18 14 30 30
28 37 58 38 95 5 35 -33 36 -75 2 -110 -14 -14 -32 -25 -40 -25 -29 0 -64 20
-70 39 -9 31 -19 26 -39 -19 -20 -45 -33 -49 -63 -20 -23 21 -23 19 3 209 8
57 21 113 29 125 8 11 15 30 15 42 0 12 7 27 15 34 18 15 20 54 3 68 -7 6 -22
31 -33 56 -24 56 -43 58 -115 16 -28 -16 -55 -30 -60 -30 -5 0 -36 -14 -69
-32 -59 -31 -61 -31 -81 -13 -32 29 -22 57 30 82 121 58 178 83 188 83 6 0 26
6 44 14 18 8 40 17 48 20 8 4 33 17 55 31 48 29 52 29 98 10z m3807 -20 c0
-14 -4 -25 -10 -25 -5 0 -10 11 -10 25 0 14 5 25 10 25 6 0 10 -11 10 -25z
m-2698 6 c15 -1 39 -14 57 -32 28 -27 31 -37 31 -91 0 -45 -5 -66 -21 -86 -41
-52 -67 -62 -166 -62 -84 0 -92 2 -98 21 -4 12 -1 27 8 37 20 22 27 136 9 154
-12 12 -17 50 -7 59 4 4 44 4 187 0z m536 -102 c1 -57 7 -108 12 -113 6 -6 10
-20 10 -33 0 -21 -4 -23 -54 -23 -30 0 -58 5 -62 11 -4 8 -9 8 -17 0 -6 -6
-35 -11 -63 -11 -44 0 -54 3 -59 20 -3 11 -11 20 -16 20 -5 0 -14 -9 -21 -20
-18 -28 -93 -27 -127 1 -20 16 -24 29 -24 76 0 51 3 59 32 85 18 16 43 28 59
28 36 0 82 -46 82 -83 0 -24 -3 -27 -37 -27 -44 0 -73 -14 -58 -29 6 -5 37
-11 70 -13 l60 -3 3 69 c2 55 0 72 -13 78 -42 24 12 73 72 66 l28 -3 -4 -97
c-2 -73 0 -102 11 -117 15 -21 15 -21 28 4 8 16 11 40 6 74 -6 46 -5 50 16 57
l23 7 -22 10 c-23 10 -29 32 -15 53 7 12 47 23 67 19 6 -1 11 -47 13 -106z
m330 6 c3 -130 5 -134 42 -97 30 31 38 52 20 52 -5 0 -10 11 -10 24 0 50 92
75 138 37 18 -16 22 -29 22 -74 l0 -56 43 1 c58 0 62 5 27 38 -36 33 -38 55
-8 87 29 31 105 33 131 2 26 -30 15 -49 -28 -49 -22 0 -34 -4 -30 -10 3 -5 13
-10 21 -10 18 0 53 -39 54 -59 0 -8 -10 -25 -22 -38 -17 -18 -32 -23 -75 -23
-29 0 -53 4 -53 9 0 18 -42 24 -51 8 -11 -18 -143 -21 -171 -3 -13 8 -21 7
-30 -2 -14 -14 -104 -16 -113 -3 -3 5 0 30 7 55 9 35 9 50 -1 73 l-13 28 -14
-28 c-17 -32 -39 -35 -56 -7 -24 39 -54 13 -42 -35 7 -27 34 -40 64 -30 30 9
38 -21 12 -46 -14 -12 -35 -19 -61 -19 -34 0 -44 6 -70 37 -35 42 -39 77 -14
113 44 63 92 76 143 38 26 -19 33 -20 57 -9 l28 13 -22 11 c-36 16 -28 60 12
70 57 15 60 10 63 -98z m1802 31 c0 -8 -4 -18 -10 -21 -5 -3 -10 3 -10 14 0
12 5 21 10 21 6 0 10 -6 10 -14z m-5662 -52 c36 -25 26 -57 -21 -65 -67 -11
-149 -61 -229 -140 -59 -58 -78 -83 -78 -103 0 -20 -8 -31 -31 -44 -17 -9 -53
-34 -80 -54 -42 -33 -48 -42 -44 -69 2 -17 9 -37 16 -46 8 -8 13 -42 14 -76 0
-67 11 -79 50 -53 13 9 31 16 40 16 16 0 21 25 6 34 -12 8 -20 146 -10 172 4
13 23 27 43 34 29 9 41 8 70 -5 46 -22 60 -61 38 -107 -14 -28 -23 -34 -55
-36 -35 -3 -38 -6 -33 -25 3 -12 6 -32 6 -44 0 -21 5 -23 53 -23 l53 0 12 70
c7 39 12 88 12 110 0 28 5 43 16 47 32 12 42 -45 27 -166 -5 -41 -11 -55 -25
-59 -45 -11 -6 -27 78 -32 49 -3 99 -11 111 -18 12 -7 48 -12 81 -12 33 0 79
-7 102 -15 53 -19 99 -19 124 0 11 8 32 15 46 15 17 0 39 14 67 43 60 62 67
81 53 133 -12 42 -10 88 5 127 7 16 5 16 -26 -2 -46 -28 -42 -27 -151 -44 -90
-13 -100 -13 -150 4 -36 12 -67 16 -97 12 -34 -5 -45 -3 -53 10 -7 13 -23 17
-66 17 -32 0 -63 5 -69 11 -6 6 -36 13 -66 14 -30 2 -69 10 -85 19 -17 9 -38
16 -47 16 -9 0 -15 6 -12 13 4 13 26 13 150 -1 44 -5 82 -13 85 -19 4 -6 33
-13 64 -17 31 -4 62 -14 69 -22 10 -12 32 -15 93 -14 45 1 93 -2 109 -5 31 -8
87 11 87 30 0 7 -7 18 -15 25 -8 7 -15 21 -15 30 0 10 -8 32 -17 49 -18 31
-18 31 12 56 34 27 55 31 73 13 10 -10 14 -10 21 0 4 8 28 16 52 19 24 3 58
11 76 19 17 8 41 14 52 14 12 0 24 7 27 15 4 8 15 15 25 15 28 0 27 -92 -1
-120 -12 -12 -18 -25 -14 -31 8 -13 64 -2 85 17 8 8 28 14 42 14 62 0 10 -84
-136 -218 -43 -40 -47 -48 -47 -91 0 -38 -6 -53 -30 -79 -16 -18 -30 -36 -30
-40 -1 -4 -9 -25 -20 -47 -11 -22 -19 -44 -20 -49 0 -14 -103 -146 -113 -146
-5 0 -26 -14 -47 -30 -55 -44 -118 -60 -255 -67 -170 -8 -260 19 -372 112 -7
5 -19 16 -27 23 -8 6 -29 12 -45 12 -17 0 -38 9 -48 19 -16 16 -28 18 -90 14
-53 -4 -73 -10 -73 -19 0 -8 -11 -14 -25 -14 -22 0 -25 4 -25 34 0 18 7 39 15
46 8 7 15 21 15 31 0 10 10 27 22 39 28 26 17 35 -40 35 -45 0 -47 1 -45 27 2
27 46 77 69 78 6 0 17 7 24 15 7 8 26 15 42 15 27 0 30 3 24 23 -3 12 -6 37
-6 55 0 17 -4 32 -10 32 -5 0 -10 -15 -10 -34 0 -43 -15 -54 -41 -30 -26 23
-24 56 6 88 21 23 30 25 64 20 44 -7 72 11 86 55 15 50 98 171 144 213 64 58
193 122 256 127 6 1 21 -6 33 -15z m3567 -284 c0 -29 -32 -41 -41 -16 -9 24 4
48 23 44 12 -2 18 -12 18 -28z m-1 -67 c9 -20 11 -20 43 -5 l34 16 80 -83 c43
-45 79 -88 80 -94 0 -7 1 -52 2 -102 2 -90 2 -90 29 -93 31 -4 43 -26 22 -43
-9 -8 -33 -10 -70 -6 -66 7 -84 2 -84 -24 0 -18 -10 -19 -145 -20 -80 -1 -150
-2 -157 -3 -7 -1 -15 10 -18 24 -6 24 -9 25 -80 25 -62 0 -75 3 -78 17 -2 11
8 23 28 33 27 14 30 20 26 48 -3 18 -8 55 -11 84 l-6 52 48 26 c26 14 55 29
63 34 44 24 89 42 115 45 28 3 30 6 28 42 -4 54 31 72 51 27z m-3549 -73 c13
0 26 -9 33 -24 8 -19 6 -32 -16 -74 -24 -48 -25 -52 -9 -70 31 -34 21 -42 -47
-42 -36 0 -68 5 -71 11 -4 5 14 37 40 70 38 49 45 62 35 74 -7 8 -20 15 -30
15 -10 0 -22 6 -29 13 -16 21 8 39 43 33 16 -3 38 -6 51 -6z m180 -54 c22 -14
23 -19 13 -48 -6 -18 -17 -40 -24 -49 -19 -21 -18 -46 3 -57 10 -6 14 -16 9
-27 -5 -14 -16 -17 -61 -13 -30 3 -58 7 -61 11 -11 10 6 41 45 87 22 24 37 48
35 52 -3 4 -19 11 -37 16 -33 9 -49 39 -27 52 16 10 74 -4 105 -24z m4879 9
c16 -17 29 -22 44 -18 12 3 29 0 37 -7 12 -10 18 -10 29 -1 9 8 45 11 95 10
45 -1 84 1 88 5 3 3 14 -1 24 -10 11 -10 19 -12 24 -5 9 15 62 14 68 -1 3 -10
7 -10 20 0 9 7 28 12 44 10 25 -3 28 -7 27 -40 -1 -21 2 -38 7 -38 12 0 28 33
26 54 -3 30 37 38 68 14 l26 -21 16 22 c10 15 23 21 41 19 26 -3 27 -5 27 -68
l0 -65 -130 -1 c-71 0 -137 3 -146 7 -9 5 -21 3 -26 -2 -21 -21 -66 -6 -82 28
-20 41 -30 41 -38 3 -3 -17 -10 -33 -15 -36 -15 -9 -45 24 -52 57 -6 29 -7 30
-28 14 -14 -9 -23 -26 -23 -43 0 -27 -1 -27 -68 -28 -56 -1 -72 2 -87 18 -18
20 -18 20 -29 -1 -16 -30 -71 -28 -99 2 -36 38 -38 77 -6 115 34 41 83 44 118
7z m-4687 -27 c13 -12 23 -32 23 -44 0 -13 5 -35 10 -50 8 -21 7 -31 -6 -45
-15 -17 -19 -18 -34 -4 -22 20 -22 19 -54 -10 -29 -27 -47 -31 -77 -15 -42 23
-13 161 38 182 35 13 77 8 100 -14z m2486 -170 c76 -41 117 -76 117 -100 0
-13 -8 -18 -30 -18 -16 0 -30 -4 -30 -9 0 -4 -15 -24 -32 -43 -18 -20 -47 -51
-64 -69 -17 -19 -47 -49 -68 -68 l-38 -34 38 -34 c38 -33 79 -48 55 -19 -21
25 11 33 119 32 104 -1 105 -1 108 -26 6 -42 20 -45 28 -6 4 23 2 42 -5 49
-15 15 -125 27 -198 20 -35 -3 -63 -2 -63 3 0 9 71 74 83 74 4 0 7 -4 7 -10 0
-13 27 -13 35 1 4 6 -1 16 -10 23 -16 12 -11 20 53 84 74 76 96 86 108 50 4
-13 18 -40 30 -60 13 -21 24 -50 24 -66 0 -15 7 -37 15 -48 19 -25 20 -84 1
-84 -8 0 -18 5 -21 10 -17 28 -26 4 -24 -65 2 -58 -1 -78 -14 -93 -9 -10 -17
-26 -17 -36 0 -18 -123 -146 -140 -146 -6 0 -23 -9 -38 -20 -31 -23 -152 -40
-152 -22 0 7 13 9 35 5 28 -4 35 -2 35 11 0 19 -50 22 -79 4 -16 -9 -31 -8
-78 8 -60 20 -153 80 -153 99 0 20 11 24 31 12 23 -14 37 -2 22 22 -9 15 -1
28 53 86 35 38 67 66 71 61 4 -4 7 -25 7 -47 -2 -50 11 -51 20 -1 9 59 7 102
-6 107 -7 2 -89 6 -183 7 l-170 3 3 58 c7 107 93 226 203 279 93 44 102 47
178 47 64 1 81 -3 134 -31z m729 -378 c-17 -157 -13 -181 27 -141 18 18 21 32
19 86 -2 68 7 89 38 83 15 -3 19 -12 19 -45 0 -49 12 -65 29 -40 19 25 62 22
69 -5 l6 -22 24 22 c28 26 50 28 77 5 30 -26 28 -103 -4 -137 -30 -34 -63 -34
-78 0 l-12 25 -13 -25 c-18 -34 -58 -36 -67 -3 l-6 22 -18 -22 c-14 -18 -29
-22 -94 -24 -42 -2 -80 0 -85 4 -7 8 -13 226 -5 240 2 4 20 7 40 5 33 -3 37
-6 34 -28z m-1179 -15 c32 -2 65 -9 73 -16 9 -7 24 -8 41 -3 16 4 31 8 35 8 3
1 10 4 14 9 10 10 44 9 44 -2 0 -5 -7 -15 -16 -22 -22 -18 -104 -125 -104
-136 0 -8 -25 -36 -82 -91 l-24 -22 -37 55 c-20 30 -37 59 -37 63 0 4 -6 19
-14 33 -15 30 -29 122 -19 132 3 4 20 5 37 2 17 -3 57 -7 89 -10z m1802 -70
c0 -27 4 -55 8 -61 3 -7 2 -26 -4 -43 -9 -24 -17 -31 -38 -31 -15 0 -32 5 -39
12 -9 9 -15 9 -24 0 -35 -35 -88 4 -88 65 0 38 -16 51 -38 30 -13 -13 -13 -21
-4 -42 7 -14 12 -35 12 -46 0 -17 -6 -20 -32 -17 -32 3 -33 4 -36 58 -2 30 -1
70 3 88 5 29 9 32 42 32 20 0 45 -7 55 -16 16 -16 18 -16 24 0 8 21 50 21 63
-1 9 -17 11 -16 31 5 13 14 31 22 43 20 19 -3 22 -9 22 -53z"/>
<path d="M2244 3637 c-3 -8 -4 -45 -2 -83 3 -64 5 -69 26 -72 14 -2 29 4 37
15 27 34 15 123 -19 145 -17 12 -36 9 -42 -5z"/>
<path d="M2515 3580 c-4 -6 -3 -16 3 -22 6 -6 12 -6 17 2 4 6 3 16 -3 22 -6 6
-12 6 -17 -2z"/>
<path d="M3077 3550 c-6 -24 -45 -28 -53 -5 -8 19 -43 19 -50 0 -4 -8 1 -26
10 -40 13 -20 22 -23 46 -18 18 3 36 0 45 -7 23 -19 37 0 33 45 -3 42 -22 58
-31 25z"/>
<path d="M3292 3488 c6 -18 28 -21 28 -4 0 9 -7 16 -16 16 -9 0 -14 -5 -12
-12z"/>
<path d="M1832 3379 c-27 -92 -21 -114 22 -85 32 21 54 53 62 93 5 24 1 35
-17 52 -12 11 -28 21 -33 21 -6 0 -22 -37 -34 -81z"/>
<path d="M8266 3363 c-2 -10 -7 -29 -11 -41 -7 -23 -7 -23 19 -7 16 11 26 27
26 41 0 28 -26 33 -34 7z"/>
<path d="M7820 3124 c0 -12 6 -15 23 -10 12 3 30 6 40 6 10 0 15 5 12 10 -3 6
-22 10 -41 10 -25 0 -34 -4 -34 -16z"/>
<path d="M7740 3095 c0 -9 9 -15 25 -15 28 0 34 15 9 24 -25 10 -34 7 -34 -9z"/>
<path d="M7884 3069 c-8 -13 15 -30 36 -26 8 1 16 10 18 20 3 12 -3 17 -22 17
-14 0 -28 -5 -32 -11z"/>
<path d="M7667 3048 c-10 -11 -16 -22 -13 -25 5 -5 76 35 76 43 0 13 -48 -1
-63 -18z"/>
<path d="M7820 2985 c0 -43 25 -48 42 -9 10 21 9 27 -3 35 -27 17 -39 10 -39
-26z"/>
<path d="M7710 3000 c0 -5 5 -10 10 -10 6 0 10 -7 10 -15 0 -17 26 -20 35 -4
4 6 -2 13 -14 16 -12 3 -21 9 -21 14 0 5 -4 9 -10 9 -5 0 -10 -4 -10 -10z"/>
<path d="M7917 2984 c-4 -4 -7 -18 -7 -31 0 -17 5 -24 17 -21 9 2 18 8 20 13
5 15 -21 48 -30 39z"/>
<path d="M8180 2966 c0 -7 7 -19 15 -26 8 -7 15 -21 15 -31 0 -24 16 -33 24
-12 4 9 0 23 -7 32 -8 9 -17 24 -20 34 -8 20 -27 23 -27 3z"/>
<path d="M7640 2946 c0 -8 5 -18 10 -21 13 -8 42 14 34 26 -9 15 -44 10 -44
-5z"/>
<path d="M7822 2908 c2 -13 8 -23 13 -23 6 0 11 10 13 23 2 15 -2 22 -13 22
-11 0 -15 -7 -13 -22z"/>
<path d="M7886 2903 c-11 -11 -6 -23 9 -23 8 0 15 4 15 9 0 13 -16 22 -24 14z"/>
<path d="M7687 2893 c-4 -3 -7 -17 -7 -30 0 -21 4 -24 28 -21 21 2 28 9 30 31
3 23 0 27 -21 27 -13 0 -27 -3 -30 -7z"/>
<path d="M8127 2893 c-12 -11 -8 -23 8 -23 8 0 15 7 15 15 0 16 -12 20 -23 8z"/>
<path d="M7575 2840 c-4 -7 -3 -16 3 -22 14 -14 45 -2 40 15 -6 16 -34 21 -43
7z"/>
<path d="M7780 2831 c0 -11 26 -22 34 -14 12 12 5 23 -14 23 -11 0 -20 -4 -20
-9z"/>
<path d="M7970 2736 c0 -8 5 -18 10 -21 6 -3 10 -14 10 -23 0 -30 16 -45 39
-37 29 9 26 23 -9 43 -16 9 -30 25 -30 35 0 9 -4 17 -10 17 -5 0 -10 -6 -10
-14z"/>
<path d="M8127 2728 c-8 -27 4 -41 26 -32 22 8 21 17 -2 38 -17 16 -19 16 -24
-6z"/>
<path d="M7910 2640 c-12 -23 -6 -40 16 -40 8 0 14 10 14 24 0 33 -16 42 -30
16z"/>
<path d="M7790 2635 c-13 -16 -7 -45 9 -45 10 0 41 39 41 52 0 14 -37 9 -50
-7z"/>
<path d="M8067 2643 c-13 -12 -7 -43 8 -43 8 0 15 6 15 13 0 18 -15 38 -23 30z"/>
<path d="M7910 2554 c0 -11 8 -14 27 -12 39 4 42 28 4 28 -21 0 -31 -5 -31
-16z"/>
<path d="M7825 2529 c-10 -15 3 -25 16 -12 7 7 7 13 1 17 -6 3 -14 1 -17 -5z"/>
<path d="M7994 2529 c-8 -14 11 -33 25 -25 16 10 13 36 -3 36 -8 0 -18 -5 -22
-11z"/>
<path d="M8094 2525 c-4 -8 -12 -15 -20 -15 -8 0 -14 -7 -14 -15 0 -8 3 -15 6
-15 9 0 54 44 54 53 0 13 -21 7 -26 -8z"/>
<path d="M8010 2471 c0 -5 7 -12 16 -15 22 -9 24 -8 24 9 0 8 -9 15 -20 15
-11 0 -20 -4 -20 -9z"/>
<path d="M7770 2430 c0 -13 20 -13 40 0 12 8 9 10 -12 10 -16 0 -28 -4 -28
-10z"/>
<path d="M5795 2980 c-8 -16 -27 -33 -40 -36 -24 -6 -45 -47 -31 -61 3 -3 117
-7 252 -7 180 -1 248 2 251 11 8 20 -15 50 -47 63 -18 7 -33 22 -36 36 l-6 24
-164 0 -163 0 -16 -30z"/>
<path d="M5766 2802 c-3 -5 1 -28 8 -53 l13 -44 189 0 188 0 9 38 c16 68 20
67 -202 67 -110 0 -202 -4 -205 -8z"/>
<path d="M5945 2605 c-59 -62 -98 -175 -61 -175 7 0 16 -9 19 -20 4 -15 14
-20 41 -20 29 0 44 9 86 50 47 48 50 54 50 102 0 42 -5 55 -26 74 -36 34 -70
31 -109 -11z m72 -90 c-24 -35 -82 -85 -99 -85 -11 0 13 43 30 53 6 4 12 13
12 20 0 6 17 28 38 50 33 34 37 36 40 18 2 -11 -8 -36 -21 -56z"/>
<path d="M5834 2315 c-16 -40 0 -45 140 -45 129 0 134 1 139 22 3 12 4 25 1
30 -3 4 -66 8 -140 8 -110 0 -136 -3 -140 -15z"/>
<path d="M471 2956 c-39 -41 -26 -47 104 -47 130 0 143 6 104 47 -20 22 -31
24 -104 24 -73 0 -84 -2 -104 -24z"/>
<path d="M473 2854 c-11 -28 14 -37 103 -36 89 1 111 9 101 36 -5 13 -24 16
-102 16 -78 0 -97 -3 -102 -16z"/>
<path d="M550 2755 c-27 -29 -31 -78 -8 -101 14 -14 18 -14 46 0 40 21 57 69
36 102 -21 31 -44 31 -74 -1z"/>
<path d="M557 2603 c-77 -5 -72 -27 8 -31 72 -4 92 2 75 23 -7 8 -15 14 -19
13 -3 -1 -32 -3 -64 -5z"/>
<path d="M1015 2870 c-9 -15 4 -30 26 -30 25 0 25 16 0 30 -13 7 -22 7 -26 0z"/>
<path d="M1314 2846 c-9 -22 0 -69 13 -73 6 -2 19 7 28 21 13 19 14 29 5 45
-12 24 -38 28 -46 7z"/>
<path d="M1430 2821 c0 -44 13 -59 36 -40 24 19 14 73 -13 77 -21 3 -23 -1
-23 -37z"/>
<path d="M1775 2711 c-7 -12 31 -25 45 -16 6 4 8 11 5 16 -8 12 -42 12 -50 0z"/>
<path d="M6642 2880 c-30 -25 -28 -40 8 -40 25 0 30 4 30 24 0 33 -11 38 -38
16z"/>
<path d="M2003 2853 c-8 -21 17 -67 40 -71 13 -3 17 4 17 27 0 47 -43 80 -57
44z"/>
<path d="M2577 2581 c-6 -24 -45 -29 -65 -9 -9 9 -15 9 -24 0 -20 -20 4 -29
64 -23 56 6 56 6 44 30 -13 23 -13 23 -19 2z"/>
<path d="M2515 2484 c-9 -13 -14 -14 -38 -3 -44 20 -74 -2 -79 -58 -2 -24 -1
-46 1 -49 2 -2 62 -4 133 -4 l128 0 0 49 c0 59 -14 72 -63 64 -24 -4 -37 -2
-37 6 0 17 -34 13 -45 -5z m58 -28 c32 -24 19 -36 -38 -36 -57 0 -70 12 -37
36 22 17 52 17 75 0z"/>
<path d="M561 2386 c-9 -10 -9 -16 -1 -21 16 -10 31 7 21 23 -6 10 -10 10 -20
-2z"/>
<path d="M382 2321 c4 -13 18 -16 19 -4 0 4 -5 9 -11 12 -7 2 -11 -2 -8 -8z"/>
<path d="M554 2319 c-8 -14 18 -31 30 -19 9 9 0 30 -14 30 -5 0 -12 -5 -16
-11z"/>
<path d="M3200 2006 c0 -49 12 -65 36 -45 10 8 14 25 12 48 -2 29 -8 37 -25
39 -21 3 -23 -1 -23 -42z"/>
<path d="M3747 2044 c-14 -14 -7 -74 8 -80 25 -10 46 16 43 50 -2 22 -9 32
-23 34 -12 2 -24 0 -28 -4z"/>
<path d="M5396 2033 c-10 -10 -7 -91 3 -98 13 -8 41 35 41 62 0 22 -32 48 -44
36z"/>
<path d="M6536 1973 c-11 -11 -6 -23 9 -23 8 0 15 4 15 9 0 13 -16 22 -24 14z"/>
<path d="M2747 2054 c-9 -10 2 -24 19 -24 8 0 14 7 14 15 0 15 -21 21 -33 9z"/>
<path d="M2967 2033 c-10 -10 -8 -91 2 -97 23 -15 51 65 31 89 -14 16 -23 19
-33 8z"/>
<path d="M3980 2045 c0 -8 7 -15 15 -15 8 0 15 7 15 15 0 8 -7 15 -15 15 -8 0
-15 -7 -15 -15z"/>
<path d="M4467 2033 c-12 -12 -7 -38 13 -61 23 -28 40 -21 40 17 0 39 -32 66
-53 44z"/>
<path d="M4705 2019 c-9 -13 3 -62 18 -71 19 -11 37 12 37 48 0 29 -3 34 -24
34 -14 0 -28 -5 -31 -11z"/>
<path d="M5177 2054 c-9 -10 2 -24 19 -24 8 0 14 7 14 15 0 15 -21 21 -33 9z"/>
<path d="M5750 2045 c0 -10 7 -15 18 -13 21 4 19 22 -2 26 -10 2 -16 -3 -16
-13z"/>
<path d="M5965 2020 c-10 -17 5 -68 22 -74 24 -10 33 2 33 45 0 35 -3 39 -24
39 -14 0 -28 -5 -31 -10z"/>
<path d="M7118 1999 c-41 -23 -12 -81 47 -94 17 -4 39 -11 50 -16 29 -14 439
-6 495 10 26 7 53 22 63 37 17 23 18 27 3 49 -9 14 -23 25 -31 25 -18 0 -20
-31 -3 -48 9 -9 6 -12 -13 -12 -14 0 -29 4 -35 9 -13 12 -183 33 -262 32 -58
-1 -154 -14 -272 -37 -35 -7 -35 -7 -17 14 11 11 16 26 12 31 -8 13 -15 13
-37 0z"/>
<path d="M7877 1788 c-20 -27 -47 -120 -47 -160 0 -4 33 -8 73 -8 86 0 133 20
160 68 22 37 18 65 -14 105 -18 24 -27 27 -84 27 -61 0 -65 -2 -88 -32z m134
-28 c26 -14 24 -34 -7 -65 -20 -20 -34 -25 -62 -23 -32 3 -37 7 -40 30 -6 52
57 85 109 58z"/>
<path d="M990 1940 c0 -19 3 -21 12 -12 9 9 9 15 0 24 -9 9 -12 7 -12 -12z"/>
<path d="M751 1828 c-1 -27 -7 -53 -16 -62 -8 -8 -15 -26 -15 -40 0 -23 3 -25
30 -19 22 4 36 0 50 -12 19 -17 20 -17 20 2 0 11 -7 26 -15 33 -8 7 -15 20
-15 30 0 9 -3 20 -7 24 -5 4 -13 26 -20 49 l-11 42 -1 -47z"/>
<path d="M978 1843 c-10 -11 -18 -23 -18 -28 0 -5 -8 -17 -17 -28 -17 -18 -17
-19 2 -33 37 -27 85 -12 85 28 0 9 -6 21 -14 25 -8 4 -16 19 -18 32 -3 23 -3
23 -20 4z"/>
<path d="M690 1685 c0 -8 5 -15 10 -15 6 0 10 7 10 15 0 8 -4 15 -10 15 -5 0
-10 -7 -10 -15z"/>
<path d="M957 1693 c-4 -3 -7 -39 -7 -78 0 -83 10 -99 56 -86 41 10 47 56 10
73 -31 14 -35 48 -6 48 15 0 20 7 20 25 0 22 -4 25 -33 25 -19 0 -37 -3 -40
-7z"/>
<path d="M736 1649 c-31 -24 -32 -36 -7 -66 29 -35 58 -30 64 10 5 34 -7 77
-21 77 -5 0 -21 -9 -36 -21z"/>
<path d="M837 1604 c-7 -8 4 -44 14 -44 12 0 12 37 0 44 -4 3 -11 3 -14 0z"/>
<path d="M1070 1600 c0 -14 38 -50 53 -50 19 1 59 38 52 50 -8 13 -105 13
-105 0z"/>
<path d="M690 1530 c0 -29 35 -60 68 -60 31 0 72 32 72 55 0 20 -26 19 -34 0
-8 -23 -63 -19 -78 5 -7 11 -16 20 -20 20 -5 0 -8 -9 -8 -20z"/>
<path d="M965 1480 c-44 -5 -47 -7 -24 -14 33 -10 95 -4 92 9 -2 12 -8 13 -68
5z"/>
<path d="M1645 1840 c-3 -6 1 -13 10 -16 19 -8 30 0 20 15 -8 14 -22 14 -30 1z"/>
<path d="M2625 1530 c-19 -21 -14 -50 9 -50 7 0 16 -7 20 -15 8 -22 36 -18 36
4 0 11 -5 23 -10 26 -8 5 -7 11 0 20 28 34 -25 48 -55 15z"/>
<path d="M2726 1475 c-3 -9 -6 -30 -6 -47 0 -22 4 -29 17 -26 11 2 17 13 18
28 0 33 19 37 23 5 2 -14 10 -25 18 -25 11 0 14 10 12 38 -3 35 -5 37 -39 40
-26 2 -38 -1 -43 -13z"/>
<path d="M2667 1383 c-4 -3 -7 -17 -7 -30 0 -18 6 -23 24 -23 30 0 40 13 31
40 -6 19 -35 27 -48 13z"/>
<path d="M5440 1610 c-6 -11 -10 -48 -8 -83 3 -54 6 -62 24 -65 34 -5 54 24
54 77 0 37 -5 52 -23 69 -29 27 -34 27 -47 2z"/>
<path d="M5700 1535 c0 -8 5 -15 10 -15 6 0 10 7 10 15 0 8 -4 15 -10 15 -5 0
-10 -7 -10 -15z"/>
<path d="M6469 1544 c-8 -10 -9 -18 -2 -25 12 -12 43 -1 43 16 0 20 -27 26
-41 9z"/>
<path d="M3086 1345 c-12 -9 -42 -15 -75 -15 -84 0 -162 -43 -132 -73 10 -10
16 -8 61 18 27 16 78 19 96 7 19 -13 38 -56 44 -101 3 -25 10 -46 16 -48 11
-4 104 84 104 98 0 4 -21 9 -47 11 l-48 3 1 40 c1 21 7 41 13 43 15 5 14 32
-1 32 -7 0 -22 -7 -32 -15z"/>
<path d="M2961 1243 c-33 -6 -64 -37 -59 -59 4 -25 36 -30 56 -9 9 9 26 22 36
29 18 12 17 48 -1 45 -4 -1 -19 -4 -32 -6z"/>
<path d="M2225 1100 c-9 -15 4 -30 26 -30 23 0 26 25 3 34 -21 8 -22 8 -29 -4z"/>
<path d="M1930 950 l-25 -20 26 0 c28 0 69 -30 69 -50 0 -7 -13 -28 -30 -47
-16 -18 -30 -38 -30 -43 0 -6 21 -10 46 -10 25 0 60 -6 77 -14 31 -14 84 -25
141 -29 33 -2 48 20 19 29 -10 3 -26 10 -35 15 -10 5 -29 9 -43 9 -14 0 -41 6
-59 14 -26 11 -35 22 -44 57 -6 24 -13 58 -14 74 -3 27 -7 30 -38 33 -23 1
-44 -5 -60 -18z"/>
<path d="M2148 883 c-10 -2 -18 -9 -18 -14 0 -5 -7 -9 -15 -9 -8 0 -15 -7 -15
-15 0 -11 11 -14 47 -13 29 2 48 -2 51 -10 2 -6 13 -12 23 -12 17 0 20 6 17
38 -3 35 -5 37 -38 39 -19 0 -43 -1 -52 -4z"/>
<path d="M2279 878 c0 -2 -2 -38 -4 -81 -3 -69 0 -81 20 -105 41 -49 227 -85
325 -63 142 31 154 37 218 96 45 42 76 88 65 99 -11 11 -47 6 -67 -9 -23 -17
-131 -21 -141 -5 -3 6 -37 10 -75 10 -48 0 -73 5 -84 15 -10 11 -37 15 -93 15
-54 0 -85 5 -99 15 -16 12 -62 21 -65 13z"/>
<path d="M6176 1072 c-4 -4 -47 -10 -94 -13 l-87 -6 97 -1 c53 -1 99 2 103 7
7 12 -10 23 -19 13z"/>
<path d="M6063 989 c24 -14 22 -49 -3 -49 -11 0 -20 5 -20 11 0 7 -8 9 -20 5
-11 -3 -28 -9 -39 -12 -13 -4 -20 0 -24 16 -6 23 -27 19 -27 -6 0 -8 -7 -14
-15 -14 -8 0 -15 -4 -15 -10 0 -5 13 -7 31 -3 19 4 34 1 38 -6 6 -9 15 -9 35
-1 18 7 33 7 46 0 13 -7 21 -7 25 0 9 15 42 12 49 -5 5 -15 -26 -39 -37 -29
-8 8 -141 5 -192 -5 -5 -1 -1 -8 9 -16 16 -12 51 -15 160 -14 78 1 152 4 166
8 l25 7 -23 13 c-12 6 -26 9 -31 6 -5 -3 -22 0 -38 6 l-28 11 26 22 c14 12 29
34 33 49 l6 27 -77 0 c-58 -1 -73 -3 -60 -11z m107 -14 c17 -20 4 -35 -31 -35
-21 0 -29 5 -29 18 0 10 3 22 7 25 11 12 40 8 53 -8z"/>
<path d="M7520 1035 c0 -32 41 -55 65 -35 23 19 18 40 -10 40 -14 0 -25 5 -25
10 0 6 -7 10 -15 10 -9 0 -15 -9 -15 -25z"/>
<path d="M7656 1001 c-7 -11 22 -23 36 -15 6 4 5 10 -3 15 -18 11 -26 11 -33
0z"/>
<path d="M7985 1001 c-3 -6 3 -15 14 -20 14 -8 20 -7 24 3 9 24 -24 38 -38 17z"/>
<path d="M2801 998 c-23 -37 -14 -56 18 -36 23 14 36 42 26 58 -11 17 -22 11
-44 -22z"/>
<path d="M5180 881 c0 -18 20 -22 68 -15 41 7 44 9 22 15 -37 10 -90 10 -90 0z"/>
<path d="M5123 853 c-22 -8 -14 -23 12 -23 14 0 25 4 25 9 0 11 -21 19 -37 14z"/>
<path d="M5271 827 c-14 -17 3 -41 23 -34 9 4 16 13 16 21 0 19 -26 28 -39 13z"/>
<path d="M5037 791 c-43 -46 -38 -64 6 -21 17 17 34 30 39 30 4 0 8 7 8 15 0
24 -13 18 -53 -24z"/>
<path d="M5097 764 c-9 -9 24 -54 39 -54 8 0 14 3 14 8 0 12 -47 52 -53 46z"/>
<path d="M5200 747 c0 -13 6 -32 14 -43 14 -18 15 -18 26 10 14 37 7 56 -20
56 -14 0 -20 -7 -20 -23z"/>
<path d="M5296 728 c-2 -7 -8 -29 -15 -49 -14 -43 -14 -49 -1 -49 6 0 10 11
10 24 0 16 7 26 21 29 15 4 20 12 17 28 -3 25 -26 38 -32 17z"/>
<path d="M5032 708 c-20 -20 -14 -40 11 -36 14 2 22 10 22 22 0 24 -16 31 -33
14z"/>
<path d="M5570 701 c0 -20 17 -37 27 -28 7 8 -7 47 -18 47 -5 0 -9 -9 -9 -19z"/>
<path d="M5087 648 c-24 -13 -21 -45 4 -53 25 -8 26 -7 34 26 7 30 -11 43 -38
27z"/>
<path d="M5606 637 c-5 -15 -6 -31 -2 -34 11 -11 18 5 14 34 l-4 28 -8 -28z"/>
<path d="M5480 630 c0 -5 9 -10 19 -10 11 0 23 5 26 10 4 6 -5 10 -19 10 -14
0 -26 -4 -26 -10z"/>
<path d="M4957 593 c-10 -3 -16 -10 -14 -16 5 -17 52 -15 52 2 0 16 -12 21
-38 14z"/>
<path d="M5145 580 c-4 -6 5 -10 20 -10 15 0 24 4 20 10 -3 6 -12 10 -20 10
-8 0 -17 -4 -20 -10z"/>
<path d="M5510 469 c0 -38 24 -35 28 4 2 19 -1 27 -12 27 -11 0 -16 -10 -16
-31z"/>
<path d="M5380 430 c0 -13 8 -24 20 -27 11 -3 20 -14 20 -24 0 -11 7 -19 15
-19 8 0 15 9 15 20 0 11 -4 20 -9 20 -5 0 -11 10 -13 23 -4 31 -48 38 -48 7z"/>
<path d="M5156 384 c-10 -26 -7 -34 13 -34 26 0 36 17 21 35 -16 19 -26 19
-34 -1z"/>
<path d="M5288 389 c-10 -5 -18 -17 -18 -25 0 -23 31 -13 41 14 9 24 3 27 -23
11z"/>
<path d="M5304 326 c-9 -23 7 -38 26 -26 13 8 13 11 -2 26 -16 17 -18 17 -24
0z"/>
<path d="M5370 275 c0 -9 9 -15 25 -15 16 0 25 6 25 15 0 9 -9 15 -25 15 -16
0 -25 -6 -25 -15z"/>
<path d="M5386 221 c-3 -5 0 -11 8 -14 15 -6 26 1 26 15 0 11 -27 10 -34 -1z"/>
<path d="M6385 398 c-9 -22 4 -43 17 -30 7 7 7 16 0 29 -10 17 -11 17 -17 1z"/>
<path d="M6270 392 c0 -13 34 -42 49 -42 7 0 11 10 9 23 -2 16 -11 23 -30 25
-16 2 -28 -1 -28 -6z"/>
<path d="M4965 350 c-8 -14 3 -30 21 -30 8 0 14 9 14 20 0 21 -24 28 -35 10z"/>
<path d="M6637 382 c-33 -16 -27 -32 13 -32 34 0 43 10 27 31 -10 13 -16 13
-40 1z"/>
<path d="M5154 3783 l-54 -55 0 -123 0 -124 49 -50 c27 -28 60 -55 73 -59 13
-5 296 -8 630 -8 l608 1 56 56 c48 48 57 63 61 102 8 68 -18 134 -75 189 -69
67 -81 71 -161 59 -43 -7 -79 -7 -97 -2 -16 5 -56 12 -88 15 -33 4 -74 15 -91
26 -41 26 -76 25 -127 -1 -65 -33 -150 -31 -211 5 -41 25 -54 27 -90 21 -23
-4 -60 -7 -82 -7 -22 1 -109 3 -193 5 l-154 5 -54 -55z m130 -43 c13 0 46 -61
46 -85 0 -7 4 -16 9 -19 19 -12 41 7 51 44 6 21 16 42 23 47 19 16 79 24 92
13 15 -12 8 -55 -11 -71 -19 -16 -18 -109 1 -135 8 -10 15 -29 15 -41 0 -21
-4 -23 -60 -23 -54 0 -60 2 -60 20 0 12 7 32 16 45 9 14 13 32 10 41 -6 15 -9
14 -31 -6 -15 -14 -25 -35 -25 -50 0 -15 -3 -30 -7 -33 -13 -13 -53 36 -53 65
0 18 -5 28 -15 28 -17 0 -21 -55 -5 -65 6 -3 10 -15 10 -25 0 -14 -10 -21 -34
-25 -64 -13 -96 16 -62 54 8 9 16 43 19 76 4 48 1 67 -16 94 -20 33 -20 34 -1
48 11 9 30 12 48 9 16 -3 34 -6 40 -6z m421 -1 c9 -14 -32 -57 -58 -61 -17 -3
-21 -12 -24 -67 -3 -70 9 -100 33 -80 16 13 18 62 4 88 -13 26 19 54 57 49 28
-3 28 -4 33 -88 3 -47 4 -91 2 -97 -3 -9 -31 -12 -92 -12 -106 0 -114 8 -122
112 l-6 69 32 13 c19 8 38 27 49 49 14 31 21 36 51 36 19 0 38 -5 41 -11z
m347 -104 c-4 -82 -2 -98 13 -115 30 -33 13 -50 -50 -50 -52 0 -55 1 -55 25 0
13 5 35 11 49 9 19 8 31 -5 57 -20 40 -21 36 12 53 17 10 21 15 11 16 -23 0
-41 24 -33 44 8 20 63 36 85 25 14 -7 16 -23 11 -104z m-124 21 c22 -21 -1
-48 -34 -40 -18 5 -24 2 -24 -10 0 -9 7 -16 16 -16 24 0 43 -30 44 -65 0 -43
-16 -55 -75 -55 -39 0 -56 5 -70 20 -23 25 -6 49 30 42 33 -6 32 4 -5 38 -37
35 -38 52 -2 85 22 22 34 25 66 21 21 -2 46 -11 54 -20z m316 -1 c29 -27 34
-56 11 -75 -13 -11 -20 -9 -44 14 -31 29 -41 26 -41 -14 0 -35 22 -54 55 -48
36 7 49 -14 26 -40 -14 -17 -30 -22 -64 -22 -40 0 -49 4 -70 33 -36 47 -41 74
-22 105 45 71 103 90 149 47z m198 2 c20 -17 27 -33 30 -72 3 -27 8 -58 12
-67 11 -25 -29 -61 -57 -52 -12 4 -46 6 -75 5 -47 -2 -53 0 -61 22 -19 48 -4
66 72 91 18 6 23 31 8 40 -5 3 -20 -3 -34 -14 -30 -24 -59 -17 -49 11 10 27
61 57 97 58 17 0 42 -9 57 -22z"/>
<path d="M6357 3553 c-3 -5 -2 -15 2 -22 7 -10 10 -10 16 -1 4 6 3 16 -3 22
-5 5 -12 6 -15 1z"/>
<path d="M3615 2931 c-25 -11 -115 -106 -116 -123 0 -7 -2 -58 -4 -113 -3 -91
-1 -104 22 -143 33 -57 95 -102 143 -102 20 0 59 11 87 26 l52 25 43 -23 c43
-22 43 -22 517 -22 l474 0 54 57 53 58 0 100 c0 119 -12 151 -78 209 -52 46
-90 51 -151 20 -22 -11 -79 -25 -128 -31 l-90 -12 -85 36 -85 37 -58 -15 c-32
-9 -67 -13 -77 -9 -11 3 -39 1 -63 -6 -40 -11 -47 -10 -93 16 l-50 28 -53 -18
c-51 -17 -57 -17 -108 -2 -57 17 -172 21 -206 7z m403 -101 c4 -25 -21 -48
-60 -55 -35 -7 -38 -5 -38 16 0 35 29 60 64 57 18 -2 32 -9 34 -18z m-349 -1
c23 -8 44 -8 81 1 60 14 77 5 82 -43 3 -30 5 -32 42 -30 22 2 45 -2 51 -7 9
-7 27 -7 56 -1 23 5 55 7 71 4 21 -4 37 2 67 27 45 35 74 36 79 3 2 -13 12
-23 25 -25 34 -5 34 -36 0 -40 -25 -3 -28 -7 -28 -43 0 -33 4 -40 25 -45 31
-7 39 -39 14 -57 -25 -19 -89 -17 -105 4 -8 9 -16 43 -19 77 -4 54 -8 61 -27
64 -21 3 -23 0 -23 -48 0 -28 5 -60 10 -70 8 -15 6 -21 -7 -28 -23 -12 -175
-13 -194 -2 -9 6 -14 29 -14 67 -1 66 -13 88 -62 121 -44 28 -79 29 -88 1 -11
-32 10 -46 35 -24 25 22 30 17 37 -32 3 -25 -1 -45 -10 -58 -15 -20 -16 -19
-26 8 -12 32 -17 33 -30 8 -8 -14 -6 -25 9 -44 39 -49 29 -58 -57 -55 -87 3
-100 15 -63 58 29 33 28 125 -1 156 -14 15 -19 29 -14 43 7 24 35 27 84 10z
m690 -13 c6 -7 10 -24 9 -37 -3 -22 1 -24 39 -24 23 0 43 -2 45 -5 2 -3 12
-18 22 -33 l18 -29 34 37 c32 36 37 37 84 33 64 -6 89 -34 90 -100 0 -40 -4
-50 -31 -72 -23 -20 -42 -26 -75 -26 -40 0 -49 5 -83 41 l-38 41 -13 -31 c-7
-18 -21 -36 -31 -41 -27 -15 -77 -12 -115 6 l-34 16 0 77 c0 52 -5 83 -15 97
-23 30 -18 41 23 52 52 14 58 14 71 -2z m470 0 c8 -10 8 -33 -1 -90 -11 -73
-11 -77 11 -107 35 -47 23 -61 -51 -57 -61 3 -63 4 -60 28 13 96 12 139 -2
173 -16 39 -13 43 32 57 41 12 58 11 71 -4z"/>
<path d="M3936 2714 c-12 -30 -6 -71 12 -87 24 -22 32 -13 32 39 0 32 -5 46
-19 53 -15 8 -20 7 -25 -5z"/>
<path d="M4577 2689 c-8 -28 9 -69 28 -69 15 0 19 10 15 45 -2 22 -18 45 -30
45 -4 0 -10 -9 -13 -21z"/>
<path d="M4361 2686 c-16 -19 0 -81 20 -81 10 0 14 12 14 44 0 47 -14 62 -34
37z"/>
<path d="M8454 2540 c-12 -5 -44 -30 -72 -57 -73 -71 -79 -99 -59 -282 18
-169 40 -231 106 -298 84 -86 224 -86 309 -1 56 58 88 140 96 253 4 50 12 109
18 133 16 63 -5 125 -61 185 -66 71 -83 77 -208 76 -59 0 -118 -4 -129 -9z
m265 -106 c25 -21 51 -74 51 -106 0 -3 -12 -21 -26 -38 -22 -25 -25 -35 -17
-53 6 -12 7 -31 2 -42 -4 -11 -8 -50 -8 -87 -1 -37 -5 -70 -11 -73 -5 -3 -10
-17 -10 -31 0 -13 -9 -33 -20 -44 -18 -18 -31 -20 -108 -18 l-87 3 -9 30 c-5
17 -13 39 -17 50 -8 19 -19 114 -22 202 -1 27 -10 49 -24 65 -13 14 -23 31
-23 40 0 22 23 64 54 99 26 29 27 29 135 29 103 0 111 -2 140 -26z"/>
<path d="M8476 2379 c-47 -37 -29 -44 107 -45 137 0 151 6 101 45 -39 31 -169
30 -208 0z"/>
<path d="M8488 2289 c-5 -4 -8 -15 -6 -25 3 -17 13 -19 103 -19 96 0 100 1
103 23 2 13 -2 22 -10 23 -74 4 -182 3 -190 -2z"/>
<path d="M8555 2178 c-22 -26 -25 -37 -20 -67 9 -51 19 -56 59 -32 39 25 51
50 41 89 -13 51 -43 55 -80 10z"/>
<path d="M8512 2018 c3 -9 26 -13 71 -13 92 0 91 19 -1 23 -57 2 -73 0 -70
-10z"/>
<path d="M1384 1326 c-45 -20 -118 -95 -147 -151 -14 -28 -39 -67 -55 -88 -65
-82 -45 -178 59 -285 69 -72 90 -82 162 -82 75 0 140 34 219 116 82 83 94 109
82 172 -8 41 -12 47 -34 47 -19 0 -26 6 -28 25 -2 14 -12 34 -22 45 -10 11
-34 47 -54 81 -39 67 -106 134 -134 134 -9 -1 -31 -7 -48 -14z m80 -68 c13
-65 16 -130 6 -149 -14 -25 -33 -20 -40 11 -8 33 -30 38 -30 6 0 -19 -5 -26
-19 -26 -42 0 -70 92 -36 120 13 11 17 8 26 -19 15 -42 29 -39 29 5 0 25 7 41
23 55 29 24 36 24 41 -3z m-24 -203 c118 0 172 -20 178 -64 7 -49 -6 -66 -83
-106 -41 -22 -75 -43 -75 -47 0 -4 -26 -8 -58 -8 -67 0 -83 12 -125 93 -24 45
-30 73 -28 126 1 22 3 23 44 15 23 -5 89 -9 147 -9z"/>
<path d="M1542 985 c-37 -47 -22 -83 17 -41 16 17 20 28 13 46 l-8 23 -22 -28z"/>
<path d="M603 1161 c-70 -51 -93 -90 -107 -183 -8 -56 -21 -98 -39 -128 -62
-105 -81 -153 -81 -216 -1 -54 5 -72 43 -147 43 -83 44 -87 32 -129 -9 -32 -9
-51 -1 -72 17 -46 69 -105 111 -126 47 -24 100 -16 158 24 20 14 43 26 49 26
7 0 34 -20 60 -44 26 -24 58 -49 72 -57 31 -16 366 -23 961 -19 312 2 306 1
371 81 44 55 49 75 34 147 -14 68 -25 85 -90 141 l-49 42 -96 -2 c-123 -3
-224 12 -280 42 l-44 23 -61 -21 c-34 -12 -85 -24 -114 -28 -47 -5 -59 -2
-108 26 -53 30 -57 30 -105 19 -28 -7 -66 -9 -87 -5 -34 6 -96 8 -174 4 -18
-1 -63 4 -100 12 -61 12 -68 16 -78 43 -6 17 -29 59 -52 94 -41 63 -41 64 -30
113 14 60 15 168 3 223 -13 54 -106 146 -149 146 -5 0 -27 -13 -49 -29z m84
-71 c3 -11 9 -20 14 -20 4 0 11 -17 14 -37 3 -21 10 -45 15 -54 16 -30 -28
-153 -67 -184 -13 -11 -17 -32 -15 -77 2 -25 6 -28 36 -28 44 0 79 -29 100
-83 15 -40 15 -47 1 -80 -8 -20 -26 -44 -40 -53 -29 -19 -34 -67 -10 -98 19
-25 19 -60 0 -80 -8 -8 -15 -19 -15 -23 0 -17 -59 -53 -88 -53 -37 0 -102 61
-102 95 0 55 62 84 102 48 22 -20 24 -61 3 -69 -21 -8 -19 -36 2 -32 22 4 65
67 56 82 -4 6 -10 29 -13 51 l-5 40 -51 0 c-40 0 -58 6 -88 29 -21 15 -40 36
-44 45 -3 9 -12 22 -19 29 -7 8 -13 36 -13 65 0 63 24 113 86 177 l44 45 -6
85 c-6 76 -4 90 17 130 12 25 27 51 32 58 15 19 48 14 54 -8z m330 -681 c14
-33 30 -58 35 -57 6 2 20 28 33 58 23 54 24 55 69 58 55 4 68 -15 42 -58 -20
-35 -21 -125 -1 -164 8 -15 12 -32 9 -37 -6 -10 -117 -12 -127 -2 -4 3 0 17 9
30 15 24 16 72 1 76 -5 1 -18 -23 -30 -53 -24 -60 -39 -67 -48 -23 -6 32 -30
73 -41 73 -12 0 -9 -45 3 -57 6 -6 9 -21 7 -34 -2 -20 -9 -24 -46 -27 -51 -4
-64 16 -39 61 9 16 20 52 23 80 5 45 3 55 -15 71 -24 22 -27 51 -6 63 8 5 33
7 56 5 39 -4 42 -7 66 -63z m388 60 c13 -20 -36 -59 -73 -59 -32 0 -34 2 -27
27 3 15 12 31 18 35 18 12 75 9 82 -3z m345 -20 c9 -16 8 -24 -5 -39 -9 -10
-12 -21 -7 -24 5 -3 12 -38 14 -78 3 -40 7 -80 9 -88 6 -24 -101 -27 -119 -3
-13 17 -14 17 -26 1 -19 -25 -113 -25 -132 0 -13 16 -15 16 -24 0 -9 -14 -27
-17 -106 -17 -92 0 -95 1 -104 25 -6 14 -10 43 -10 65 0 22 -6 48 -12 59 -16
25 -3 38 42 42 l35 3 5 -65 c5 -61 6 -65 30 -65 21 0 26 5 28 31 2 19 -3 36
-12 44 -26 21 -18 36 23 50 53 17 62 9 60 -59 -3 -74 3 -83 49 -75 49 9 51 12
23 33 -30 23 -33 77 -6 97 22 16 91 19 100 4 8 -13 72 -13 80 0 3 5 -6 12 -20
16 -31 8 -32 27 -2 47 32 23 74 21 87 -4z m168 -53 c15 -8 36 -24 47 -36 l20
-22 -24 -19 c-29 -24 -38 -24 -51 1 -13 23 -33 26 -49 6 -10 -12 -9 -20 4 -40
14 -21 25 -26 60 -26 24 0 48 6 54 14 6 7 31 21 56 31 47 17 56 31 29 42 -10
4 -22 -1 -30 -12 -17 -23 -46 -12 -42 17 3 23 51 56 83 57 11 1 35 -8 53 -19
29 -18 32 -24 32 -69 0 -28 5 -53 10 -56 16 -10 12 -53 -6 -63 -24 -14 -167
-2 -177 14 -11 19 -34 18 -45 -3 -15 -26 -96 -22 -127 7 -20 19 -25 33 -25 75
0 53 14 75 65 103 26 15 31 15 63 -2z"/>
<path d="M634 975 c-18 -43 -19 -105 -1 -105 18 1 47 65 47 105 0 47 -26 47
-46 0z"/>
<path d="M564 694 c-35 -42 -38 -52 -39 -106 0 -55 3 -62 33 -89 34 -30 82
-38 112 -19 13 9 13 12 -2 24 -13 9 -18 27 -18 65 0 57 -9 64 -35 24 -16 -25
-16 -28 -1 -55 16 -25 16 -29 2 -34 -23 -9 -55 34 -56 73 0 21 11 44 35 73 37
44 39 49 29 74 -9 25 -20 20 -60 -30z"/>
<path d="M680 570 c0 -39 4 -51 20 -60 17 -9 22 -7 32 15 10 22 9 32 -7 61
-27 50 -45 44 -45 -16z"/>
<path d="M1563 337 c-3 -5 3 -11 13 -13 11 -3 32 -23 48 -45 35 -46 49 -39 44
22 l-3 44 -48 0 c-27 0 -51 -4 -54 -8z"/>
<path d="M8563 1141 c-38 -27 -103 -112 -103 -135 -3 -92 -11 -131 -36 -174
-72 -123 -79 -143 -82 -234 -2 -49 -5 -88 -7 -88 -2 0 -26 14 -54 31 -36 23
-68 33 -118 39 -38 4 -91 17 -117 29 -62 27 -117 27 -214 -1 -47 -13 -108 -23
-156 -23 l-79 -1 -48 -51 c-76 -79 -78 -138 -8 -217 68 -77 146 -89 459 -67
91 6 182 11 203 11 31 0 47 8 87 46 28 26 54 61 61 82 16 52 25 59 50 36 19
-17 21 -26 15 -82 -4 -39 -2 -70 5 -85 20 -40 92 -106 127 -118 96 -32 222 74
222 187 0 25 31 116 56 164 31 59 22 122 -26 194 -35 51 -41 67 -36 96 14 88
18 208 7 246 -14 51 -107 144 -144 144 -13 0 -42 -13 -64 -29z m97 -71 c4 -8
15 -29 24 -47 41 -80 0 -207 -93 -288 -76 -65 -104 -110 -104 -166 0 -41 35
-99 59 -99 9 0 22 -7 31 -15 31 -32 48 -14 51 53 4 80 32 82 32 2 0 -41 17
-46 35 -9 13 25 14 36 5 59 -12 30 -62 60 -68 41 -2 -6 -14 -11 -28 -11 -32 0
-43 -40 -20 -75 16 -25 14 -45 -5 -45 -5 0 -9 5 -9 11 0 7 -8 18 -17 25 -13 9
-18 26 -18 59 0 41 4 51 33 74 17 15 32 35 32 44 0 22 19 32 26 13 3 -9 17
-16 30 -16 14 0 40 -16 64 -40 35 -35 40 -45 40 -85 0 -37 -6 -54 -32 -87 -32
-39 -33 -43 -29 -119 3 -72 1 -81 -20 -104 -20 -20 -34 -25 -76 -25 -43 0 -57
5 -78 25 -24 25 -33 68 -17 91 16 24 48 33 73 20 20 -10 24 -19 22 -54 -1 -35
1 -42 17 -42 30 0 43 35 35 96 l-6 54 -38 0 c-83 0 -164 70 -175 151 -11 82
14 140 91 215 45 42 57 86 28 98 -17 6 -21 81 -5 91 6 3 10 16 10 28 0 36 48
99 72 95 12 -2 24 -10 28 -18z m-630 -576 c0 -31 2 -35 20 -29 41 13 93 15
105 5 9 -8 15 -8 20 0 3 5 26 10 50 10 46 0 65 -19 39 -41 -13 -10 -12 -14 3
-31 17 -19 16 -20 -7 -39 -25 -19 -42 -23 -70 -19 -23 3 -31 22 -26 60 2 19 2
29 -1 22 -3 -7 -16 -17 -29 -22 -20 -8 -23 -14 -18 -35 l6 -26 -128 2 c-94 2
-137 -1 -157 -11 -22 -11 -33 -11 -48 -2 -10 7 -28 12 -38 12 -11 0 -23 5 -27
11 -5 8 -9 8 -14 -1 -9 -15 -132 -19 -137 -4 -2 6 8 25 22 42 l26 31 -23 3
c-30 4 -37 38 -9 45 12 3 21 9 21 14 0 15 67 10 80 -6 7 -9 10 -27 6 -45 -4
-24 -2 -30 11 -30 18 0 53 28 53 42 0 16 41 49 58 46 13 -3 17 -14 17 -46 1
-25 7 -49 17 -58 15 -16 17 -14 23 19 5 24 2 46 -9 68 -9 17 -13 35 -10 40 3
5 43 9 90 9 l84 0 0 -36z"/>
<path d="M8617 985 c-8 -7 -18 -34 -21 -59 -7 -45 -3 -66 13 -66 11 0 51 93
51 119 0 24 -22 27 -43 6z"/>
<path d="M7940 485 c0 -8 5 -15 10 -15 6 0 10 7 10 15 0 8 -4 15 -10 15 -5 0
-10 -7 -10 -15z"/>
<path d="M8020 432 c0 -11 7 -25 16 -33 14 -11 15 -9 12 16 -3 32 -28 47 -28
17z"/>
<path d="M7947 433 c-11 -10 -8 -51 3 -58 6 -4 10 8 10 29 0 37 -2 41 -13 29z"/>
<path d="M7123 917 c-44 -16 -122 -100 -165 -178 -20 -36 -46 -73 -57 -83 -28
-26 -29 -114 -1 -170 26 -53 114 -144 156 -162 55 -23 134 -18 190 12 56 30
163 127 181 164 15 31 16 90 3 125 -8 22 -13 25 -25 15 -11 -9 -17 -4 -33 27
-58 115 -173 264 -203 262 -8 0 -29 -6 -46 -12z m75 -98 c2 -24 7 -48 13 -53
15 -16 10 -52 -10 -70 -25 -22 -37 -15 -45 26 -5 26 -9 30 -16 18 -5 -8 -10
-25 -10 -37 0 -55 -59 -7 -67 55 -6 48 12 65 37 34 19 -23 30 -19 30 10 0 22
40 70 54 65 6 -2 12 -23 14 -48z m86 -185 c3 -8 17 -14 30 -14 50 0 57 -84 11
-114 -118 -78 -201 -102 -257 -75 -31 14 -89 133 -88 180 l0 37 149 0 c119 0
151 -3 155 -14z"/>
<path d="M7267 558 c-18 -42 -12 -52 19 -31 16 10 24 23 22 36 -5 33 -26 31
-41 -5z"/>
<path d="M3354 599 c-44 -13 -129 -95 -153 -149 -28 -60 -26 -106 5 -168 54
-109 162 -169 271 -152 36 6 71 6 97 0 23 -6 102 -8 181 -5 77 3 172 5 210 4
86 0 119 11 168 59 49 47 64 76 73 141 10 77 -32 176 -100 238 -46 41 -53 44
-86 37 -19 -4 -76 -7 -127 -6 -76 2 -99 -1 -132 -17 -22 -12 -64 -24 -94 -27
-47 -6 -62 -3 -118 25 -67 33 -130 39 -195 20z m722 -90 c19 -21 18 -21 -5
-40 l-23 -19 41 -40 c22 -22 41 -44 41 -49 0 -19 -35 -36 -74 -36 -30 0 -41
-4 -41 -15 0 -11 12 -15 44 -15 29 0 46 -5 49 -14 7 -22 -39 -51 -82 -51 -31
0 -45 6 -67 31 -15 17 -30 46 -33 65 -8 38 -9 38 -37 24 -24 -13 -24 -31 0
-61 14 -17 17 -29 10 -41 -13 -24 -117 -26 -125 -3 -8 19 -30 19 -38 0 -6 -17
-56 -21 -56 -5 0 6 -7 10 -15 10 -8 0 -15 -4 -15 -10 0 -14 -52 -12 -71 3 -9
7 -19 24 -22 38 -5 20 -1 31 18 47 14 12 36 22 48 22 32 0 38 9 26 32 -10 18
-12 19 -29 3 -10 -9 -27 -15 -37 -13 -22 4 -31 38 -10 38 8 0 20 7 27 15 8 9
29 15 55 15 58 0 85 -32 85 -101 0 -53 10 -65 40 -49 23 12 27 48 6 56 -9 4
-14 24 -15 63 -1 71 20 96 79 96 45 0 70 -19 70 -51 0 -27 -26 -32 -61 -14
-30 17 -37 -15 -8 -40 31 -25 82 -37 87 -20 3 7 13 20 23 28 11 9 19 26 19 37
0 31 37 85 58 85 11 0 27 -9 38 -21z m-543 -30 c20 -25 22 -57 3 -81 -19 -25
-32 -22 -58 12 -36 49 -98 37 -98 -19 0 -29 25 -63 56 -79 16 -8 30 -8 53 1
63 23 65 -38 2 -66 -71 -32 -133 -15 -183 48 -15 20 -22 42 -22 75 0 51 19 83
69 120 26 19 39 21 95 16 50 -4 69 -10 83 -27z"/>
<path d="M4014 397 c-3 -9 -3 -25 1 -34 6 -16 8 -16 18 5 7 16 7 26 -1 34 -8
8 -13 7 -18 -5z"/>
<path d="M3630 305 c0 -9 5 -15 11 -13 6 2 11 8 11 13 0 5 -5 11 -11 13 -6 2
-11 -4 -11 -13z"/>
</g>
</svg>
