<?xml version="1.0" standalone="no"?>
<!DOCTYPE svg PUBLIC "-//W3C//DTD SVG 20010904//EN"
 "http://www.w3.org/TR/2001/REC-SVG-20010904/DTD/svg10.dtd">
<svg version="1.0" xmlns="http://www.w3.org/2000/svg"
 width="300.000000pt" height="223.000000pt" viewBox="0 0 300.000000 223.000000"
 preserveAspectRatio="xMidYMid meet">
<metadata>
Created by potrace 1.10, written by Peter Selinger 2001-2011
</metadata>
<g transform="translate(0.000000,223.000000) scale(0.100000,-0.100000)"
fill="#f3f3f3" stroke="none">
<path d="M1227 1966 c-18 -18 -38 -41 -45 -50 -13 -16 -16 -16 -31 -2 -41 37
-71 11 -82 -71 -4 -30 -10 -57 -13 -60 -13 -14 -26 13 -26 55 0 71 -42 116
-76 82 -7 -7 -22 -6 -47 5 -52 21 -89 19 -131 -10 l-38 -25 -30 26 c-29 23
-37 25 -100 21 -50 -4 -68 -1 -68 8 0 44 -125 64 -168 26 -20 -17 -22 -28 -22
-133 0 -140 5 -148 98 -148 33 0 63 4 67 10 3 6 15 5 31 -2 35 -16 62 13 65
72 3 56 8 70 24 70 8 0 14 -21 18 -57 4 -37 13 -63 26 -76 19 -19 21 -19 45
-3 24 15 28 15 51 0 38 -25 108 -23 144 4 l31 23 29 -22 c37 -27 134 -29 163
-2 18 16 21 16 51 0 56 -30 92 -32 133 -8 33 20 38 20 54 6 36 -33 65 -3 75
78 5 38 12 57 21 57 8 0 14 -3 15 -7 0 -5 2 -30 5 -57 3 -47 25 -86 47 -86 6
0 18 7 28 16 16 14 20 14 41 0 28 -18 128 -16 152 3 8 7 19 31 23 54 l8 41 18
-40 c26 -57 67 -79 141 -76 33 2 67 7 75 11 8 5 25 4 38 -2 36 -16 63 16 67
79 3 27 5 52 5 57 1 4 7 7 15 7 9 0 15 -17 18 -56 3 -38 11 -62 26 -76 20 -20
22 -20 46 -4 24 15 28 15 58 0 41 -21 100 -20 138 3 28 16 32 16 58 1 26 -15
56 -21 95 -19 29 2 67 47 67 80 0 16 -5 33 -11 37 -6 3 -8 16 -4 28 14 49 13
56 -16 81 -37 31 -82 32 -127 5 -32 -20 -32 -20 -69 0 -50 27 -93 25 -137 -5
l-38 -25 -30 26 c-29 24 -36 25 -97 19 -86 -8 -94 -8 -168 0 -48 5 -71 3 -95
-9 -27 -14 -34 -14 -47 -2 -15 13 -89 15 -109 2 -5 -3 -24 8 -43 24 -43 37
-52 37 -82 -2 -23 -29 -27 -30 -54 -19 -36 14 -131 11 -145 -6 -6 -7 -18 -13
-28 -13 -20 0 -44 25 -36 38 9 15 -24 52 -46 52 -11 0 -34 -15 -51 -34z m73 1
c0 -15 -69 -51 -79 -42 -3 4 1 10 9 15 8 5 24 16 35 24 25 19 35 20 35 3z
m-790 -23 c0 -13 -9 -15 -50 -12 l-50 3 0 -42 0 -43 45 0 c25 0 45 -4 45 -10
0 -5 -20 -10 -45 -10 l-45 0 0 -45 0 -45 50 0 c28 0 50 -4 50 -10 0 -6 -28
-10 -65 -10 l-65 0 0 120 0 120 65 0 c53 0 65 -3 65 -16z m1130 -19 c0 -22 3
-25 25 -19 19 5 25 2 25 -10 0 -10 -9 -16 -25 -16 -26 0 -26 -1 -23 -67 3 -62
5 -68 26 -71 33 -5 27 -22 -8 -22 -38 0 -50 23 -50 99 0 34 -4 61 -10 61 -5 0
-10 7 -10 16 0 8 5 12 10 9 6 -4 10 5 10 19 0 16 6 26 15 26 9 0 15 -9 15 -25z
m-1124 -27 c-1 -13 -9 -18 -26 -18 -17 0 -11 18 8 23 9 3 18 5 19 6 1 0 0 -5
-1 -11z m64 -5 c0 -15 1 -15 18 0 37 34 93 16 111 -34 17 -49 14 -139 -4 -139
-12 0 -15 13 -15 61 0 78 -11 99 -53 99 -48 0 -57 -15 -57 -92 0 -54 -3 -68
-15 -68 -12 0 -15 17 -15 95 0 78 3 95 15 95 8 0 15 -7 15 -17z m324 -4 c27
-21 35 -49 13 -49 -7 0 -18 9 -25 21 -20 32 -82 23 -100 -14 -25 -52 6 -107
59 -107 18 0 33 7 41 20 13 21 38 27 38 10 0 -24 -41 -50 -80 -50 -58 0 -90
34 -90 94 0 37 5 48 31 70 37 31 77 33 113 5z m92 -52 c1 -75 14 -97 54 -97
41 0 55 24 56 99 1 39 5 66 12 69 9 3 12 -24 12 -92 0 -57 -4 -96 -10 -96 -5
0 -10 7 -10 17 0 15 -1 15 -18 0 -25 -23 -78 -21 -102 3 -16 16 -20 33 -20 96
0 56 3 75 13 71 8 -2 12 -27 13 -70z m313 58 c31 -15 41 -33 41 -71 0 -23 -2
-24 -75 -24 -43 0 -75 -4 -75 -10 0 -19 40 -50 65 -50 14 0 34 9 45 20 38 38
55 22 18 -17 -30 -32 -96 -32 -127 0 -39 42 -29 126 17 152 35 18 56 19 91 0z
m111 0 c0 -12 5 -11 29 3 23 13 36 14 57 7 39 -14 54 -48 54 -122 0 -49 -3
-63 -15 -63 -12 0 -15 14 -15 68 0 77 -9 92 -57 92 -42 0 -53 -21 -53 -99 0
-48 -3 -61 -15 -61 -12 0 -15 16 -15 88 0 49 3 92 7 95 11 12 23 8 23 -8z
m330 0 c0 -13 3 -13 26 1 18 13 28 14 36 6 8 -8 4 -14 -18 -22 -39 -15 -44
-25 -44 -97 0 -49 -3 -63 -15 -63 -12 0 -15 16 -15 88 0 49 3 92 7 95 11 12
23 8 23 -8z m224 -6 l26 -20 0 20 c0 12 4 21 9 21 5 0 11 -43 13 -95 2 -71 0
-95 -9 -95 -7 0 -13 7 -13 17 0 15 -1 15 -18 0 -28 -26 -88 -22 -117 8 -19 18
-25 35 -25 69 0 37 5 48 31 70 37 31 67 33 103 5z m126 4 c0 -15 1 -15 18 0
10 10 30 17 43 17 29 0 69 -33 70 -58 0 -9 2 -43 5 -74 4 -48 2 -58 -11 -58
-12 0 -15 13 -15 61 0 78 -11 99 -53 99 -48 0 -57 -15 -57 -92 0 -54 -3 -68
-15 -68 -12 0 -15 17 -15 95 0 78 3 95 15 95 8 0 15 -7 15 -17z m331 -12 c23
-23 29 -38 29 -71 0 -56 -34 -90 -90 -90 -58 0 -90 33 -90 94 0 37 5 48 31 70
41 35 83 34 120 -3z m179 9 c11 -11 20 -24 20 -30 0 -16 -27 -12 -34 6 -4 10
-16 14 -38 12 -49 -5 -45 -37 6 -54 67 -24 84 -54 50 -88 -32 -33 -124 -10
-124 31 0 19 13 16 33 -7 19 -23 59 -26 75 -7 16 18 2 34 -42 49 -21 7 -45 23
-53 35 -14 20 -13 24 11 48 30 30 69 32 96 5z m-1710 -76 c0 -2 -11 -11 -25
-20 -20 -13 -28 -14 -40 -4 -19 16 -19 25 1 44 14 14 17 14 40 0 13 -9 24 -18
24 -20z m-385 -24 c3 -5 -3 -10 -15 -10 -12 0 -18 5 -15 10 3 6 10 10 15 10 5
0 12 -4 15 -10z"/>
<path d="M1216 1858 c-9 -12 -16 -26 -16 -30 0 -5 29 -8 65 -8 36 0 65 3 65 8
0 25 -34 52 -65 52 -24 0 -39 -7 -49 -22z"/>
<path d="M1875 1850 c-41 -79 52 -151 105 -83 16 20 20 36 16 58 -8 38 -30 55
-73 55 -26 0 -36 -6 -48 -30z m82 -25 c5 -17 -23 -49 -35 -41 -7 4 -12 18 -12
32 0 20 4 25 22 22 12 -2 23 -8 25 -13z"/>
<path d="M2321 1867 c-23 -28 -23 -71 -1 -100 24 -30 55 -35 88 -11 27 18 31
84 6 108 -19 20 -77 21 -93 3z m69 -51 c0 -32 -18 -43 -37 -23 -20 20 -10 47
17 47 15 0 20 -7 20 -24z"/>
<path d="M857 1438 c-14 -11 113 -13 648 -13 535 0 662 2 648 13 -25 18 -1271
18 -1296 0z"/>
<path d="M869 1401 c19 -12 1214 -14 1261 -2 21 6 -223 9 -620 10 -398 0 -649
-3 -641 -8z"/>
<path d="M341 1164 c-17 -21 -20 -35 -15 -63 8 -46 32 -75 50 -60 9 7 19 7 34
-1 27 -14 173 -14 200 0 13 7 21 7 25 -1 4 -6 35 -10 73 -9 63 2 141 2 362 0
134 0 173 1 179 5 3 1 37 0 74 -4 49 -5 76 -3 94 6 21 11 28 10 45 -1 12 -9
30 -12 46 -7 43 11 108 6 127 -9 13 -11 23 -11 49 -2 33 12 257 19 273 9 5 -3
22 0 37 8 20 11 33 12 46 5 20 -11 64 -12 220 -6 104 4 111 4 170 4 22 0 46 1
53 1 6 0 45 -3 85 -6 61 -4 77 -2 93 13 38 34 14 114 -35 114 -9 0 -27 7 -39
15 -21 13 -26 12 -61 -11 -32 -22 -42 -24 -64 -15 -15 5 -50 10 -79 10 -29 0
-60 4 -70 10 -12 6 -25 6 -36 -1 -10 -5 -64 -10 -120 -10 -56 -1 -108 -6 -114
-11 -9 -6 -23 -6 -40 1 -16 6 -69 10 -119 10 -68 0 -98 3 -114 15 -20 14 -26
14 -51 1 -15 -7 -36 -14 -47 -14 -10 0 -24 -6 -30 -12 -10 -10 -17 -10 -31 -1
-25 16 -131 14 -158 -3 -18 -11 -23 -11 -33 1 -7 8 -22 15 -34 15 -12 0 -27 5
-34 12 -9 9 -20 9 -48 -1 -42 -15 -204 -17 -231 -3 -12 7 -25 7 -37 0 -12 -7
-89 -10 -195 -10 -112 1 -184 -3 -198 -10 -18 -9 -29 -8 -47 2 -14 7 -31 10
-39 7 -7 -3 -33 -1 -58 5 -24 5 -57 11 -74 12 -16 2 -37 7 -46 10 -11 5 -23
-2 -38 -20z m73 -59 c15 -19 15 -18 16 23 0 23 5 42 10 42 6 0 10 -27 10 -60
0 -33 -4 -60 -9 -60 -4 0 -21 19 -37 42 l-29 42 -3 -42 c-5 -62 -23 -52 -21
11 4 68 8 75 30 46 10 -13 25 -33 33 -44z m924 53 c-2 -6 -10 -14 -16 -16 -7
-2 -10 2 -6 12 7 18 28 22 22 4z m412 -50 c0 -34 -3 -59 -6 -56 -9 10 -12 118
-2 118 4 0 8 -28 8 -62z m826 46 c-3 -9 -6 -35 -6 -58 0 -37 -3 -42 -24 -44
-31 -2 -50 21 -42 53 5 18 13 25 31 25 18 0 25 5 25 20 0 11 5 20 11 20 6 0 8
-7 5 -16z m-1510 -9 c-3 -10 1 -15 12 -16 16 -1 16 -2 0 -6 -23 -6 -25 -53 -2
-53 8 0 12 -4 9 -10 -14 -23 -33 -9 -37 28 -4 47 0 72 14 72 5 0 8 -7 4 -15z
m1248 -17 c8 -5 7 -8 -1 -8 -7 0 -13 -11 -13 -25 0 -14 5 -25 10 -25 6 0 10
-5 10 -11 0 -6 -8 -9 -17 -7 -22 4 -34 64 -19 93 7 16 10 17 14 5 3 -8 10 -18
16 -22z m-1783 -19 c21 -39 -28 -78 -59 -47 -16 16 -15 44 3 62 18 18 41 11
56 -15z m69 10 c0 -4 -7 -6 -15 -3 -20 8 -19 -6 2 -21 21 -16 10 -45 -17 -45
-28 0 -26 20 3 21 l22 0 -22 11 c-25 12 -31 44 -10 51 15 5 37 -3 37 -14z
m110 -14 c0 -9 -10 -15 -25 -15 -34 0 -32 -18 3 -22 24 -4 25 -5 8 -13 -41
-18 -77 45 -41 72 21 15 55 1 55 -22z m150 15 c0 -4 -8 -7 -17 -6 -12 0 -19
-7 -21 -21 -3 -19 1 -23 22 -23 21 0 26 5 26 25 0 36 34 51 59 26 34 -34 2
-89 -38 -64 -11 7 -21 7 -33 -1 -39 -24 -76 35 -43 67 15 16 45 13 45 -3z
m276 -2 c-9 -5 -16 -22 -16 -38 0 -17 -4 -30 -10 -30 -5 0 -10 18 -10 39 0 29
4 41 18 44 25 5 37 -4 18 -15z m68 6 c9 -8 16 -28 16 -44 0 -26 -3 -28 -32
-27 -39 2 -45 27 -10 42 27 12 29 29 2 22 -22 -6 -28 8 -7 16 6 3 13 6 14 6 1
1 9 -6 17 -15z m63 -5 c-10 -6 -17 -22 -17 -39 0 -17 -4 -30 -10 -30 -5 0 -10
18 -10 39 0 33 4 40 23 43 29 5 36 -1 14 -13z m136 3 c-28 -4 -30 -18 -3 -25
23 -6 27 -35 5 -43 -8 -4 -23 -3 -32 2 -15 6 -14 8 6 12 l25 4 -25 19 c-23 18
-23 20 -6 33 11 8 26 12 35 8 14 -6 13 -7 -5 -10z m598 -13 c21 -39 -28 -78
-59 -47 -17 17 -15 56 5 66 21 12 41 5 54 -19z m96 14 c2 -6 -4 -10 -14 -9
-12 0 -19 -7 -21 -21 -3 -19 1 -23 21 -23 19 0 26 6 31 31 5 26 10 30 33 27
38 -4 45 -38 9 -38 -35 0 -33 -18 2 -22 24 -4 25 -5 8 -13 -11 -5 -25 -4 -35
2 -11 7 -21 7 -33 -1 -39 -24 -76 35 -42 68 17 18 35 17 41 -1z m275 -4 c-16
-6 -22 -17 -22 -39 0 -16 -4 -30 -10 -30 -5 0 -10 18 -10 39 0 33 4 40 23 43
31 6 45 -4 19 -13z m288 -14 c0 -9 -10 -15 -25 -15 -34 0 -32 -18 3 -22 24 -4
25 -5 8 -13 -41 -18 -77 45 -41 72 21 15 55 1 55 -22z m-1872 -17 c2 -22 -1
-38 -7 -38 -6 0 -11 16 -11 36 0 45 -24 42 -28 -4 -5 -46 -22 -39 -22 9 0 39
1 40 33 37 29 -3 32 -6 35 -40z m240 0 c2 -22 -1 -38 -7 -38 -6 0 -11 16 -11
35 0 24 -5 35 -15 35 -10 0 -15 -11 -15 -35 0 -19 -4 -35 -10 -35 -5 0 -10 18
-10 41 0 39 1 40 33 37 29 -3 32 -6 35 -40z m320 2 c3 -32 0 -36 -24 -38 -15
-1 -31 3 -35 10 -9 15 8 38 27 38 8 0 14 5 14 11 0 6 -9 8 -20 4 -12 -4 -20
-2 -20 5 0 6 12 10 28 8 23 -3 27 -8 30 -38z m172 36 c0 -2 3 -11 6 -20 5 -13
-1 -16 -26 -16 -18 0 -29 -4 -25 -10 3 -5 15 -10 26 -10 11 0 17 -4 14 -10
-11 -17 -44 -11 -55 10 -15 28 4 60 35 60 14 0 25 -2 25 -4z m88 -38 c2 -22
-1 -38 -7 -38 -6 0 -11 16 -11 35 0 24 -5 35 -15 35 -10 0 -15 -11 -15 -35 0
-19 -4 -35 -10 -35 -5 0 -10 18 -10 41 0 39 1 40 33 37 29 -3 32 -6 35 -40z
m107 7 c0 -22 -6 -33 -22 -40 -13 -5 -23 -16 -23 -23 0 -7 -4 -10 -10 -7 -5 3
-10 29 -10 56 l0 50 33 -3 c28 -3 32 -6 32 -33z m115 31 c0 -2 3 -11 6 -20 5
-13 -1 -16 -27 -16 -37 0 -29 -16 11 -22 23 -4 23 -5 6 -13 -34 -15 -67 23
-52 61 5 12 56 21 56 10z m88 -38 c2 -22 -1 -38 -7 -38 -6 0 -11 16 -11 36 0
45 -24 42 -28 -4 -5 -46 -22 -39 -22 9 0 39 1 40 33 37 29 -3 32 -6 35 -40z
m341 0 l-2 -43 -6 35 c-4 22 -12 35 -21 35 -9 0 -17 -13 -21 -35 l-6 -35 -2
43 c-1 40 0 42 29 42 29 0 30 -2 29 -42z m207 17 c7 -29 -10 -55 -36 -55 -26
0 -43 26 -36 55 5 20 13 25 36 25 23 0 31 -5 36 -25z"/>
<path d="M2527 1114 c-15 -15 -7 -45 11 -42 9 2 17 12 17 22 0 20 -16 31 -28
20z"/>
<path d="M487 1114 c-15 -15 -7 -45 11 -42 9 2 17 12 17 22 0 20 -16 31 -28
20z"/>
<path d="M660 1110 c0 -5 7 -10 15 -10 8 0 15 5 15 10 0 6 -7 10 -15 10 -8 0
-15 -4 -15 -10z"/>
<path d="M897 1114 c-15 -15 -7 -45 11 -42 9 2 17 12 17 22 0 20 -16 31 -28
20z"/>
<path d="M1957 1114 c-15 -15 -7 -45 11 -42 9 2 17 12 17 22 0 20 -16 31 -28
20z"/>
<path d="M2610 1110 c0 -5 7 -10 15 -10 8 0 15 5 15 10 0 6 -7 10 -15 10 -8 0
-15 -4 -15 -10z"/>
<path d="M1475 1110 c-3 -5 3 -10 15 -10 12 0 18 5 15 10 -3 6 -10 10 -15 10
-5 0 -12 -4 -15 -10z"/>
<path d="M1677 1113 c-13 -12 -7 -43 8 -43 9 0 15 9 15 25 0 24 -10 32 -23 18z"/>
<path d="M1790 1110 c0 -5 7 -10 15 -10 8 0 15 5 15 10 0 6 -7 10 -15 10 -8 0
-15 -4 -15 -10z"/>
<path d="M2417 1114 c-16 -16 -7 -44 14 -44 15 0 20 5 17 22 -3 22 -19 33 -31
22z"/>
<path d="M446 918 c-17 -24 -20 -70 -7 -103 7 -16 19 -20 62 -22 204 -10 265
-10 276 -1 7 6 25 5 50 -1 63 -17 122 -19 143 -4 13 9 21 10 25 3 9 -14 155
-11 173 3 9 7 21 6 38 -2 32 -14 127 -14 141 0 7 7 17 8 29 1 25 -13 143 -13
165 1 12 7 22 8 31 1 11 -9 97 -10 193 -4 37 3 108 -11 137 -26 26 -14 35 -13
76 0 26 8 58 17 72 19 14 2 33 7 42 11 9 4 25 3 37 -3 25 -14 106 -14 132 -1
11 6 24 8 30 4 21 -12 236 -16 258 -4 45 24 18 120 -34 120 -10 0 -26 7 -36
16 -16 15 -20 15 -41 0 -14 -10 -43 -16 -78 -16 -31 0 -61 -5 -68 -12 -9 -9
-17 -9 -35 1 -17 9 -74 12 -216 9 -174 -4 -193 -2 -208 14 -21 24 -39 23 -57
-3 -8 -12 -18 -19 -23 -16 -4 3 -33 6 -63 8 -30 1 -68 9 -83 18 -27 15 -29 15
-45 -6 -16 -21 -21 -22 -57 -12 -22 6 -46 16 -53 21 -9 8 -23 3 -52 -17 -29
-20 -43 -25 -52 -17 -8 6 -78 10 -176 11 -159 0 -165 -1 -187 -24 l-24 -23
-11 34 c-14 43 -26 50 -57 33 -18 -10 -29 -10 -43 -2 -14 9 -26 9 -49 0 -25
-9 -36 -9 -52 1 -17 11 -25 11 -44 -2 -31 -20 -72 -20 -110 0 -24 12 -33 13
-53 3 -18 -10 -27 -10 -42 -1 -28 17 -37 15 -54 -10z m51 -33 c9 -19 20 -35
23 -35 3 0 14 16 23 35 25 52 37 43 37 -25 0 -33 -4 -60 -10 -60 -5 0 -10 19
-11 43 l0 42 -16 -32 c-20 -40 -26 -41 -44 -5 l-14 27 -3 -37 c-5 -61 -22 -44
-22 22 0 68 12 77 37 25z m243 -19 c0 -46 -3 -54 -21 -59 -32 -9 -49 3 -49 33
0 30 23 56 40 45 6 -3 10 3 10 14 0 12 5 21 10 21 6 0 10 -24 10 -54z m180 -4
c0 -56 -1 -58 -26 -57 -36 0 -51 26 -36 59 6 14 18 26 27 26 8 0 15 7 15 15 0
8 5 15 10 15 6 0 10 -26 10 -58z m530 0 c0 -54 -2 -58 -22 -57 -33 0 -48 13
-48 39 0 27 24 51 40 41 6 -3 10 3 10 14 0 12 5 21 10 21 6 0 10 -26 10 -58z
m144 1 c-1 -32 -6 -57 -9 -56 -12 5 -11 113 1 113 7 0 10 -21 8 -57z m216 -3
c0 -33 -4 -60 -10 -60 -6 0 -10 27 -10 60 0 33 4 60 10 60 6 0 10 -27 10 -60z
m659 43 c-11 -13 -11 -17 -1 -20 7 -3 12 -21 12 -42 0 -34 -2 -37 -27 -36 -37
0 -39 36 -3 45 17 4 21 8 12 14 -6 4 -16 5 -21 1 -5 -3 -12 -1 -15 4 -3 5 1
11 9 15 8 3 15 12 15 21 0 8 7 15 16 15 14 0 15 -2 3 -17z m-1821 -25 c21 -21
15 -65 -10 -71 -29 -8 -52 11 -37 29 6 8 18 14 25 14 8 0 14 5 14 11 0 6 -9 9
-20 6 -20 -5 -26 3 -13 16 10 11 28 8 41 -5z m162 3 c3 -1 -6 -7 -19 -12 -18
-7 -22 -14 -17 -33 3 -14 2 -28 -4 -31 -6 -4 -10 11 -10 38 0 40 2 44 23 42
12 -1 24 -3 27 -4z m30 -42 c0 -21 -4 -39 -10 -39 -5 0 -10 21 -10 46 0 27 4
43 10 39 6 -3 10 -24 10 -46z m215 41 c3 -5 -3 -10 -13 -10 -11 0 -22 -6 -25
-13 -8 -21 9 -41 28 -33 11 4 15 2 13 -6 -7 -20 -39 -15 -54 7 -12 18 -11 24
2 43 16 23 39 29 49 12z m74 -9 c12 -21 5 -31 -21 -31 -10 0 -18 -5 -18 -11 0
-6 9 -9 20 -6 23 6 27 -11 5 -19 -35 -14 -61 46 -33 74 17 17 36 15 47 -7z
m71 8 c0 -5 -7 -9 -15 -9 -10 0 -15 -11 -15 -35 0 -19 -4 -35 -10 -35 -5 0
-10 19 -10 43 0 38 2 42 25 43 14 1 25 -2 25 -7z m65 2 c3 -5 -5 -11 -17 -13
-32 -4 -32 -43 0 -42 25 1 30 -11 7 -20 -40 -15 -69 32 -39 65 18 20 39 25 49
10z m59 3 c11 -4 16 -19 16 -43 0 -34 -2 -37 -27 -36 -35 0 -45 34 -14 42 12
3 21 10 21 15 0 6 -9 8 -20 5 -22 -6 -28 8 -7 16 6 3 13 6 14 6 1 1 8 -2 17
-5z m200 -10 c20 -20 12 -34 -20 -34 -16 0 -23 -4 -18 -11 3 -6 15 -8 26 -6
12 4 18 1 15 -6 -2 -7 -10 -13 -18 -14 -35 -7 -60 45 -34 71 20 20 29 20 49 0z
m150 0 c9 -8 16 -22 16 -29 0 -15 -27 -45 -40 -45 -12 0 -40 29 -40 41 0 20
21 49 35 49 7 0 21 -7 29 -16z m71 6 c3 -6 -4 -10 -17 -11 l-23 0 23 -16 c12
-8 22 -21 22 -28 0 -18 -28 -27 -48 -15 -15 8 -14 9 6 10 26 0 28 8 5 25 -9 7
-14 19 -10 29 7 18 32 22 42 6z m105 -25 c0 -24 5 -35 15 -35 10 0 15 11 15
35 0 19 5 35 10 35 6 0 10 -17 10 -39 0 -31 -4 -40 -21 -44 -36 -10 -49 2 -49
44 0 21 5 39 10 39 6 0 10 -16 10 -35z m121 25 c12 0 -2 -33 -20 -47 -14 -11
-13 -12 7 -13 37 0 24 -34 -15 -38 -31 -3 -31 -3 -29 40 2 51 13 71 33 64 8
-3 19 -6 24 -6z m67 -2 c7 -7 12 -26 12 -43 0 -27 -3 -31 -27 -30 -35 0 -45
34 -14 42 12 3 21 10 21 15 0 6 -9 8 -20 5 -22 -6 -28 8 -7 16 19 8 22 8 35
-5z m82 3 c0 -5 -10 -11 -21 -14 -17 -5 -20 -11 -15 -31 3 -14 2 -28 -4 -31
-6 -4 -10 11 -10 37 0 39 2 44 25 46 14 1 25 -2 25 -7z m54 3 c9 -3 16 -15 16
-25 0 -14 -7 -19 -26 -19 -15 0 -23 -4 -18 -11 3 -6 15 -8 26 -6 12 4 18 1 15
-6 -6 -19 -33 -20 -51 -2 -20 21 -20 39 0 59 18 18 17 18 38 10z m81 -4 c3 -6
-4 -10 -17 -10 l-23 0 25 -20 c23 -18 24 -20 8 -36 -11 -11 -22 -14 -35 -9
-16 8 -16 9 5 12 24 5 31 23 8 23 -22 0 -30 19 -16 35 14 17 36 19 45 5z m143
-3 c14 -10 16 -63 2 -72 -6 -4 -10 8 -10 29 0 25 -4 36 -15 36 -10 0 -15 -11
-15 -35 0 -19 -4 -35 -10 -35 -5 0 -10 16 -10 35 0 19 -4 35 -10 35 -5 0 -10
-16 -10 -35 0 -19 -4 -35 -10 -35 -5 0 -10 19 -10 43 l0 43 43 -1 c23 0 48 -4
55 -8z m147 4 c3 -5 -5 -12 -17 -14 l-23 -4 23 -8 c25 -8 30 -40 6 -49 -9 -3
-23 -2 -32 4 -15 8 -14 9 6 10 26 0 28 8 5 25 -9 7 -14 19 -10 29 7 17 32 22
42 7z m-1591 -86 c-7 -18 -8 -18 -14 1 -9 23 -1 39 11 27 6 -6 6 -18 3 -28z"/>
<path d="M684 855 c-7 -18 3 -35 22 -35 8 0 14 10 14 25 0 27 -27 35 -36 10z"/>
<path d="M870 845 c0 -16 6 -25 15 -25 9 0 15 9 15 25 0 16 -6 25 -15 25 -9 0
-15 -9 -15 -25z"/>
<path d="M1400 845 c0 -16 6 -25 15 -25 9 0 15 9 15 25 0 16 -6 25 -15 25 -9
0 -15 -9 -15 -25z"/>
<path d="M1632 848 c2 -12 10 -23 18 -23 22 0 19 39 -3 43 -15 3 -18 -1 -15
-20z"/>
<path d="M1925 800 c3 -5 13 -10 21 -10 8 0 14 5 14 10 0 6 -9 10 -21 10 -11
0 -17 -4 -14 -10z"/>
<path d="M1557 674 c-14 -14 -31 -23 -36 -19 -17 10 -330 6 -350 -4 -11 -7
-21 -7 -28 0 -5 5 -47 10 -93 10 -46 1 -95 6 -109 12 -34 13 -141 16 -166 3
-33 -17 -165 -17 -212 0 -30 11 -47 12 -61 5 -13 -7 -22 -7 -30 1 -8 8 -21 6
-49 -5 -22 -8 -71 -15 -111 -16 -83 -1 -105 -14 -105 -62 0 -62 -13 -61 474
-63 285 -1 450 1 461 8 11 6 25 7 40 0 13 -5 93 -8 183 -6 212 5 228 6 242 15
7 4 33 1 58 -8 51 -17 218 -19 248 -3 12 6 23 6 31 -1 13 -11 130 -8 159 4 9
4 23 2 30 -3 7 -6 41 -11 75 -10 35 0 68 -4 76 -11 12 -10 20 -10 38 0 12 7
41 11 63 11 22 -1 53 2 69 6 15 4 58 2 95 -4 52 -9 70 -9 87 2 15 9 32 10 59
4 66 -15 105 3 105 49 0 30 -25 71 -43 71 -7 0 -25 7 -41 15 -37 20 -54 13
-68 -25 l-10 -31 -22 20 c-13 12 -36 21 -53 21 -17 0 -36 7 -43 15 -15 19 -40
19 -65 1 -13 -8 -53 -14 -108 -15 -74 -2 -94 1 -123 18 -44 26 -62 26 -90 0
-18 -17 -30 -20 -63 -14 -23 4 -43 11 -47 16 -9 16 -31 10 -63 -17 -24 -20
-35 -23 -45 -15 -7 6 -55 12 -107 13 -54 1 -100 7 -109 14 -8 6 -38 14 -66 18
-46 6 -54 4 -77 -20z m458 -60 l0 -54 -32 0 c-23 0 -33 6 -38 20 -9 28 13 63
36 57 15 -4 19 0 19 21 0 14 3 22 8 18 4 -4 7 -32 7 -62z m675 6 c0 -33 -4
-60 -10 -60 -11 0 -14 103 -3 113 12 12 13 8 13 -53z m-2230 31 c0 -14 5 -18
19 -14 13 3 21 -2 26 -16 11 -36 -3 -61 -36 -61 -29 0 -29 1 -29 55 0 30 5 55
10 55 6 0 10 -9 10 -19z m80 -36 c0 -30 -4 -55 -10 -55 -5 0 -10 25 -10 55 0
30 5 55 10 55 6 0 10 -25 10 -55z m380 45 c0 -5 -7 -10 -15 -10 -8 0 -15 5
-15 10 0 6 7 10 15 10 8 0 15 -4 15 -10z m721 -6 c16 -20 1 -48 -30 -52 -13
-2 -21 -11 -21 -23 0 -10 -4 -19 -10 -19 -5 0 -10 25 -10 55 0 54 1 55 29 55
16 0 34 -7 42 -16z m39 -39 c0 -30 -4 -55 -10 -55 -5 0 -10 25 -10 55 0 30 5
55 10 55 6 0 10 -25 10 -55z m530 45 c0 -5 -11 -10 -25 -10 -32 0 -34 -29 -2
-31 l22 -2 -22 -4 c-34 -6 -30 -41 5 -46 22 -3 20 -4 -10 -6 l-38 -1 0 55 0
55 35 0 c19 0 35 -4 35 -10z m300 -2 c0 -4 -12 -8 -26 -8 -14 0 -23 4 -19 9 6
11 45 10 45 -1z m-1638 -36 c-16 -5 -16 -49 1 -56 6 -3 3 -5 -8 -3 -23 3 -37
51 -23 80 8 16 10 16 26 1 12 -13 13 -19 4 -22z m-582 14 c0 -2 3 -11 6 -20 5
-12 0 -16 -21 -16 -17 0 -25 -4 -22 -12 2 -7 14 -12 26 -11 11 2 21 -2 21 -7
0 -6 -13 -10 -30 -10 -23 0 -31 5 -36 25 -7 29 10 55 37 55 11 0 19 -2 19 -4z
m128 -38 c2 -22 -1 -38 -7 -38 -6 0 -11 14 -11 30 0 17 -4 30 -10 30 -5 0 -10
-13 -10 -30 0 -16 -4 -30 -10 -30 -5 0 -10 14 -10 30 0 20 -5 30 -15 30 -10 0
-15 -10 -15 -30 0 -16 -5 -30 -10 -30 -8 0 -8 70 -1 76 1 0 22 0 49 0 l47 -1
3 -37z m202 22 c10 -18 8 -20 -20 -20 -21 0 -30 -4 -27 -12 2 -7 14 -13 26
-12 11 0 21 -3 21 -8 0 -17 -50 -7 -60 12 -14 26 3 60 30 60 11 0 24 -9 30
-20z m118 8 c14 -12 16 -68 2 -68 -5 0 -10 14 -10 30 0 20 -5 30 -15 30 -10 0
-15 -10 -15 -30 0 -16 -4 -30 -10 -30 -5 0 -10 14 -10 30 0 17 -4 30 -10 30
-5 0 -10 -13 -10 -30 0 -16 -4 -30 -10 -30 -5 0 -10 17 -10 38 0 38 0 38 43
39 23 1 48 -4 55 -9z m80 -30 c3 -36 2 -38 -27 -38 -36 0 -44 28 -11 37 26 7
26 23 -1 23 -12 0 -17 4 -14 11 4 5 17 9 28 7 17 -2 23 -11 25 -40z m94 2 c2
-22 0 -40 -4 -40 -5 0 -8 18 -8 40 0 22 2 40 4 40 2 0 6 -18 8 -40z m78 30 c0
-5 -9 -10 -21 -10 -15 0 -20 -5 -17 -22 2 -15 9 -22 21 -22 9 1 17 -3 17 -8 0
-5 -12 -8 -27 -6 -48 5 -40 78 8 78 11 0 19 -4 19 -10z m70 -4 c6 -8 10 -25 8
-38 -2 -18 -9 -23 -33 -23 -24 0 -31 5 -33 23 -2 13 -1 30 2 38 7 18 40 18 56
0z m75 4 c3 -5 -4 -10 -16 -10 l-21 0 22 -18 c13 -11 20 -24 16 -30 -8 -14
-56 -16 -56 -3 0 5 9 7 20 4 26 -7 25 4 -2 26 -12 10 -18 23 -14 29 9 15 43
16 51 2z m100 0 c3 -5 -3 -10 -14 -10 -24 0 -33 -13 -25 -34 4 -11 13 -14 25
-11 11 4 19 2 19 -4 0 -6 -11 -11 -25 -11 -31 0 -50 32 -35 60 11 21 44 27 55
10z m75 -4 c6 -8 10 -25 8 -38 -2 -18 -9 -23 -33 -23 -26 0 -30 4 -33 29 -5
41 32 62 58 32z m128 -28 c2 -22 -1 -38 -7 -38 -6 0 -11 14 -11 30 0 17 -4 30
-10 30 -5 0 -10 -13 -10 -30 0 -16 -4 -30 -10 -30 -5 0 -10 14 -10 30 0 20 -5
30 -15 30 -10 0 -15 -10 -15 -30 0 -16 -4 -30 -10 -30 -5 0 -10 17 -10 39 l0
38 53 -1 52 -1 3 -37z m82 27 c7 -8 10 -25 6 -40 -5 -20 -13 -25 -36 -25 -33
0 -47 27 -30 60 13 24 42 26 60 5z m238 -27 c3 -36 2 -38 -26 -38 -16 0 -31 3
-35 6 -11 11 5 34 24 34 10 0 19 5 19 10 0 6 -9 10 -21 10 -12 0 -17 4 -14 11
4 5 17 9 28 7 17 -2 23 -11 25 -40z m72 33 c0 -4 -9 -20 -20 -34 l-20 -26 22
-4 c17 -3 14 -5 -9 -6 -36 -1 -42 9 -18 29 8 7 15 16 15 21 0 5 -7 9 -15 9 -8
0 -15 5 -15 10 0 6 14 10 30 10 17 0 30 -4 30 -9z m68 -3 c7 -7 12 -25 12 -41
0 -26 -3 -28 -32 -25 -38 4 -46 31 -10 36 28 4 29 22 1 22 -11 0 -17 5 -14 10
8 14 28 13 43 -2z m192 -3 c16 -19 5 -34 -21 -28 -16 4 -20 2 -17 -8 3 -8 15
-13 27 -12 11 2 21 -2 21 -7 0 -6 -13 -10 -30 -10 -23 0 -31 5 -36 25 -11 43
29 72 56 40z m185 5 c3 -6 -4 -10 -17 -11 l-23 0 23 -11 c31 -15 24 -42 -12
-46 -17 -2 -26 0 -22 7 4 5 13 8 21 4 22 -8 18 10 -6 25 -16 11 -18 16 -9 28
14 16 36 18 45 4z m80 -30 c0 -29 -4 -36 -22 -38 -13 -2 -23 -10 -23 -18 0 -8
-4 -14 -10 -14 -5 0 -10 24 -10 54 l0 54 33 -1 c30 -2 32 -5 32 -37z m75 21
c5 -11 10 -29 10 -41 0 -18 -5 -21 -32 -18 -38 4 -46 31 -10 36 28 4 29 22 1
22 -11 0 -17 5 -14 10 10 16 34 11 45 -9z m88 -23 c2 -22 -1 -38 -7 -38 -6 0
-11 14 -11 30 0 20 -5 30 -15 30 -10 0 -15 -10 -15 -30 0 -16 -4 -30 -10 -30
-5 0 -10 18 -10 39 0 38 1 39 33 38 29 -2 32 -5 35 -39z m76 26 c3 -9 6 -27 6
-40 0 -20 -5 -24 -28 -24 -16 0 -31 3 -35 6 -11 11 5 34 24 34 10 0 19 5 19
10 0 6 -9 10 -21 10 -11 0 -17 5 -14 10 10 16 42 12 49 -6z m174 -26 c3 -36 2
-38 -27 -38 -36 0 -44 28 -11 37 26 7 26 23 -1 23 -12 0 -17 4 -14 11 4 5 17
9 28 7 17 -2 23 -11 25 -40z m-138 -32 c0 -8 -4 -18 -10 -21 -5 -3 -10 3 -10
14 0 12 5 21 10 21 6 0 10 -6 10 -14z"/>
<path d="M1963 604 c-7 -18 11 -39 26 -30 17 11 13 46 -4 46 -9 0 -18 -7 -22
-16z"/>
<path d="M460 594 c0 -31 23 -28 28 4 2 15 -2 22 -12 22 -11 0 -16 -9 -16 -26z"/>
<path d="M1590 629 c0 -25 33 -22 38 4 2 12 -3 17 -17 17 -15 0 -21 -6 -21
-21z"/>
<path d="M1016 611 c-9 -14 5 -42 18 -38 18 6 20 47 2 47 -8 0 -17 -4 -20 -9z"/>
<path d="M1266 611 c-9 -14 4 -41 20 -41 8 0 14 10 14 25 0 25 -23 35 -34 16z"/>
<path d="M1472 598 c2 -13 10 -23 18 -23 8 0 16 10 18 23 3 17 -2 22 -18 22
-16 0 -21 -5 -18 -22z"/>
<path d="M1710 580 c0 -5 7 -10 15 -10 8 0 15 5 15 10 0 6 -7 10 -15 10 -8 0
-15 -4 -15 -10z"/>
<path d="M2310 595 c0 -28 24 -34 34 -9 8 20 -1 34 -20 34 -8 0 -14 -10 -14
-25z"/>
<path d="M2550 580 c0 -5 7 -10 15 -10 8 0 15 5 15 10 0 6 -7 10 -15 10 -8 0
-15 -4 -15 -10z"/>
<path d="M349 421 c-34 -34 -37 -68 -9 -104 26 -32 56 -39 120 -27 31 6 58 6
64 1 6 -5 20 -7 31 -5 11 2 40 5 65 7 25 3 53 8 63 12 9 4 23 3 30 -2 11 -9
88 -16 145 -13 56 2 78 2 97 -3 11 -3 30 2 43 10 18 11 27 12 37 3 7 -6 41
-12 74 -14 34 -1 66 -7 73 -14 8 -8 16 -8 32 1 22 13 189 19 433 16 45 0 90 4
101 10 15 8 23 7 32 -4 9 -10 24 -13 54 -9 22 3 48 6 56 5 8 -1 44 -1 80 0 65
2 75 2 182 -2 34 -1 63 3 73 11 8 7 22 9 32 5 10 -4 41 -8 68 -9 28 -1 81 -7
118 -14 37 -7 73 -9 79 -6 6 4 39 9 72 10 76 3 94 21 68 67 -29 50 -61 69
-102 61 -39 -7 -38 -7 -100 1 -25 4 -49 11 -54 16 -14 13 -50 11 -64 -3 -9 -9
-15 -9 -24 0 -18 18 -52 14 -65 -7 -11 -17 -16 -18 -47 -7 -20 7 -39 15 -42
19 -14 14 -48 6 -79 -17 -22 -17 -35 -22 -43 -14 -5 5 -40 12 -76 13 -38 3
-76 11 -88 20 -28 19 -82 20 -98 0 -9 -11 -16 -12 -31 -2 -15 9 -23 9 -39 -1
-24 -14 -70 -16 -70 -2 0 17 -41 11 -67 -10 -27 -21 -58 -26 -67 -11 -3 5 -44
8 -89 8 -57 -1 -93 3 -111 13 -22 11 -31 12 -46 2 -11 -7 -28 -12 -38 -12 -9
0 -27 -7 -38 -15 -19 -12 -24 -12 -40 0 -11 8 -28 15 -38 15 -11 0 -27 7 -37
16 -16 15 -19 14 -39 -9 -19 -21 -25 -23 -49 -14 -22 8 -33 7 -50 -5 -19 -14
-27 -14 -49 -3 -77 38 -78 38 -106 20 -28 -19 -94 -28 -111 -15 -5 4 -50 8
-100 8 -64 0 -99 4 -120 16 -43 23 -63 20 -96 -13z m471 0 c0 -12 -20 -25 -27
-18 -7 7 6 27 18 27 5 0 9 -4 9 -9z m240 -51 c0 -33 -4 -60 -10 -60 -6 0 -10
27 -10 60 0 33 4 60 10 60 6 0 10 -27 10 -60z m230 0 c0 -33 -4 -60 -10 -60
-6 0 -10 27 -10 60 0 33 4 60 10 60 6 0 10 -27 10 -60z m330 2 c0 -57 0 -58
-30 -60 -24 -2 -31 2 -36 23 -7 30 10 55 38 55 10 0 16 5 13 10 -6 10 1 30 11
30 2 0 4 -26 4 -58z m120 -2 c0 -33 -4 -60 -10 -60 -6 0 -10 27 -10 60 0 33 4
60 10 60 6 0 10 -27 10 -60z m401 -5 c-5 -45 -9 -50 -30 -50 -51 0 -53 66 -2
73 14 2 21 11 21 25 0 12 4 17 9 12 4 -6 5 -33 2 -60z m-1695 44 c5 -8 -1 -10
-20 -7 -35 7 -59 -12 -54 -43 2 -18 10 -25 31 -27 27 -3 38 12 15 21 -7 2 -10
8 -6 12 14 15 39 -5 36 -27 -2 -18 -11 -24 -34 -26 -53 -5 -80 40 -54 89 12
21 74 27 86 8z m1430 -13 c13 -22 14 -29 2 -53 -10 -22 -21 -29 -51 -31 l-37
-3 0 55 0 56 35 0 c26 0 39 -6 51 -24z m431 -6 c9 -16 20 -30 23 -30 3 0 14
14 23 30 26 44 37 37 37 -25 0 -30 -4 -55 -10 -55 -5 0 -10 17 -10 38 l-1 37
-15 -27 c-8 -16 -19 -28 -24 -28 -5 0 -16 12 -24 28 l-15 27 -1 -37 c0 -21 -4
-38 -10 -38 -5 0 -10 25 -10 55 0 62 11 69 37 25z m-1797 -10 c0 -5 -7 -10
-15 -10 -10 0 -15 -10 -15 -30 0 -16 -4 -30 -10 -30 -5 0 -10 18 -10 40 0 36
3 40 25 40 14 0 25 -4 25 -10z m68 -30 c3 -33 1 -36 -28 -38 -24 -2 -30 2 -30
17 0 10 9 21 20 24 11 3 20 10 20 17 0 7 -8 9 -21 5 -15 -5 -19 -4 -14 5 4 6
17 10 28 8 17 -2 23 -11 25 -38z m84 28 c11 -18 10 -68 -1 -68 -6 0 -11 15
-13 33 -2 17 -7 32 -13 32 -5 0 -11 -15 -13 -32 -4 -46 -22 -41 -22 5 0 34 3
38 27 40 15 1 30 -4 35 -10z m66 -15 l10 -28 11 28 c6 15 15 27 20 27 5 0 2
-18 -6 -40 -9 -22 -19 -40 -23 -40 -6 0 -40 64 -40 75 0 17 20 0 28 -22z m82
-13 c0 -22 -4 -40 -10 -40 -5 0 -10 18 -10 40 0 22 5 40 10 40 6 0 10 -18 10
-40z m70 23 c0 -10 3 -28 6 -40 5 -19 2 -21 -27 -20 -41 2 -49 23 -15 38 30
14 26 30 -6 21 -14 -3 -19 -2 -14 6 12 19 56 15 56 -5z m116 2 c12 -30 -5 -65
-31 -65 -31 0 -50 32 -35 60 13 24 58 27 66 5z m142 -27 c3 -36 2 -38 -27 -38
-24 0 -31 4 -31 19 0 11 9 23 20 26 11 3 20 11 20 16 0 6 -9 7 -21 4 -15 -5
-19 -4 -14 5 4 6 17 10 28 8 17 -2 23 -11 25 -40z m117 22 c8 -26 -11 -60 -35
-60 -11 0 -19 -4 -17 -9 1 -5 -1 -9 -5 -10 -5 -1 -8 1 -8 4 0 3 0 24 0 48 0
40 2 43 29 45 22 2 31 -3 36 -18z m109 4 c3 -9 6 -27 6 -40 0 -22 -4 -25 -32
-22 -40 4 -47 24 -14 39 26 12 27 33 1 22 -8 -3 -15 0 -15 6 0 17 47 13 54 -5z
m76 10 c0 -3 -10 -20 -22 -37 -18 -25 -19 -29 -5 -24 9 3 19 2 22 -3 4 -6 -7
-10 -24 -10 -37 0 -37 3 -11 40 l20 29 -22 4 c-17 3 -14 5 10 6 17 0 32 -2 32
-5z m68 -34 c3 -33 1 -36 -28 -38 -24 -2 -30 2 -30 17 0 10 9 21 20 24 11 3
20 10 20 17 0 7 -8 9 -21 5 -15 -5 -19 -4 -14 5 4 6 17 10 28 8 17 -2 23 -11
25 -38z m192 20 c10 -18 8 -20 -21 -20 -26 0 -29 -2 -19 -14 6 -8 18 -12 26
-9 8 3 14 0 14 -7 0 -6 -11 -10 -27 -8 -29 3 -41 32 -29 64 8 21 44 17 56 -6z
m264 -2 c8 -13 8 -23 0 -35 -16 -26 -51 -28 -64 -4 -25 47 36 83 64 39z m66
12 c0 -5 -7 -7 -15 -4 -22 9 -18 -5 7 -25 12 -10 18 -23 14 -29 -9 -15 -56
-16 -56 -1 0 6 7 9 15 6 8 -4 17 -2 20 3 3 5 -4 11 -15 15 -20 6 -26 25 -13
38 10 11 43 8 43 -3z m188 -2 c20 -20 14 -28 -19 -28 -26 0 -29 -3 -20 -14 7
-8 21 -12 34 -9 17 5 19 3 11 -6 -19 -21 -59 -9 -62 17 -2 13 -1 30 2 38 7 17
38 18 54 2z m250 -31 c3 -38 3 -38 -29 -35 -41 4 -49 24 -15 39 26 12 27 33 1
22 -8 -3 -15 0 -15 7 0 6 11 10 28 8 23 -3 27 -8 30 -41z m33 16 l11 -28 10
28 c5 15 14 27 20 27 5 0 8 -3 6 -8 -1 -4 -11 -28 -22 -55 -19 -49 -41 -65
-30 -23 3 14 -1 37 -10 55 -10 18 -12 31 -6 31 6 0 15 -12 21 -27z m119 12
c17 -21 -2 -65 -28 -65 -22 0 -42 19 -42 40 0 37 47 53 70 25z"/>
<path d="M1574 366 c-9 -24 3 -47 21 -40 18 7 16 45 -2 52 -7 2 -16 -3 -19
-12z"/>
<path d="M2097 374 c-16 -16 -7 -44 14 -44 15 0 20 5 17 22 -3 22 -19 33 -31
22z"/>
<path d="M1810 370 c0 -36 3 -40 24 -40 35 0 47 37 20 64 -28 28 -44 20 -44
-24z"/>
<path d="M950 365 c-10 -12 -10 -18 0 -30 15 -18 30 -11 30 15 0 26 -15 33
-30 15z"/>
<path d="M1204 366 c-8 -22 3 -49 19 -43 6 2 12 14 12 27 0 27 -22 39 -31 16z"/>
<path d="M1655 370 c-3 -5 3 -10 15 -10 12 0 18 5 15 10 -3 6 -10 10 -15 10
-5 0 -12 -4 -15 -10z"/>
<path d="M1917 373 c-13 -12 -7 -41 8 -47 18 -6 30 16 21 39 -6 16 -18 19 -29
8z"/>
<path d="M2175 370 c-3 -5 3 -10 15 -10 12 0 18 5 15 10 -3 6 -10 10 -15 10
-5 0 -12 -4 -15 -10z"/>
<path d="M2574 366 c-9 -24 3 -47 21 -40 18 7 16 45 -2 52 -7 2 -16 -3 -19
-12z"/>
</g>
</svg>
