<?xml version="1.0" standalone="no"?>
<!DOCTYPE svg PUBLIC "-//W3C//DTD SVG 20010904//EN"
 "http://www.w3.org/TR/2001/REC-SVG-20010904/DTD/svg10.dtd">
<svg version="1.0" xmlns="http://www.w3.org/2000/svg"
 width="900.000000pt" height="450.000000pt" viewBox="0 0 900.000000 450.000000"
 preserveAspectRatio="xMidYMid meet">
<metadata>
Created by potrace 1.10, written by Peter Selinger 2001-2011
</metadata>
<g transform="translate(0.000000,450.000000) scale(0.100000,-0.100000)"
fill="#000000" stroke="none">
<path d="M4245 4223 l-240 -3 2 -153 c4 -222 23 -541 33 -551 5 -5 28 -4 56 3
45 12 376 6 398 -7 5 -3 -1 -10 -14 -17 -20 -11 -17 -13 35 -19 79 -9 97 7 93
83 -3 50 -5 56 -26 56 -12 0 -29 11 -38 23 -15 22 -18 23 -156 16 l-141 -7 5
76 c4 59 2 77 -8 77 -14 0 -22 -35 -26 -110 -2 -32 -7 -45 -18 -45 -12 0 -16
16 -18 70 -5 114 -4 115 82 115 92 0 167 -10 160 -21 -3 -5 -36 -9 -75 -9 -38
0 -69 -4 -69 -9 0 -10 229 -26 238 -16 3 3 6 36 6 73 1 55 -2 67 -16 70 -14 3
-17 -6 -20 -55 -2 -47 -6 -58 -21 -61 -16 -3 -18 1 -13 25 3 15 6 48 8 73 l2
45 -99 1 c-55 1 -106 2 -114 3 -11 1 -13 14 -8 61 4 35 3 60 -3 60 -5 0 -10
-28 -12 -62 -3 -55 -5 -63 -23 -63 -18 0 -20 8 -23 74 -2 44 1 77 8 81 5 3 45
2 88 -2 42 -5 118 -7 167 -6 l90 3 3 59 c3 60 -6 78 -38 74 -8 -2 -123 -4
-255 -5z m295 -708 c0 -8 -7 -15 -15 -15 -26 0 -18 20 13 29 1 1 2 -6 2 -14z"/>
<path d="M4587 4224 c-4 -4 -7 -34 -7 -66 0 -43 -4 -60 -15 -64 -8 -4 -15 -10
-15 -15 0 -12 43 -12 56 0 5 5 42 13 82 17 l72 7 -1 -174 c0 -96 -4 -223 -9
-284 -9 -119 -4 -135 37 -135 15 0 22 -4 17 -11 -12 -19 19 -29 93 -29 84 0
82 -3 75 110 -2 41 3 148 12 237 9 89 14 174 10 188 -13 51 28 62 135 34 48
-12 61 2 61 66 0 62 -7 85 -26 85 -9 0 -14 -17 -16 -57 -2 -34 -8 -58 -15 -61
-10 -3 -13 16 -13 72 l0 76 -242 0 c-134 0 -252 3 -263 6 -11 3 -24 2 -28 -2z
m397 -130 c12 -5 14 -10 6 -19 -6 -7 -15 -60 -20 -117 -5 -56 -13 -125 -19
-153 -5 -27 -10 -105 -10 -172 -1 -114 -10 -151 -30 -127 -4 5 -3 130 1 278 6
216 11 273 23 292 16 25 23 28 49 18z"/>
<path d="M3707 4209 c-10 -6 -22 -20 -28 -32 -5 -12 -18 -35 -29 -52 -25 -39
-41 -68 -74 -132 -15 -29 -33 -53 -40 -53 -8 0 -12 -9 -9 -22 5 -31 -29 -73
-52 -64 -16 6 -17 19 -10 172 l7 165 -89 -3 -88 -3 -3 -38 c-2 -20 4 -74 12
-120 9 -46 16 -121 16 -168 0 -46 7 -129 15 -183 8 -55 15 -123 15 -153 0 -52
1 -53 29 -53 16 0 31 -6 35 -15 4 -12 23 -15 81 -15 l75 0 -6 93 c-6 78 -4 94
10 106 9 7 16 21 16 30 1 9 11 29 24 45 l24 28 49 -103 c28 -57 53 -112 56
-121 4 -10 17 -18 29 -18 13 0 32 -7 42 -15 21 -16 171 -22 179 -7 2 4 -4 20
-14 36 -15 25 -19 27 -25 13 -6 -18 -34 -24 -34 -7 0 5 5 21 12 35 13 29 5 43
-16 26 -12 -10 -16 -8 -21 11 -5 13 -3 24 4 26 6 2 11 11 11 20 0 12 -3 13
-12 4 -20 -20 -38 -14 -38 13 0 14 5 25 10 25 6 0 10 8 10 18 -1 16 -2 16 -15
-2 -7 -10 -18 -15 -24 -11 -15 8 -14 38 1 53 6 6 8 15 4 19 -4 4 -11 1 -16 -7
-7 -12 -12 -12 -21 -3 -10 10 -10 18 0 39 6 15 9 29 6 32 -3 3 -5 0 -5 -6 0
-7 -9 -12 -20 -12 -22 0 -27 29 -9 47 9 9 7 10 -9 6 -15 -4 -24 0 -28 13 -4
11 -15 27 -26 37 -10 10 -18 29 -18 44 0 25 87 166 136 218 41 45 33 55 -43
55 -38 0 -76 -5 -86 -11z m-86 -411 c3 -27 -4 -44 -32 -79 -16 -20 -29 -41
-29 -47 0 -5 -7 -15 -15 -22 -10 -8 -15 -37 -17 -93 -2 -62 -6 -82 -17 -82
-11 0 -14 21 -15 98 0 54 4 101 9 105 12 9 32 39 46 72 21 49 67 80 70 48z"/>
<path d="M3878 4176 c-10 -7 -18 -19 -18 -25 0 -11 -36 -68 -51 -81 -3 -3 -9
-12 -12 -20 -4 -8 -18 -33 -32 -55 -25 -41 -33 -85 -15 -85 6 0 14 8 17 18 4
9 14 28 24 42 59 88 129 201 129 209 0 15 -21 13 -42 -3z"/>
<path d="M5679 4166 c-64 -12 -147 -62 -175 -103 -45 -67 -46 -69 -68 -144
-29 -100 -11 -268 33 -312 6 -6 11 -16 11 -22 0 -12 67 -79 90 -89 8 -3 31
-16 50 -27 51 -31 115 -48 203 -56 52 -4 77 -2 77 5 0 6 13 13 29 17 34 7 121
97 121 124 0 11 7 21 15 25 8 3 15 17 15 31 0 16 -6 25 -15 25 -10 0 -15 -10
-15 -29 0 -16 -7 -34 -15 -41 -8 -7 -15 -16 -15 -21 0 -12 -37 -49 -49 -49 -5
0 -11 -7 -15 -15 -3 -8 -15 -15 -26 -15 -11 0 -23 -7 -26 -15 -6 -15 -49 -20
-78 -9 -24 9 -9 24 25 24 16 0 39 9 52 21 80 73 110 112 122 162 7 26 5 27
-29 27 -20 0 -53 7 -73 15 -19 8 -37 15 -39 15 -1 0 -13 -21 -26 -46 -12 -25
-33 -55 -47 -65 -33 -26 -104 -26 -131 1 -11 11 -26 20 -32 20 -7 0 -21 18
-30 39 -20 42 -25 173 -9 213 6 13 12 40 16 61 6 36 71 117 94 117 17 0 126
-43 140 -56 7 -6 14 -34 15 -60 1 -45 3 -49 34 -58 17 -5 32 -14 32 -21 0 -20
162 -35 174 -16 3 5 3 37 -1 70 -7 74 -26 77 -33 6 -3 -27 -11 -50 -17 -53
-20 -6 -17 107 2 122 10 7 12 16 6 25 -8 12 -12 12 -25 2 -13 -11 -16 -9 -22
15 -7 27 -79 104 -98 104 -5 0 -17 6 -25 13 -14 12 -134 39 -157 36 -5 -1 -34
-7 -65 -13z"/>
<path d="M3507 4153 c-9 -8 -7 -151 2 -183 6 -21 8 -18 14 24 4 27 7 75 7 107
0 55 -7 69 -23 52z"/>
<path d="M2845 4130 c-49 -4 -110 -13 -135 -19 -25 -6 -71 -11 -103 -11 -68 0
-74 -8 -52 -69 8 -24 15 -62 15 -85 0 -23 7 -68 15 -99 8 -32 15 -76 15 -97 0
-22 6 -72 14 -112 8 -40 19 -108 24 -152 10 -79 23 -102 52 -89 22 11 101 7
109 -4 11 -18 51 -25 66 -13 10 9 13 25 9 58 -12 108 -25 118 -34 30 -7 -67
-30 -77 -30 -13 0 25 -6 58 -14 73 -16 33 -30 134 -21 162 5 17 15 20 63 20
65 0 74 -7 111 -83 12 -26 27 -49 32 -53 5 -3 9 -13 9 -23 0 -10 7 -24 15 -31
8 -7 15 -20 15 -30 0 -20 31 -50 52 -50 9 0 21 -7 28 -15 17 -21 178 -22 186
-1 8 20 -36 76 -59 76 -16 0 -18 5 -12 33 6 26 5 30 -6 20 -7 -7 -19 -13 -27
-13 -14 0 -13 12 4 55 7 18 6 18 -9 7 -20 -17 -40 -6 -34 19 3 12 0 19 -9 19
-8 0 -19 10 -24 23 -6 12 -21 39 -35 59 l-25 37 40 28 c50 36 80 96 80 160 0
27 5 54 12 61 16 16 2 28 -16 13 -12 -10 -15 -8 -18 10 -2 12 -23 39 -48 59
-38 32 -54 38 -105 42 -33 3 -100 2 -150 -2z m103 -137 c28 -12 45 -26 49 -41
9 -36 -5 -84 -30 -101 -28 -20 -138 -42 -153 -30 -18 14 -10 120 10 135 16 11
16 13 -4 19 -12 4 -24 4 -28 1 -3 -4 -7 -41 -8 -84 -2 -97 -1 -92 -18 -92 -7
0 -16 10 -20 23 -8 30 -8 172 1 180 14 15 158 7 201 -10z m272 -533 c0 -5 -17
-9 -37 -9 -38 1 -38 1 -8 9 43 11 45 11 45 0z"/>
<path d="M6337 4068 c-9 -18 -18 -40 -21 -48 -3 -8 -10 -23 -16 -32 -5 -10
-15 -26 -20 -35 -6 -10 -13 -25 -16 -33 -4 -8 -32 -69 -64 -135 -32 -66 -66
-138 -75 -160 -9 -22 -34 -75 -56 -118 -41 -79 -42 -97 -9 -97 10 0 22 -4 25
-10 3 -5 28 -10 55 -10 27 0 52 -4 55 -10 13 -21 35 -9 50 28 52 118 56 123
78 115 12 -4 49 -8 82 -8 58 0 60 -1 66 -30 4 -16 7 -49 8 -72 0 -23 7 -45 14
-50 17 -11 76 -33 116 -43 18 -5 38 -13 44 -19 6 -6 21 -11 34 -11 22 0 23 3
22 73 -1 39 -4 83 -8 97 -7 22 -9 20 -14 -20 -4 -25 -8 -60 -9 -79 -2 -19 -9
-36 -15 -39 -10 -3 -13 14 -13 62 0 36 -6 85 -14 108 -8 24 -16 80 -18 126 -3
45 -10 88 -16 94 -7 7 -12 41 -12 79 0 37 -5 80 -12 96 -6 15 -14 62 -17 103
l-6 75 -62 7 c-34 4 -71 11 -82 17 -35 19 -57 13 -74 -21z m81 -203 c3 -27
-30 -110 -50 -125 -13 -10 -21 -60 -9 -60 6 0 14 14 18 30 3 17 9 30 13 30 4
0 12 12 19 26 9 21 14 24 26 14 10 -9 15 -32 15 -78 l0 -65 -46 6 c-26 2 -50
11 -54 18 -7 10 -11 10 -24 0 -32 -27 -62 10 -33 41 6 7 20 31 30 53 10 22 25
53 33 68 8 16 14 37 14 46 0 43 43 40 48 -4z m-138 -310 c0 -13 -26 -61 -37
-68 -7 -4 -13 -15 -13 -24 0 -18 -38 -63 -52 -63 -11 0 -10 26 1 48 6 9 20 38
32 65 17 36 28 47 46 47 13 0 23 -2 23 -5z"/>
<path d="M4650 4060 c0 -5 7 -10 15 -10 8 0 15 5 15 10 0 6 -7 10 -15 10 -8 0
-15 -4 -15 -10z"/>
<path d="M2130 4025 c-19 -7 -49 -14 -65 -14 -30 -1 -31 -2 -44 -78 -7 -43
-17 -116 -22 -163 -4 -47 -13 -103 -18 -125 -6 -22 -11 -67 -11 -100 0 -33 -4
-75 -10 -94 -5 -19 -12 -67 -16 -107 -6 -70 -6 -74 14 -74 11 0 24 5 27 10 11
18 63 11 84 -11 14 -15 25 -19 43 -14 33 11 38 22 38 92 0 61 0 61 31 68 23 5
28 9 18 16 -8 5 -26 9 -41 9 -29 0 -34 -13 -40 -100 -2 -27 -8 -36 -24 -38
-19 -3 -20 1 -16 65 6 92 17 103 103 103 37 0 71 -4 74 -10 3 -5 26 -10 50
-10 44 0 45 -1 66 -50 17 -40 26 -50 46 -50 13 0 26 -7 29 -15 8 -20 99 -20
148 0 39 16 49 45 16 45 -15 0 -20 7 -20 26 0 23 -2 25 -15 14 -25 -21 -42 2
-26 36 6 15 9 29 6 32 -3 3 -5 0 -5 -6 0 -7 -9 -12 -20 -12 -15 0 -20 7 -20
24 0 14 5 28 10 31 6 3 10 11 10 18 0 6 -6 3 -13 -8 -8 -10 -19 -15 -25 -11
-15 9 -16 53 -2 61 6 3 10 12 10 18 0 7 -7 4 -15 -7 -7 -10 -18 -15 -24 -11
-14 8 -14 42 -1 50 6 3 10 14 10 23 -1 15 -2 15 -15 -2 -7 -10 -18 -15 -24
-11 -14 8 -14 42 -1 50 6 3 10 14 10 23 -1 15 -2 15 -15 -2 -7 -10 -18 -15
-24 -11 -14 8 -14 42 -1 50 6 3 10 14 10 23 -1 15 -2 15 -15 -2 -7 -10 -18
-15 -24 -11 -14 8 -14 45 -1 45 6 0 10 10 10 22 0 21 0 21 -14 2 -12 -15 -17
-17 -28 -6 -10 10 -10 17 0 32 6 11 12 27 12 37 0 15 -2 14 -14 -3 -12 -15
-17 -17 -28 -6 -10 10 -10 17 0 32 19 30 15 45 -7 26 -18 -17 -20 -16 -26 5
-5 15 -2 25 9 31 21 12 12 28 -13 21 -13 -3 -21 2 -26 16 -5 17 -14 21 -43 20
-20 0 -53 -7 -72 -14z m50 -206 c7 -11 9 -31 6 -43 -3 -14 1 -28 12 -38 35
-34 72 -100 72 -129 0 -18 -6 -20 -47 -17 -47 3 -48 4 -45 33 3 39 -7 99 -16
90 -4 -4 -7 -34 -7 -68 0 -59 -1 -62 -25 -62 -28 0 -27 -13 -15 158 7 94 8 97
31 97 13 0 28 -9 34 -21z m148 -332 c3 -13 -4 -17 -27 -17 -34 0 -44 25 -13
33 25 7 37 2 40 -16z m211 -113 c36 -8 32 -24 -7 -24 -44 0 -76 11 -60 21 16
10 26 11 67 3z"/>
<path d="M6597 4033 c-4 -3 -7 -33 -7 -65 0 -45 3 -58 15 -58 12 0 15 14 15
65 0 60 -6 75 -23 58z"/>
<path d="M7860 4001 c-30 -10 -75 -21 -99 -24 -58 -7 -79 -27 -63 -62 8 -17
19 -25 37 -25 14 0 25 -4 25 -9 0 -16 37 -23 85 -16 53 9 50 25 -5 25 -48 0
-61 16 -20 25 32 7 108 -2 125 -15 20 -15 73 -19 83 -7 17 21 2 68 -27 80 -14
7 -34 20 -43 30 -22 21 -29 21 -98 -2z m140 -59 c0 -13 -12 -22 -22 -16 -10 6
-1 24 13 24 5 0 9 -4 9 -8z"/>
<path d="M5707 3992 c-10 -10 -17 -23 -17 -29 0 -6 -7 -16 -15 -23 -9 -7 -15
-29 -15 -54 0 -23 -5 -47 -12 -54 -14 -14 -17 -136 -3 -140 6 -1 13 21 16 50
12 108 55 230 85 242 17 7 10 26 -10 26 -7 0 -20 -8 -29 -18z"/>
<path d="M6860 3969 c0 -24 -7 -66 -15 -93 -8 -27 -15 -66 -15 -87 0 -21 -5
-50 -11 -66 -6 -15 -14 -57 -19 -93 -15 -117 -31 -204 -46 -254 -13 -40 -14
-50 -2 -57 7 -5 17 -9 22 -9 5 0 17 -6 25 -14 16 -15 169 -51 178 -43 2 3 7
29 10 58 3 30 9 62 14 71 12 22 12 138 0 138 -13 0 -21 -27 -21 -74 0 -23 -5
-47 -12 -54 -7 -7 -15 -33 -18 -60 -3 -26 -9 -46 -15 -45 -14 4 -19 113 -6
126 6 6 11 31 11 56 0 76 8 91 44 91 18 0 36 -4 42 -9 12 -12 220 -81 244 -81
23 0 31 13 41 64 8 45 3 66 -17 66 -9 0 -14 -11 -14 -33 0 -31 -14 -57 -31
-57 -4 0 -5 26 -2 59 4 37 2 61 -6 65 -6 4 -45 11 -87 15 -42 5 -81 14 -87 20
-6 6 -28 11 -48 11 -46 0 -52 8 -33 44 7 16 14 45 14 66 0 55 16 64 76 41 52
-20 251 -71 278 -71 12 0 16 10 16 36 0 20 8 49 17 64 23 40 6 57 -60 62 -29
3 -72 10 -97 16 -25 6 -81 18 -125 27 -44 9 -100 21 -125 27 -25 6 -62 13 -82
16 l-38 4 0 -43z"/>
<path d="M3206 3973 c-3 -3 -6 -32 -6 -63 0 -39 -5 -62 -15 -70 -8 -7 -15 -18
-15 -25 0 -8 -14 -25 -31 -38 -28 -22 -33 -47 -9 -47 12 0 63 50 83 82 27 44
21 189 -7 161z"/>
<path d="M1665 3938 c-11 -7 -42 -15 -70 -20 -27 -4 -72 -14 -100 -21 l-50
-14 -6 -64 c-10 -91 -14 -343 -7 -355 4 -5 3 -16 -2 -23 -6 -11 -13 -10 -34 5
-14 11 -28 28 -32 39 -10 36 -34 84 -44 90 -6 3 -10 14 -10 25 0 10 -7 21 -16
24 -8 3 -14 15 -12 25 2 11 -6 27 -17 34 -16 13 -17 17 -6 31 12 14 11 16 -8
16 -14 0 -21 6 -21 20 0 11 -7 23 -16 27 -8 3 -20 17 -25 30 -7 19 -14 23 -27
18 -9 -4 -29 -11 -44 -16 -16 -5 -43 -14 -60 -20 -18 -7 -55 -14 -83 -18 -49
-6 -50 -7 -53 -43 -2 -23 3 -47 12 -60 9 -12 16 -35 16 -51 0 -16 5 -38 12
-50 6 -12 15 -40 19 -62 4 -22 11 -53 17 -70 6 -16 18 -57 27 -90 9 -33 22
-82 30 -110 8 -27 16 -63 19 -80 2 -16 9 -43 15 -58 10 -25 15 -28 40 -22 23
5 30 2 35 -13 6 -17 13 -19 54 -15 65 7 75 19 65 79 -10 57 -27 61 -31 7 -4
-47 -13 -57 -43 -48 -20 7 -20 9 -6 17 22 12 24 93 2 102 -10 4 -15 19 -15 49
0 27 -6 49 -15 57 -8 7 -15 27 -15 44 -1 17 -9 49 -20 71 -11 22 -19 53 -20
68 0 16 -7 35 -15 43 -8 9 -15 29 -15 45 0 16 -5 38 -12 49 -7 10 -9 22 -5 26
13 13 62 -11 65 -31 6 -36 44 -110 68 -132 13 -12 24 -29 24 -38 0 -8 4 -15 8
-15 4 0 13 -12 19 -27 7 -16 25 -50 42 -78 17 -27 35 -59 41 -70 6 -11 16 -29
23 -40 7 -11 20 -35 30 -53 17 -32 18 -32 48 -17 30 16 69 12 69 -6 0 -5 -11
-9 -25 -9 -16 0 -25 -6 -25 -15 0 -17 45 -21 55 -5 3 6 14 10 23 10 40 1 45
14 43 116 -1 54 -4 100 -7 103 -11 12 -19 -17 -24 -91 -3 -55 -9 -83 -18 -86
-11 -3 -12 22 -8 134 4 77 9 209 12 294 7 185 22 221 58 139 13 -29 16 -51 11
-77 -4 -20 -8 -84 -10 -142 l-3 -105 10 75 c9 71 20 101 33 88 4 -3 10 -41 16
-84 13 -116 27 -205 37 -239 7 -26 13 -30 45 -30 43 -1 54 -9 37 -30 -13 -16
0 -21 15 -6 6 6 35 11 65 13 55 3 55 3 58 37 2 19 1 45 -3 59 -5 21 -8 23 -16
11 -5 -7 -9 -27 -9 -42 0 -32 -16 -41 -50 -29 l-25 9 23 7 c26 9 30 56 7 96
-8 14 -14 48 -15 76 0 28 -6 59 -15 70 -8 11 -15 42 -15 74 0 32 -7 63 -15 74
-9 12 -15 41 -15 71 0 28 -6 60 -15 71 -8 12 -15 50 -17 90 -3 60 -6 69 -23
71 -11 2 -29 -3 -40 -9z"/>
<path d="M1764 3896 c-9 -22 0 -101 11 -99 14 4 19 113 5 113 -6 0 -13 -6 -16
-14z"/>
<path d="M6627 3884 c-4 -4 -7 -43 -7 -86 0 -59 3 -79 13 -76 8 3 13 30 15 78
3 68 -5 100 -21 84z"/>
<path d="M7497 3883 c-3 -5 -12 -39 -21 -78 -9 -38 -23 -92 -30 -120 -19 -68
-37 -142 -46 -190 -4 -22 -12 -53 -19 -68 -6 -16 -11 -42 -11 -58 0 -17 -6
-42 -14 -57 -20 -41 -28 -108 -13 -120 18 -14 66 -29 209 -63 70 -16 153 -39
185 -49 32 -11 68 -20 81 -20 12 0 25 -7 28 -15 18 -45 64 16 67 88 2 53 -24
59 -34 9 -4 -18 -16 -42 -28 -53 -25 -24 -25 -25 -6 48 14 53 14 59 -2 70 -9
7 -33 15 -52 18 -20 3 -59 12 -87 20 -28 8 -64 15 -80 15 -18 0 -34 7 -42 20
-10 17 -15 18 -32 8 -15 -10 -22 -10 -32 0 -10 10 -10 19 5 43 9 17 17 48 17
70 0 48 19 59 64 36 17 -9 69 -28 116 -42 47 -15 98 -33 113 -41 56 -27 72
-15 83 64 6 48 5 52 -14 52 -17 0 -21 -7 -24 -37 -2 -26 -8 -38 -18 -38 -11 0
-14 9 -12 35 2 19 8 40 13 46 17 21 -25 41 -114 54 -79 12 -87 20 -80 81 4 33
2 49 -5 49 -14 0 -24 -36 -20 -70 3 -22 -1 -25 -29 -28 -24 -2 -33 1 -33 12 0
8 4 17 9 20 4 3 11 29 13 57 7 65 37 88 72 54 8 -8 22 -15 30 -15 9 0 33 -6
53 -14 32 -12 81 -27 189 -60 17 -5 24 1 38 32 10 22 16 55 14 78 -3 39 -3 39
-53 46 -52 6 -110 20 -185 44 -25 8 -56 14 -70 14 -14 1 -36 7 -50 15 -14 8
-39 14 -56 15 -16 0 -39 7 -50 15 -22 16 -31 18 -37 8z"/>
<path d="M7423 3842 c-13 -14 -23 -35 -23 -47 0 -11 -5 -26 -12 -33 -9 -9 -7
-13 5 -18 26 -10 37 5 37 51 0 24 5 45 12 47 6 2 9 9 7 14 -2 6 -14 0 -26 -14z"/>
<path d="M7044 3786 c-8 -21 -1 -66 11 -69 6 -1 11 17 13 41 3 41 -12 59 -24
28z"/>
<path d="M1796 3765 c-12 -31 -7 -117 7 -113 15 5 22 91 9 114 -8 15 -10 15
-16 -1z"/>
<path d="M8037 3724 c-4 -4 -7 -17 -7 -29 0 -11 -11 -37 -25 -55 -23 -32 -24
-36 -9 -47 33 -24 63 14 67 86 2 41 -10 61 -26 45z"/>
<path d="M6655 3680 c-9 -37 -2 -155 10 -155 13 0 19 140 6 162 -8 16 -10 15
-16 -7z"/>
<path d="M2816 3665 c-9 -25 -7 -93 3 -100 14 -8 18 4 22 59 4 49 -12 74 -25
41z"/>
<path d="M1826 3615 c-3 -9 -6 -37 -6 -62 0 -62 24 -52 28 12 3 49 -10 80 -22
50z"/>
<path d="M4090 3491 c0 -19 19 -21 146 -14 100 5 120 9 89 14 -58 11 -235 11
-235 0z"/>
<path d="M1857 3458 c-10 -34 -8 -88 2 -88 20 0 29 72 12 98 -6 10 -10 8 -14
-10z"/>
<path d="M7586 3394 c-3 -9 -6 -29 -6 -46 0 -46 24 -29 28 20 3 41 -10 57 -22
26z"/>
<path d="M1196 3357 c-5 -15 -6 -31 -2 -34 11 -11 18 5 14 34 l-4 28 -8 -28z"/>
<path d="M2700 3370 c0 -6 7 -13 15 -16 21 -8 67 4 60 16 -8 13 -75 13 -75 0z"/>
<path d="M1226 3275 c-11 -30 -7 -77 7 -73 15 6 21 52 9 74 -8 15 -10 15 -16
-1z"/>
<path d="M1992 3248 c7 -19 53 -21 68 -4 11 14 7 16 -30 16 -29 0 -40 -4 -38
-12z"/>
<path d="M3944 3054 c-4 -14 -1 -35 5 -47 7 -12 19 -34 27 -49 17 -31 60 -68
79 -68 27 0 24 -33 -6 -81 -69 -106 -90 -256 -49 -346 17 -39 22 -43 55 -43
40 0 60 26 32 42 -10 5 -17 21 -17 38 0 17 -4 30 -9 30 -20 0 -23 88 -6 147
26 87 38 110 79 148 31 29 41 30 80 10 16 -8 47 -18 70 -22 22 -3 57 -19 77
-34 20 -16 41 -29 47 -29 5 0 12 -7 16 -15 3 -8 12 -15 21 -15 8 0 15 -6 15
-14 0 -8 9 -18 21 -21 16 -5 28 2 53 29 17 20 37 36 45 36 7 0 30 13 50 29 20
15 54 31 77 34 22 4 55 14 72 23 41 20 65 12 99 -33 42 -55 56 -100 60 -194 4
-69 1 -88 -11 -98 -9 -8 -16 -24 -16 -37 0 -15 -6 -24 -15 -24 -17 0 -20 -16
-6 -25 6 -3 14 1 18 10 7 12 14 13 41 3 50 -19 55 -7 56 145 0 109 -3 137 -17
157 -9 14 -17 30 -17 37 0 7 -13 32 -30 55 -36 49 -37 55 -7 64 27 8 67 45 67
61 0 7 7 16 16 21 21 12 37 92 18 92 -19 0 -64 -22 -64 -31 0 -4 -13 -10 -29
-14 -16 -3 -35 -13 -42 -21 -8 -10 -33 -14 -85 -14 -40 0 -75 -4 -78 -9 -15
-24 149 -30 180 -6 10 8 29 15 41 15 12 0 24 6 26 13 4 9 6 9 6 0 1 -7 -12
-27 -27 -44 -28 -31 -32 -32 -143 -40 -155 -12 -196 -19 -210 -35 -6 -8 -17
-14 -23 -14 -7 0 -27 -16 -46 -35 -19 -19 -38 -35 -42 -35 -5 0 -24 16 -44 35
-19 19 -41 35 -48 35 -8 0 -19 6 -25 14 -14 16 -52 23 -209 35 -87 7 -118 13
-134 27 -44 38 -60 56 -55 61 5 4 10 2 75 -30 26 -13 49 -15 113 -10 98 7 85
23 -19 23 -53 0 -74 4 -78 14 -3 8 -15 17 -27 20 -12 3 -34 17 -49 31 -34 32
-46 32 -54 -1z"/>
<path d="M4295 2950 c-3 -6 1 -13 9 -16 22 -8 68 4 61 16 -8 13 -62 13 -70 0z"/>
<path d="M4626 2951 c-7 -10 52 -24 65 -15 5 3 7 10 4 15 -8 11 -62 12 -69 0z"/>
<path d="M4385 2919 c-10 -14 -1 -21 19 -13 9 3 13 10 10 15 -7 12 -21 11 -29
-2z"/>
<path d="M4575 2920 c-3 -6 1 -13 10 -16 19 -8 30 0 20 15 -8 14 -22 14 -30 1z"/>
<path d="M4191 2681 c-40 -50 -42 -101 -5 -154 47 -69 118 -70 162 -2 52 81 0
194 -90 195 -30 0 -41 -6 -67 -39z m74 -11 c15 -17 16 -24 7 -45 -12 -26 -45
-34 -57 -14 -11 16 4 79 19 79 7 0 21 -9 31 -20z"/>
<path d="M4665 2702 c-28 -24 -55 -76 -55 -104 0 -35 42 -101 73 -116 67 -32
137 31 137 123 0 62 -46 115 -99 115 -20 -1 -45 -9 -56 -18z m101 -46 c7 -40
0 -56 -25 -56 -39 0 -53 40 -24 72 25 27 41 22 49 -16z"/>
<path d="M4892 2660 c0 -19 2 -27 5 -17 2 9 2 25 0 35 -3 9 -5 1 -5 -18z"/>
<path d="M4435 2638 c-9 -24 -2 -93 10 -93 14 0 19 85 6 98 -7 7 -12 5 -16 -5z"/>
<path d="M4488 2522 c-9 -9 -23 -33 -32 -54 -16 -33 -16 -39 -1 -67 19 -38 52
-41 65 -6 5 14 12 25 15 25 9 0 45 -40 45 -50 0 -5 7 -10 15 -10 8 0 15 7 15
15 0 8 -4 15 -10 15 -12 0 -50 37 -50 49 0 5 -7 14 -15 21 -8 7 -15 25 -15 41
0 35 -13 44 -32 21z"/>
<path d="M4561 2511 c-1 -24 2 -32 9 -25 7 7 7 19 1 35 -9 23 -10 22 -10 -10z"/>
<path d="M4405 2497 c-4 -10 -5 -21 -1 -24 10 -10 18 4 13 24 -4 17 -4 17 -12
0z"/>
<path d="M4590 2453 c0 -13 5 -23 10 -23 13 0 13 11 0 30 -8 12 -10 11 -10 -7z"/>
<path d="M4370 2434 c0 -9 5 -14 12 -12 18 6 21 28 4 28 -9 0 -16 -7 -16 -16z"/>
<path d="M4330 2410 c-12 -8 -11 -10 8 -10 12 0 22 5 22 10 0 13 -11 13 -30 0z"/>
<path d="M4393 2393 c-26 -18 -30 -33 -8 -33 13 0 41 38 33 45 -2 1 -13 -4
-25 -12z"/>
<path d="M4082 2390 c-33 -8 -102 -64 -102 -84 0 -5 -6 -17 -13 -25 -8 -9 -22
-50 -32 -91 -28 -117 -4 -215 63 -252 30 -16 36 -17 61 -3 36 18 91 86 91 112
0 11 7 28 15 39 17 22 22 219 5 229 -5 3 -10 19 -10 35 0 19 -7 33 -19 40 -11
5 -21 10 -23 9 -2 -1 -18 -5 -36 -9z"/>
<path d="M4828 2368 c-20 -29 -23 -47 -27 -150 -2 -98 0 -120 13 -133 9 -9 16
-25 16 -36 0 -41 84 -129 124 -129 26 0 75 57 90 104 20 62 20 100 0 167 -36
123 -89 190 -158 203 -31 6 -37 3 -58 -26z"/>
<path d="M4308 2343 c-32 -20 -34 -30 -13 -57 29 -38 12 -193 -31 -293 -8 -17
-14 -34 -14 -37 0 -13 -63 -92 -92 -115 -24 -20 -41 -24 -84 -23 -41 1 -54 -2
-54 -13 0 -8 6 -15 14 -15 7 0 19 -7 26 -15 18 -21 67 -19 106 5 22 14 41 19
58 14 39 -9 31 -30 -19 -54 -35 -17 -45 -27 -45 -46 0 -28 25 -33 35 -6 6 16
7 16 21 -3 13 -17 17 -18 36 -6 20 12 21 12 15 -22 l-5 -34 46 23 c45 23 84
24 107 3 13 -12 162 -11 170 1 9 15 65 12 81 -5 21 -20 31 -19 39 5 8 24 21
26 29 4 8 -20 26 -9 26 17 0 21 20 25 37 8 6 -6 13 -7 16 -2 9 14 -22 53 -49
63 -28 11 -31 32 -8 51 13 11 22 10 57 -9 52 -27 76 -28 121 -1 41 24 38 41
-8 39 -70 -4 -84 0 -122 39 -99 99 -163 332 -117 428 16 35 16 36 -6 54 -40
32 -57 25 -65 -27 -21 -159 27 -367 106 -451 29 -31 18 -60 -40 -107 -78 -63
-196 -95 -250 -67 -9 5 -36 17 -58 26 -23 9 -56 30 -73 46 -18 16 -36 29 -40
29 -5 0 -11 10 -15 22 -3 16 3 35 22 61 30 42 33 47 54 97 33 76 43 137 43
260 0 137 -4 146 -57 113z"/>
<path d="M4207 2338 c35 -44 14 -282 -29 -343 -33 -46 -76 -88 -104 -101 -32
-15 -35 -15 -67 5 -19 12 -37 21 -41 21 -12 0 -5 -26 15 -49 25 -31 94 -32
140 -3 32 20 99 107 99 128 0 6 7 25 15 40 8 16 15 39 15 52 0 13 5 43 11 67
15 59 3 151 -22 176 -21 21 -48 27 -32 7z"/>
<path d="M4735 2330 c-18 -29 -22 -120 -9 -200 23 -143 110 -278 182 -281 54
-2 73 3 99 27 32 30 20 50 -17 29 -14 -8 -31 -17 -39 -21 -31 -16 -118 55
-150 124 -12 26 -26 55 -32 64 -5 10 -9 74 -9 143 0 114 -7 145 -25 115z"/>
<path d="M1457 2244 c-2 -14 -2 -35 0 -45 5 -19 26 -19 906 -14 495 3 904 8
909 11 12 8 10 48 -4 62 -9 9 -225 12 -909 12 l-897 0 -5 -26z"/>
<path d="M5704 2243 c-14 -55 -62 -52 912 -58 l902 -5 6 23 c3 12 3 33 -1 45
l-5 22 -904 0 -904 0 -6 -27z"/>
<path d="M2145 2083 c-14 -56 -42 -53 569 -51 l561 3 3 24 c2 13 -1 28 -6 33
-6 6 -227 10 -565 11 l-556 2 -6 -22z"/>
<path d="M5708 2093 c-5 -7 -8 -22 -6 -35 l3 -23 561 -3 c611 -2 583 -5 569
51 l-6 22 -555 0 c-419 0 -558 -3 -566 -12z"/>
<path d="M3615 1570 c-78 -19 -122 -55 -156 -124 -27 -56 -24 -75 11 -87 17
-6 30 -17 30 -25 0 -20 77 -19 97 1 16 17 36 85 24 85 -16 0 -31 -26 -31 -52
0 -21 -5 -28 -19 -28 -17 0 -19 5 -14 38 13 78 50 98 124 65 44 -19 56 -51 37
-97 -12 -30 -91 -112 -215 -224 l-63 -56 0 -57 c0 -45 4 -59 18 -64 9 -5 80
-9 157 -10 77 -1 171 -6 208 -10 l68 -7 -3 47 c-3 54 -28 77 -28 26 0 -16 -4
-33 -10 -36 -6 -4 -10 13 -10 43 0 66 -11 74 -86 62 -83 -14 -86 -13 -79 10 7
23 -13 28 -21 5 -4 -8 -12 -15 -19 -15 -7 0 -15 -5 -17 -12 -2 -6 -11 -9 -20
-5 -25 9 -11 42 31 74 20 15 41 32 47 38 6 5 36 32 67 60 31 27 57 55 57 61 0
7 6 14 14 17 8 3 16 31 20 77 6 59 4 76 -10 97 -49 75 -140 120 -209 103z"/>
<path d="M4187 1549 c-10 -6 -22 -20 -28 -32 -5 -12 -18 -35 -29 -52 -11 -16
-23 -37 -27 -45 -4 -8 -25 -41 -47 -75 -46 -68 -62 -94 -72 -115 -4 -8 -20
-31 -36 -51 -21 -28 -28 -48 -28 -83 0 -43 2 -47 38 -62 34 -14 120 -15 207
-2 17 3 20 -3 23 -37 3 -37 6 -41 45 -57 96 -37 114 -32 102 29 -5 28 -10 34
-25 30 -12 -3 -20 2 -23 14 -6 22 0 29 28 29 21 0 21 0 18 236 l-3 237 -25 23
c-28 26 -85 32 -118 13z m124 -241 c1 -74 -2 -141 -6 -148 -16 -26 -20 16 -17
170 5 187 20 173 23 -22z m-111 49 c0 -13 -7 -33 -16 -45 -14 -20 -14 -23 0
-28 12 -5 16 -21 16 -64 0 -83 -5 -90 -55 -90 -36 0 -44 4 -49 23 l-7 22 -11
-23 c-15 -30 -44 -24 -40 8 1 13 6 27 10 30 13 10 52 69 52 80 0 5 4 10 8 10
5 0 16 18 26 40 30 69 66 88 66 37z"/>
<path d="M4105 1211 c-6 -11 9 -23 19 -14 9 9 7 23 -3 23 -6 0 -12 -4 -16 -9z"/>
<path d="M4439 1553 c0 -5 -1 -140 0 -302 l0 -294 42 -18 c22 -11 61 -19 85
-19 l44 0 -1 53 c0 28 -4 75 -8 102 l-7 50 -8 -82 c-7 -80 -18 -108 -29 -78
-9 21 -10 221 -3 234 8 13 56 15 56 3 0 -4 -5 -13 -11 -19 -7 -7 2 -10 33 -11
54 -1 78 6 75 21 -1 6 8 13 20 15 19 3 22 -3 29 -44 3 -25 4 -82 0 -125 l-6
-78 32 -17 c18 -9 46 -18 63 -19 16 -1 37 -4 45 -6 17 -4 17 0 1 156 -4 50 -9
74 -10 55 -5 -73 -20 4 -20 102 -1 88 11 135 22 91 3 -13 5 -11 6 7 1 14 6 58
10 99 8 68 7 77 -12 103 -20 27 -26 29 -77 26 l-55 -3 4 -122 4 -123 -108 0
-107 0 2 113 c1 61 2 118 1 125 -1 13 -110 18 -112 5z"/>
<path d="M4581 1488 c0 -18 4 -53 8 -78 l7 -45 8 67 c4 37 5 72 1 78 -13 20
-25 9 -24 -22z"/>
<path d="M5128 1408 c-21 -11 -38 -24 -38 -29 0 -18 -28 -9 -33 11 -4 16 -14
20 -46 20 l-41 0 0 -230 c0 -189 2 -230 14 -230 7 0 19 -7 26 -15 8 -10 30
-15 61 -15 l48 0 -3 157 c-2 107 -7 158 -14 161 -9 3 -12 -35 -12 -137 0 -133
-10 -179 -24 -110 -11 57 -7 238 7 262 34 62 52 68 112 40 26 -13 38 -27 47
-55 12 -39 52 -74 118 -102 20 -8 44 -24 54 -35 18 -19 18 -22 2 -46 -29 -44
-89 -29 -109 28 -5 13 -18 17 -53 17 l-46 0 7 -37 c9 -50 45 -96 96 -122 23
-12 48 -29 56 -37 18 -17 54 -15 61 4 2 8 -7 12 -27 12 -38 0 -41 15 -4 25 19
4 31 2 39 -9 18 -26 49 -18 84 20 31 35 32 39 26 96 -6 60 -13 73 -75 134 -14
14 -36 27 -50 31 -32 8 -111 63 -111 78 0 17 33 45 53 45 9 0 22 -8 29 -17 24
-33 94 -73 126 -73 29 0 32 3 32 30 0 31 -17 39 -38 18 -8 -8 -12 -9 -12 -1 0
6 4 13 9 15 17 6 -40 78 -79 98 -48 25 -73 25 -113 3 -34 -19 -97 -80 -97 -94
0 -5 -7 -9 -15 -9 -11 0 -15 13 -15 54 0 30 -3 57 -7 59 -5 3 -25 -4 -45 -15z
m382 -389 c0 -23 -38 -69 -57 -69 -20 0 -15 24 7 38 11 7 20 21 20 32 0 11 7
20 15 20 9 0 15 -9 15 -21z"/>
<path d="M3867 1403 c-4 -3 -7 -30 -7 -60 0 -40 -4 -53 -15 -53 -8 0 -15 -7
-15 -15 0 -8 -34 -48 -75 -88 -41 -41 -72 -77 -68 -80 14 -14 173 132 173 159
0 6 7 17 15 24 9 7 15 29 15 54 0 43 -11 71 -23 59z"/>
<path d="M5127 1273 c-12 -11 -8 -23 8 -23 8 0 15 7 15 15 0 16 -12 20 -23 8z"/>
<path d="M4370 1065 c0 -14 -4 -25 -10 -25 -5 0 -10 -4 -10 -10 0 -5 9 -10 20
-10 16 0 20 7 20 35 0 19 -4 35 -10 35 -5 0 -10 -11 -10 -25z"/>
<path d="M1913 665 c-70 -19 -96 -46 -97 -102 -1 -37 4 -47 29 -68 17 -13 36
-24 43 -25 20 0 115 -32 130 -43 29 -23 0 -66 -46 -67 -14 0 -36 13 -52 30
-23 25 -36 30 -74 30 -34 0 -48 -5 -53 -16 -3 -9 -1 -19 4 -23 6 -3 15 -16 22
-28 41 -78 220 -83 283 -8 24 28 24 117 1 137 -28 23 -88 48 -117 48 -31 0
-76 27 -76 45 0 30 69 34 95 5 25 -27 115 -29 115 -2 -1 33 -44 70 -99 86 -30
9 -55 16 -55 15 -1 0 -25 -7 -53 -14z"/>
<path d="M6605 662 c-51 -21 -74 -42 -77 -73 -3 -22 1 -24 39 -27 37 -3 47 1
67 25 22 26 26 27 50 13 36 -19 31 -51 -12 -70 -26 -11 -32 -19 -30 -39 2 -20
10 -27 33 -31 21 -4 32 -13 39 -32 24 -68 -47 -109 -82 -48 -15 26 -23 30 -59
30 -23 0 -45 -5 -48 -11 -14 -21 5 -55 47 -81 79 -52 195 -31 233 42 22 42 18
78 -10 106 -28 28 -33 59 -10 68 21 8 19 72 -3 96 -19 20 -92 50 -121 49 -9 0
-34 -7 -56 -17z"/>
<path d="M6942 661 c-44 -18 -89 -71 -77 -91 13 -21 78 -11 106 16 23 22 30
24 49 14 30 -16 24 -62 -10 -70 -19 -4 -26 -13 -28 -38 -3 -29 -1 -32 24 -32
48 0 72 -61 36 -93 -27 -25 -48 -21 -72 13 -17 24 -28 30 -60 30 -47 0 -61
-26 -33 -64 26 -36 76 -56 138 -56 45 0 60 5 97 33 39 30 43 37 46 83 3 45 0
52 -22 63 -35 19 -40 41 -16 63 24 22 26 65 5 95 -14 20 -93 54 -124 52 -9 0
-35 -8 -59 -18z"/>
<path d="M2292 659 c-16 -6 -22 -17 -22 -37 0 -15 -5 -33 -11 -39 -6 -6 -14
-26 -19 -44 -14 -58 -46 -141 -78 -202 -19 -38 -6 -49 54 -45 46 3 49 5 54 33
5 30 5 30 75 30 62 0 70 -2 73 -20 5 -29 31 -45 73 -45 59 0 59 9 4 135 -7 17
-15 39 -18 50 -7 26 -27 81 -44 122 -7 17 -13 36 -13 41 0 6 -6 14 -12 18 -17
11 -90 12 -116 3z m82 -153 c10 -30 15 -59 12 -65 -9 -13 -72 -15 -81 -2 -8
14 27 121 40 121 6 0 19 -24 29 -54z"/>
<path d="M2587 656 c-11 -11 -12 -27 -5 -73 4 -32 7 -107 6 -166 -3 -121 1
-129 62 -125 l35 3 0 95 c0 82 2 95 18 98 9 2 17 -2 17 -9 0 -6 23 -49 51 -95
44 -71 56 -84 84 -90 71 -13 69 -17 75 172 3 94 4 179 2 188 -3 12 -15 16 -47
16 -59 0 -69 -15 -56 -86 15 -78 14 -114 -2 -114 -18 0 -39 25 -69 78 -40 75
-44 81 -63 102 -22 24 -86 27 -108 6z"/>
<path d="M3174 656 c-3 -7 -3 -90 -2 -186 l3 -175 124 4 c145 4 184 16 200 62
18 51 5 96 -31 108 l-30 11 31 39 c37 46 38 62 9 101 -25 34 -40 38 -191 43
-75 3 -110 0 -113 -7z m212 -92 c8 -33 -4 -44 -54 -51 -38 -5 -42 -3 -48 21
-11 43 1 56 50 56 41 0 46 -3 52 -26z m-1 -116 c14 -6 25 -18 25 -27 0 -32
-18 -45 -65 -45 -54 -1 -72 16 -61 57 5 23 12 27 41 27 19 0 46 -5 60 -12z"/>
<path d="M3588 661 c-22 -7 -23 -16 -17 -123 3 -56 4 -133 1 -170 -4 -54 -2
-68 9 -68 37 -1 276 -2 287 -1 7 1 12 16 12 41 l0 40 -99 0 c-108 0 -119 6
-101 55 9 25 12 25 92 23 l83 -3 0 35 0 35 -82 0 c-88 0 -106 8 -97 43 6 21
11 22 100 22 102 0 117 8 97 53 -9 21 -16 22 -141 22 -72 0 -137 -2 -144 -4z"/>
<path d="M3953 656 c-9 -13 -7 -341 1 -354 8 -14 65 -16 85 -3 10 7 12 24 6
75 -6 57 -4 67 11 73 26 10 45 -8 80 -77 38 -74 45 -80 101 -80 50 0 59 11 39
47 -8 16 -19 38 -25 49 -5 12 -21 30 -35 42 -31 24 -33 38 -5 47 24 8 59 61
59 90 0 11 -9 34 -19 52 -16 25 -28 33 -63 37 -77 10 -230 11 -235 2z m205
-102 c2 -24 -2 -33 -23 -42 -56 -25 -95 -9 -95 38 0 37 7 41 65 38 48 -3 50
-4 53 -34z"/>
<path d="M4344 657 c-2 -7 -3 -91 -2 -187 l3 -175 24 -3 c12 -2 34 -1 47 2 24
6 24 7 18 100 -5 62 -3 95 4 100 6 3 27 -20 49 -55 77 -124 96 -144 135 -146
20 -1 41 3 46 10 12 15 20 337 9 355 -5 7 -28 12 -54 12 l-45 0 3 -97 c3 -82
2 -98 -12 -101 -9 -2 -23 13 -38 40 -12 24 -31 57 -41 73 -11 17 -24 40 -29
51 -14 32 -106 49 -117 21z"/>
<path d="M4864 661 c-10 -7 -33 -64 -41 -101 -3 -14 -12 -34 -19 -45 -8 -11
-14 -29 -14 -42 0 -12 -4 -24 -9 -27 -5 -3 -12 -18 -15 -33 -4 -16 -14 -42
-23 -59 -21 -40 -12 -64 24 -64 52 0 72 11 78 41 6 28 8 29 71 29 65 0 65 0
80 -35 13 -33 17 -35 59 -35 24 0 46 4 50 10 7 11 -23 108 -36 116 -5 3 -9 14
-9 26 0 11 -6 32 -14 46 -18 36 -37 91 -43 124 -3 15 -12 33 -20 39 -16 14
-105 21 -119 10z m82 -152 c4 -22 11 -42 16 -45 17 -11 -15 -34 -47 -34 -41 0
-50 19 -30 67 31 74 51 78 61 12z"/>
<path d="M5155 660 c-9 -15 3 -352 13 -362 5 -5 29 -8 53 -6 l44 3 0 72 c0 79
4 88 34 78 18 -5 61 -77 61 -101 0 -27 47 -54 93 -54 25 0 48 4 52 9 8 14 -32
87 -66 121 -28 28 -37 50 -21 50 5 0 21 10 35 23 22 18 27 31 27 67 -1 67 -25
91 -97 96 -157 10 -223 11 -228 4z m217 -96 c11 -23 9 -28 -12 -45 -31 -23
-86 -25 -94 -3 -8 21 -8 59 1 67 3 4 26 7 50 7 37 0 45 -4 55 -26z"/>
<path d="M5560 660 c-7 -4 -10 -68 -8 -181 l3 -174 95 -3 c116 -3 171 11 202
53 20 26 23 41 23 127 0 97 -1 97 -35 133 -19 20 -47 37 -64 40 -54 8 -205 12
-216 5z m191 -99 c25 -25 29 -37 29 -83 -1 -70 -23 -98 -79 -98 l-41 0 0 98
c0 54 3 102 7 105 15 16 57 5 84 -22z"/>
<path d="M6045 658 c-69 -24 -105 -85 -105 -178 0 -95 29 -144 103 -175 75
-31 187 -7 227 49 57 79 51 203 -14 264 -52 49 -138 65 -211 40z m126 -97 c25
-25 29 -37 29 -83 -1 -70 -23 -98 -78 -98 -57 0 -77 26 -77 100 0 48 5 63 24
84 32 34 66 33 102 -3z"/>
<path d="M1773 224 c-3 -9 0 -20 7 -24 19 -12 5392 -10 5407 2 6 5 9 16 6 24
-4 12 -376 14 -2709 14 -2471 0 -2705 -1 -2711 -16z"/>
</g>
</svg>
