<?xml version="1.0" standalone="no"?>
<!DOCTYPE svg PUBLIC "-//W3C//DTD SVG 20010904//EN"
 "http://www.w3.org/TR/2001/REC-SVG-20010904/DTD/svg10.dtd">
<svg version="1.0" xmlns="http://www.w3.org/2000/svg"
 width="450.000000pt" height="225.000000pt" viewBox="0 0 450.000000 225.000000"
 preserveAspectRatio="xMidYMid meet">
<metadata>
Created by potrace 1.10, written by Peter Selinger 2001-2011
</metadata>
<g transform="translate(0.000000,225.000000) scale(0.100000,-0.100000)"
fill="#000000" stroke="none">
<path d="M2120 1953 l-115 -4 6 -137 c4 -75 7 -154 8 -174 l1 -38 124 0 124 0
4 35 4 35 -73 0 -73 0 0 30 0 30 70 0 70 0 0 35 c0 19 -4 35 -10 35 -5 0 -10
-13 -10 -30 l0 -30 -65 0 -65 0 0 -35 c0 -19 -4 -35 -10 -35 -5 0 -10 18 -10
40 l0 40 70 0 70 0 0 36 0 35 -45 -7 c-59 -8 -74 -2 -68 30 5 25 7 26 89 26
45 0 86 5 89 10 3 6 23 10 43 10 l37 0 -3 -145 -4 -145 40 0 40 0 7 140 7 140
43 0 c40 0 44 2 50 31 4 17 5 32 3 34 -2 2 -64 5 -138 6 l-135 1 -3 -36 -3
-36 -90 0 -89 0 0 -37 c0 -45 -12 -37 -16 12 l-3 35 89 0 c89 0 90 0 90 25 0
14 1 28 3 33 3 9 -7 9 -153 5z m330 -57 c0 -7 -6 -20 -13 -30 -12 -16 -14 -16
-25 9 -7 15 -10 30 -7 35 7 12 45 0 45 -14z m-376 -1 c-4 -8 -10 -15 -15 -15
-5 0 -9 7 -9 15 0 8 7 15 15 15 9 0 12 -6 9 -15z m11 -95 c17 -19 17 -21 0
-40 -23 -26 -35 -17 -35 26 0 39 9 43 35 14z m5 -151 c0 -5 -7 -9 -15 -9 -8 0
-15 7 -15 15 0 9 6 12 15 9 8 -4 15 -10 15 -15z"/>
<path d="M1826 1898 c-18 -29 -38 -62 -44 -73 -10 -17 -11 -10 -12 38 0 31 -4
57 -10 57 -6 0 -7 -28 -3 -75 4 -53 3 -75 -6 -75 -7 0 -11 28 -11 85 l0 85
-42 -6 c-24 -4 -44 -8 -46 -9 -1 -1 5 -76 13 -166 8 -90 15 -167 15 -171 0 -5
17 -8 38 -9 33 -1 35 -2 12 -9 -21 -7 -18 -8 15 -7 40 2 40 2 41 45 1 41 20
92 35 92 4 0 20 -25 35 -55 16 -30 34 -55 41 -55 7 0 13 -4 13 -9 0 -8 78 -4
88 4 5 4 -27 65 -34 65 -2 0 0 -9 6 -19 17 -32 12 -41 -22 -40 -32 1 -32 1 -6
8 l28 6 -59 107 -59 108 44 65 44 65 -40 0 c-38 0 -42 -3 -74 -52z m29 -150
c18 -44 11 -49 -17 -12 -15 18 -28 24 -44 21 l-23 -4 21 29 c24 35 37 28 63
-34z m-129 27 c4 -8 12 -15 20 -15 20 0 17 -20 -8 -60 l-22 -35 -7 40 c-11 57
-11 85 1 85 6 0 13 -7 16 -15z m84 -44 c0 -6 -9 -26 -21 -46 -14 -24 -20 -47
-17 -70 5 -47 -8 -45 -15 3 -4 26 1 49 16 80 21 39 37 54 37 33z"/>
<path d="M1906 1869 c-29 -48 -34 -64 -26 -80 14 -25 20 -24 13 1 -4 13 7 40
31 75 38 58 41 65 27 65 -5 0 -25 -27 -45 -61z"/>
<path d="M2580 1900 c0 -29 -2 -30 -45 -30 -25 0 -46 -3 -46 -7 -1 -5 -4 -66
-8 -138 l-6 -130 -35 -6 -35 -6 41 -2 41 -1 7 77 c3 42 6 105 6 140 l0 63 50
0 50 0 0 35 c0 19 -4 35 -10 35 -5 0 -10 -13 -10 -30z"/>
<path d="M2814 1916 c-17 -8 -44 -31 -60 -52 -24 -31 -29 -48 -32 -108 -4 -89
15 -129 82 -173 82 -56 180 -42 225 30 22 37 25 47 13 47 -4 0 -13 -13 -20
-30 -20 -43 -70 -70 -128 -69 l-49 1 55 8 c45 7 61 15 87 44 18 20 33 42 33
50 0 18 -73 33 -78 16 -11 -32 -44 -52 -76 -46 -43 9 -56 31 -56 95 0 76 25
125 65 129 39 4 68 -18 68 -51 0 -25 2 -27 45 -27 l45 0 -6 43 -6 42 14 -30
c24 -52 20 -63 -27 -68 -41 -3 -40 -4 10 -5 l52 -2 -6 28 c-10 41 -34 83 -44
77 -5 -3 -13 1 -17 10 -14 24 -84 55 -123 55 -19 -1 -49 -7 -66 -14z m-32
-131 c-2 -25 -8 -45 -13 -45 -10 0 -6 60 5 78 11 18 11 16 8 -33z"/>
<path d="M1353 1898 c-40 -5 -73 -13 -73 -16 0 -22 50 -335 54 -339 3 -3 21
-2 41 1 36 7 37 7 30 49 -3 23 -8 54 -11 70 -4 18 -1 27 8 27 7 0 22 3 33 6
17 4 26 -7 55 -66 29 -58 38 -70 55 -65 11 2 32 5 48 5 l27 0 -30 53 c-56 93
-56 95 -32 117 40 37 41 94 4 140 -23 28 -95 34 -209 18z m84 -61 l-48 -10 7
-46 c4 -30 3 -43 -4 -36 -5 6 -12 29 -15 52 -5 39 -3 42 22 46 14 2 40 4 56 4
22 0 17 -3 -18 -10z m63 -31 c0 -28 -33 -56 -66 -56 -17 0 -23 7 -26 35 -4 37
2 41 65 44 22 1 27 -3 27 -23z m-132 -69 c13 -14 13 -21 2 -45 l-13 -27 -8 25
c-8 29 -10 103 -2 80 3 -8 12 -23 21 -33z m144 -32 c6 -30 -7 -33 -22 -6 -13
26 -13 31 4 31 7 0 16 -11 18 -25z"/>
<path d="M3100 1724 c-44 -92 -80 -168 -80 -170 0 -2 7 -4 15 -4 8 0 15 -5 15
-11 0 -6 16 -9 37 -7 31 3 39 8 50 36 7 17 9 32 4 32 -5 0 -14 -13 -21 -30 -7
-16 -16 -30 -21 -30 -12 0 -12 4 8 45 11 23 22 34 31 30 7 -3 26 -5 40 -6 25
0 25 -1 7 -10 -15 -7 -11 -8 16 -4 36 5 36 5 43 -35 4 -25 12 -40 20 -40 8 0
16 -4 18 -9 2 -5 21 -12 44 -15 l41 -7 -24 163 c-26 184 -32 213 -39 205 -3
-3 7 -80 21 -172 14 -92 24 -172 22 -179 -7 -17 -14 22 -41 203 -14 89 -26
164 -28 166 -2 1 -25 5 -51 8 l-48 7 -79 -166z m148 104 c5 -7 13 -40 16 -73
4 -33 11 -78 16 -100 17 -71 14 -79 -17 -50 -25 22 -26 27 -15 46 27 43 -5
146 -49 161 -18 6 -1 28 20 28 10 0 23 -6 29 -12z m-28 -47 c0 -16 -53 -111
-61 -111 -13 0 -12 4 18 65 25 50 43 70 43 46z m10 -98 c0 -24 -7 -28 -28 -14
-10 6 -11 13 -1 35 14 29 29 19 29 -21z m-90 -32 c0 -4 -7 -8 -15 -8 -16 0
-20 9 -9 20 8 8 24 -1 24 -12z"/>
<path d="M1054 1853 c-37 -5 -34 3 -59 -188 -8 -66 -17 -135 -19 -152 -4 -27
-1 -33 14 -33 36 0 50 13 56 50 6 36 9 39 48 45 22 4 48 8 57 11 10 3 21 -8
33 -32 15 -33 20 -36 48 -30 17 3 37 6 45 6 9 0 -13 54 -69 164 -88 175 -81
168 -154 159z m79 -93 c33 -58 24 -66 -16 -15 -16 20 -34 34 -40 33 -7 -2 -14
0 -15 5 -6 19 0 27 21 27 16 0 29 -13 50 -50z m-48 -62 c-7 -65 -11 -75 -21
-66 -9 10 8 128 18 128 6 0 7 -24 3 -62z m55 -53 c0 -3 -11 -5 -25 -5 -26 0
-29 9 -19 48 6 23 7 22 25 -8 11 -17 19 -33 19 -35z m75 -45 l7 -24 -30 20
c-34 21 -35 24 -26 60 l6 25 18 -29 c10 -15 21 -39 25 -52z m-161 11 c3 -5 -1
-14 -9 -21 -13 -10 -15 -9 -15 9 0 21 14 28 24 12z"/>
<path d="M1601 1828 c10 -37 4 -58 -33 -109 -9 -13 -4 -29 25 -82 21 -36 37
-68 37 -71 0 -3 -18 -6 -41 -6 -22 0 -38 -3 -35 -8 2 -4 25 -6 50 -4 l46 4
-41 74 -41 74 26 31 c29 35 34 84 11 115 -13 17 -13 15 -4 -18z"/>
<path d="M1220 1690 c44 -88 80 -162 80 -165 0 -3 -10 -5 -22 -5 -13 0 -30 -5
-38 -10 -10 -7 -1 -8 30 -4 25 4 46 7 47 8 3 2 -168 336 -172 336 -3 0 31 -72
75 -160z"/>
<path d="M2854 1829 c-14 -16 -19 -38 -21 -97 l-1 -77 7 65 c8 70 21 103 49
119 15 9 15 10 1 11 -9 0 -24 -9 -35 -21z"/>
<path d="M3436 1821 c-3 -14 -17 -91 -32 -169 -24 -138 -25 -144 -7 -158 10
-7 24 -11 31 -9 6 2 12 1 12 -4 0 -5 11 -11 25 -13 28 -6 27 -7 43 90 13 75
-3 64 -18 -13 -7 -36 -17 -65 -22 -65 -6 0 -7 11 -4 25 4 14 9 45 13 70 6 49
18 55 58 29 14 -9 34 -14 45 -11 11 3 20 2 20 -3 0 -4 11 -10 25 -12 21 -5 26
-1 34 26 4 17 7 33 5 35 -7 8 -24 -12 -24 -30 0 -10 -4 -19 -10 -19 -12 0 -12
-2 -1 37 l9 32 -54 7 c-30 3 -54 9 -54 13 0 3 4 21 9 39 6 18 6 32 1 32 -5 0
-12 -16 -16 -35 -3 -19 -11 -35 -16 -35 -6 0 -8 10 -4 23 3 12 6 30 6 40 0 11
8 17 25 17 14 0 25 -5 25 -11 0 -7 10 -9 28 -5 21 5 24 4 12 -5 -12 -9 -10
-10 9 -5 14 3 30 1 35 -3 6 -5 26 -12 44 -16 23 -5 32 -3 32 7 0 7 3 24 7 37
4 17 3 22 -5 17 -7 -4 -12 -16 -12 -26 0 -10 -5 -22 -11 -26 -8 -4 -9 5 -5 33
l7 39 -63 12 c-35 7 -93 18 -130 26 l-67 13 -5 -26z m54 -58 c-24 -30 -25 -61
-5 -89 13 -19 12 -23 -15 -49 -27 -25 -30 -26 -30 -9 0 10 5 37 10 59 5 22 12
55 15 74 8 44 12 51 30 45 12 -5 11 -10 -5 -31z"/>
<path d="M3912 1835 c-60 -15 -67 -19 -57 -35 4 -7 27 -9 68 -4 34 4 64 8 65
10 6 5 -9 44 -16 43 -4 -1 -31 -7 -60 -14z"/>
<path d="M3999 1820 c-3 -21 -11 -26 -52 -32 -27 -4 -51 -9 -54 -11 -5 -6 119
4 126 9 1 1 -1 15 -7 31 l-9 28 -4 -25z"/>
<path d="M778 1797 c-54 -12 -56 -17 -60 -154 -1 -46 -4 -83 -7 -83 -7 0 -91
146 -91 157 0 4 7 -2 16 -13 14 -18 15 -18 4 4 -6 12 -15 20 -20 17 -5 -3 -13
2 -18 10 -8 15 -15 15 -75 -1 -53 -13 -67 -20 -63 -33 3 -9 24 -83 46 -166 23
-82 43 -151 44 -152 2 -2 17 0 34 3 36 7 37 -7 -12 169 -17 62 -36 111 -43
111 -25 3 -27 4 -15 16 6 6 24 13 39 14 24 3 31 -3 51 -39 l23 -42 -28 33
c-33 38 -64 46 -39 10 9 -12 16 -33 16 -46 0 -13 4 -21 9 -18 5 3 33 -35 62
-84 31 -51 60 -90 69 -90 39 1 44 16 54 164 5 81 14 146 19 146 9 0 5 -108
-10 -250 -5 -50 -9 -58 -32 -67 -22 -9 -23 -11 -6 -12 41 -2 48 13 55 119 4
55 10 103 12 106 3 2 13 -36 23 -85 l17 -90 32 6 c17 3 35 9 39 13 4 4 -7 82
-25 173 -37 186 -28 174 -120 154z m70 -89 c16 -75 21 -108 17 -108 -9 0 -35
60 -35 78 0 11 -9 31 -20 44 -20 27 -18 38 10 38 12 0 20 -15 28 -52z m-108
-168 c0 -24 -12 -60 -19 -60 -4 0 -17 17 -29 38 l-21 38 34 0 c24 -1 35 -6 35
-16z"/>
<path d="M880 1798 c0 -3 16 -79 35 -169 19 -90 35 -165 35 -166 0 -1 -16 -5
-35 -9 -19 -3 -35 -11 -35 -16 0 -6 7 -7 16 -4 9 3 21 6 27 6 39 1 39 13 6
181 -17 90 -36 168 -40 174 -5 5 -9 6 -9 3z"/>
<path d="M3746 1763 c-2 -10 -17 -70 -31 -133 -15 -63 -31 -130 -36 -149 -10
-43 -7 -48 39 -61 166 -46 225 -60 228 -57 3 2 9 18 14 36 11 41 -5 40 -19 -1
-6 -17 -14 -28 -17 -25 -4 3 -2 20 4 36 13 36 14 35 -61 52 -32 7 -60 15 -62
19 -3 4 0 21 5 39 5 18 5 31 0 31 -5 0 -12 -16 -16 -35 -3 -19 -11 -35 -16
-35 -6 0 -8 13 -4 31 3 17 6 35 6 40 0 13 23 11 56 -5 16 -7 41 -17 57 -20 24
-6 28 -3 33 24 9 44 9 44 -43 56 -43 9 -48 13 -45 35 2 13 7 28 12 32 4 5 44
-2 89 -14 45 -12 83 -20 85 -18 9 11 15 59 7 59 -5 0 -12 -11 -15 -25 -4 -14
-11 -25 -16 -25 -6 0 -6 9 0 26 6 14 10 29 10 33 0 7 -232 71 -254 71 -3 0 -7
-8 -10 -17z m43 -72 c-18 -36 -19 -42 -6 -68 14 -27 13 -29 -14 -51 -32 -26
-35 -19 -19 38 6 19 13 50 15 69 6 41 12 51 30 51 12 0 10 -8 -6 -39z m46 -13
c-4 -13 -9 -31 -11 -40 -3 -10 -10 -18 -15 -18 -6 0 -8 10 -4 23 4 12 9 30 11
40 3 9 10 17 15 17 6 0 8 -10 4 -22z m-91 -194 c9 -22 -3 -32 -14 -14 -12 19
-12 30 -1 30 5 0 12 -7 15 -16z"/>
<path d="M1925 1710 c14 -27 28 -50 30 -50 3 0 -6 23 -20 50 -14 28 -28 50
-30 50 -3 0 6 -22 20 -50z"/>
<path d="M1416 1611 l7 -68 -38 -7 c-51 -10 -37 -20 15 -11 l42 7 -7 56 c-4
30 -9 61 -12 68 -2 7 4 14 14 17 14 4 13 5 -5 6 -21 1 -22 -1 -16 -68z"/>
<path d="M2288 1628 l-3 -33 -125 -5 -125 -6 133 -2 132 -2 0 40 c0 48 -7 53
-12 8z"/>
<path d="M590 1574 c0 -5 9 -43 20 -84 25 -95 25 -110 1 -110 -11 0 -23 -5
-27 -11 -4 -8 4 -9 27 -4 19 4 35 9 37 10 2 2 -9 47 -24 101 -24 92 -34 120
-34 98z"/>
<path d="M3941 1549 c-13 -39 -13 -39 -2 -39 5 0 14 14 20 31 13 39 13 39 2
39 -5 0 -14 -14 -20 -31z"/>
<path d="M1095 1563 c-25 -7 -35 -21 -35 -54 0 -22 -6 -28 -32 -33 -17 -3 -29
-9 -25 -12 3 -3 19 -3 36 1 26 6 32 12 37 45 6 36 9 39 53 48 34 7 38 10 16
10 -16 0 -39 -3 -50 -5z"/>
<path d="M1980 1358 c0 -11 15 -35 33 -52 l33 -31 -23 -44 c-16 -31 -23 -61
-23 -100 0 -63 6 -75 37 -79 21 -3 22 -2 8 25 -38 71 10 214 61 185 16 -9 15
-10 -5 -17 -21 -6 -58 -51 -49 -60 3 -3 10 6 18 19 18 34 64 52 93 37 37 -18
61 -35 73 -50 9 -12 18 -9 50 17 22 17 61 38 87 46 47 14 47 14 71 -15 29 -34
41 -95 26 -133 -5 -15 -7 -32 -4 -38 4 -7 2 -8 -4 -4 -7 4 -12 3 -12 -2 0 -6
11 -9 25 -8 21 1 25 7 31 43 8 54 -2 108 -27 152 -20 33 -20 34 1 48 17 12 50
62 50 77 0 3 -24 -6 -52 -19 -29 -14 -69 -25 -88 -25 -39 0 -113 -31 -126 -51
-4 -7 9 -3 28 9 21 13 65 26 104 31 38 5 78 13 89 17 19 7 19 7 2 -13 -14 -16
-34 -21 -92 -25 -61 -4 -80 -10 -111 -33 -28 -22 -38 -25 -44 -14 -5 7 -7 16
-4 20 10 17 -59 51 -114 56 -31 3 -76 16 -99 28 -43 23 -43 23 -43 3z m122
-38 c24 0 63 -9 87 -20 52 -24 50 -37 -2 -15 -20 8 -60 15 -89 15 -32 0 -62 6
-76 16 -32 22 -27 37 8 19 16 -8 48 -15 72 -15z"/>
<path d="M2421 1221 c23 -23 29 -38 29 -71 0 -76 -38 -118 -100 -108 -36 5
-65 52 -64 104 1 28 -2 40 -7 32 -20 -31 3 -107 40 -135 20 -15 66 -16 92 -3
52 28 65 129 23 179 -14 17 -30 31 -34 31 -5 0 5 -13 21 -29z"/>
<path d="M2102 1188 c-16 -16 -15 -69 1 -92 19 -25 58 -17 77 17 13 24 13 30
0 55 -17 30 -57 41 -78 20z m38 -29 c0 -10 -7 -19 -15 -19 -15 0 -21 31 -9 43
11 10 24 -3 24 -24z"/>
<path d="M2215 1145 c0 -43 -5 -59 -24 -79 -35 -37 -81 -35 -115 5 -14 17 -26
26 -26 21 0 -5 12 -21 26 -36 44 -44 110 -32 139 24 16 31 20 87 7 107 -4 6
-7 -13 -7 -42z"/>
<path d="M2326 1178 c-9 -12 -16 -29 -16 -38 0 -26 30 -60 54 -60 32 0 46 19
46 60 0 20 -5 41 -12 48 -19 19 -55 14 -72 -10z m64 -19 c0 -10 -7 -19 -15
-19 -15 0 -21 31 -9 43 11 10 24 -3 24 -24z"/>
<path d="M2042 1140 c0 -19 2 -27 5 -17 2 9 2 25 0 35 -3 9 -5 1 -5 -18z"/>
<path d="M2245 1098 c-4 -15 -23 -42 -42 -59 -28 -24 -43 -30 -68 -27 -32 4
-32 3 -23 -25 21 -58 -14 -167 -62 -192 -24 -12 -30 -12 -46 1 -18 14 -18 15
4 9 35 -10 79 40 87 99 10 63 -4 130 -28 134 -28 6 -67 -26 -84 -66 -14 -34
-14 -59 0 -167 1 -10 14 -26 28 -34 24 -13 29 -13 53 2 38 25 68 92 74 165 4
49 7 60 15 47 21 -38 -18 -182 -59 -216 -8 -7 -32 -15 -52 -19 l-37 -7 28 -11
c19 -8 35 -8 54 -1 21 8 30 6 42 -7 15 -15 15 -16 -1 -11 -9 3 -23 -2 -34 -14
-19 -21 -6 -27 15 -6 10 10 11 8 5 -7 -6 -16 -5 -17 15 -6 21 11 22 10 11 -10
-10 -19 -10 -20 7 -12 23 12 183 10 202 -2 11 -7 13 -5 8 7 -8 20 4 22 22 5
12 -11 13 -10 7 6 -5 14 -2 17 9 12 8 -3 15 -1 15 5 0 6 -9 13 -20 16 -11 3
-20 9 -20 14 0 16 27 21 49 10 14 -8 27 -8 48 1 24 10 25 12 8 15 -11 2 -30 6
-42 8 -12 3 -31 18 -42 34 -27 38 -54 144 -46 181 9 43 21 37 17 -8 -11 -113
81 -239 137 -188 11 10 20 25 21 34 0 10 3 44 6 77 6 70 -14 120 -58 145 -25
13 -29 13 -44 -1 -57 -58 -2 -244 68 -224 22 6 22 5 5 -9 -55 -44 -140 104
-109 192 9 27 8 28 -17 24 -37 -5 -93 36 -108 78 l-11 35 -7 -27z m-5 -63 c0
-20 16 -19 24 1 5 13 9 13 30 -3 21 -16 24 -24 19 -64 -6 -53 18 -149 49 -192
l20 -28 -28 -22 c-78 -62 -141 -62 -206 0 l-27 25 24 37 c28 42 47 120 44 177
-2 28 3 46 17 61 23 26 34 28 34 8z m-172 -97 c3 -48 -24 -98 -46 -84 -17 11
-15 88 4 114 23 33 39 22 42 -30z m410 21 c7 -13 11 -42 10 -64 -6 -80 -58
-40 -58 44 0 58 23 68 48 20z"/>
<path d="M732 955 c3 -14 56 -16 456 -18 425 -2 452 -1 452 16 0 16 -28 17
-456 17 -406 0 -455 -2 -452 -15z"/>
<path d="M2860 953 c0 -17 28 -18 453 -16 401 2 452 3 455 17 3 14 -44 16
-452 16 -428 0 -456 -1 -456 -17z"/>
<path d="M1358 893 c-238 -3 -278 -5 -278 -18 0 -13 39 -15 280 -15 273 0 280
0 280 20 0 11 -1 19 -2 18 -2 -2 -128 -4 -280 -5z"/>
<path d="M2860 878 c0 -17 20 -18 280 -18 240 0 280 2 280 15 0 12 -42 15
-280 17 -261 3 -280 2 -280 -14z"/>
<path d="M1785 616 c-29 -13 -55 -51 -55 -81 0 -9 10 -15 28 -16 24 0 25 -1 7
-9 -17 -7 -15 -9 13 -9 25 -1 32 3 32 19 0 10 8 24 18 29 16 10 16 10 -1 11
-10 0 -22 -10 -27 -22 -10 -23 -10 -23 -7 2 4 43 77 36 77 -7 0 -9 -34 -50
-75 -92 -47 -48 -75 -86 -75 -99 0 -21 4 -22 99 -22 97 0 99 0 103 25 5 24 3
25 -41 25 l-46 0 52 51 c54 52 72 96 53 126 -10 16 -10 16 -5 -3 3 -12 1 -33
-4 -48 -13 -31 -110 -126 -131 -125 -11 0 -10 3 5 15 11 8 41 35 68 61 41 40
47 51 47 88 0 69 -68 111 -135 81z"/>
<path d="M2058 553 c-77 -120 -88 -140 -88 -162 0 -26 23 -53 36 -42 5 5 28
11 52 14 39 5 42 4 42 -19 0 -19 5 -24 25 -24 18 0 25 5 25 20 0 11 7 20 15
20 10 0 15 10 15 31 0 24 -4 30 -16 25 -13 -5 -15 7 -12 99 l3 105 -27 0 c-22
0 -34 -12 -70 -67z m52 -26 c0 -8 -3 -17 -7 -21 -4 -4 -6 -27 -4 -51 2 -43 1
-45 -24 -45 l-27 0 22 36 c12 19 20 37 18 39 -2 3 -15 -13 -27 -35 -12 -22
-27 -40 -32 -40 -13 0 -12 2 31 72 35 57 50 70 50 45z"/>
<path d="M2222 470 l3 -150 28 0 c26 0 27 1 27 60 l0 60 50 0 50 0 0 -60 c0
-60 0 -60 30 -60 l30 0 0 150 0 150 -30 0 -30 0 0 -62 0 -63 -51 0 -50 0 3 63
3 62 -33 0 -33 0 3 -150z"/>
<path d="M2450 461 l0 -150 -27 -4 c-26 -4 -26 -4 5 -6 l32 -1 0 155 c0 85 -2
155 -5 155 -3 0 -5 -67 -5 -149z"/>
<path d="M2161 518 c1 -93 6 -87 11 15 2 37 0 67 -4 67 -4 0 -7 -37 -7 -82z"/>
<path d="M2293 560 c0 -25 2 -35 4 -22 2 12 2 32 0 45 -2 12 -4 2 -4 -23z"/>
<path d="M2490 435 l0 -115 25 0 c24 0 25 2 25 73 0 78 4 88 38 106 23 12 31
51 10 51 -6 0 -20 -7 -30 -17 -17 -15 -18 -15 -18 0 0 11 -8 17 -25 17 l-25 0
0 -115z"/>
<path d="M2629 520 c-13 -16 -29 -30 -36 -30 -30 0 -43 -32 -43 -105 0 -68 -2
-74 -22 -78 -20 -4 -19 -4 5 -6 l27 -1 0 71 c0 39 5 79 10 90 15 26 46 24 54
-4 3 -13 23 -33 46 -46 22 -12 40 -28 40 -36 0 -22 -30 -25 -50 -5 -11 11 -29
20 -39 20 -18 0 -19 -4 -10 -29 17 -47 71 -63 116 -33 15 10 48 86 34 77 -6
-3 -11 1 -11 10 0 8 -20 25 -45 37 -48 23 -57 50 -20 56 17 3 17 1 5 -7 -12
-8 -8 -11 18 -11 20 0 31 -4 27 -10 -3 -6 5 -10 19 -10 19 0 24 4 19 16 -5 13
-7 13 -14 2 -6 -9 -9 -7 -9 8 0 57 -83 73 -121 24z"/>
<path d="M2318 423 c12 -2 30 -2 40 0 9 3 -1 5 -23 4 -22 0 -30 -2 -17 -4z"/>
<path d="M2291 363 c-1 -48 -3 -52 -28 -56 -23 -3 -22 -4 8 -6 l37 -1 -5 48
c-7 69 -11 74 -12 15z"/>
<path d="M2191 384 c0 -12 -8 -27 -16 -34 -8 -7 -15 -18 -15 -26 0 -7 -10 -15
-22 -17 -16 -3 -13 -5 10 -6 29 -1 32 2 27 18 -4 13 0 23 10 29 11 6 15 17 12
33 -4 21 -4 22 -6 3z"/>
<path d="M2762 357 c-9 -26 -23 -39 -50 -51 -20 -8 -29 -15 -20 -15 45 -2 98
53 86 89 -2 6 -9 -4 -16 -23z"/>
<path d="M1930 330 c0 -18 -8 -20 -97 -23 l-98 -3 108 -2 107 -2 0 25 c0 14
-4 25 -10 25 -5 0 -10 -9 -10 -20z"/>
</g>
</svg>
