<?xml version="1.0" standalone="no"?>
<!DOCTYPE svg PUBLIC "-//W3C//DTD SVG 20010904//EN"
 "http://www.w3.org/TR/2001/REC-SVG-20010904/DTD/svg10.dtd">
<svg version="1.0" xmlns="http://www.w3.org/2000/svg"
 width="300.000000pt" height="241.000000pt" viewBox="0 0 300.000000 241.000000"
 preserveAspectRatio="xMidYMid meet">
<metadata>
Created by potrace 1.10, written by Peter Selinger 2001-2011
</metadata>
<g transform="translate(0.000000,241.000000) scale(0.100000,-0.100000)"
fill="#f3f3f3" stroke="none">
<path d="M326 2240 c-58 -7 -71 -22 -79 -92 -9 -73 6 -88 90 -88 76 0 103 12
103 45 0 13 5 35 11 49 10 20 9 30 -4 49 -21 32 -61 44 -121 37z m94 -45 c16
-19 6 -45 -20 -52 -11 -3 -20 -9 -20 -14 0 -5 -20 -9 -44 -9 -43 0 -44 1 -49
38 -2 20 -2 40 0 45 8 14 120 8 133 -8z m0 -95 c0 -6 -33 -10 -80 -10 -47 0
-80 4 -80 10 0 6 33 10 80 10 47 0 80 -4 80 -10z"/>
<path d="M380 2176 c0 -9 7 -16 16 -16 17 0 14 22 -4 28 -7 2 -12 -3 -12 -12z"/>
<path d="M547 2215 c-22 -22 -23 -107 -2 -125 12 -10 68 -12 238 -10 122 2
284 3 360 2 80 -2 145 2 156 8 13 7 22 7 26 0 3 -5 19 -10 35 -10 16 0 32 5
35 10 4 7 12 7 25 0 23 -12 498 -11 522 1 10 6 19 5 23 -1 3 -5 35 -10 71 -10
36 0 74 -5 84 -10 13 -7 28 -7 46 0 16 6 133 11 286 11 254 1 259 1 273 22 17
27 15 50 -10 77 -20 22 -55 26 -72 9 -8 -8 -17 -8 -33 1 -12 6 -28 9 -36 6 -8
-3 -34 1 -57 9 -23 8 -51 12 -63 9 -12 -3 -30 -1 -41 4 -12 7 -30 6 -58 -4
-50 -17 -243 -21 -272 -5 -33 17 -72 13 -104 -9 -22 -16 -33 -19 -48 -11 -11
6 -30 11 -43 11 -181 -1 -253 2 -262 9 -22 16 -55 18 -75 4 -12 -8 -40 -14
-64 -15 -23 0 -50 -4 -59 -9 -12 -6 -24 -5 -38 3 -15 10 -26 10 -52 0 -19 -7
-36 -8 -42 -2 -20 16 -110 17 -123 0 -6 -8 -15 -12 -19 -8 -4 4 -1 14 6 23 14
17 3 20 -19 6 -10 -6 -24 -5 -41 4 -24 12 -30 12 -50 -2 -28 -20 -98 -18 -149
3 -26 11 -37 11 -48 3 -10 -9 -20 -9 -36 -2 -15 7 -29 8 -41 1 -12 -7 -22 -6
-32 3 -12 9 -20 9 -39 -1 -14 -8 -35 -10 -52 -6 -69 18 -90 18 -106 1z m183
-25 c0 -14 6 -20 16 -18 9 2 21 -5 28 -14 15 -25 -4 -52 -38 -55 -25 -2 -26 0
-26 53 0 30 5 54 10 54 6 0 10 -9 10 -20z m80 5 c0 -8 -4 -15 -10 -15 -5 0
-10 7 -10 15 0 8 5 15 10 15 6 0 10 -7 10 -15z m71 -45 c-5 -37 -10 -46 -28
-48 -17 -2 -24 3 -29 23 -7 30 11 56 33 48 11 -4 14 -2 9 5 -9 15 3 37 14 25
4 -4 5 -28 1 -53z m199 39 c-13 -8 -13 -10 0 -19 10 -6 11 -10 3 -10 -8 0 -13
-13 -13 -30 0 -42 -17 -38 -22 5 -3 25 1 41 15 56 10 11 22 18 25 14 4 -3 0
-10 -8 -16z m500 -34 c0 -30 -4 -55 -10 -55 -5 0 -10 25 -10 55 0 30 5 55 10
55 6 0 10 -25 10 -55z m450 1 c0 -51 -1 -53 -27 -52 -24 1 -28 6 -31 34 -3 30
4 37 31 33 4 0 7 8 7 19 0 11 5 20 10 20 6 0 10 -24 10 -54z m380 28 c0 -8 4
-13 9 -10 14 9 33 -21 29 -46 -2 -17 -10 -23 -30 -24 -27 -1 -28 0 -28 53 0
34 4 52 10 48 6 -3 10 -13 10 -21z m70 -29 c0 -30 -4 -55 -10 -55 -5 0 -10 25
-10 55 0 30 5 55 10 55 6 0 10 -25 10 -55z m-1853 5 c2 -42 -11 -60 -43 -60
-22 0 -24 4 -24 51 l0 50 33 -3 c29 -3 32 -6 34 -38z m1177 8 c8 -5 7 -8 -1
-8 -7 0 -13 -9 -13 -20 0 -11 5 -20 10 -20 6 0 10 -5 10 -11 0 -24 -35 -2 -41
26 -6 33 11 82 19 55 3 -8 10 -18 16 -22z m-1116 0 c18 -18 15 -28 -8 -28 -27
0 -25 -18 3 -23 19 -3 20 -4 4 -11 -21 -10 -47 9 -47 33 0 17 18 41 30 41 3 0
11 -5 18 -12z m260 -28 c3 -32 0 -36 -23 -38 -19 -1 -25 3 -25 18 0 11 7 20
15 20 8 0 15 5 15 11 0 6 -7 9 -15 5 -15 -6 -20 5 -8 18 17 17 38 -1 41 -34z
m57 30 c3 -5 -1 -10 -11 -10 -13 0 -12 -3 6 -18 20 -16 20 -19 6 -31 -10 -8
-23 -10 -33 -5 -16 6 -15 8 6 12 l23 4 -21 15 c-17 12 -20 18 -10 29 14 16 25
18 34 4z m135 1 c0 -5 -6 -11 -14 -14 -8 -3 -16 -18 -19 -34 -3 -24 -4 -22 -6
9 -1 33 7 45 32 47 4 1 7 -3 7 -8z m88 -3 c7 -7 12 -24 12 -39 0 -22 -4 -26
-27 -25 -32 1 -43 25 -14 33 24 6 28 23 5 23 -8 0 -12 5 -9 10 8 13 18 13 33
-2z m62 2 c12 -8 10 -10 -9 -10 l-23 0 22 -18 c13 -11 20 -24 16 -30 -9 -15
-46 -16 -46 -2 0 6 8 10 17 10 15 0 15 1 -2 14 -11 8 -16 19 -12 30 7 18 16
20 37 6z m94 -6 c19 -19 20 -25 3 -48 -18 -25 -57 -13 -57 18 0 21 17 46 31
46 4 0 15 -7 23 -16z m90 7 c3 -5 -3 -11 -14 -14 -26 -7 -26 -27 0 -34 27 -7
25 -25 -2 -21 -15 2 -24 11 -26 26 -5 34 27 67 42 43z m66 -10 c5 -11 10 -29
10 -40 0 -15 -6 -19 -27 -18 -34 3 -46 37 -14 37 12 0 21 5 21 10 0 6 -10 10
-22 10 -19 0 -20 2 -8 10 22 14 28 12 40 -9z m144 -7 c4 -10 -2 -14 -19 -14
-31 0 -33 -17 -2 -23 19 -3 20 -4 4 -11 -19 -9 -47 8 -47 30 0 36 51 51 64 18z
m66 7 c13 -25 13 -61 0 -61 -5 0 -10 14 -10 30 0 20 -5 30 -15 30 -10 0 -15
-10 -15 -31 0 -16 -4 -28 -9 -25 -11 7 -1 59 13 68 17 12 25 9 36 -11z m118 7
c8 -8 15 -8 27 2 12 10 19 10 27 2 9 -9 7 -12 -7 -12 -18 0 -17 -1 3 -16 32
-22 13 -41 -43 -42 -47 0 -68 17 -57 48 10 28 32 36 50 18z m247 2 c3 -5 -2
-10 -11 -10 -16 0 -16 -1 1 -14 11 -8 16 -19 12 -30 -7 -18 -32 -22 -42 -6 -3
6 4 10 17 10 l22 0 -22 16 c-18 13 -21 19 -11 30 14 16 25 18 34 4z m79 -13
c13 -21 -4 -53 -28 -51 -9 1 -16 -4 -16 -12 0 -8 -4 -14 -9 -14 -5 0 -7 19 -4
43 8 57 33 72 57 34z m66 9 c6 -8 10 -25 8 -38 -2 -17 -10 -23 -28 -23 -20 0
-26 6 -28 29 -5 40 25 59 48 32z m80 -32 c0 -19 -5 -34 -10 -34 -6 0 -9 12 -8
26 2 15 -3 29 -9 31 -9 3 -13 -6 -13 -26 0 -17 -4 -31 -10 -31 -5 0 -10 15
-10 34 0 25 5 36 18 38 30 7 42 -3 42 -38z m210 20 c0 -8 -9 -14 -20 -14 -27
0 -25 -18 3 -23 19 -3 20 -4 4 -11 -37 -17 -66 43 -30 62 21 12 43 5 43 -14z
m55 16 c3 -5 -2 -10 -11 -10 -16 0 -16 -1 1 -14 11 -8 16 -19 12 -30 -7 -18
-32 -22 -42 -6 -3 6 4 10 17 10 l22 0 -22 16 c-18 13 -21 19 -11 30 14 16 25
18 34 4z m93 -2 c7 -7 12 -24 12 -38 0 -23 -4 -27 -30 -28 -23 0 -30 4 -30 19
0 10 6 19 14 19 8 0 18 5 22 12 5 8 0 9 -14 6 -21 -6 -29 2 -15 15 10 11 28 8
41 -5z m-1888 -33 c0 -19 -4 -35 -10 -35 -5 0 -10 16 -10 35 0 19 5 35 10 35
6 0 10 -16 10 -35z m360 0 c0 -19 -4 -35 -10 -35 -5 0 -10 16 -10 35 0 19 5
35 10 35 6 0 10 -16 10 -35z m440 -1 c0 -19 -4 -33 -8 -30 -8 5 -4 66 4 66 2
0 4 -16 4 -36z m447 -16 c-2 -13 -4 -5 -4 17 -1 22 1 32 4 23 2 -10 2 -28 0
-40z m310 0 c-2 -13 -4 -5 -4 17 -1 22 1 32 4 23 2 -10 2 -28 0 -40z"/>
<path d="M737 2153 c-13 -12 -7 -33 8 -33 8 0 15 9 15 20 0 20 -11 26 -23 13z"/>
<path d="M840 2140 c0 -13 5 -20 13 -17 6 2 12 10 12 17 0 7 -6 15 -12 18 -8
2 -13 -5 -13 -18z"/>
<path d="M1987 2153 c-13 -12 -7 -33 8 -33 8 0 15 9 15 20 0 20 -11 26 -23 13z"/>
<path d="M2410 2140 c0 -13 5 -20 13 -17 6 2 12 10 12 17 0 7 -6 15 -12 18 -8
2 -13 -5 -13 -18z"/>
<path d="M580 2176 c0 -9 7 -16 16 -16 17 0 14 22 -4 28 -7 2 -12 -3 -12 -12z"/>
<path d="M580 2136 c0 -9 7 -16 16 -16 17 0 14 22 -4 28 -7 2 -12 -3 -12 -12z"/>
<path d="M1350 2141 c0 -12 6 -21 16 -21 9 0 14 7 12 17 -5 25 -28 28 -28 4z"/>
<path d="M1858 2142 c-46 -6 -32 -22 19 -22 25 0 44 1 42 3 -2 1 -11 7 -19 13
-8 5 -27 8 -42 6z"/>
<path d="M2150 2140 c0 -11 7 -20 15 -20 8 0 15 9 15 20 0 11 -7 20 -15 20 -8
0 -15 -9 -15 -20z"/>
<path d="M2227 2154 c-14 -14 -7 -35 11 -32 9 2 17 10 17 17 0 16 -18 25 -28
15z"/>
<path d="M736 1990 c-29 -13 -55 -17 -103 -13 -52 4 -68 1 -84 -13 -23 -21
-25 -67 -3 -88 19 -20 5 -18 152 -21 71 -2 128 -7 134 -13 8 -8 17 -8 32 0 11
6 61 11 112 12 62 1 96 5 108 15 14 12 21 12 42 1 17 -10 59 -13 142 -12 120
3 131 3 230 0 31 -1 75 -1 97 0 22 1 84 1 137 0 80 -3 100 0 114 14 15 15 15
19 -6 57 -23 40 -45 53 -119 71 -25 6 -40 4 -58 -7 -20 -13 -28 -14 -48 -3
-19 10 -30 10 -54 0 -26 -10 -35 -10 -55 3 -23 15 -26 15 -59 -7 -23 -16 -39
-21 -48 -15 -8 5 -59 9 -114 9 -72 1 -105 5 -119 15 -17 13 -22 13 -42 0 -28
-18 -117 -20 -144 -3 -16 10 -25 10 -47 -3 -32 -18 -104 -15 -138 6 -16 10
-27 10 -59 -5z m46 -62 c-2 -27 -7 -48 -11 -48 -9 0 -12 90 -4 103 11 19 19
-10 15 -55z m708 8 c0 -51 -1 -53 -27 -52 -23 1 -29 6 -31 29 -3 22 1 30 16
34 11 3 22 13 25 24 9 35 17 19 17 -35z m110 -7 c0 -27 -4 -49 -10 -49 -5 0
-10 25 -10 56 0 34 4 53 10 49 6 -3 10 -28 10 -56z m-446 36 c-4 -10 0 -15 14
-15 11 0 23 -7 26 -17 6 -15 8 -15 19 2 21 27 52 15 52 -20 0 -36 -31 -47 -52
-19 -12 16 -13 16 -13 1 0 -28 -18 -19 -22 11 -4 32 -23 27 -23 -5 1 -13 -5
-23 -12 -23 -9 0 -13 16 -13 50 0 37 4 50 15 50 9 0 12 -6 9 -15z m546 -35 c0
-48 -1 -50 -29 -50 -18 0 -31 6 -35 16 -10 26 3 54 25 54 10 0 19 7 19 15 0 8
5 15 10 15 6 0 10 -22 10 -50z m-1090 11 c0 -5 -7 -8 -16 -7 -25 2 -29 -24 -5
-31 26 -7 28 -23 2 -23 -26 0 -44 25 -36 50 6 20 55 30 55 11z m30 -16 c0 -14
5 -25 10 -25 6 0 10 11 10 25 0 14 5 25 10 25 6 0 10 -16 10 -36 0 -33 -2 -35
-27 -32 -23 2 -29 8 -31 36 -2 18 1 32 7 32 6 0 11 -11 11 -25z m108 -11 c3
-28 0 -31 -24 -30 -33 1 -44 25 -15 33 12 3 21 10 21 15 0 6 -7 8 -15 4 -8 -3
-15 -1 -15 5 0 6 10 9 23 7 16 -2 23 -11 25 -34z m112 -9 c0 -25 -4 -45 -10
-45 -5 0 -10 4 -10 9 0 5 -9 11 -20 14 -13 3 -20 14 -20 29 0 31 7 38 37 38
21 0 23 -5 23 -45z m30 20 c0 -14 5 -25 10 -25 6 0 10 11 10 25 0 14 5 25 10
25 6 0 10 -15 10 -33 0 -27 -4 -33 -22 -34 -12 -1 -26 3 -30 10 -11 17 -10 57
2 57 6 0 10 -11 10 -25z m80 -10 c0 -19 -4 -35 -10 -35 -5 0 -10 16 -10 35 0
19 5 35 10 35 6 0 10 -16 10 -35z m70 25 c0 -5 0 -13 1 -17 0 -5 -10 -11 -23
-15 l-23 -6 23 -1 c27 -1 30 -21 3 -21 -26 0 -44 25 -36 50 7 21 55 30 55 10z
m60 1 c0 -5 -6 -11 -14 -14 -9 -4 -12 -14 -9 -26 4 -15 1 -21 -10 -21 -11 0
-15 9 -14 35 2 29 6 35 25 35 12 0 22 -4 22 -9z m230 -1 c0 -5 -4 -10 -10 -10
-5 0 -10 -11 -10 -25 0 -14 -4 -25 -10 -25 -5 0 -10 16 -10 35 0 28 4 35 20
35 11 0 20 -4 20 -10z m60 -9 c0 -11 3 -26 6 -34 4 -12 -2 -15 -27 -14 -37 2
-51 26 -20 34 12 3 21 9 21 14 0 5 -7 6 -15 3 -8 -4 -15 -1 -15 5 0 6 11 11
25 11 18 0 25 -5 25 -19z m170 9 c0 -5 0 -13 1 -17 0 -5 -10 -11 -23 -15 l-23
-6 23 -1 c27 -1 30 -21 3 -21 -26 0 -44 25 -36 50 7 21 55 30 55 10z m180 -25
c0 -19 -4 -35 -10 -35 -5 0 -10 16 -10 35 0 19 5 35 10 35 6 0 10 -16 10 -35z
m68 -2 c3 -31 1 -33 -27 -33 -36 0 -44 28 -11 37 11 3 17 9 15 14 -3 4 -12 6
-20 2 -8 -3 -15 0 -15 7 0 6 11 10 28 8 22 -2 28 -8 30 -35z"/>
<path d="M1450 1920 c0 -11 5 -20 10 -20 6 0 10 9 10 20 0 11 -4 20 -10 20 -5
0 -10 -9 -10 -20z"/>
<path d="M1225 1930 c-7 -12 2 -30 16 -30 5 0 9 9 9 20 0 21 -15 27 -25 10z"/>
<path d="M1657 1933 c-13 -12 -7 -33 8 -33 8 0 15 9 15 20 0 20 -11 26 -23 13z"/>
<path d="M815 1930 c-7 -12 2 -30 16 -30 5 0 9 9 9 20 0 21 -15 27 -25 10z"/>
<path d="M873 1733 c346 -2 908 -2 1250 0 342 1 60 2 -628 2 -687 0 -967 -1
-622 -2z"/>
<path d="M887 1703 c354 -2 932 -2 1285 0 354 1 65 2 -642 2 -707 0 -996 -1
-643 -2z"/>
<path d="M285 1590 c-31 -12 -44 -32 -48 -73 -3 -27 1 -45 15 -62 17 -23 27
-25 92 -25 89 0 110 16 108 83 -2 58 -36 87 -100 86 -26 0 -56 -4 -67 -9z
m135 -80 l0 -50 -75 0 -75 0 0 50 0 50 75 0 75 0 0 -50z"/>
<path d="M304 1538 c-3 -4 19 -8 48 -7 57 1 55 5 -5 11 -21 2 -40 0 -43 -4z"/>
<path d="M1240 1593 c-8 -3 -22 -12 -31 -20 -15 -13 -102 -14 -349 -4 -8 0
-61 -2 -116 -5 -83 -5 -106 -3 -126 10 -22 14 -26 14 -46 0 -12 -8 -27 -32
-33 -54 -14 -47 -1 -70 40 -71 87 -1 173 -9 187 -17 11 -6 28 -6 48 2 20 8 88
12 196 11 126 -2 170 1 188 12 19 12 25 12 44 -1 15 -11 26 -12 39 -5 10 5 20
5 23 0 4 -5 236 -9 550 -9 300 0 549 -3 554 -6 5 -3 17 3 27 14 15 17 16 24 5
49 -22 55 -58 74 -140 73 -14 0 -99 -3 -190 -5 -97 -3 -170 -1 -176 4 -8 6
-29 6 -58 -1 -47 -10 -101 -6 -121 9 -27 22 -57 23 -79 2 -21 -20 -28 -21 -70
-11 -30 6 -61 7 -88 1 -32 -8 -48 -6 -71 6 -24 12 -34 13 -53 3 -19 -10 -30
-10 -64 4 -41 16 -64 19 -90 9z m-616 -80 c9 -25 14 -49 11 -51 -2 -3 -7 3
-11 12 -8 21 -43 21 -60 -1 -20 -26 -17 -1 6 52 11 25 24 44 29 41 5 -3 16
-27 25 -53z m676 47 c0 -5 -7 -10 -16 -10 -12 0 -15 -9 -13 -40 2 -22 -1 -41
-6 -42 -6 -2 -11 16 -13 40 -2 28 -8 42 -18 42 -8 0 -14 5 -14 10 0 6 18 10
40 10 22 0 40 -4 40 -10z m29 -39 c1 -27 -3 -52 -9 -56 -6 -4 -10 14 -10 49 0
69 16 75 19 7z m101 22 c0 -21 3 -24 12 -15 18 18 33 15 17 -4 -10 -12 -10
-20 -1 -35 13 -21 3 -26 -16 -7 -9 9 -12 9 -12 0 0 -7 -4 -12 -10 -12 -5 0
-10 23 -10 50 0 28 5 50 10 50 6 0 10 -12 10 -27z m304 21 c18 -7 21 -39 5
-49 -7 -5 -4 -14 7 -26 15 -16 15 -19 2 -19 -9 0 -18 7 -22 15 -7 19 -28 20
-24 1 2 -8 -1 -16 -7 -18 -6 -2 -11 20 -13 50 -3 46 -1 52 17 52 10 0 26 -3
35 -6z m-856 -21 c12 -12 13 -18 4 -21 -14 -4 -17 -42 -3 -42 6 0 13 5 16 11
4 6 17 14 29 19 20 8 20 9 -3 9 -19 1 -22 4 -14 12 19 19 43 2 43 -30 0 -20
-6 -30 -20 -34 -11 -3 -23 -1 -26 5 -4 6 -10 6 -16 0 -21 -21 -38 -1 -38 44 0
49 4 52 28 27z m700 0 c12 -12 13 -18 4 -21 -6 -2 -12 -12 -12 -22 0 -14 7
-18 31 -18 29 1 30 2 14 14 -10 7 -15 20 -12 29 7 17 33 20 42 5 3 -5 -2 -10
-11 -10 -16 0 -16 -1 2 -15 17 -14 18 -16 2 -28 -13 -11 -38 -13 -79 -8 -9 1
-18 63 -12 79 7 16 11 15 31 -5z m350 0 c12 -12 13 -18 4 -21 -12 -4 -18 -42
-6 -42 3 0 17 9 31 20 19 15 21 20 9 20 -9 0 -16 5 -16 11 0 6 10 9 23 7 31
-4 38 -63 8 -71 -12 -3 -23 -2 -26 3 -2 4 -15 5 -28 3 -21 -4 -25 0 -29 29 -5
32 -1 58 9 58 2 0 12 -8 21 -17z m390 0 c12 -12 13 -18 4 -21 -15 -5 -16 -42
-1 -42 5 0 8 -4 4 -10 -18 -29 -52 40 -38 78 7 16 11 15 31 -5z m-1623 -13 c3
-5 -3 -10 -14 -10 -14 0 -21 -6 -21 -20 0 -14 7 -20 23 -20 20 -1 20 -2 4 -11
-34 -20 -64 30 -35 59 15 15 35 16 43 2z m63 -2 c18 -18 14 -26 -15 -30 l-28
-4 24 -10 c26 -11 14 -28 -12 -18 -22 8 -29 32 -17 55 12 22 30 25 48 7z m78
-13 c7 -30 -1 -45 -26 -45 -10 0 -21 -8 -23 -17 -3 -10 -5 5 -6 32 -1 47 1 51
24 53 19 1 26 -4 31 -23z m222 -19 c2 -22 -1 -36 -6 -32 -5 3 -7 17 -4 31 3
18 0 25 -12 25 -11 0 -16 -10 -18 -32 l-1 -33 -4 33 c-3 18 -10 32 -18 32 -8
0 -15 -14 -18 -32 -3 -30 -4 -29 -5 8 l-2 40 43 0 c41 -1 42 -1 45 -40z m70
32 c16 -16 15 -33 -4 -52 -19 -20 -54 -5 -54 22 0 20 18 42 35 42 6 0 16 -5
23 -12z m62 2 c0 -5 -8 -11 -17 -11 -16 -1 -16 -2 -1 -6 23 -6 30 -29 13 -43
-10 -8 -19 -9 -32 -1 -16 9 -15 10 7 11 23 1 24 2 8 14 -24 18 -23 46 2 46 11
0 20 -4 20 -10z m205 0 c3 -5 -3 -10 -15 -10 -15 0 -20 -5 -18 -17 2 -10 9
-19 16 -19 25 -3 27 -5 13 -13 -20 -13 -51 5 -51 27 0 33 40 56 55 32z m135
-10 c9 -18 8 -20 -15 -20 -16 0 -24 -4 -20 -11 4 -6 13 -8 21 -5 8 3 14 1 14
-3 0 -17 -30 -20 -45 -5 -18 19 -19 36 -3 52 18 18 36 15 48 -8z m288 8 c19
-19 14 -28 -14 -28 -15 0 -23 -4 -19 -11 4 -6 13 -8 21 -5 8 3 14 1 14 -3 0
-5 -7 -11 -15 -15 -16 -6 -45 18 -45 38 0 15 20 36 35 36 6 0 16 -5 23 -12z
m62 2 c0 -5 -8 -10 -17 -11 -14 0 -13 -2 5 -9 12 -5 22 -14 22 -19 0 -17 -35
-31 -51 -20 -11 7 -8 9 11 9 24 1 24 1 6 15 -11 8 -16 21 -13 30 7 17 37 21
37 5z m158 -12 c-1 -13 2 -25 7 -28 6 -3 11 7 13 23 5 39 22 33 22 -8 0 -32
-2 -35 -30 -35 -28 0 -30 3 -30 35 0 19 5 35 11 35 6 0 9 -10 7 -22z m160 -14
c2 -23 -2 -33 -15 -36 -43 -11 -60 21 -20 40 20 10 19 11 -15 11 -34 1 -38 -2
-38 -24 0 -14 -4 -25 -10 -25 -5 0 -10 15 -10 34 l0 33 53 -1 c51 -1 52 -2 55
-32z m73 -2 c5 -24 3 -32 -7 -32 -8 0 -13 9 -11 21 1 12 -4 24 -10 26 -8 3
-13 -5 -13 -21 0 -14 -4 -26 -10 -26 -5 0 -10 15 -10 34 0 32 2 35 27 33 22
-2 29 -9 34 -35z m127 16 c3 -14 -3 -18 -23 -18 -15 0 -24 -4 -20 -10 3 -5 22
-8 41 -5 29 3 35 1 32 -12 -2 -9 -9 -18 -17 -21 -9 -3 -11 0 -6 8 6 10 1 12
-19 8 -34 -7 -61 25 -45 54 13 24 52 20 57 -4z"/>
<path d="M1700 1535 c0 -8 7 -15 15 -15 8 0 15 7 15 15 0 8 -7 15 -15 15 -8 0
-15 -7 -15 -15z"/>
<path d="M790 1500 c0 -11 7 -20 15 -20 8 0 15 9 15 20 0 11 -7 20 -15 20 -8
0 -15 -9 -15 -20z"/>
<path d="M1090 1500 c0 -11 7 -20 15 -20 8 0 15 9 15 20 0 11 -7 20 -15 20 -8
0 -15 -9 -15 -20z"/>
<path d="M547 1352 c-11 -12 -16 -34 -15 -59 2 -74 1 -73 221 -73 107 -1 206
2 219 5 16 4 29 1 37 -9 18 -21 27 -20 52 5 19 19 23 19 50 7 18 -9 44 -12 71
-9 24 3 74 2 113 -2 38 -4 81 -8 95 -8 46 -2 155 14 167 23 7 6 22 4 40 -4 15
-8 52 -13 83 -11 30 1 143 2 251 3 225 0 230 2 208 67 -20 58 -40 76 -71 64
-15 -5 -101 -10 -192 -10 -130 -1 -173 2 -196 14 -38 19 -74 19 -94 -1 -23
-22 -318 -21 -350 1 -28 20 -106 19 -135 -1 -33 -23 -267 -22 -317 2 -31 15
-36 15 -59 0 -30 -20 -62 -20 -99 -1 -38 20 -59 19 -79 -3z m63 -12 c8 -5 11
-10 5 -11 -5 -1 -14 -3 -20 -4 -5 -2 -14 -3 -20 -4 -5 -1 1 -8 15 -16 22 -12
27 -11 43 3 22 19 50 6 55 -25 4 -30 -24 -50 -50 -34 -15 9 -23 9 -33 1 -15
-13 -55 -5 -55 11 0 5 11 7 25 3 16 -4 25 -2 25 6 0 6 -9 14 -19 17 -27 7 -33
29 -15 48 18 17 24 18 44 5z m151 -3 c-1 -4 -1 -27 -1 -51 0 -41 -2 -43 -27
-42 -23 1 -29 6 -31 28 -2 19 3 31 17 40 12 7 21 19 21 26 0 8 5 12 11 10 6
-2 10 -7 10 -11z m419 -8 c0 -5 -11 -9 -24 -9 -13 0 -27 -7 -30 -16 -9 -23 13
-46 37 -38 14 4 18 2 15 -7 -7 -22 -42 -22 -62 0 -23 26 -14 69 17 80 24 9 47
4 47 -10z m33 -6 c-4 -11 -3 -14 6 -9 6 4 18 2 26 -4 17 -14 20 -70 5 -70 -5
0 -10 14 -10 31 0 20 -4 29 -12 26 -7 -2 -13 -13 -13 -25 -1 -38 -20 -28 -23
12 -4 44 4 70 17 61 6 -3 7 -13 4 -22z m457 5 c0 -5 -8 -8 -17 -7 -38 3 -44
-1 -41 -28 2 -18 10 -29 21 -31 15 -3 18 0 12 17 -5 15 -2 21 9 21 24 0 21
-47 -4 -55 -59 -19 -95 73 -37 94 25 9 57 3 57 -11z m432 -26 c-14 -4 -16 -42
-2 -42 6 0 10 -5 10 -11 0 -6 -8 -9 -17 -7 -21 4 -33 56 -19 79 9 15 11 15 25
1 12 -11 13 -16 3 -20z m-1274 6 c19 -19 14 -28 -14 -28 -14 0 -23 -4 -19 -10
8 -13 52 -13 60 0 4 6 1 18 -6 26 -6 8 -9 18 -5 21 4 4 11 1 16 -7 6 -10 12
-11 22 -3 11 10 13 4 13 -27 0 -31 -2 -37 -13 -27 -8 6 -16 7 -20 1 -4 -5 -22
-10 -39 -11 -40 -3 -60 25 -43 57 12 23 30 26 48 8z m140 0 c17 -17 15 -43 -4
-59 -31 -26 -70 25 -44 56 15 18 32 19 48 3z m61 -10 l8 -22 12 23 c7 12 15
20 18 17 8 -7 -28 -96 -39 -96 -6 0 -7 7 -4 16 3 8 -1 28 -9 44 -18 34 -18 40
-5 40 6 0 14 -10 19 -22z m285 16 c23 -9 20 -34 -4 -34 -27 0 -25 -18 3 -23
19 -3 20 -4 4 -11 -34 -16 -63 34 -35 62 14 14 12 14 32 6z m86 -46 c0 -26 -4
-48 -10 -48 -5 0 -10 6 -10 14 0 8 -8 13 -17 12 -13 -1 -19 8 -21 28 -4 31 10
45 40 43 15 -1 18 -10 18 -49z m40 22 c0 -16 5 -30 10 -30 6 0 10 14 10 30 0
17 5 30 10 30 6 0 10 -17 10 -38 0 -35 -2 -38 -27 -37 -25 0 -28 4 -31 38 -2
21 1 37 7 37 6 0 11 -13 11 -30z m94 24 c23 -9 20 -34 -4 -34 -27 0 -25 -18 3
-23 19 -3 20 -4 4 -11 -34 -16 -63 34 -35 62 14 14 12 14 32 6z m204 -6 c17
-17 15 -43 -4 -59 -31 -26 -70 25 -44 56 15 18 32 19 48 3z m42 -18 c0 -16 5
-30 10 -30 6 0 10 14 10 30 0 17 5 30 10 30 6 0 10 -17 10 -38 0 -35 -2 -38
-27 -37 -25 0 -28 4 -31 38 -2 21 1 37 7 37 6 0 11 -13 11 -30z m100 20 c0 -4
-7 -10 -15 -14 -8 -3 -15 -17 -15 -31 0 -14 -4 -25 -10 -25 -10 0 -15 62 -5
71 8 8 45 8 45 -1z m100 -10 c8 -13 11 -12 24 5 12 16 19 18 32 9 29 -17 28
-34 -1 -34 -15 0 -24 -4 -20 -10 3 -5 16 -10 28 -10 18 0 19 -2 7 -10 -20 -13
-26 -12 -44 6 -15 14 -16 14 -16 0 0 -9 -4 -16 -10 -16 -5 0 -10 14 -10 30 0
17 -4 30 -10 30 -5 0 -10 -13 -10 -30 0 -16 -4 -30 -10 -30 -5 0 -10 14 -10
30 0 17 -4 30 -10 30 -5 0 -10 -13 -10 -30 0 -16 -4 -30 -10 -30 -5 0 -10 17
-10 38 0 38 0 38 40 38 25 -1 44 -7 50 -16z"/>
<path d="M640 1280 c0 -11 7 -20 15 -20 8 0 15 9 15 20 0 11 -7 20 -15 20 -8
0 -15 -9 -15 -20z"/>
<path d="M720 1280 c0 -11 4 -20 9 -20 11 0 22 26 14 34 -12 12 -23 5 -23 -14z"/>
<path d="M930 1280 c0 -13 5 -20 13 -17 6 2 12 10 12 17 0 7 -6 15 -12 18 -8
2 -13 -5 -13 -18z"/>
<path d="M1360 1280 c0 -11 5 -20 10 -20 6 0 10 9 10 20 0 11 -4 20 -10 20 -5
0 -10 -9 -10 -20z"/>
<path d="M1700 1280 c0 -11 7 -20 15 -20 8 0 15 9 15 20 0 11 -7 20 -15 20 -8
0 -15 -9 -15 -20z"/>
<path d="M872 1093 c355 -2 940 -2 1300 0 359 1 68 2 -647 2 -715 0 -1009 -1
-653 -2z"/>
<path d="M260 950 c-11 -11 -20 -26 -21 -32 -7 -80 -7 -82 22 -111 28 -27 34
-29 90 -25 77 6 99 26 101 92 1 72 -26 96 -109 96 -50 0 -67 -4 -83 -20z m155
-75 c0 -42 -4 -60 -12 -59 -7 1 -40 2 -73 3 l-60 1 0 53 c0 30 3 57 7 61 4 4
37 6 73 4 l65 -3 0 -60z"/>
<path d="M308 913 c17 -2 47 -2 65 0 17 2 3 4 -33 4 -36 0 -50 -2 -32 -4z"/>
<path d="M287 873 c-4 -3 -7 -15 -7 -25 0 -15 8 -18 60 -18 57 0 60 1 60 25 0
24 -3 25 -53 25 -30 0 -57 -3 -60 -7z m33 -23 c0 -5 -7 -10 -15 -10 -8 0 -15
5 -15 10 0 6 7 10 15 10 8 0 15 -4 15 -10z m50 0 c0 -5 -9 -10 -20 -10 -11 0
-20 5 -20 10 0 6 9 10 20 10 11 0 20 -4 20 -10z"/>
<path d="M2038 944 c-17 -9 -27 -9 -36 -1 -10 8 -23 7 -49 -2 -20 -8 -54 -13
-77 -13 -22 1 -46 -4 -52 -9 -11 -9 -32 -4 -92 24 -19 9 -31 7 -61 -10 -28
-16 -41 -19 -55 -11 -10 6 -53 11 -95 13 -42 1 -83 5 -92 9 -8 4 -30 0 -48 -7
-24 -10 -47 -11 -88 -5 -33 5 -60 5 -67 -1 -6 -5 -81 -7 -176 -4 -91 2 -176 5
-190 5 -14 0 -65 -2 -115 -5 -69 -4 -98 -2 -123 10 -30 14 -34 14 -52 -2 -11
-10 -25 -36 -32 -57 -14 -48 -3 -62 50 -64 20 -1 69 -5 107 -9 39 -4 81 -7 95
-6 14 0 104 3 200 5 96 3 189 8 207 11 17 3 34 1 38 -5 3 -5 35 -10 71 -10 36
0 74 -5 85 -10 13 -8 26 -7 42 1 12 7 54 12 96 11 40 -1 82 3 93 9 13 7 23 7
31 0 16 -13 118 -12 134 1 9 7 22 7 40 1 22 -8 287 -10 433 -3 14 0 57 1 95 1
74 0 92 9 100 47 5 29 -22 59 -71 75 -36 12 -45 11 -83 -5 -24 -10 -48 -15
-54 -11 -6 4 -31 10 -54 15 -24 4 -63 12 -87 16 -31 6 -52 5 -68 -4z m-1416
-61 c17 -47 15 -73 -3 -40 -6 9 -16 17 -24 17 -8 0 -18 -8 -24 -17 -5 -10 -12
-15 -15 -13 -8 9 28 100 39 100 6 0 18 -21 27 -47z m808 37 c0 -5 -7 -10 -15
-10 -8 0 -15 5 -15 10 0 6 7 10 15 10 8 0 15 -4 15 -10z m290 -40 c0 -48 -1
-50 -29 -50 -18 0 -31 6 -35 16 -10 26 3 54 25 54 10 0 19 7 19 15 0 8 5 15
10 15 6 0 10 -22 10 -50z m275 40 c-3 -5 -13 -10 -21 -10 -8 0 -12 5 -9 10 3
6 13 10 21 10 8 0 12 -4 9 -10z m81 -39 c-1 -48 -2 -49 -31 -48 -26 2 -30 6
-30 32 0 24 5 31 23 33 16 2 22 8 18 18 -3 8 0 14 8 14 8 0 12 -15 12 -49z
m-1200 24 c9 -8 11 -15 5 -15 -6 0 -11 -11 -11 -25 0 -28 12 -32 30 -10 7 8
19 15 27 15 8 0 12 4 8 10 -3 5 -12 7 -20 3 -8 -3 -15 0 -15 7 0 6 10 10 23 8
17 -2 23 -11 25 -36 l3 -32 -48 2 c-44 3 -48 5 -54 33 -5 29 -2 55 8 55 2 0
11 -7 19 -15z m380 6 c-4 -5 0 -12 6 -15 10 -5 10 -7 1 -12 -15 -7 -17 -34 -3
-34 6 0 10 -5 10 -11 0 -6 -8 -9 -17 -7 -21 4 -34 57 -18 75 12 14 29 17 21 4z
m287 -3 c2 -7 -1 -21 -7 -32 -8 -14 -8 -20 2 -23 6 -3 12 -9 12 -14 0 -11 -30
-12 -31 -1 0 4 -2 18 -3 32 -4 29 3 50 14 50 5 0 10 -6 13 -12z m613 -3 c9 -8
11 -15 5 -15 -15 0 -14 -33 1 -48 9 -9 7 -12 -9 -12 -16 0 -22 7 -25 34 -6 55
2 67 28 41z m-1456 -15 c0 -6 -8 -10 -17 -8 -12 2 -18 -3 -18 -17 0 -14 6 -19
18 -17 9 2 17 -2 17 -8 0 -17 -47 -11 -54 6 -11 28 3 54 30 54 13 0 24 -5 24
-10z m63 -4 c7 -18 -1 -26 -25 -26 -11 0 -16 -5 -13 -11 4 -6 13 -8 21 -5 8 3
14 1 14 -5 0 -16 -42 -6 -53 13 -8 12 -7 21 2 32 17 20 47 21 54 2z m72 -21
c0 -24 -5 -31 -23 -33 -12 -2 -20 -8 -17 -13 4 -5 1 -9 -4 -9 -6 0 -11 20 -11
46 0 44 1 45 28 42 23 -3 27 -8 27 -33z m223 -2 c2 -18 -1 -33 -5 -33 -5 0 -9
10 -8 23 0 34 -19 36 -26 2 l-6 -30 -4 28 c-5 38 -22 39 -30 2 -6 -29 -7 -29
-8 7 l-1 38 43 -3 c40 -2 42 -4 45 -34z m73 21 c17 -21 0 -49 -32 -49 -24 0
-36 23 -25 51 7 19 40 18 57 -2z m59 6 c0 -5 -8 -7 -17 -4 -13 4 -12 1 4 -11
12 -9 19 -23 16 -31 -6 -16 -43 -20 -43 -4 0 5 7 7 15 4 8 -4 15 -1 15 5 0 6
-7 11 -15 11 -8 0 -15 9 -15 20 0 13 7 20 20 20 11 0 20 -4 20 -10z m144 -6
c14 -37 7 -54 -24 -54 -35 0 -43 29 -10 37 11 3 17 9 15 14 -3 4 -12 6 -20 2
-8 -3 -15 0 -15 6 0 17 47 13 54 -5z m54 2 c-10 -7 -18 -23 -18 -35 0 -11 -4
-21 -10 -21 -5 0 -10 16 -10 35 0 32 3 35 28 35 24 -1 25 -2 10 -14z m23 -79
c-18 -18 -20 -4 -8 48 l12 50 3 -44 c2 -24 -1 -48 -7 -54z m87 71 c2 -13 -3
-18 -20 -19 -23 -1 -23 -1 2 -9 22 -6 23 -8 8 -15 -27 -11 -48 1 -48 28 0 13
3 27 7 31 13 13 48 1 51 -16z m120 -15 c3 -31 1 -33 -27 -33 -36 0 -44 28 -11
37 11 3 17 9 15 14 -3 4 -12 6 -20 2 -8 -3 -15 0 -15 7 0 6 11 10 28 8 22 -2
28 -8 30 -35z m170 15 c2 -13 -3 -18 -20 -19 l-23 -2 23 -4 c32 -6 27 -25 -5
-21 -28 3 -40 25 -29 54 8 21 50 14 54 -8z m92 12 c0 -5 -9 -10 -20 -10 -11 0
-20 -7 -20 -15 0 -8 9 -15 20 -15 11 0 20 -5 20 -11 0 -16 -42 -6 -53 13 -8
12 -7 21 2 32 15 18 51 22 51 6z m118 -12 c2 -13 -3 -18 -20 -19 l-23 -2 23
-4 c32 -6 27 -25 -5 -21 -22 2 -29 9 -31 30 -4 34 -32 27 -32 -8 0 -13 -4 -24
-10 -24 -5 0 -10 16 -10 35 l0 35 52 -3 c41 -1 54 -6 56 -19z m112 -13 c0 -19
-4 -35 -10 -35 -5 0 -10 16 -10 35 0 19 5 35 10 35 6 0 10 -16 10 -35z m125 0
c0 -25 -4 -30 -24 -30 -32 0 -49 28 -31 50 7 9 23 15 34 13 16 -2 21 -10 21
-33z m85 25 c0 -5 -8 -7 -17 -4 -17 5 -17 5 0 -9 26 -21 22 -47 -8 -47 -14 0
-25 5 -25 11 0 6 9 8 20 4 11 -4 20 -2 20 4 0 6 -6 11 -14 11 -15 0 -28 24
-19 34 10 10 43 7 43 -4z m30 -25 c0 -19 -4 -35 -8 -35 -4 0 -8 16 -9 35 -1
19 3 35 8 35 5 0 9 -16 9 -35z m78 -2 c2 -19 -1 -33 -7 -33 -6 0 -11 14 -11
30 0 17 -4 30 -10 30 -5 0 -10 -13 -10 -30 0 -16 -4 -30 -10 -30 -5 0 -10 16
-10 36 0 33 2 35 28 32 22 -2 28 -8 30 -35z"/>
<path d="M1676 883 c-12 -12 -6 -33 9 -33 8 0 15 6 15 14 0 17 -14 28 -24 19z"/>
<path d="M2036 883 c-12 -12 -6 -33 9 -33 8 0 15 6 15 14 0 17 -14 28 -24 19z"/>
<path d="M794 875 c-3 -8 -3 -19 1 -25 11 -18 25 -11 25 15 0 27 -17 34 -26
10z"/>
<path d="M1090 865 c0 -17 5 -25 13 -22 6 2 12 12 12 22 0 10 -6 20 -12 23 -8
2 -13 -6 -13 -23z"/>
<path d="M2196 883 c-12 -12 -6 -33 9 -33 8 0 15 6 15 14 0 17 -14 28 -24 19z"/>
<path d="M1226 718 c-10 -6 -35 -7 -56 -4 -21 3 -50 2 -64 -3 -32 -13 -85 -14
-334 -12 -182 3 -206 1 -223 -15 -24 -22 -24 -59 1 -84 17 -17 29 -19 117 -14
74 4 103 2 117 -9 15 -11 26 -11 69 4 37 12 57 15 70 7 11 -5 29 -6 45 -1 15
5 124 6 242 2 118 -3 225 -2 238 2 27 10 28 34 3 75 -18 30 -22 31 -100 37
-45 3 -87 10 -94 15 -8 7 -18 7 -31 0z m-74 -20 c-7 -7 -12 -29 -12 -50 0 -21
-4 -38 -9 -38 -5 0 -7 15 -5 33 1 17 3 40 3 50 1 9 9 17 18 17 13 0 14 -3 5
-12z m-547 -28 c4 -6 13 -5 25 2 14 9 22 9 35 -2 25 -21 15 -54 -17 -58 -22
-3 -29 2 -34 22 -7 30 -48 38 -42 9 2 -10 11 -17 21 -17 21 2 23 -12 2 -20
-16 -6 -45 18 -45 38 0 27 42 48 55 26z m177 -4 c11 -16 10 -56 -2 -56 -5 0
-10 11 -10 25 0 14 -4 25 -10 25 -5 0 -10 -11 -10 -25 0 -14 -4 -25 -10 -25
-5 0 -10 11 -10 25 0 14 -4 25 -10 25 -5 0 -10 -11 -10 -25 0 -14 -4 -25 -10
-25 -5 0 -10 16 -10 35 0 35 0 35 43 33 23 0 45 -6 49 -12z m76 -19 c3 -22 -1
-30 -17 -34 -12 -3 -21 -12 -21 -19 0 -8 -4 -14 -10 -14 -5 0 -10 22 -10 49 0
46 1 48 28 47 22 -1 28 -6 30 -29z m114 19 c4 -6 8 -21 8 -33 0 -19 -6 -23
-30 -23 -36 0 -40 22 -7 38 20 10 19 11 -15 11 -34 1 -38 -2 -38 -24 0 -14 -4
-25 -10 -25 -5 0 -10 16 -10 35 l0 34 48 -1 c26 0 50 -6 54 -12z m136 -23 c2
-19 -1 -33 -8 -33 -6 0 -8 10 -4 25 5 19 2 25 -10 25 -10 0 -16 -9 -16 -25 0
-14 -4 -25 -8 -25 -4 0 -8 10 -7 23 0 31 -19 33 -23 2 -2 -14 -7 -25 -11 -25
-4 0 -5 16 -3 35 4 34 5 35 46 32 38 -2 41 -4 44 -34z m104 24 c11 -17 10 -57
-2 -57 -5 0 -10 11 -10 25 0 34 -28 32 -33 -2 -3 -24 -4 -23 -6 7 -1 30 2 36
21 37 12 1 26 -3 30 -10z m38 -22 c0 -19 -4 -35 -10 -35 -5 0 -10 16 -10 35 0
19 5 35 10 35 6 0 10 -16 10 -35z m108 -2 c2 -19 -1 -33 -7 -33 -6 0 -11 11
-11 25 0 14 -4 25 -10 25 -5 0 -10 -11 -10 -25 0 -14 -4 -25 -10 -25 -5 0 -10
11 -10 25 0 14 -4 25 -10 25 -5 0 -10 -11 -10 -25 0 -14 -4 -25 -10 -25 -5 0
-10 16 -10 35 l0 35 48 -2 c45 -3 47 -4 50 -35z m70 0 c3 -31 1 -33 -27 -33
-37 0 -42 22 -8 38 l22 11 -23 0 c-14 1 -20 5 -17 12 4 5 17 9 28 7 17 -2 23
-11 25 -35z"/>
<path d="M632 643 c5 -25 28 -28 28 -4 0 12 -6 21 -16 21 -9 0 -14 -7 -12 -17z"/>
<path d="M820 640 c0 -13 5 -20 13 -17 6 2 12 10 12 17 0 7 -6 15 -12 18 -8 2
-13 -5 -13 -18z"/>
<path d="M883 453 c357 -2 937 -2 1290 0 353 1 62 2 -648 2 -710 0 -998 -1
-642 -2z"/>
<path d="M882 433 c357 -2 939 -2 1295 0 357 1 65 2 -647 2 -712 0 -1004 -1
-648 -2z"/>
<path d="M239 308 c-27 -45 -19 -103 20 -139 24 -22 36 -26 89 -24 92 2 128
43 97 109 -26 55 -74 86 -134 86 -47 0 -53 -3 -72 -32z m148 -31 c37 -38 44
-65 23 -89 -18 -22 -39 -23 -46 -3 -4 8 -13 15 -20 15 -8 0 -17 -7 -20 -15
-17 -43 -64 8 -64 68 0 24 3 47 7 50 3 4 25 7 47 7 33 -1 47 -7 73 -33z"/>
<path d="M370 255 c0 -8 7 -15 16 -15 14 0 14 3 4 15 -7 8 -14 15 -16 15 -2 0
-4 -7 -4 -15z"/>
<path d="M547 305 c-13 -13 -13 -21 -1 -62 8 -26 19 -52 24 -57 6 -6 61 -11
123 -13 61 -2 131 -8 154 -13 29 -7 50 -7 70 1 18 7 154 11 393 11 201 1 373
5 382 9 11 6 19 5 24 -2 5 -8 34 -10 90 -6 49 3 87 1 90 -5 3 -5 19 -6 35 -3
26 6 445 9 489 4 62 -7 95 17 79 59 -23 60 -28 62 -198 62 -121 1 -160 4 -175
15 -25 19 -45 19 -84 0 -28 -14 -34 -14 -61 0 -40 20 -80 19 -105 -4 -20 -18
-24 -18 -67 -4 -45 15 -48 14 -76 -6 -31 -23 -35 -23 -108 11 -14 6 -29 5 -49
-5 -20 -11 -50 -14 -114 -10 -48 3 -98 5 -112 4 -55 -3 -86 -8 -104 -16 -11
-5 -25 -4 -35 2 -9 5 -78 10 -154 11 -89 1 -144 5 -153 13 -9 8 -18 8 -26 2
-27 -21 -69 -24 -99 -6 -24 14 -33 15 -49 5 -26 -16 -71 -15 -94 3 -25 19 -70
19 -89 0z m213 -25 c0 -11 3 -19 8 -19 26 4 33 -3 30 -33 -2 -28 -8 -34 -30
-36 -28 -3 -28 -2 -28 52 0 31 5 56 10 56 6 0 10 -9 10 -20z m851 -4 c-15 -18
15 -31 36 -15 10 9 17 9 25 1 9 -9 7 -12 -7 -12 -18 0 -17 -1 3 -16 34 -23 13
-42 -46 -40 -45 1 -47 2 -50 34 -2 18 1 32 7 32 6 0 11 6 11 14 0 8 6 16 13
19 18 6 21 -1 8 -17z m169 -30 c0 -51 -1 -53 -27 -52 -21 1 -29 7 -31 24 -4
29 14 53 35 45 11 -4 14 -2 9 5 -7 11 0 32 10 32 2 0 4 -24 4 -54z m300 -1 c0
-30 -4 -55 -10 -55 -5 0 -10 25 -10 55 0 30 5 55 10 55 6 0 10 -25 10 -55z
m37 29 c-9 -9 -28 6 -21 18 4 6 10 6 17 -1 6 -6 8 -13 4 -17z m-1499 9 c-14
-3 -18 -15 -18 -49 0 -24 -4 -44 -10 -44 -5 0 -10 21 -10 46 0 37 -3 45 -15
40 -8 -3 -15 -1 -15 4 0 6 19 9 43 9 23 -1 34 -3 25 -6z m756 -25 c8 -5 7 -8
-1 -8 -7 0 -13 -9 -13 -20 0 -11 5 -20 10 -20 6 0 10 -5 10 -11 0 -24 -35 -2
-41 26 -6 33 11 82 19 55 3 -8 10 -18 16 -22z m600 0 c12 -35 -15 -68 -56 -68
-27 0 -28 2 -28 51 l0 50 37 -3 c31 -2 39 -8 47 -30z m-1318 -10 c-9 -5 -16
-20 -16 -33 0 -14 -4 -25 -10 -25 -5 0 -10 15 -10 34 0 25 5 36 18 39 25 5 37
-4 18 -15z m62 10 c7 -7 12 -24 12 -39 0 -22 -4 -26 -27 -25 -32 1 -43 25 -14
33 12 3 21 10 21 15 0 6 -7 8 -15 4 -15 -5 -20 5 -8 17 9 10 17 9 31 -5z m140
0 c7 -7 12 -24 12 -39 0 -22 -4 -26 -27 -25 -32 1 -43 25 -14 33 12 3 21 10
21 15 0 6 -7 8 -15 4 -15 -5 -20 5 -8 17 9 10 17 9 31 -5z m100 0 c7 -7 12
-24 12 -39 0 -22 -4 -26 -27 -25 -32 1 -43 25 -14 33 12 3 21 10 21 15 0 6 -7
8 -15 4 -15 -5 -20 5 -8 17 9 10 17 9 31 -5z m110 -2 c14 -9 16 -66 2 -66 -5
0 -10 14 -10 30 0 17 -4 30 -10 30 -5 0 -10 -13 -10 -30 0 -16 -4 -30 -10 -30
-5 0 -10 14 -10 30 0 17 -4 30 -10 30 -5 0 -10 -13 -10 -30 0 -16 -4 -30 -10
-30 -5 0 -10 15 -10 34 0 25 5 35 18 38 26 5 57 3 70 -6z m72 0 c6 -8 10 -25
8 -38 -4 -33 -52 -33 -56 0 -3 22 13 52 28 52 4 0 13 -7 20 -14z m65 4 c3 -5
-2 -10 -12 -10 -17 -1 -17 -1 1 -15 21 -16 15 -45 -8 -45 -22 0 -30 20 -9 20
17 1 17 1 -1 15 -16 12 -17 17 -6 30 14 17 26 19 35 5z m79 4 c10 -4 16 -18
16 -39 0 -28 -3 -32 -27 -31 -32 1 -43 25 -14 33 12 3 21 10 21 15 0 6 -7 8
-15 4 -15 -5 -20 5 -8 17 8 8 8 8 27 1z m146 -3 c0 -5 -7 -12 -16 -15 -10 -4
-14 -14 -11 -26 3 -11 1 -23 -4 -26 -5 -3 -9 10 -9 30 0 31 9 43 33 45 4 1 7
-3 7 -8z m60 -35 c0 -27 -4 -32 -25 -34 -19 -1 -25 3 -25 18 0 13 7 20 20 20
11 0 20 5 20 11 0 6 -9 9 -20 6 -22 -6 -28 8 -7 16 23 8 37 -5 37 -37z m30 18
c0 -22 17 -17 23 8 4 12 9 19 13 16 8 -8 -15 -78 -26 -78 -4 0 -13 14 -19 31
-14 40 -14 52 -1 44 6 -3 10 -13 10 -21z m330 0 c0 -8 -9 -14 -20 -14 -27 0
-25 -18 3 -23 19 -3 20 -4 4 -11 -37 -17 -66 43 -30 62 21 12 43 5 43 -14z
m188 14 c18 -18 15 -28 -8 -28 -27 0 -25 -18 3 -23 19 -3 20 -4 5 -11 -26 -12
-48 0 -48 27 0 21 16 47 30 47 3 0 11 -5 18 -12z m112 -16 c0 -13 5 -12 20 8
11 14 20 20 20 14 0 -21 -22 -74 -31 -74 -11 0 -38 62 -32 73 7 12 23 -3 23
-21z m98 16 c18 -18 15 -28 -8 -28 -11 0 -20 -4 -20 -10 0 -5 9 -10 21 -10 11
0 17 -4 14 -10 -18 -30 -69 5 -57 40 10 28 32 36 50 18z m68 -1 c4 -4 13 -2
19 3 31 26 70 -29 42 -57 -22 -22 -57 -8 -57 24 0 33 -24 25 -28 -10 -5 -41
-22 -32 -22 11 0 32 3 38 20 37 11 -1 23 -4 26 -8z m138 -3 c19 -19 20 -25 3
-48 -20 -27 -51 -17 -55 18 -5 42 24 59 52 30z m-1554 -39 c0 -29 -4 -45 -13
-45 -8 0 -11 14 -9 45 2 25 8 45 13 45 5 0 9 -20 9 -45z m1216 -22 c-12 -13
-22 9 -18 39 l5 33 9 -34 c5 -18 7 -35 4 -38z"/>
<path d="M760 230 c0 -11 7 -20 15 -20 8 0 15 9 15 20 0 11 -7 20 -15 20 -8 0
-15 -9 -15 -20z"/>
<path d="M1608 232 c-46 -6 -32 -22 19 -22 25 0 44 1 42 3 -2 1 -11 7 -19 13
-8 5 -27 8 -42 6z"/>
<path d="M1740 230 c0 -11 7 -20 15 -20 8 0 15 9 15 20 0 11 -7 20 -15 20 -8
0 -15 -9 -15 -20z"/>
<path d="M1910 240 c0 -33 19 -40 40 -15 16 20 5 45 -20 45 -16 0 -20 -7 -20
-30z"/>
<path d="M1104 239 c-10 -17 13 -36 27 -22 12 12 4 33 -11 33 -5 0 -12 -5 -16
-11z"/>
<path d="M2340 230 c0 -13 5 -20 13 -17 6 2 12 10 12 17 0 7 -6 15 -12 18 -8
2 -13 -5 -13 -18z"/>
<path d="M2417 236 c-6 -15 1 -26 15 -26 4 0 8 9 8 20 0 23 -15 27 -23 6z"/>
<path d="M883 43 c357 -2 937 -2 1290 0 353 1 62 2 -648 2 -710 0 -998 -1
-642 -2z"/>
<path d="M828 13 c320 -2 844 -2 1165 0 320 1 58 2 -583 2 -641 0 -903 -1
-582 -2z"/>
<path d="M2633 13 c31 -2 83 -2 115 0 31 2 5 3 -58 3 -63 0 -89 -1 -57 -3z"/>
</g>
</svg>
