<?xml version="1.0" standalone="no"?>
<!DOCTYPE svg PUBLIC "-//W3C//DTD SVG 20010904//EN"
 "http://www.w3.org/TR/2001/REC-SVG-20010904/DTD/svg10.dtd">
<svg version="1.0" xmlns="http://www.w3.org/2000/svg"
 width="450.000000pt" height="512.000000pt" viewBox="0 0 450.000000 512.000000"
 preserveAspectRatio="xMidYMid meet">
<metadata>
Created by potrace 1.10, written by Peter Selinger 2001-2011
</metadata>
<g transform="translate(0.000000,512.000000) scale(0.100000,-0.100000)"
fill="#f3f3f3" stroke="none">
<path d="M373 4860 c-111 -67 -86 -217 39 -240 80 -15 148 44 148 127 0 50
-32 101 -75 119 -46 19 -74 18 -112 -6z m130 -48 c37 -35 37 -88 1 -131 -50
-60 -150 -33 -170 45 -10 41 22 96 65 110 43 14 69 8 104 -24z"/>
<path d="M380 4800 c-12 -12 -20 -33 -20 -55 0 -69 76 -100 125 -50 30 30 32
64 4 99 -26 33 -79 36 -109 6z m68 -26 c2 -16 9 -35 14 -42 15 -17 1 -29 -20
-16 -21 14 -31 99 -10 92 7 -3 15 -18 16 -34z"/>
<path d="M895 4844 c-13 -14 -20 -15 -39 -4 -43 23 -69 10 -98 -50 -35 -73
-39 -97 -18 -122 16 -20 20 -20 49 -9 24 10 37 11 59 2 15 -6 74 -11 132 -11
58 0 121 0 140 0 66 -1 75 0 98 12 18 10 28 9 50 -4 18 -11 33 -13 43 -8 8 5
32 5 54 0 25 -6 44 -5 52 1 7 6 22 7 35 3 35 -12 41 -12 69 4 24 13 29 13 50
-2 30 -21 73 -20 110 1 25 15 33 15 65 4 31 -11 38 -11 55 4 16 15 21 16 35 4
17 -14 110 -21 244 -18 19 0 41 5 48 11 8 7 16 7 27 -2 8 -7 44 -12 84 -12 73
0 111 8 111 23 0 13 24 11 38 -3 8 -8 52 -13 119 -15 98 -2 109 -1 130 19 l23
21 23 -21 c19 -18 35 -22 83 -21 32 0 68 1 79 0 114 -4 150 0 172 21 l23 21
23 -20 c20 -20 34 -21 177 -21 117 0 161 4 178 14 19 13 25 13 45 0 29 -20
247 -17 271 3 14 12 19 11 35 -3 14 -13 33 -16 77 -13 33 1 65 6 71 10 7 5 21
4 30 -1 10 -5 56 -9 102 -8 102 1 116 13 85 71 -35 67 -60 87 -104 84 -32 -3
-43 1 -56 19 -20 28 -57 28 -84 0 -15 -17 -30 -22 -55 -19 -20 1 -44 -4 -57
-13 -21 -15 -23 -14 -35 14 -16 40 -39 47 -67 21 -29 -28 -81 -28 -96 -1 -16
29 -37 25 -91 -21 l-48 -40 -22 19 c-16 16 -34 20 -78 19 -42 -1 -65 4 -87 18
-49 33 -101 28 -162 -17 -55 -41 -76 -42 -66 -4 3 14 -1 27 -10 35 -20 17 -72
17 -91 1 -13 -11 -20 -11 -39 0 -20 10 -29 9 -56 -6 -30 -18 -32 -18 -44 -1
-19 24 -78 23 -101 -4 -16 -17 -17 -24 -7 -51 8 -23 9 -35 0 -45 -14 -18 -41
3 -33 27 10 31 -25 48 -102 48 -57 0 -77 4 -100 21 -34 26 -60 20 -69 -16 -5
-18 -11 -22 -23 -17 -29 14 -147 17 -336 10 -64 -3 -73 -1 -108 26 l-37 29
-28 -20 -29 -20 -21 22 -22 21 -29 -22 c-37 -27 -37 -27 -68 -2 -36 28 -67 25
-97 -11 -14 -17 -26 -35 -26 -41 0 -6 -8 -4 -17 4 -14 12 -42 16 -112 17 -71
0 -98 4 -111 16 -16 15 -23 14 -79 -4 -49 -16 -72 -18 -108 -12 -26 5 -52 16
-57 23 -18 25 -40 26 -64 5 l-22 -21 -30 22 c-35 26 -34 26 -55 6z m-34 -81
c13 -37 26 -71 27 -75 2 -4 -3 -8 -11 -8 -8 0 -17 7 -21 15 -8 22 -59 18 -79
-6 -29 -33 -31 -14 -7 48 47 117 56 120 91 26z m69 37 c0 -27 2 -30 19 -20 44
23 73 -64 31 -93 -11 -7 -33 -12 -50 -9 l-30 4 0 74 c0 59 3 74 15 74 10 0 15
-10 15 -30z m120 17 c0 -8 -3 -17 -7 -20 -9 -9 -34 13 -27 24 8 14 34 11 34
-4z m612 -4 c25 -23 23 -37 -13 -78 l-31 -35 31 0 c17 0 31 -4 31 -10 0 -5
-25 -10 -56 -10 l-57 0 42 45 c45 49 52 75 21 75 -11 0 -20 -4 -20 -10 0 -5
-7 -10 -15 -10 -19 0 -19 14 1 34 20 21 43 20 66 -1z m118 -28 c0 -25 5 -45
10 -45 6 0 10 -7 10 -15 0 -8 -4 -15 -9 -15 -5 0 -12 -10 -14 -22 l-4 -23 -8
23 c-6 17 -15 22 -41 22 -22 0 -34 5 -34 14 0 17 68 106 80 106 6 0 10 -20 10
-45z m100 16 c0 -25 3 -28 26 -23 32 6 44 -10 44 -60 0 -27 -4 -38 -15 -38
-11 0 -15 11 -15 40 0 33 -3 40 -20 40 -17 0 -20 -7 -20 -40 0 -29 -4 -40 -15
-40 -12 0 -15 15 -15 75 0 60 3 75 15 75 10 0 15 -10 15 -29z m540 -51 c0 -47
-4 -80 -10 -80 -6 0 -10 33 -10 80 0 47 4 80 10 80 6 0 10 -33 10 -80z m341
70 c21 -12 26 -45 8 -56 -8 -4 -8 -9 0 -17 6 -6 11 -21 11 -34 0 -42 -70 -51
-91 -12 -12 23 5 26 27 4 8 -8 21 -12 29 -9 23 9 18 41 -7 48 l-23 7 23 9 c14
6 22 17 20 27 -4 23 -23 27 -41 8 -19 -19 -27 -19 -27 0 0 13 26 34 43 35 5 0
17 -5 28 -10z m119 3 c0 -5 -7 -17 -15 -27 -13 -17 -12 -20 8 -30 31 -16 34
-60 5 -80 -29 -20 -34 -20 -58 4 -27 27 -25 38 10 93 26 42 51 61 50 40z m130
-8 c0 -10 -10 -15 -30 -15 -20 0 -30 -5 -30 -15 0 -9 9 -15 25 -15 17 0 28 -7
34 -22 15 -41 -24 -83 -67 -71 -29 7 -28 25 1 23 40 -4 47 0 47 25 0 21 -5 25
-30 25 -25 0 -30 4 -30 24 0 44 10 56 46 56 24 0 34 -5 34 -15z m157 -60 c1
-53 -3 -75 -11 -72 -6 2 -19 0 -29 -5 -24 -12 -57 16 -57 49 0 29 34 65 55 57
11 -5 15 1 15 20 0 15 6 26 13 26 10 0 14 -19 14 -75z m58 55 c-10 -11 -22
-20 -27 -20 -5 0 -4 9 2 20 6 11 18 20 27 20 14 0 14 -2 -2 -20z m335 -56 c0
-61 -3 -75 -14 -71 -7 3 -18 1 -24 -5 -19 -19 -52 9 -52 45 0 39 15 57 47 57
18 0 23 6 23 25 0 14 5 25 10 25 6 0 10 -32 10 -76z m158 -1 c-2 -44 -7 -78
-13 -78 -6 0 -11 34 -13 78 -2 65 0 77 13 77 13 0 15 -12 13 -77z m242 62 c0
-10 -10 -15 -30 -15 -38 0 -39 17 -2 23 15 2 28 5 30 6 1 0 2 -6 2 -14z
m-2667 -20 c-3 -9 1 -15 11 -15 9 0 16 -4 16 -10 0 -5 -7 -10 -15 -10 -10 0
-15 -10 -15 -30 0 -20 5 -30 15 -30 18 0 20 -16 3 -22 -26 -10 -38 4 -38 42 0
45 -6 51 -37 39 -18 -6 -23 -16 -23 -44 0 -24 -4 -35 -15 -35 -11 0 -15 12
-15 50 0 48 1 50 28 51 15 1 34 1 43 0 9 -1 19 8 22 20 3 11 10 18 16 15 6 -4
8 -13 4 -21z m-141 -29 c17 -24 7 -36 -28 -36 -24 0 -34 -4 -31 -12 2 -7 16
-13 30 -13 36 -1 43 -11 17 -25 -31 -17 -70 11 -70 50 0 48 57 73 82 36z m268
4 c23 -23 26 -49 8 -72 -23 -28 -48 -29 -74 -3 -30 30 -30 40 1 70 29 30 39
31 65 5z m84 14 c25 -9 19 -22 -11 -26 l-28 -3 29 -15 c16 -8 31 -20 33 -27 6
-16 -41 -45 -61 -37 -25 10 -19 24 12 24 l27 1 -27 20 c-32 24 -36 44 -10 58
21 13 17 12 36 5z m546 -14 c32 -32 21 -78 -21 -93 -49 -17 -81 67 -37 97 29
20 34 20 58 -4z m75 10 c9 15 25 12 25 -4 0 -7 -9 -16 -20 -19 -15 -4 -20 -14
-20 -41 0 -22 -5 -36 -12 -36 -9 0 -12 16 -11 52 1 29 2 55 2 57 1 2 7 -2 15
-8 10 -8 16 -9 21 -1z m109 -6 c20 -20 22 -99 3 -91 -8 3 -20 1 -27 -3 -18
-11 -50 6 -50 26 0 9 14 21 30 27 36 14 40 31 5 25 -29 -6 -36 18 -7 25 29 8
30 8 46 -9z m90 10 c25 -9 19 -22 -11 -26 l-28 -4 28 -12 c17 -7 27 -19 27
-32 0 -26 -38 -42 -65 -27 -18 10 -17 12 15 17 l35 7 -27 11 c-32 13 -37 46
-10 61 21 13 17 12 36 5z m216 -34 c13 -25 -3 -66 -29 -75 -21 -6 -61 9 -61
25 0 4 -3 15 -6 24 -3 9 5 26 20 41 21 21 29 24 46 15 11 -6 24 -19 30 -30z
m90 18 c0 -5 -10 -8 -22 -6 -27 4 -35 -18 -8 -25 29 -8 37 -37 14 -54 -22 -16
-45 -14 -52 6 -3 9 1 11 16 7 31 -10 37 12 8 26 -29 13 -34 42 -10 56 19 11
54 4 54 -10z m690 -42 c0 -39 -3 -44 -27 -49 -36 -7 -53 1 -53 24 0 12 11 24
28 31 36 16 35 15 27 27 -4 8 -12 8 -25 1 -13 -7 -21 -7 -25 0 -9 15 37 29 58
18 12 -6 17 -21 17 -52z m348 25 c3 -18 -1 -21 -32 -21 -20 0 -36 -4 -36 -9 0
-17 26 -30 48 -24 13 3 22 1 22 -6 0 -6 -4 -11 -9 -11 -5 0 -16 -3 -24 -6 -20
-7 -57 30 -57 56 0 11 9 29 20 40 24 24 63 14 68 -19z m173 29 c24 -13 28
-100 5 -100 -8 0 -21 -3 -29 -6 -8 -3 -22 3 -32 12 -17 17 -16 19 5 36 12 10
29 18 37 18 8 0 13 6 10 13 -2 7 -16 11 -33 9 -28 -2 -28 -2 -10 13 23 18 22
18 47 5z m229 -10 c11 -11 20 -29 20 -40 0 -20 -32 -60 -48 -60 -23 0 -52 34
-52 60 0 18 8 34 22 44 29 20 34 20 58 -4z m-3020 -40 c0 -38 -4 -50 -15 -50
-11 0 -15 12 -15 50 0 38 4 50 15 50 11 0 15 -12 15 -50z m2168 0 c-4 -67 -22
-69 -26 -2 -2 42 0 52 13 52 13 0 15 -10 13 -50z m192 39 c0 -6 -8 -8 -19 -4
-29 9 -36 -14 -8 -24 30 -12 39 -24 31 -44 -7 -20 -32 -29 -55 -22 -29 9 -23
26 6 19 19 -5 25 -2 25 10 0 9 -6 16 -14 16 -20 0 -39 27 -32 45 6 17 66 21
66 4z m561 -39 c7 -48 3 -64 -12 -55 -5 4 -9 24 -9 45 0 66 -36 62 -42 -5 -2
-22 -6 -39 -10 -37 -5 1 -8 4 -8 7 0 3 0 26 0 51 l0 45 38 -3 c36 -3 37 -5 43
-48z m-2398 34 c8 -8 -3 -34 -14 -34 -5 0 -9 9 -9 20 0 19 11 26 23 14z m2557
-80 c0 -16 -16 -19 -25 -4 -8 13 4 32 16 25 5 -4 9 -13 9 -21z"/>
<path d="M811 4767 c-14 -37 -14 -37 9 -37 21 0 24 12 10 45 -7 19 -9 18 -19
-8z"/>
<path d="M930 4730 c0 -23 4 -30 20 -30 16 0 20 7 20 30 0 23 -4 30 -20 30
-16 0 -20 -7 -20 -30z"/>
<path d="M1738 4765 c-23 -30 -22 -35 2 -35 16 0 20 7 20 30 0 36 0 36 -22 5z"/>
<path d="M2826 4734 c-4 -10 -1 -24 7 -31 19 -19 49 -5 45 21 -4 27 -43 34
-52 10z"/>
<path d="M3100 4751 c-8 -15 -8 -27 0 -42 16 -29 35 -18 35 21 0 39 -19 50
-35 21z"/>
<path d="M3501 4757 c-15 -15 -14 -54 2 -59 23 -9 37 3 37 32 0 30 -21 45 -39
27z"/>
<path d="M1095 4750 c-4 -6 5 -10 20 -10 15 0 24 4 20 10 -3 6 -12 10 -20 10
-8 0 -17 -4 -20 -10z"/>
<path d="M1364 4746 c-9 -24 4 -48 23 -44 12 2 18 12 18 28 0 29 -32 41 -41
16z"/>
<path d="M1994 4745 c-9 -23 4 -47 23 -43 11 2 19 14 21 31 3 22 -1 27 -18 27
-11 0 -23 -7 -26 -15z"/>
<path d="M2190 4710 c0 -5 7 -10 15 -10 8 0 15 5 15 10 0 6 -7 10 -15 10 -8 0
-15 -4 -15 -10z"/>
<path d="M2483 4763 c-19 -7 -16 -60 3 -67 23 -9 34 2 34 34 0 28 -14 41 -37
33z"/>
<path d="M3265 4709 c-4 -6 -4 -13 -1 -16 8 -8 36 5 36 17 0 13 -27 13 -35 -1z"/>
<path d="M3610 4755 c-11 -13 -9 -15 15 -15 16 0 25 5 23 12 -7 19 -24 20 -38
3z"/>
<path d="M3800 4704 c0 -9 7 -14 17 -12 25 5 28 28 4 28 -12 0 -21 -6 -21 -16z"/>
<path d="M4021 4757 c-16 -16 -14 -42 5 -57 21 -18 49 9 40 38 -8 25 -30 34
-45 19z"/>
<path d="M1258 4443 c547 -2 1438 -2 1980 0 543 1 96 2 -993 2 -1089 0 -1533
-1 -987 -2z"/>
<path d="M261 4415 c13 -13 3934 -19 3958 -5 10 6 -698 10 -1976 12 -1328 2
-1989 0 -1982 -7z"/>
<path d="M435 4208 c-63 -32 -121 -88 -131 -126 -8 -28 17 -67 58 -92 27 -16
34 -17 57 -5 38 20 84 73 114 133 33 66 33 73 4 100 -29 27 -29 27 -102 -10z
m90 -18 c17 -19 17 -20 -9 -31 -18 -9 -26 -20 -26 -39 0 -17 -14 -39 -43 -68
-23 -23 -47 -42 -53 -42 -11 0 -64 52 -64 62 0 24 102 104 119 94 5 -4 18 5
28 18 22 31 25 31 48 6z"/>
<path d="M390 4105 c-22 -24 -23 -26 -7 -42 16 -16 19 -16 42 8 25 24 25 26 7
42 -18 16 -20 16 -42 -8z"/>
<path d="M748 4209 c-10 -5 -18 -21 -18 -34 0 -42 40 -135 66 -151 22 -15 26
-15 49 0 23 15 27 15 48 1 18 -11 39 -14 83 -10 71 7 56 7 183 0 89 -5 107 -3
123 12 17 16 21 16 46 1 35 -21 186 -19 219 2 19 12 24 12 40 -2 17 -15 139
-17 428 -8 6 0 55 -1 110 -3 93 -4 101 -2 123 20 29 29 32 29 32 0 0 -13 9
-32 19 -41 25 -23 50 -10 76 38 l19 35 32 -29 c32 -28 35 -28 138 -26 86 2
110 6 126 21 20 18 21 18 45 -5 22 -20 27 -21 54 -11 20 9 35 10 48 3 10 -5
95 -10 188 -10 139 0 173 3 187 15 16 14 20 14 42 -1 32 -20 95 -21 123 -1 18
12 27 13 48 3 21 -10 31 -9 53 4 25 15 29 15 50 -3 17 -13 29 -16 41 -10 9 5
23 6 30 2 16 -10 180 -7 205 4 11 5 26 4 36 -3 10 -6 52 -11 93 -11 65 0 77 3
97 24 18 19 21 30 15 69 -4 25 -14 51 -23 58 -18 15 -336 21 -363 7 -12 -6
-29 0 -58 21 -48 36 -52 36 -76 10 l-18 -20 -22 20 c-26 24 -35 25 -73 3 -28
-16 -31 -16 -46 0 -25 25 -78 22 -104 -6 -24 -26 -28 -47 -11 -64 13 -13 5
-43 -11 -43 -5 0 -10 13 -10 30 0 54 -21 58 -245 54 -110 -2 -209 -3 -220 -3
-293 6 -300 6 -327 -9 -25 -14 -29 -14 -45 0 -13 12 -23 14 -36 7 -9 -6 -27
-7 -40 -3 -12 5 -28 7 -35 5 -7 -1 -22 9 -33 23 -25 31 -40 33 -64 6 -10 -11
-31 -20 -47 -20 -16 0 -38 -5 -50 -11 -17 -9 -26 -6 -58 20 -46 37 -56 38 -87
9 -19 -18 -35 -21 -100 -21 -68 0 -78 2 -91 21 -18 27 -43 28 -67 2 -10 -11
-29 -20 -43 -20 -14 0 -36 -10 -48 -21 l-23 -21 -27 21 c-15 11 -39 21 -54 21
-15 0 -35 9 -45 20 -10 11 -23 20 -28 20 -6 0 -34 -19 -64 -41 l-54 -42 -23
22 c-16 15 -34 21 -57 20 -19 -2 -45 5 -60 14 -23 15 -27 15 -48 1 -16 -11
-46 -17 -97 -18 -61 0 -78 3 -103 22 -36 26 -44 27 -66 5 -16 -15 -19 -15 -45
0 -33 20 -30 19 -52 6z m682 -87 l0 -78 -37 -1 c-47 -1 -63 11 -63 48 0 34 26
62 51 56 15 -4 19 1 19 24 0 19 5 29 15 29 12 0 15 -15 15 -78z m300 -2 c0
-61 -3 -80 -14 -80 -10 0 -14 18 -14 72 -1 73 2 88 19 88 5 0 9 -36 9 -80z
m263 46 c-2 -23 1 -26 18 -21 31 10 49 -12 49 -61 0 -32 -4 -44 -15 -44 -11 0
-15 12 -15 45 0 46 -4 51 -28 36 -9 -6 -11 -19 -7 -45 6 -29 4 -36 -9 -36 -13
0 -16 13 -16 81 0 60 3 80 13 76 6 -2 11 -16 10 -31z m237 -46 c0 -64 -3 -80
-15 -80 -12 0 -15 16 -15 80 0 64 3 80 15 80 12 0 15 -16 15 -80z m1340 52 c0
-24 4 -28 28 -27 26 0 27 -3 30 -52 2 -40 0 -53 -11 -53 -10 0 -13 12 -13 43
1 31 -3 42 -14 42 -10 0 -16 -13 -18 -42 -2 -29 -8 -43 -18 -43 -11 0 -14 17
-14 80 0 64 3 80 15 80 10 0 15 -10 15 -28z m-2771 -35 c8 -26 17 -47 20 -47
4 0 14 23 24 50 11 31 24 50 33 50 9 0 14 -3 12 -8 -1 -4 -14 -38 -28 -75 -16
-42 -30 -67 -40 -67 -10 0 -24 25 -40 67 -14 37 -27 72 -29 76 -2 5 5 7 15 5
12 -2 23 -20 33 -51z m2549 41 c20 -20 14 -53 -14 -79 l-26 -24 28 -5 c15 -3
29 -11 32 -17 3 -10 -12 -13 -52 -13 -31 0 -56 4 -56 8 0 4 16 23 35 42 20 19
35 44 35 57 0 27 -25 31 -38 7 -5 -10 -14 -14 -21 -9 -9 5 -8 12 5 26 19 22
54 25 72 7z m120 -33 c-3 -24 -2 -45 2 -47 5 -2 6 -15 3 -30 -6 -32 -33 -38
-33 -8 0 16 -7 20 -35 20 -19 0 -35 3 -35 7 0 20 67 103 84 103 16 0 18 -6 14
-45z m-2318 24 c0 -7 8 -18 18 -25 16 -13 16 -13 0 -14 -14 0 -18 -8 -18 -34
0 -26 4 -34 16 -32 9 1 20 10 26 19 5 9 20 17 34 17 16 0 24 5 21 13 -2 6 -16
11 -31 9 -14 -1 -26 2 -26 7 0 14 36 23 60 16 16 -5 20 -15 20 -54 0 -48 0
-48 -35 -49 -19 -1 -37 3 -40 8 -4 6 -13 5 -24 -2 -31 -19 -51 -3 -51 42 0 22
-5 40 -10 40 -6 0 -3 11 6 25 17 26 34 33 34 14z m-182 -31 c7 -7 12 -20 12
-30 0 -14 -8 -18 -36 -18 -31 0 -35 -2 -24 -15 8 -9 21 -13 36 -9 27 7 33 -10
8 -20 -62 -24 -103 37 -61 92 12 15 49 16 65 0z m109 0 c19 -15 17 -98 -2 -98
-11 0 -15 12 -15 46 0 38 -3 45 -17 42 -13 -2 -19 -15 -21 -46 -5 -61 -22 -52
-22 11 0 54 0 54 32 55 18 0 38 -4 45 -10z m451 0 c7 -7 12 -20 12 -30 0 -14
-8 -18 -36 -18 -24 0 -34 -4 -31 -12 2 -8 17 -12 36 -10 32 2 42 -11 15 -22
-44 -17 -76 4 -76 49 0 47 49 74 80 43z m140 0 c7 -7 12 -31 12 -53 l0 -42
-40 -1 c-28 -1 -42 3 -46 13 -8 20 13 45 37 45 11 0 19 7 19 15 0 11 -7 14
-25 9 -23 -6 -33 4 -18 19 11 11 48 8 61 -5z m162 -3 c0 -5 -10 -10 -23 -10
-18 0 -22 -6 -22 -30 0 -27 3 -30 29 -27 19 2 27 -1 24 -10 -7 -20 -53 -21
-72 -3 -21 21 -20 53 1 77 17 19 64 21 63 3z m104 -1 c32 -32 10 -94 -34 -94
-26 0 -50 27 -50 55 0 28 24 55 50 55 10 0 26 -7 34 -16z m230 0 c31 -31 12
-94 -29 -94 -13 0 -31 7 -39 16 -32 32 -10 94 34 94 10 0 26 -7 34 -16z m157
-21 l12 -38 12 35 c6 19 19 36 28 38 14 3 12 -8 -12 -65 -17 -39 -36 -69 -46
-71 -14 -3 -15 0 -5 17 9 17 7 31 -10 67 -24 55 -24 54 -6 54 8 0 20 -17 27
-37z m197 19 c3 -9 -5 -12 -24 -10 -26 3 -29 0 -29 -27 0 -27 3 -30 28 -28 18
1 27 -2 24 -10 -6 -19 -47 -20 -68 -1 -24 21 -24 51 -2 76 19 21 64 21 71 0z
m96 -4 c19 -27 12 -38 -25 -38 -20 0 -29 -4 -26 -12 2 -7 16 -12 31 -11 35 3
29 -21 -6 -25 -49 -6 -78 57 -42 92 22 22 50 20 68 -6z m141 -18 l12 -35 12
38 c7 21 19 37 28 37 8 0 13 -6 10 -12 -32 -81 -41 -98 -52 -98 -7 0 -21 23
-30 51 -10 28 -20 47 -24 42 -3 -5 -14 -12 -23 -16 -13 -4 -18 -17 -18 -42 0
-24 -5 -35 -14 -35 -11 0 -14 13 -13 54 l1 54 50 -1 c47 -2 50 -4 61 -37z
m155 21 c17 -33 12 -41 -26 -41 -24 0 -34 -4 -31 -12 2 -8 17 -12 36 -10 37 3
42 -15 6 -24 -34 -8 -53 0 -67 30 -23 53 55 107 82 57z m110 12 c0 -3 -11 -21
-25 -39 -14 -18 -25 -35 -25 -38 0 -3 11 -6 25 -6 14 0 25 -4 25 -10 0 -5 -20
-10 -45 -10 -25 0 -45 3 -45 7 0 3 11 21 25 39 31 40 31 46 3 42 -11 -2 -23 3
-25 10 -3 8 9 12 41 12 25 0 46 -3 46 -7z m83 0 c3 -5 7 -29 11 -54 l7 -46
-43 1 c-37 1 -43 4 -46 24 -3 18 2 23 28 28 37 8 34 30 -4 26 -26 -3 -36 12
-13 21 19 8 55 8 60 0z m96 -8 c-1 -5 -10 -9 -21 -7 -26 5 -22 -13 7 -26 28
-13 32 -34 11 -52 -18 -14 -58 -10 -64 8 -3 9 3 11 22 6 33 -8 34 9 1 24 -27
13 -32 31 -13 50 15 15 60 12 57 -3z m535 -1 c32 -32 10 -94 -34 -94 -26 0
-50 27 -50 55 0 28 24 55 50 55 10 0 26 -7 34 -16z m106 5 c0 -5 -11 -14 -24
-19 -22 -8 -24 -14 -19 -45 4 -28 2 -35 -11 -35 -13 0 -16 11 -16 53 l0 53 35
1 c19 1 35 -3 35 -8z m78 -1 c7 -7 12 -31 12 -53 l0 -42 -40 -1 c-28 -1 -42 3
-46 13 -8 20 13 45 37 45 11 0 19 7 19 15 0 11 -7 14 -25 9 -23 -6 -33 4 -18
19 11 11 48 8 61 -5z m100 -7 c3 -9 -1 -11 -16 -7 -11 4 -23 2 -27 -3 -3 -6 6
-13 20 -17 21 -5 25 -12 23 -33 -3 -22 -8 -26 -35 -26 -18 0 -32 5 -30 10 1 6
12 9 25 7 30 -4 28 12 -3 26 -26 12 -34 47 -12 56 20 8 50 2 55 -13z"/>
<path d="M1364 4116 c-9 -23 0 -51 16 -51 10 0 15 10 15 29 0 32 -21 47 -31
22z"/>
<path d="M3416 4125 c-16 -24 -16 -25 4 -25 15 0 20 7 20 25 0 14 -2 25 -4 25
-2 0 -11 -11 -20 -25z"/>
<path d="M1220 4080 c-8 -5 -11 -12 -8 -16 10 -9 38 3 38 16 0 12 -10 13 -30
0z"/>
<path d="M915 4120 c-4 -6 5 -10 20 -10 15 0 24 4 20 10 -3 6 -12 10 -20 10
-8 0 -17 -4 -20 -10z"/>
<path d="M1475 4120 c-3 -5 3 -10 14 -10 12 0 21 5 21 10 0 6 -6 10 -14 10 -8
0 -18 -4 -21 -10z"/>
<path d="M1633 4083 c-18 -6 -16 -23 1 -23 17 0 30 16 19 23 -5 2 -14 2 -20 0z"/>
<path d="M1884 4116 c-9 -23 0 -51 16 -51 10 0 15 10 15 29 0 32 -21 47 -31
22z"/>
<path d="M2117 4123 c-11 -11 -8 -51 5 -59 18 -11 39 25 27 47 -10 20 -21 24
-32 12z"/>
<path d="M2565 4120 c-3 -5 3 -10 15 -10 12 0 18 5 15 10 -3 6 -10 10 -15 10
-5 0 -12 -4 -15 -10z"/>
<path d="M2855 4120 c-3 -5 3 -10 14 -10 12 0 21 5 21 10 0 6 -6 10 -14 10 -8
0 -18 -4 -21 -10z"/>
<path d="M3060 4080 c-8 -5 -11 -12 -8 -16 10 -9 38 3 38 16 0 12 -10 13 -30
0z"/>
<path d="M3681 4112 c-13 -25 11 -63 29 -46 14 14 9 56 -7 61 -6 2 -16 -4 -22
-15z"/>
<path d="M3883 4083 c-18 -6 -16 -23 1 -23 17 0 30 16 19 23 -5 2 -14 2 -20 0z"/>
<path d="M275 3810 c-11 -5 852 -8 1970 -8 1095 0 1972 4 1950 9 -53 11 -3894
10 -3920 -1z"/>
<path d="M1257 3773 c546 -2 1440 -2 1985 0 546 1 100 2 -992 2 -1092 0 -1538
-1 -993 -2z"/>
<path d="M335 3586 c-15 -11 -21 -31 -25 -85 -9 -121 10 -150 97 -151 43 0 58
5 94 33 108 82 50 217 -94 217 -30 0 -62 -6 -72 -14z m135 -36 c0 -5 10 -10
23 -12 19 -3 22 -10 25 -55 2 -32 -1 -53 -7 -53 -6 0 -20 -9 -30 -19 -14 -14
-36 -20 -78 -22 l-58 -3 -3 79 c-2 43 -1 83 1 89 5 13 127 9 127 -4z"/>
<path d="M380 3475 c0 -35 4 -54 10 -50 6 3 10 26 10 50 0 24 -4 47 -10 50 -6
4 -10 -15 -10 -50z"/>
<path d="M420 3476 c0 -31 4 -55 9 -52 10 6 8 92 -2 102 -4 4 -7 -18 -7 -50z"/>
<path d="M470 3475 c0 -26 3 -33 15 -29 9 4 15 19 15 35 0 19 -5 29 -15 29
-10 0 -15 -11 -15 -35z"/>
<path d="M788 3563 c-22 -25 -58 -111 -58 -138 0 -33 26 -52 51 -37 23 15 56
16 64 2 4 -6 41 -9 88 -8 72 2 86 0 114 -21 l31 -24 31 22 c25 18 43 22 103
20 40 -1 96 -2 123 -2 36 0 54 -5 66 -18 18 -21 78 -26 96 -8 6 6 47 17 90 24
73 11 115 12 223 1 30 -3 53 1 69 11 21 13 26 13 55 -2 24 -13 39 -15 66 -8
22 6 47 6 68 -1 27 -8 37 -6 62 13 31 22 31 22 56 2 22 -17 38 -19 129 -17 83
2 109 7 124 20 19 17 21 17 49 -4 25 -18 33 -20 52 -10 15 8 30 9 48 2 15 -6
99 -10 187 -10 128 0 165 3 187 16 25 15 29 15 47 -2 17 -15 30 -17 77 -11 31
4 68 12 80 17 19 9 28 8 41 -4 17 -14 72 -15 423 -8 8 0 62 -2 119 -4 82 -4
109 -1 127 11 22 14 27 14 58 -1 43 -20 48 -20 79 4 21 16 25 27 23 66 -1 39
-6 50 -29 68 l-28 21 -40 -22 c-36 -20 -40 -20 -56 -5 -18 19 -155 27 -185 11
-10 -5 -19 -5 -22 0 -4 5 -93 8 -202 7 -152 -1 -201 2 -216 12 -16 12 -27 12
-66 1 -26 -7 -71 -12 -101 -12 -40 1 -61 -4 -79 -18 -24 -18 -25 -18 -47 0
-21 16 -43 17 -232 15 -114 -2 -212 -3 -218 -3 -251 7 -308 5 -330 -13 -29
-23 -31 -22 -62 2 -14 11 -39 20 -54 20 -16 0 -29 4 -29 10 0 5 -9 14 -20 20
-18 10 -28 5 -70 -30 l-49 -41 -31 22 c-27 21 -34 22 -65 10 -24 -8 -40 -9
-53 -2 -15 8 -108 8 -237 0 -5 0 -23 2 -39 6 -22 4 -37 0 -58 -15 l-29 -21
-33 20 c-18 12 -41 21 -51 21 -10 0 -27 8 -37 17 -27 24 -88 25 -108 2 -8 -10
-32 -20 -52 -22 -21 -2 -41 -6 -44 -10 -3 -3 -16 -2 -28 2 -29 11 -128 11
-142 0 -7 -5 -21 2 -39 21 -33 35 -46 37 -67 13z m412 -83 c0 -57 -4 -80 -12
-80 -9 0 -13 20 -12 73 2 90 2 87 14 87 6 0 10 -33 10 -80z m820 2 l0 -79 -42
1 c-37 1 -44 5 -52 28 -13 38 16 82 51 75 21 -4 24 -2 19 18 -6 22 0 35 16 35
4 0 8 -35 8 -78z m-1162 -7 c23 -55 27 -75 17 -75 -8 0 -17 9 -20 20 -5 15
-15 20 -40 20 -24 0 -34 -5 -38 -20 -3 -11 -11 -20 -17 -20 -7 0 -10 7 -6 18
37 98 53 132 62 132 6 0 25 -34 42 -75z m400 63 c-6 -18 -28 -21 -28 -4 0 9 7
16 16 16 9 0 14 -5 12 -12z m1982 -9 c0 -7 8 -18 18 -25 16 -13 16 -13 0 -14
-14 0 -18 -8 -18 -35 0 -19 3 -34 8 -32 4 1 8 -2 10 -8 1 -5 -8 -10 -20 -10
-20 0 -24 7 -29 50 -6 50 3 85 21 85 6 0 10 -5 10 -11z m-2212 -31 c14 -12 17
-98 3 -98 -6 0 -11 19 -13 42 -2 31 -8 44 -20 46 -15 3 -18 -4 -18 -42 0 -58
-18 -61 -22 -4 -2 31 -8 44 -20 46 -15 3 -18 -4 -18 -42 0 -25 -4 -46 -10 -46
-5 0 -10 24 -10 53 l0 52 58 2 c31 0 63 -4 70 -9z m126 -20 c11 -33 -14 -78
-44 -78 -11 0 -20 -7 -20 -15 0 -8 -7 -15 -15 -15 -12 0 -15 14 -15 68 l0 69
42 -1 c37 -1 44 -5 52 -28z m96 -23 c0 -30 -4 -55 -10 -55 -5 0 -10 25 -10 55
0 30 5 55 10 55 6 0 10 -25 10 -55z m98 43 c7 -7 12 -31 12 -53 0 -42 0 -42
-39 -43 -28 -1 -41 3 -45 14 -9 23 11 44 41 44 15 0 23 5 20 13 -2 6 -16 11
-31 10 -27 -2 -36 11 -13 20 22 9 43 7 55 -5z m147 2 c11 -5 14 -9 8 -9 -7 -1
-13 -10 -13 -21 0 -13 -9 -22 -27 -27 l-28 -7 33 -8 c22 -6 32 -14 32 -29 0
-25 -43 -43 -71 -29 -20 11 -22 23 -10 55 5 11 3 27 -2 37 -22 35 28 60 78 38z
m93 -2 c7 -7 12 -30 12 -53 0 -40 0 -41 -37 -40 -32 0 -39 4 -41 23 -3 18 2
23 27 28 18 4 31 13 31 22 0 11 -7 13 -30 9 -29 -6 -42 6 -17 16 22 9 43 7 55
-5z m102 0 c0 -9 3 -9 12 0 18 18 46 14 58 -7 16 -31 13 -91 -5 -91 -11 0 -15
12 -15 45 0 33 -4 45 -15 45 -11 0 -15 -12 -15 -45 0 -33 -4 -45 -15 -45 -11
0 -15 12 -15 45 0 33 -4 45 -15 45 -11 0 -15 -12 -15 -45 0 -33 -4 -45 -15
-45 -11 0 -15 13 -15 53 l0 54 35 1 c21 1 35 -3 35 -10z m168 0 c7 -7 12 -31
12 -54 l0 -42 -37 1 c-31 2 -39 6 -41 25 -3 18 2 23 28 28 37 8 34 30 -4 27
-27 -2 -36 11 -13 20 22 9 43 7 55 -5z m260 0 c7 -7 12 -20 12 -30 0 -14 -8
-18 -36 -18 -24 0 -34 -4 -31 -12 2 -7 18 -12 36 -11 40 1 36 -21 -4 -25 -34
-4 -55 18 -55 58 0 31 17 50 45 50 12 0 26 -5 33 -12z m150 -6 c3 -9 -3 -11
-21 -7 -20 5 -27 2 -32 -15 -9 -28 12 -52 38 -44 14 4 18 2 15 -7 -3 -8 -18
-14 -33 -14 -21 0 -33 7 -44 26 -13 24 -13 29 3 53 13 20 24 26 43 24 15 -2
28 -9 31 -16z m90 6 c7 -7 12 -20 12 -30 0 -14 -8 -18 -36 -18 -31 0 -35 -2
-24 -15 8 -10 21 -13 37 -8 19 4 24 2 21 -8 -7 -20 -53 -23 -72 -4 -19 19 -21
66 -4 83 7 7 21 12 33 12 12 0 26 -5 33 -12z m102 -4 c0 -8 -9 -14 -20 -14
-17 0 -20 -7 -20 -40 0 -29 -4 -40 -15 -40 -11 0 -15 13 -15 53 l0 53 35 1
c24 1 35 -3 35 -13z m46 -25 l12 -34 11 28 c6 16 11 33 11 38 0 5 7 9 15 9 18
0 19 5 -4 -55 -25 -66 -42 -68 -64 -6 -20 58 -21 64 -5 59 6 -2 17 -20 24 -39z
m148 25 c27 -27 20 -44 -20 -44 -24 0 -34 -4 -31 -12 2 -7 16 -12 31 -11 17 1
26 -2 23 -10 -6 -19 -47 -20 -68 -1 -23 21 -24 51 -2 76 20 22 46 23 67 2z
m110 4 c-4 -7 -16 -25 -26 -40 -23 -33 -23 -38 2 -38 11 0 20 -4 20 -10 0 -5
-18 -10 -40 -10 -47 0 -50 11 -13 54 l26 31 -26 3 c-45 5 -30 22 19 22 33 0
43 -3 38 -12z m96 -7 c5 -11 10 -35 10 -54 0 -33 -1 -34 -42 -33 -37 1 -43 4
-46 24 -3 18 2 23 27 28 18 4 31 13 31 21 0 11 -7 13 -24 9 -26 -6 -46 8 -24
17 28 12 58 6 68 -12z m89 4 c-1 -5 -10 -9 -21 -7 -26 5 -22 -13 7 -26 28 -13
32 -34 11 -52 -17 -13 -63 -10 -57 5 2 6 12 9 23 7 24 -4 23 18 -1 25 -44 11
-29 67 16 61 13 -2 23 -7 22 -13z m139 3 c7 -7 12 -31 12 -53 l0 -42 -42 1
c-37 1 -43 4 -46 24 -3 18 2 23 27 28 18 4 31 13 31 21 0 11 -7 13 -25 9 -24
-6 -33 3 -18 17 11 11 48 8 61 -5z m102 0 c0 -5 -9 -12 -20 -15 -16 -4 -20
-14 -20 -44 0 -28 -4 -39 -15 -39 -11 0 -15 13 -15 53 l0 53 35 1 c19 1 35 -3
35 -9z m170 -7 c17 -33 12 -41 -26 -41 -24 0 -34 -4 -31 -12 2 -8 17 -12 36
-10 37 3 42 -15 6 -24 -34 -8 -53 0 -67 30 -23 53 55 107 82 57z m89 4 c-1 -5
-10 -9 -21 -7 -26 5 -22 -13 7 -26 28 -13 32 -34 11 -52 -17 -13 -63 -10 -57
5 2 6 12 9 23 7 24 -4 23 18 -1 25 -44 11 -29 67 16 61 13 -2 23 -7 22 -13z
m99 3 c7 -7 12 -30 12 -53 0 -40 0 -41 -39 -42 -28 -1 -41 3 -45 14 -8 20 11
43 35 43 11 0 19 7 19 15 0 11 -7 14 -25 9 -23 -6 -33 4 -18 19 11 11 48 8 61
-5z m117 1 c4 -5 8 -29 11 -54 3 -34 0 -45 -11 -45 -9 0 -15 14 -17 43 -2 29
-8 42 -18 42 -10 0 -16 -13 -18 -42 -2 -29 -8 -43 -18 -43 -10 0 -14 13 -14
53 l0 53 40 1 c22 1 42 -2 45 -8z m103 -1 c7 -7 12 -30 12 -53 0 -41 0 -41
-41 -42 -27 -1 -42 3 -46 13 -7 19 14 44 38 44 11 0 19 7 19 16 0 12 -6 15
-25 10 -24 -6 -33 3 -18 17 11 11 48 8 61 -5z m96 6 c22 -9 10 -23 -14 -17
-29 8 -25 -12 5 -25 28 -13 32 -34 11 -52 -18 -14 -58 -10 -64 8 -3 9 3 11 22
6 33 -8 34 9 1 24 -51 24 -14 76 39 56z m144 -6 c7 -7 12 -20 12 -30 0 -14 -8
-18 -36 -18 -24 0 -34 -4 -31 -12 2 -7 18 -12 36 -12 17 1 31 -2 31 -7 0 -14
-52 -23 -69 -12 -20 12 -27 69 -10 89 14 17 51 18 67 2z"/>
<path d="M1957 3484 c-4 -4 -7 -20 -7 -36 0 -25 4 -29 23 -26 17 2 22 10 22
33 0 29 -22 45 -38 29z"/>
<path d="M803 3490 c-11 -28 -10 -30 13 -30 27 0 29 5 11 37 l-13 23 -11 -30z"/>
<path d="M1090 3455 c0 -28 4 -35 19 -35 20 0 34 32 24 56 -3 8 -14 14 -24 14
-15 0 -19 -7 -19 -35z"/>
<path d="M1305 3439 c-4 -6 -4 -13 -1 -16 8 -8 36 5 36 17 0 13 -27 13 -35 -1z"/>
<path d="M1437 3484 c-9 -10 2 -24 19 -24 8 0 14 7 14 15 0 15 -21 21 -33 9z"/>
<path d="M1433 3398 c2 -7 12 -13 22 -13 10 0 20 6 23 13 2 7 -6 12 -23 12
-17 0 -25 -5 -22 -12z"/>
<path d="M1553 3443 c-20 -8 -15 -23 7 -23 11 0 20 7 20 15 0 15 -6 17 -27 8z"/>
<path d="M1823 3443 c-20 -8 -15 -23 7 -23 11 0 20 7 20 15 0 15 -6 17 -27 8z"/>
<path d="M2065 3480 c-4 -6 5 -10 20 -10 15 0 24 4 20 10 -3 6 -12 10 -20 10
-8 0 -17 -4 -20 -10z"/>
<path d="M2305 3480 c-4 -6 5 -10 20 -10 15 0 24 4 20 10 -3 6 -12 10 -20 10
-8 0 -17 -4 -20 -10z"/>
<path d="M2605 3480 c-3 -5 3 -10 14 -10 12 0 21 5 21 10 0 6 -6 10 -14 10 -8
0 -18 -4 -21 -10z"/>
<path d="M2815 3439 c-4 -6 -5 -13 -2 -16 7 -7 27 6 27 18 0 12 -17 12 -25 -2z"/>
<path d="M3047 3443 c-12 -11 -8 -23 8 -23 8 0 15 7 15 15 0 16 -12 20 -23 8z"/>
<path d="M3305 3480 c-3 -5 3 -10 14 -10 12 0 21 5 21 10 0 6 -6 10 -14 10 -8
0 -18 -4 -21 -10z"/>
<path d="M3513 3443 c-18 -6 -16 -23 1 -23 17 0 30 16 19 23 -5 2 -14 2 -20 0z"/>
<path d="M3727 3443 c-12 -11 -8 -23 8 -23 8 0 15 7 15 15 0 16 -12 20 -23 8z"/>
<path d="M3955 3480 c-4 -6 5 -10 20 -10 15 0 24 4 20 10 -3 6 -12 10 -20 10
-8 0 -17 -4 -20 -10z"/>
<path d="M761 3231 c-14 -9 -30 -70 -31 -117 0 -64 36 -82 145 -71 30 3 50 -2
77 -20 l38 -23 41 26 c34 21 46 24 65 15 29 -13 124 -3 145 16 14 12 19 12 34
-3 15 -16 43 -18 233 -19 l216 -2 24 24 c17 17 22 30 18 46 -4 12 -8 33 -10
46 -5 32 -24 43 -68 37 -21 -2 -41 0 -44 5 -3 5 -20 9 -37 9 -21 0 -36 7 -45
20 -16 26 -22 25 -68 -11 -27 -21 -44 -28 -59 -23 -11 3 -35 6 -54 5 -19 -1
-42 6 -52 15 -14 13 -24 14 -51 5 -83 -26 -94 -28 -117 -19 -15 5 -36 5 -54
-2 -16 -5 -34 -7 -39 -4 -5 4 -64 7 -130 8 -66 2 -123 7 -126 12 -16 21 -38
32 -51 25z m789 -95 l0 -73 -42 1 c-36 1 -43 5 -51 29 -13 39 15 81 49 73 18
-5 22 -3 18 9 -8 20 3 48 16 40 5 -3 10 -39 10 -79z m-762 62 c-6 -18 -28 -21
-28 -4 0 9 7 16 16 16 9 0 14 -5 12 -12z m522 -18 c0 -13 5 -18 15 -14 8 4 15
1 15 -5 0 -6 -7 -11 -15 -11 -10 0 -15 -11 -15 -35 0 -24 5 -35 15 -35 8 0 15
-5 15 -11 0 -6 -10 -9 -22 -7 -19 2 -24 10 -26 46 -3 36 -6 42 -26 42 -33 0
-45 -18 -39 -56 4 -27 2 -34 -11 -34 -13 0 -16 11 -16 55 0 30 5 55 10 55 6 0
10 -5 10 -11 0 -8 4 -8 15 1 8 6 23 9 35 5 16 -5 20 -2 20 14 0 12 5 21 10 21
6 0 10 -9 10 -20z m-522 -68 c2 -42 0 -52 -12 -52 -13 0 -16 12 -16 56 0 73
24 70 28 -4z m87 48 c4 -6 14 -5 24 2 34 21 51 3 51 -52 0 -27 -4 -50 -10 -50
-5 0 -10 21 -10 46 0 38 -3 45 -17 42 -14 -3 -18 -13 -18 -46 0 -27 -4 -42
-12 -42 -9 0 -13 16 -13 46 0 38 -3 45 -17 42 -14 -3 -18 -13 -18 -46 0 -27
-4 -42 -12 -42 -9 0 -13 17 -13 53 0 53 1 54 30 55 16 0 32 -3 35 -8z m189
-22 c14 -40 -7 -82 -39 -76 -18 4 -25 0 -27 -14 -3 -16 -18 -27 -18 -13 0 3 0
33 0 68 l0 63 37 -1 c32 0 39 -4 47 -27z m100 16 c20 -19 21 -68 2 -84 -23
-18 -59 -8 -75 21 -13 24 -13 29 2 53 20 29 48 34 71 10z m266 -3 c5 -11 10
-35 10 -54 0 -32 -2 -34 -39 -35 -28 -1 -41 3 -45 14 -9 23 11 44 41 44 15 0
23 5 20 13 -2 6 -16 11 -31 10 -27 -2 -36 11 -13 20 26 11 47 6 57 -12z m208
7 c7 -7 12 -30 12 -53 0 -40 0 -41 -37 -40 -32 0 -39 4 -41 23 -3 18 2 23 27
28 18 4 31 13 31 21 0 11 -7 13 -32 7 -29 -6 -31 -5 -19 10 16 19 42 21 59 4z
m100 -6 c3 -9 -3 -11 -22 -6 -34 8 -34 -9 0 -24 18 -9 24 -19 22 -35 -3 -25
-43 -36 -61 -18 -8 8 -3 11 16 11 34 0 35 13 2 28 -26 12 -34 47 -12 56 20 8
50 2 55 -12z"/>
<path d="M1480 3131 c-13 -26 -3 -51 21 -51 15 0 19 7 19 35 0 39 -22 48 -40
16z"/>
<path d="M1007 3143 c-4 -3 -7 -19 -7 -35 0 -21 5 -28 19 -28 22 0 34 25 26
51 -6 19 -26 25 -38 12z"/>
<path d="M1112 3134 c-15 -27 -3 -56 22 -52 16 2 21 10 21 33 0 34 -28 47 -43
19z"/>
<path d="M1384 3095 c-18 -15 -18 -15 5 -13 14 2 26 9 29 16 5 17 -10 15 -34
-3z"/>
<path d="M1603 3103 c-20 -8 -15 -23 7 -23 11 0 20 7 20 15 0 15 -6 17 -27 8z"/>
<path d="M1257 2833 c546 -2 1440 -2 1985 0 546 1 100 2 -992 2 -1092 0 -1538
-1 -993 -2z"/>
<path d="M261 2805 c12 -12 3937 -17 3959 -4 8 5 -881 10 -1977 11 -1328 2
-1989 0 -1982 -7z"/>
<path d="M339 2609 c-16 -16 -20 -29 -16 -57 3 -21 9 -62 13 -92 10 -80 42
-108 95 -80 14 8 25 7 42 -5 22 -14 26 -14 50 6 26 20 27 24 27 119 0 120 -3
124 -112 127 -68 2 -81 0 -99 -18z m43 -41 l1 -33 4 33 c2 17 8 32 14 32 5 0
10 -15 11 -32 l1 -33 4 33 c2 17 8 32 14 32 13 0 11 -74 -3 -88 -7 -7 -11 -33
-9 -62 2 -48 1 -50 -23 -50 -24 0 -25 2 -19 49 4 38 2 54 -11 66 -17 17 -20
42 -10 69 10 27 24 18 26 -16z m138 -68 c0 -99 0 -100 -24 -100 -22 0 -23 3
-19 44 3 26 1 46 -6 50 -17 11 -13 67 6 88 35 39 43 24 43 -82z"/>
<path d="M808 2602 c-40 -5 -78 -55 -78 -104 0 -31 7 -46 30 -69 28 -29 33
-30 97 -26 38 2 76 7 86 12 10 4 23 2 32 -5 12 -10 63 -10 160 1 6 1 17 -2 26
-5 11 -5 23 2 38 20 l21 27 21 -27 c21 -26 53 -34 64 -16 4 7 13 7 26 0 25
-14 133 -7 153 9 13 11 19 11 32 0 14 -12 57 -19 104 -19 8 0 93 0 187 1 142
0 175 3 188 15 15 16 19 15 63 -10 17 -10 34 -11 63 -5 25 6 47 6 59 -1 21
-11 46 -5 73 18 15 14 19 13 36 -2 10 -10 34 -17 52 -17 19 1 50 1 69 1 19 0
49 1 65 1 17 1 41 1 55 0 21 -1 142 -1 205 0 88 0 253 -9 268 -15 13 -6 25 -2
41 13 21 20 24 20 54 5 18 -8 36 -13 40 -10 5 3 72 5 148 5 76 0 155 1 174 2
19 1 91 1 160 1 69 -1 150 -1 180 0 30 0 82 0 115 -1 71 -3 84 -3 110 -1 11 0
31 -2 45 -5 18 -5 34 0 54 16 26 21 28 25 21 73 -9 69 -17 76 -87 75 -32 -1
-62 1 -64 4 -3 3 -19 1 -35 -5 -25 -9 -34 -6 -64 16 -39 30 -61 33 -86 10 -20
-18 -69 -28 -69 -14 0 4 -11 15 -24 24 -24 15 -26 14 -57 -12 -44 -36 -93 -36
-139 0 -31 25 -36 26 -55 13 -67 -49 -66 -49 -96 -38 -16 6 -43 8 -61 4 -18
-4 -46 -4 -62 0 -16 5 -37 4 -46 -1 -10 -5 -34 -7 -54 -3 -30 5 -42 1 -61 -17
-14 -13 -25 -34 -25 -47 0 -21 -3 -22 -20 -13 -11 6 -27 27 -35 46 -14 35 -15
35 -72 34 -111 -2 -126 -1 -145 17 -18 16 -20 16 -47 0 -16 -9 -40 -17 -52
-17 -13 0 -84 -1 -156 -2 -131 -3 -133 -3 -169 24 -43 32 -69 25 -86 -23 -10
-29 -11 -29 -34 -14 -13 8 -35 15 -49 15 -14 0 -30 9 -37 20 -18 28 -33 25
-84 -17 -45 -36 -59 -36 -66 1 -6 36 -31 40 -72 12 -32 -21 -45 -24 -84 -19
-26 3 -56 14 -68 24 -26 24 -30 24 -66 -6 -27 -23 -36 -25 -82 -19 -29 4 -60
15 -73 26 -21 20 -21 20 -51 -2 -24 -18 -47 -23 -123 -27 -52 -2 -107 -4 -123
-4 -16 0 -37 -4 -48 -10 -15 -8 -24 -7 -36 4 -13 11 -47 15 -140 15 -96 0
-127 3 -140 15 -24 22 -62 33 -94 29z m57 -32 c36 -14 22 -30 -20 -23 -43 7
-65 -9 -65 -48 0 -35 43 -68 68 -53 22 14 27 34 8 34 -9 0 -16 5 -16 10 0 6
12 10 26 10 22 0 25 -3 22 -32 -2 -27 -9 -34 -36 -42 -47 -13 -86 17 -90 68
-3 40 10 63 43 76 27 12 30 12 60 0z m690 1 c7 -12 -12 -24 -25 -16 -11 7 -4
25 10 25 5 0 11 -4 15 -9z m215 -73 c0 -61 -3 -79 -11 -71 -9 9 -16 9 -29 0
-26 -16 -50 7 -50 48 0 38 21 60 50 52 17 -4 20 0 20 24 0 16 5 29 10 29 6 0
10 -34 10 -82z m210 4 l0 -78 -36 1 c-20 1 -40 8 -45 16 -22 36 -1 89 36 89
20 0 25 5 25 25 0 14 5 25 10 25 6 0 10 -33 10 -78z m160 -4 c0 -61 -3 -79
-11 -71 -9 9 -16 9 -30 0 -38 -24 -70 50 -38 89 7 9 22 14 36 11 20 -4 23 0
23 24 0 16 5 29 10 29 6 0 10 -34 10 -82z m198 55 c-3 -25 -1 -28 27 -28 28 0
30 -3 33 -39 4 -47 -7 -59 -53 -61 l-35 -1 0 78 c0 65 3 78 16 78 12 0 15 -7
12 -27z m1160 -49 l-3 -77 -33 -2 c-39 -3 -62 16 -62 54 0 33 16 51 47 51 18
0 23 6 23 25 0 16 6 25 15 25 13 0 15 -13 13 -76z m210 59 c-4 -22 -22 -20
-26 1 -2 10 3 16 13 16 10 0 15 -7 13 -17z m152 -7 c0 -19 6 -25 28 -28 25 -3
27 -6 30 -57 2 -39 0 -52 -9 -49 -7 2 -13 22 -13 43 -1 29 -6 41 -18 43 -15 3
-18 -4 -18 -42 0 -34 -4 -46 -15 -46 -12 0 -15 16 -15 80 0 64 3 80 15 80 9 0
15 -9 15 -24z m-1080 -12 c0 -8 5 -14 10 -14 6 0 10 -4 10 -10 0 -5 -7 -10
-15 -10 -21 0 -19 -47 3 -59 22 -12 3 -35 -21 -25 -12 4 -17 18 -17 44 0 21
-6 41 -12 43 -9 4 -10 8 -2 14 6 4 13 16 17 26 8 20 27 14 27 -9z m-269 -36
c15 -28 3 -67 -26 -80 -21 -9 -28 -8 -45 7 -11 10 -20 31 -20 46 0 52 67 72
91 27z m90 21 c26 -13 16 -28 -16 -21 -23 4 -25 1 -25 -28 0 -29 2 -32 25 -28
35 7 42 -9 11 -24 -22 -9 -29 -8 -46 7 -27 24 -26 70 2 89 27 19 24 19 49 5z
m115 -33 c11 -47 1 -69 -31 -71 -42 -2 -55 4 -55 27 0 13 11 24 30 31 36 14
40 31 5 25 -33 -7 -43 10 -13 21 30 11 56 -3 64 -33z m182 -27 c2 -42 0 -51
-9 -42 -9 9 -16 9 -30 0 -15 -9 -22 -8 -35 5 -23 22 -12 45 25 53 17 4 28 11
25 17 -3 5 -17 7 -30 4 -13 -4 -24 -2 -24 3 0 17 33 29 54 21 17 -6 22 -17 24
-61z m92 50 c0 -4 -12 -9 -27 -11 l-28 -4 28 -12 c16 -7 27 -19 27 -31 0 -24
-32 -44 -54 -35 -23 9 -20 27 4 21 30 -8 35 12 6 23 -30 11 -35 44 -10 58 18
10 54 4 54 -9z m170 1 c0 -5 -12 -10 -27 -12 l-28 -4 28 -12 c16 -7 27 -19 27
-31 0 -24 -32 -44 -54 -35 -23 9 -20 27 4 21 30 -8 35 11 6 25 -32 14 -34 46
-3 57 23 9 47 4 47 -9z m106 -24 c11 -47 1 -69 -31 -71 -42 -2 -55 4 -55 27 0
13 11 24 30 31 36 14 40 31 5 25 -33 -7 -43 10 -13 21 30 11 56 -3 64 -33z
m544 19 c0 -8 -9 -10 -25 -7 -22 4 -25 1 -25 -28 0 -29 2 -32 25 -28 35 7 42
-9 11 -24 -22 -9 -29 -8 -46 7 -26 24 -26 70 1 88 23 16 59 11 59 -8z m218
-20 c3 -25 2 -27 -27 -20 -24 5 -31 3 -31 -9 0 -11 9 -16 30 -16 35 0 40 -15
8 -23 -34 -9 -68 18 -68 53 0 60 81 75 88 15z m92 25 c0 -5 -12 -10 -27 -12
l-28 -4 28 -12 c16 -7 27 -19 27 -31 0 -24 -32 -44 -54 -35 -23 9 -20 27 4 21
30 -8 35 12 6 23 -33 12 -35 47 -3 59 23 9 47 4 47 -9z m-3150 0 c0 -4 -9 -10
-20 -13 -16 -4 -20 -14 -20 -46 0 -23 -4 -41 -10 -41 -5 0 -10 24 -10 53 0 53
1 54 30 55 17 0 30 -3 30 -8z m88 -45 c3 -50 3 -50 -28 -49 -48 2 -50 3 -50
25 0 13 10 23 30 30 35 13 40 31 8 29 -34 -3 -40 -1 -33 11 4 5 21 9 38 7 31
-3 32 -5 35 -53z m114 42 c13 -20 10 -99 -4 -95 -6 2 -12 22 -12 44 -1 33 -5
40 -23 42 -21 3 -23 -1 -23 -42 0 -25 -4 -46 -10 -46 -5 0 -10 24 -10 53 l0
54 37 1 c20 1 41 -4 45 -11z m89 -17 c6 -16 15 -30 19 -30 4 0 13 14 19 30 5
17 15 30 22 30 6 0 9 -6 6 -12 -31 -78 -40 -98 -47 -98 -7 0 -16 20 -47 98 -3
6 0 12 6 12 7 0 17 -13 22 -30z m157 -25 l3 -50 -38 0 c-32 0 -39 4 -41 23 -3
18 3 25 27 33 36 13 41 31 9 29 -34 -3 -40 -1 -33 11 4 5 21 9 38 7 31 -3 32
-5 35 -53z m92 45 c0 -4 -9 -10 -20 -13 -16 -4 -20 -14 -20 -46 0 -23 -4 -41
-10 -41 -5 0 -10 24 -10 53 0 53 1 54 30 55 17 0 30 -3 30 -8z m40 -45 c0 -30
-4 -55 -10 -55 -5 0 -10 25 -10 55 0 30 5 55 10 55 6 0 10 -25 10 -55z m108
28 c3 -20 -1 -23 -32 -23 -20 0 -36 -4 -36 -9 0 -17 29 -33 50 -26 11 3 20 2
20 -4 0 -16 -37 -23 -60 -11 -25 13 -35 52 -20 80 16 30 74 25 78 -7z m213
-26 c3 -27 1 -50 -3 -53 -4 -3 -8 0 -8 5 0 8 -6 7 -19 -1 -15 -9 -23 -9 -35 1
-25 21 -19 41 14 52 36 13 40 33 5 27 -14 -3 -25 -2 -25 2 0 14 15 21 40 18
22 -3 26 -9 31 -51z m367 41 c23 -23 13 -38 -24 -38 -28 0 -35 -3 -32 -17 3
-14 12 -17 38 -16 33 3 34 2 16 -12 -11 -8 -25 -15 -32 -15 -21 0 -44 30 -44
59 0 32 16 51 45 51 12 0 26 -5 33 -12z m1140 -47 c2 -40 0 -52 -10 -49 -7 3
-14 23 -16 47 -3 33 -7 42 -19 39 -12 -2 -17 -14 -17 -42 -1 -22 -7 -41 -13
-43 -9 -3 -13 11 -13 50 l0 55 43 -2 42 -1 3 -54z m168 22 l10 -38 8 38 c8 36
32 51 40 25 16 -52 18 -54 28 -20 5 17 15 32 23 32 11 0 11 -9 -4 -52 -20 -60
-37 -71 -47 -31 -11 46 -17 49 -29 13 -16 -48 -32 -48 -45 0 -6 23 -14 48 -17
56 -3 8 1 14 9 14 8 0 19 -16 24 -37z m164 -18 c0 -42 -3 -55 -15 -55 -12 0
-15 13 -15 55 0 42 3 55 15 55 12 0 15 -13 15 -55z m-675 -25 c10 -16 -5 -50
-21 -50 -10 0 -12 5 -7 13 4 6 6 20 5 30 -3 18 13 23 23 7z"/>
<path d="M1713 2513 c-15 -5 -18 -59 -4 -67 19 -12 41 7 41 34 0 28 -14 41
-37 33z"/>
<path d="M1913 2494 c-8 -20 9 -49 28 -49 8 0 15 13 17 33 3 27 0 32 -18 32
-11 0 -23 -7 -27 -16z"/>
<path d="M2083 2513 c-15 -5 -18 -59 -4 -67 19 -12 41 7 41 34 0 28 -14 41
-37 33z"/>
<path d="M2340 2480 c0 -25 4 -31 18 -28 11 2 17 12 17 28 0 16 -6 26 -17 28
-14 3 -18 -3 -18 -28z"/>
<path d="M3430 2480 c0 -23 4 -30 20 -30 16 0 20 7 20 30 0 23 -4 30 -20 30
-16 0 -20 -7 -20 -30z"/>
<path d="M2444 2496 c-9 -24 3 -46 26 -46 17 0 21 5 18 27 -3 31 -34 44 -44
19z"/>
<path d="M2657 2464 c-4 -4 -4 -10 -1 -15 6 -10 34 0 34 12 0 10 -24 12 -33 3z"/>
<path d="M2840 2461 c0 -18 18 -21 30 -6 10 13 9 15 -9 15 -11 0 -21 -4 -21
-9z"/>
<path d="M3205 2461 c-3 -5 -1 -12 5 -16 12 -7 30 2 30 16 0 12 -27 12 -35 0z"/>
<path d="M3970 2500 c0 -5 9 -10 20 -10 11 0 20 5 20 10 0 6 -9 10 -20 10 -11
0 -20 -4 -20 -10z"/>
<path d="M1005 2459 c-4 -6 -4 -13 -1 -16 8 -8 36 5 36 17 0 13 -27 13 -35 -1z"/>
<path d="M1365 2459 c-4 -6 -4 -13 -1 -16 8 -8 36 5 36 17 0 13 -27 13 -35 -1z"/>
<path d="M1600 2505 c-11 -13 -9 -15 15 -15 16 0 25 5 23 12 -7 19 -24 20 -38
3z"/>
<path d="M1815 2459 c-4 -6 -4 -13 -1 -16 8 -8 36 5 36 17 0 13 -27 13 -35 -1z"/>
<path d="M2190 2510 c-19 -12 -7 -22 21 -18 19 2 20 5 8 15 -9 7 -20 9 -29 3z"/>
<path d="M1885 2240 c-10 -11 -27 -20 -37 -20 -11 0 -28 -5 -39 -11 -13 -7
-24 -7 -32 -1 -7 6 -87 9 -188 8 -145 -1 -180 -4 -201 -18 -23 -15 -26 -15
-42 0 -14 14 -39 17 -139 18 -78 1 -132 6 -150 15 -22 10 -33 10 -48 1 -10 -7
-34 -12 -52 -12 -18 0 -42 -7 -55 -15 -17 -12 -26 -13 -42 -5 -12 6 -29 8 -40
5 -11 -3 -28 -2 -38 4 -29 15 -57 -19 -48 -56 4 -15 10 -44 13 -63 12 -74 50
-81 88 -16 l26 45 27 -29 c19 -21 36 -30 57 -30 17 0 44 1 60 1 17 0 48 0 70
0 22 0 43 5 47 11 5 9 14 8 35 -2 15 -7 34 -13 41 -13 6 0 39 1 71 2 38 1 65
6 75 16 18 19 25 19 47 -1 17 -16 25 -17 96 -13 26 1 59 -7 83 -19 22 -11 43
-16 46 -11 14 24 74 35 174 32 58 -1 134 -2 170 -2 408 -2 577 -2 590 -1 8 0
33 0 56 0 25 0 46 5 54 15 15 18 32 19 48 3 7 -7 56 -13 129 -15 198 -6 221
-5 228 7 4 7 13 7 24 0 30 -16 217 -11 232 6 15 18 33 18 49 -1 10 -12 28 -15
77 -12 35 3 66 7 70 10 3 4 13 2 23 -3 12 -6 24 -4 39 6 20 15 24 14 40 0 16
-15 88 -20 191 -15 8 0 62 0 119 -1 138 -1 148 7 106 86 -35 65 -63 83 -105
67 -15 -6 -33 -7 -40 -3 -6 4 -65 7 -130 6 -99 -2 -122 -5 -139 -20 -19 -18
-21 -18 -46 2 -23 18 -39 21 -110 19 -63 -2 -88 -7 -103 -20 -18 -16 -20 -16
-43 2 -19 15 -39 18 -94 17 -39 -1 -75 -4 -81 -8 -9 -6 -34 6 -86 44 -14 10
-21 9 -41 -10 -13 -12 -32 -22 -43 -22 -10 0 -25 -4 -33 -9 -9 -6 -23 -5 -38
2 -16 7 -33 7 -58 0 -31 -10 -39 -8 -77 19 -46 34 -70 30 -76 -11 -3 -18 -8
-22 -25 -16 -12 4 -55 8 -95 10 -58 2 -78 8 -96 24 -28 27 -32 26 -68 -4 -27
-23 -36 -25 -82 -19 -32 5 -56 14 -64 26 -17 23 -26 23 -62 -4 l-30 -22 -22
21 c-29 26 -81 28 -104 2 -24 -26 -85 -26 -102 1 -7 11 -18 20 -26 20 -7 0
-21 -9 -31 -20z m45 -21 c0 -5 -7 -9 -15 -9 -15 0 -20 12 -9 23 8 8 24 -1 24
-14z m150 -59 c0 -47 -4 -80 -10 -80 -6 0 -10 33 -10 80 0 47 4 80 10 80 6 0
10 -33 10 -80z m55 69 c10 -15 -1 -23 -20 -15 -9 3 -13 10 -10 16 8 13 22 13
30 -1z m111 -5 c-3 -9 -6 -44 -6 -78 l0 -63 -36 2 c-19 0 -39 7 -44 15 -23 37
-2 90 35 90 20 0 25 5 25 25 0 16 6 25 16 25 11 0 14 -5 10 -16z m214 -64 c0
-47 -4 -80 -10 -80 -5 0 -10 5 -10 10 0 6 -8 5 -19 -2 -27 -17 -51 5 -51 47 0
38 21 60 50 52 17 -4 20 0 20 24 0 16 5 29 10 29 6 0 10 -33 10 -80z m280 51
c0 -25 3 -28 21 -24 29 8 49 -20 49 -69 0 -27 -4 -38 -15 -38 -11 0 -15 12
-15 45 0 38 -3 45 -20 45 -17 0 -20 -7 -20 -46 0 -28 -4 -44 -11 -42 -6 2 -10
7 -10 11 1 4 1 39 1 77 0 40 4 70 10 70 6 0 10 -13 10 -29z m316 1 c-6 -25 -4
-27 26 -27 33 0 33 0 36 -52 2 -32 -1 -53 -7 -53 -6 0 -11 20 -11 46 0 41 -2
45 -22 42 -19 -2 -23 -9 -23 -42 0 -23 -5 -41 -12 -43 -10 -4 -13 16 -13 76 0
67 3 81 16 81 12 0 14 -7 10 -28z m-2000 -22 c8 0 14 -4 14 -10 0 -5 -7 -10
-16 -10 -11 0 -14 -8 -12 -32 2 -21 8 -32 16 -30 8 1 12 -3 10 -10 -3 -7 -13
-13 -24 -13 -15 0 -20 8 -22 40 -2 22 -8 45 -14 52 -7 9 -7 13 0 13 5 0 13 10
17 23 l8 22 4 -22 c2 -13 11 -23 19 -23z m-269 -37 l16 -38 12 34 c6 19 17 37
24 39 8 3 12 1 10 -4 -2 -5 -15 -37 -29 -72 -14 -34 -30 -62 -37 -62 -10 0
-10 6 -2 24 9 18 7 31 -10 64 -24 47 -25 52 -10 52 5 0 17 -17 26 -37z m197
21 c20 -20 20 -43 0 -72 -18 -26 -46 -28 -68 -6 -19 18 -21 65 -4 82 17 17 54
15 72 -4z m176 10 c0 -2 -11 -9 -25 -14 -21 -8 -25 -16 -25 -50 0 -22 -4 -40
-10 -40 -5 0 -10 24 -10 53 l0 54 35 1 c19 1 35 -1 35 -4z m78 -6 c7 -7 12
-30 12 -52 0 -40 -1 -41 -34 -41 -44 0 -65 18 -47 39 7 8 21 16 32 18 29 4 23
23 -7 21 -23 -2 -31 7 -17 20 11 11 48 8 61 -5z m97 2 c4 -6 -5 -10 -19 -10
-33 0 -33 -13 -1 -28 28 -13 32 -34 10 -52 -16 -13 -69 -5 -60 9 3 5 14 7 24
4 30 -8 35 16 7 27 -25 9 -35 38 -19 53 10 11 51 8 58 -3z m133 -2 c23 -23 13
-38 -23 -38 -19 0 -35 -4 -35 -9 0 -17 29 -33 50 -26 11 4 20 2 20 -4 0 -20
-50 -24 -70 -6 -37 34 -21 95 25 95 12 0 26 -5 33 -12z m97 2 c4 -6 -5 -10
-19 -10 -31 0 -35 -15 -6 -23 27 -7 36 -35 17 -54 -16 -16 -73 -11 -62 6 3 5
14 7 24 4 30 -8 35 16 7 27 -25 9 -35 38 -19 53 10 11 51 8 58 -3z m107 -3
c24 -38 -6 -103 -43 -92 -14 5 -19 1 -19 -14 0 -12 -4 -21 -10 -21 -6 0 -10
29 -10 68 l0 69 37 1 c20 1 41 -4 45 -11z m109 -14 c8 -21 6 -23 -31 -23 -22
0 -40 -4 -40 -9 0 -17 29 -33 50 -26 11 3 20 2 20 -4 0 -15 -37 -23 -58 -12
-34 18 -39 73 -8 94 21 14 59 3 67 -20z m104 17 c4 -6 -6 -10 -23 -10 -34 0
-47 -22 -32 -51 8 -15 17 -18 38 -12 24 6 26 5 13 -10 -17 -22 -39 -22 -63 0
-36 32 -15 93 32 93 16 0 32 -4 35 -10z m43 -42 c-4 -74 -28 -77 -28 -4 0 44
3 56 15 56 12 0 15 -11 13 -52z m96 36 c3 -9 6 -32 6 -52 0 -36 -1 -37 -38
-37 -33 0 -37 3 -37 25 0 20 6 26 28 28 33 4 38 34 5 32 -34 -3 -40 -1 -33 10
10 16 62 12 69 -6z m106 -39 c0 -30 -4 -55 -10 -55 -5 0 -10 25 -10 55 0 30 5
55 10 55 6 0 10 -25 10 -55z m214 39 c3 -9 6 -32 6 -52 0 -36 -1 -37 -38 -37
-33 0 -37 3 -37 25 0 20 6 26 28 28 33 4 38 34 5 32 -34 -3 -40 -1 -33 10 10
16 62 12 69 -6z m214 4 c23 -23 13 -38 -23 -38 -19 0 -35 -4 -35 -9 0 -17 26
-30 48 -24 13 3 22 1 22 -6 0 -20 -50 -25 -70 -6 -37 34 -21 95 25 95 12 0 26
-5 33 -12z m97 2 c4 -6 -5 -10 -19 -10 -31 0 -35 -15 -6 -23 27 -7 36 -35 17
-54 -16 -17 -67 -11 -67 7 0 6 11 8 24 4 33 -8 43 14 12 26 -25 9 -35 38 -19
53 10 11 51 8 58 -3z m255 -9 c15 -29 13 -31 -26 -31 -28 0 -35 -3 -32 -17 3
-13 12 -17 31 -16 30 2 36 -11 11 -21 -47 -18 -87 37 -59 80 19 29 60 32 75 5z
m100 9 c0 -5 -11 -10 -25 -10 -15 0 -28 -7 -32 -16 -9 -24 11 -49 36 -47 27 3
27 -14 0 -22 -43 -14 -80 60 -47 93 14 14 68 16 68 2z m208 -45 l3 -50 -38 0
c-34 0 -38 3 -38 25 0 20 6 26 28 28 33 4 38 34 5 32 -34 -3 -40 -1 -33 11 4
5 21 9 38 7 31 -3 32 -5 35 -53z m92 45 c0 -5 -12 -10 -27 -10 -27 -1 -27 -1
-8 -15 38 -27 44 -35 39 -49 -7 -19 -32 -28 -55 -21 -29 9 -23 26 6 19 19 -5
25 -2 25 10 0 9 -6 16 -14 16 -20 0 -39 27 -32 45 6 17 66 21 66 5z m138 -2
c23 -23 13 -38 -24 -38 -28 0 -35 -3 -32 -17 3 -14 12 -17 37 -15 29 2 32 0
21 -13 -28 -34 -80 -6 -80 44 0 32 16 51 45 51 12 0 26 -5 33 -12z m109 0 c17
-14 18 -101 1 -95 -7 2 -13 17 -14 33 -1 49 -3 54 -24 54 -17 0 -20 -7 -20
-45 0 -25 -4 -45 -10 -45 -5 0 -10 24 -10 53 0 54 0 54 32 55 18 0 38 -4 45
-10z m148 2 c4 -6 -7 -10 -25 -10 -29 0 -31 -2 -28 -32 3 -29 6 -33 31 -31 24
2 27 0 17 -13 -26 -31 -80 1 -80 48 0 36 67 67 85 38z m93 -45 l3 -50 -38 0
c-34 0 -38 3 -38 25 0 20 6 26 28 28 33 4 38 34 5 32 -34 -3 -40 -1 -33 11 4
5 21 9 38 7 31 -3 32 -5 35 -53z m92 46 c0 -5 -12 -11 -27 -13 l-28 -4 28 -14
c48 -24 27 -81 -24 -65 -29 9 -23 26 6 19 19 -5 25 -2 25 10 0 9 -6 16 -14 16
-20 0 -37 25 -30 44 7 17 64 23 64 7z m93 1 c3 -4 7 -27 8 -51 3 -42 2 -44
-28 -47 -34 -4 -59 16 -49 41 3 8 17 15 31 15 16 0 25 6 25 16 0 12 -7 15 -25
12 -24 -5 -32 2 -18 15 9 9 51 9 56 -1z m57 -88 c0 -17 -22 -14 -28 4 -2 7 3
12 12 12 9 0 16 -7 16 -16z"/>
<path d="M2175 2149 c-8 -24 16 -55 34 -45 6 4 11 20 11 37 0 22 -5 29 -19 29
-11 0 -23 -9 -26 -21z"/>
<path d="M2390 2141 c0 -33 11 -44 34 -35 10 4 16 18 16 35 0 24 -4 29 -25 29
-21 0 -25 -5 -25 -29z"/>
<path d="M924 2156 c-9 -24 0 -51 18 -54 20 -4 40 30 32 52 -8 20 -43 21 -50
2z"/>
<path d="M1190 2114 c0 -9 7 -14 17 -12 25 5 28 28 4 28 -12 0 -21 -6 -21 -16z"/>
<path d="M1415 2160 c-4 -6 5 -10 19 -10 14 0 26 5 26 10 0 6 -9 10 -19 10
-11 0 -23 -4 -26 -10z"/>
<path d="M1614 2156 c-10 -26 1 -51 21 -51 15 0 21 8 23 33 3 27 0 32 -18 32
-11 0 -23 -6 -26 -14z"/>
<path d="M1715 2160 c-4 -6 7 -10 25 -10 18 0 29 4 25 10 -3 6 -15 10 -25 10
-10 0 -22 -4 -25 -10z"/>
<path d="M1975 2119 c-4 -6 -4 -13 -1 -16 8 -8 36 5 36 17 0 13 -27 13 -35 -1z"/>
<path d="M2295 2119 c-4 -6 -4 -13 -1 -16 8 -8 36 5 36 17 0 13 -27 13 -35 -1z"/>
<path d="M2505 2160 c-4 -6 5 -10 19 -10 14 0 26 5 26 10 0 6 -9 10 -19 10
-11 0 -23 -4 -26 -10z"/>
<path d="M2860 2170 c-19 -12 -7 -22 21 -18 19 2 20 5 8 15 -9 7 -20 9 -29 3z"/>
<path d="M3165 2119 c-4 -6 -4 -13 -1 -16 8 -8 36 5 36 17 0 13 -27 13 -35 -1z"/>
<path d="M3403 2173 c-22 -8 -14 -23 12 -23 14 0 25 4 25 9 0 11 -21 19 -37
14z"/>
<path d="M3745 2119 c-4 -6 -4 -13 -1 -16 8 -8 36 5 36 17 0 13 -27 13 -35 -1z"/>
<path d="M3935 2119 c-4 -6 -4 -13 -1 -16 8 -8 36 5 36 17 0 13 -27 13 -35 -1z"/>
<path d="M415 1860 c-82 -3 743 -6 1835 -6 1092 0 1866 3 1720 7 -301 8 -3325
7 -3555 -1z"/>
<path d="M1258 1823 c547 -2 1438 -2 1980 0 543 1 96 2 -993 2 -1089 0 -1533
-1 -987 -2z"/>
<path d="M342 1616 c-35 -32 -37 -38 -37 -95 0 -53 4 -63 30 -91 45 -47 91
-57 148 -32 60 27 90 72 84 128 -8 76 -63 124 -141 124 -39 0 -52 -6 -84 -34z
m147 -12 c30 -21 51 -71 44 -107 -8 -39 -57 -77 -99 -77 -46 0 -70 14 -89 50
-24 46 -19 78 19 116 39 39 85 45 125 18z"/>
<path d="M416 1575 c3 -7 12 -16 21 -19 12 -5 11 -10 -8 -30 -22 -23 -39 -26
-39 -5 0 5 7 9 15 9 19 0 19 17 1 36 -19 18 -36 18 -36 -1 0 -8 3 -14 8 -12 4
1 7 -2 7 -8 0 -5 -5 -9 -12 -9 -6 1 -11 -6 -10 -16 1 -10 7 -16 14 -13 7 3 13
-2 13 -11 0 -9 -4 -16 -10 -16 -5 0 -10 -6 -10 -13 0 -8 7 -14 15 -14 8 0 15
4 15 9 0 17 38 50 45 39 3 -6 0 -14 -9 -17 -23 -9 -27 -32 -5 -37 14 -4 19 -1
17 10 -4 21 19 29 24 9 2 -11 7 -13 18 -6 13 9 13 12 -3 21 -19 11 -14 31 6
23 8 -3 13 4 13 16 0 11 -5 19 -11 17 -6 -1 -10 3 -10 8 0 6 3 9 6 8 3 -1 6 5
6 13 0 8 -6 14 -14 14 -7 0 -13 -4 -13 -10 0 -5 -4 -10 -10 -10 -5 0 -10 6
-10 13 0 7 -9 13 -19 14 -13 1 -18 -3 -15 -12z"/>
<path d="M1945 1610 c-12 -13 -31 -20 -54 -20 -20 0 -47 -9 -61 -19 -23 -19
-25 -19 -47 -1 -19 14 -30 16 -55 10 -19 -6 -38 -6 -50 1 -13 7 -29 7 -46 1
-15 -5 -36 -6 -47 -2 -11 4 -33 3 -49 -1 -16 -5 -36 -4 -46 1 -9 5 -28 7 -42
5 -17 -3 -31 2 -43 15 -21 23 -38 25 -54 6 -11 -13 -75 -28 -116 -27 -11 0
-46 1 -78 2 -43 1 -63 -3 -77 -16 -18 -16 -22 -17 -37 -3 -25 22 -45 27 -66
16 -10 -5 -31 -5 -52 1 -29 8 -39 6 -60 -11 -14 -11 -25 -26 -25 -34 0 -29
-16 -13 -18 19 -3 38 -33 72 -56 64 -41 -16 -48 -156 -10 -184 27 -20 249 -16
286 5 20 11 30 13 40 5 7 -6 40 -11 73 -11 86 1 162 -11 176 -28 15 -18 39
-18 64 0 11 7 51 17 89 21 38 4 77 12 87 18 13 8 22 7 35 -4 20 -16 149 -22
177 -7 13 7 23 2 41 -19 l25 -28 36 20 c34 18 55 19 255 17 201 -3 219 -1 241
17 23 18 24 18 47 1 20 -16 36 -18 115 -14 156 8 170 8 227 1 30 -4 77 -3 104
2 32 6 73 5 114 -1 59 -9 67 -8 94 12 27 20 31 20 47 6 10 -9 29 -16 42 -17
52 -1 130 -1 274 0 83 1 173 -1 200 -4 80 -8 117 4 138 48 19 37 37 49 37 23
0 -25 50 -76 75 -76 57 0 96 93 57 137 -26 30 -63 35 -98 12 -25 -16 -30 -16
-44 -4 -9 8 -27 15 -41 15 -59 0 -71 0 -96 2 -15 1 -35 10 -45 20 -29 29 -127
28 -168 -1 -15 -11 -41 -18 -65 -17 -22 1 -56 -2 -74 -6 -19 -4 -40 -4 -45 0
-6 3 -19 8 -30 9 -10 2 -29 12 -42 22 -22 17 -63 19 -64 2 -1 -3 -10 -17 -20
-30 -19 -22 -21 -23 -53 -8 -17 8 -43 13 -57 10 -18 -3 -31 2 -44 16 -24 26
-67 27 -90 2 -10 -11 -32 -20 -49 -20 -51 -2 -84 -1 -134 0 -27 0 -64 0 -83
-1 -19 -1 -44 1 -56 3 -11 3 -27 1 -34 -3 -9 -5 -23 -1 -38 11 -33 26 -47 24
-70 -8 -18 -24 -22 -26 -37 -13 -13 10 -57 15 -181 16 -147 3 -167 5 -193 23
-35 26 -34 26 -56 1z m-1155 -75 l0 -65 30 0 c17 0 30 -4 30 -10 0 -5 -20 -10
-45 -10 l-45 0 0 75 c0 60 3 75 15 75 12 0 15 -14 15 -65z m600 50 c0 -8 -7
-15 -15 -15 -8 0 -15 7 -15 15 0 8 7 15 15 15 8 0 15 -7 15 -15z m600 -1 c0
-9 -7 -14 -17 -12 -25 5 -28 28 -4 28 12 0 21 -6 21 -16z m960 -1 c0 -7 -13
-11 -30 -11 -28 1 -37 8 -24 20 10 11 54 3 54 -9z m250 7 c0 -5 -7 -10 -15
-10 -21 0 -19 -30 3 -31 16 -1 16 -2 0 -6 -14 -3 -18 -15 -18 -49 0 -31 -4
-44 -14 -44 -10 0 -12 11 -8 45 3 28 1 45 -6 45 -6 0 -5 12 4 30 15 28 54 43
54 20z m305 1 c7 -12 -12 -24 -25 -16 -11 7 -4 25 10 25 5 0 11 -4 15 -9z m45
-66 c0 -43 -4 -75 -10 -75 -6 0 -10 32 -10 75 0 43 4 75 10 75 6 0 10 -32 10
-75z m60 59 c0 -17 -22 -14 -28 4 -2 7 3 12 12 12 9 0 16 -7 16 -16z m-1150
-14 c0 -12 7 -20 18 -21 16 -1 16 -2 0 -6 -23 -6 -26 -73 -3 -73 8 0 15 -4 15
-10 0 -5 -11 -10 -25 -10 -23 0 -25 4 -25 45 0 29 -4 45 -12 46 -10 0 -10 2 0
6 6 2 12 13 12 24 0 10 5 19 10 19 6 0 10 -9 10 -20z m-1532 -22 c7 -7 12 -31
12 -54 l0 -42 -37 1 c-31 2 -39 6 -41 25 -3 18 2 23 28 28 37 8 34 30 -4 26
-26 -3 -36 12 -13 21 22 9 43 7 55 -5z m100 -7 c3 -9 0 -11 -7 -7 -7 4 -19 5
-28 1 -14 -5 -11 -10 15 -25 18 -11 32 -23 32 -28 0 -26 -61 -44 -75 -22 -4 6
5 10 19 10 33 0 33 13 1 28 -27 13 -32 31 -13 50 16 16 50 12 56 -7z m129 6
c6 -4 14 -3 18 3 12 20 45 10 55 -16 15 -39 13 -84 -5 -84 -11 0 -15 12 -15
45 0 33 -4 45 -15 45 -11 0 -15 -12 -15 -45 0 -33 -4 -45 -15 -45 -11 0 -15
12 -15 45 0 33 -4 45 -15 45 -11 0 -15 -12 -15 -45 0 -33 -4 -45 -15 -45 -11
0 -15 13 -15 54 0 52 1 54 28 52 15 -1 32 -5 39 -9z m171 1 c7 -7 12 -20 12
-30 0 -14 -8 -18 -36 -18 -24 0 -34 -4 -31 -12 2 -7 18 -13 35 -13 38 0 37
-19 0 -23 -49 -6 -76 52 -41 90 19 21 44 23 61 6z m60 -63 c-2 -41 -8 -61 -20
-69 -9 -5 -21 -7 -25 -3 -4 5 -2 11 5 16 6 4 13 32 14 62 2 61 6 75 20 61 5
-5 8 -35 6 -67z m104 58 c36 -32 15 -93 -32 -93 -46 0 -67 55 -33 92 20 22 41
23 65 1z m98 2 c0 -8 -3 -14 -7 -14 -26 4 -33 -4 -33 -41 0 -22 -4 -40 -10
-40 -5 0 -10 24 -10 53 0 51 1 52 30 54 21 2 30 -2 30 -12z m92 -2 c29 -26 22
-43 -17 -43 -25 0 -35 -4 -35 -16 0 -11 8 -15 30 -12 16 1 31 -2 32 -7 2 -6
-11 -11 -29 -13 -41 -4 -69 32 -54 71 15 38 44 46 73 20z m96 -1 c3 -9 -3 -11
-22 -6 -30 7 -37 -13 -8 -23 34 -12 42 -24 31 -44 -10 -20 -53 -26 -64 -9 -4
6 5 10 19 10 33 0 33 13 1 28 -27 13 -32 31 -13 50 16 16 50 12 56 -6z m156
-14 c14 -39 -6 -78 -39 -78 -18 0 -25 -5 -25 -20 0 -11 -7 -20 -15 -20 -12 0
-15 15 -15 73 l0 74 42 -1 c37 -1 44 -5 52 -28z m46 -23 c0 -30 -4 -55 -10
-55 -5 0 -10 25 -10 55 0 30 5 55 10 55 6 0 10 -25 10 -55z m110 46 c0 -5 -11
-23 -25 -39 -14 -17 -25 -33 -25 -36 0 -3 11 -6 25 -6 14 0 25 -4 25 -10 0 -5
-20 -10 -45 -10 -25 0 -45 3 -45 7 0 3 11 21 25 39 26 34 32 50 15 39 -15 -9
-43 3 -35 15 8 13 85 13 85 1z m90 -2 c0 -6 -12 -26 -26 -45 l-26 -34 26 0
c14 0 26 -4 26 -10 0 -5 -18 -10 -40 -10 -45 0 -50 12 -20 50 25 32 25 39 0
33 -14 -4 -20 0 -20 11 0 12 10 16 40 16 22 0 40 -5 40 -11z m88 -1 c7 -7 12
-31 12 -53 0 -42 0 -42 -39 -43 -28 -1 -41 3 -46 15 -7 20 18 43 48 43 11 0
17 5 14 13 -2 6 -16 11 -31 9 -26 -3 -36 12 -13 21 22 9 43 7 55 -5z m100 -7
c3 -10 0 -12 -13 -8 -32 13 -37 -5 -6 -24 27 -16 30 -22 21 -39 -13 -23 -70
-29 -70 -6 0 9 8 12 25 8 14 -2 25 0 25 5 0 5 -11 15 -25 21 -27 13 -32 31
-13 50 16 16 50 11 56 -7z m201 10 c7 -5 15 -29 18 -54 l5 -45 -43 2 c-34 1
-45 5 -47 19 -3 13 6 22 27 30 38 14 43 42 6 33 -25 -6 -36 8 -12 17 19 8 31
8 46 -2z m107 -4 c4 -4 13 -2 20 4 7 6 22 8 33 4 15 -4 20 -17 23 -55 2 -35
-1 -50 -9 -50 -9 0 -13 16 -13 45 0 33 -4 45 -15 45 -17 0 -30 -41 -22 -70 3
-13 0 -20 -9 -20 -10 0 -14 13 -14 46 0 38 -3 45 -17 42 -14 -3 -18 -13 -18
-46 0 -27 -4 -42 -12 -42 -9 0 -13 17 -13 54 0 53 0 54 29 52 16 -1 33 -5 37
-9z m160 5 c7 -4 13 -28 15 -53 l4 -47 -40 2 c-52 1 -62 31 -16 49 38 14 43
42 6 33 -25 -6 -36 8 -12 17 18 8 31 8 43 -1z m120 -5 c4 -3 9 -26 11 -52 5
-37 3 -45 -11 -45 -12 0 -16 10 -16 46 0 38 -3 45 -17 42 -13 -2 -19 -15 -21
-46 -4 -60 -22 -52 -22 11 l0 53 35 -1 c19 -1 38 -4 41 -8z m108 0 c21 -16 24
-60 6 -82 -19 -23 -62 -14 -79 16 -13 24 -13 29 2 53 19 29 44 33 71 13z m216
-6 c5 -11 10 -35 10 -54 0 -32 -2 -34 -39 -35 -28 -1 -41 3 -46 15 -7 20 18
43 48 43 11 0 17 5 14 13 -2 6 -16 11 -31 10 -27 -2 -36 11 -13 20 26 11 47 6
57 -12z m95 7 c4 -4 18 -2 32 5 21 9 27 8 39 -8 19 -26 19 -95 -1 -95 -11 0
-15 12 -15 45 0 33 -4 45 -15 45 -11 0 -15 -12 -15 -45 0 -33 -4 -45 -15 -45
-11 0 -15 12 -15 45 0 33 -4 45 -15 45 -11 0 -15 -12 -15 -45 0 -33 -4 -45
-15 -45 -11 0 -15 12 -15 48 0 27 2 51 5 53 7 7 52 5 60 -3z m125 -43 c0 -30
-4 -55 -10 -55 -5 0 -10 25 -10 55 0 30 5 55 10 55 6 0 10 -25 10 -55z m110 0
c0 -37 -4 -55 -13 -55 -8 0 -12 16 -10 53 2 61 0 57 13 57 6 0 10 -25 10 -55z
m88 43 c7 -7 12 -30 12 -52 0 -40 -1 -41 -35 -44 -24 -1 -37 3 -41 13 -8 20
13 45 37 45 11 0 19 7 19 16 0 12 -7 14 -32 8 -29 -6 -31 -5 -19 10 16 19 42
21 59 4z m66 1 c10 16 36 13 36 -4 0 -8 -9 -15 -20 -15 -17 0 -20 -7 -20 -40
0 -27 -4 -40 -13 -40 -10 0 -13 14 -11 53 3 66 3 65 13 48 6 -9 11 -10 15 -2z
m164 -1 c7 -7 12 -20 12 -30 0 -14 -8 -18 -36 -18 -24 0 -34 -4 -31 -12 2 -7
18 -13 35 -13 39 0 36 -19 -3 -23 -49 -6 -73 51 -38 90 19 21 44 23 61 6z"/>
<path d="M898 1492 c-19 -4 -24 -17 -10 -26 11 -7 35 10 31 21 -2 5 -12 7 -21
5z"/>
<path d="M1280 1526 c0 -9 7 -12 20 -9 11 3 20 9 20 14 0 5 -9 9 -20 9 -11 0
-20 -6 -20 -14z"/>
<path d="M1440 1525 c-16 -19 -3 -55 20 -55 25 0 33 15 26 46 -7 27 -27 31
-46 9z"/>
<path d="M1637 1533 c-14 -13 -6 -20 18 -15 14 2 22 8 19 13 -6 11 -28 12 -37
2z"/>
<path d="M1883 1533 c-7 -3 -13 -18 -13 -35 0 -23 4 -29 18 -26 18 3 29 45 15
58 -4 4 -14 5 -20 3z"/>
<path d="M2220 1480 c0 -5 6 -10 14 -10 8 0 18 5 21 10 3 6 -3 10 -14 10 -12
0 -21 -4 -21 -10z"/>
<path d="M2535 1486 c-11 -8 -14 -16 -8 -19 6 -4 18 0 28 7 11 8 14 16 8 19
-6 4 -18 0 -28 -7z"/>
<path d="M2808 1492 c-19 -4 -24 -17 -10 -26 11 -7 35 10 31 21 -2 5 -12 7
-21 5z"/>
<path d="M3017 1534 c-4 -4 -7 -20 -7 -36 0 -25 4 -29 23 -26 17 2 22 10 22
33 0 29 -22 45 -38 29z"/>
<path d="M3243 1493 c-14 -5 -18 -33 -5 -33 10 0 32 22 32 32 0 9 -8 9 -27 1z"/>
<path d="M3668 1492 c-19 -4 -24 -17 -10 -26 11 -7 35 10 31 21 -2 5 -12 7
-21 5z"/>
<path d="M3875 1530 c-4 -6 5 -10 20 -10 15 0 24 4 20 10 -3 6 -12 10 -20 10
-8 0 -17 -4 -20 -10z"/>
<path d="M963 1259 c-30 -25 -41 -28 -81 -23 -26 3 -60 15 -76 26 -43 31 -59
15 -70 -66 -8 -60 -7 -69 10 -86 20 -19 71 -29 90 -17 7 4 37 2 67 -4 31 -5
80 -7 109 -3 29 3 63 6 76 5 12 0 29 0 37 0 30 0 64 -1 262 -5 188 -3 203 -2
219 15 16 18 18 18 37 2 16 -15 40 -18 145 -19 70 0 133 4 139 9 7 5 21 6 30
2 25 -11 633 -16 633 -6 0 18 34 21 57 6 20 -14 105 -16 148 -5 6 2 18 0 28
-5 11 -5 24 -2 36 9 22 20 35 20 51 1 17 -20 128 -18 152 3 15 13 20 13 34 1
14 -11 99 -14 466 -15 448 -1 448 -1 462 21 13 19 11 26 -21 74 -39 58 -69 75
-117 65 -23 -4 -36 -1 -45 10 -16 19 -42 21 -58 5 -11 -11 -164 -22 -233 -18
-14 1 -77 1 -140 0 -63 -1 -125 -1 -137 0 -112 3 -160 3 -173 -4 -10 -5 -18 0
-25 15 -17 37 -41 45 -67 22 -13 -12 -38 -24 -57 -28 -19 -3 -43 -13 -52 -22
-17 -15 -20 -15 -44 4 -22 17 -38 20 -109 18 -58 -2 -90 -8 -106 -19 -22 -15
-25 -15 -42 0 -10 9 -32 16 -48 15 -74 -4 -125 6 -146 29 -23 25 -29 24 -73
-11 -34 -28 -41 -30 -65 -19 -19 9 -32 9 -51 1 -16 -7 -34 -8 -52 -2 -30 10
-50 9 -70 -3 -6 -4 -23 -3 -37 3 -23 8 -143 8 -171 -1 -5 -1 -24 0 -41 5 -17
4 -42 2 -56 -3 -25 -9 -37 -5 -100 41 -14 10 -21 9 -41 -10 -21 -20 -25 -21
-37 -7 -17 20 -40 19 -65 -5 -15 -14 -40 -21 -90 -25 -67 -5 -70 -4 -100 25
l-31 30 -34 -25 -34 -25 -21 20 c-28 26 -37 25 -65 -5 -29 -31 -58 -32 -85 -1
-31 36 -79 38 -122 5z m-173 -14 c0 -8 -7 -15 -15 -15 -8 0 -15 7 -15 15 0 8
7 15 15 15 8 0 15 -7 15 -15z m220 -58 l0 -74 -32 -1 c-41 -1 -58 13 -58 49 0
35 26 62 51 54 15 -5 19 -1 19 19 0 14 5 26 10 26 6 0 10 -31 10 -73z m50 58
c0 -8 -4 -15 -9 -15 -13 0 -22 16 -14 24 11 11 23 6 23 -9z m160 0 c0 -8 -7
-15 -15 -15 -8 0 -15 7 -15 15 0 8 7 15 15 15 8 0 15 -7 15 -15z m110 -58 l0
-74 -32 -1 c-41 -1 -58 13 -58 49 0 35 26 62 51 54 15 -5 19 -1 19 19 0 14 5
26 10 26 6 0 10 -31 10 -73z m260 -2 c0 -43 -4 -75 -10 -75 -6 0 -10 32 -10
75 0 43 4 75 10 75 6 0 10 -32 10 -75z m100 50 c0 -18 4 -23 15 -19 8 4 22 1
30 -6 19 -16 21 -100 2 -100 -9 0 -11 12 -9 40 4 35 2 40 -17 40 -18 0 -21 -6
-21 -40 0 -29 -4 -40 -15 -40 -12 0 -15 15 -15 75 0 60 3 75 15 75 9 0 15 -9
15 -25z m700 -48 l0 -74 -40 -1 c-35 -2 -42 2 -50 24 -14 35 8 79 38 78 17 0
22 5 22 23 0 14 6 23 15 23 12 0 15 -15 15 -73z m660 -2 c0 -60 -3 -75 -15
-75 -12 0 -15 15 -15 75 0 60 3 75 15 75 12 0 15 -15 15 -75z m770 50 c0 -8 7
-15 15 -15 8 0 15 -7 15 -15 0 -8 -7 -15 -15 -15 -10 0 -15 -10 -15 -30 0 -20
5 -30 15 -30 8 0 15 -4 15 -10 0 -5 -11 -10 -25 -10 -25 0 -29 9 -26 57 1 11
-2 24 -7 27 -7 4 -6 15 1 31 13 28 27 33 27 10z m-3030 -76 c0 -37 -4 -49 -15
-49 -11 0 -15 12 -15 48 0 27 3 52 6 55 15 14 24 -7 24 -54z m40 51 c0 -6 8
-5 19 2 30 19 51 -5 51 -58 0 -24 -4 -44 -10 -44 -5 0 -10 18 -10 39 0 43 -9
55 -35 45 -13 -5 -16 -16 -13 -45 2 -27 0 -39 -9 -39 -9 0 -13 17 -13 55 0 30
5 55 10 55 6 0 10 -5 10 -10z m230 -51 c0 -27 -4 -49 -10 -49 -5 0 -10 25 -10
56 0 34 4 53 10 49 6 -3 10 -28 10 -56z m51 21 c13 -44 24 -44 34 0 6 28 21
47 31 38 7 -7 -38 -108 -48 -108 -8 0 -48 83 -48 101 0 25 21 4 31 -31z m103
-20 c1 -34 -3 -50 -11 -50 -14 0 -19 91 -6 103 11 12 15 -1 17 -53z m160 12
c1 -31 5 -38 24 -40 20 -3 22 1 22 42 0 25 5 46 10 46 6 0 10 -24 10 -53 0
-54 0 -54 -32 -55 -44 -1 -58 13 -58 58 0 64 23 66 24 2z m160 32 c9 -9 16
-32 16 -54 l0 -38 -42 2 c-36 1 -43 4 -43 21 0 14 10 23 32 30 23 8 30 14 24
24 -5 8 -17 11 -30 6 -22 -7 -30 10 -8 18 22 10 35 7 51 -9z m318 -1 c20 -18
24 -63 6 -81 -7 -7 -24 -12 -38 -12 -33 0 -50 17 -50 51 0 51 46 75 82 42z
m108 2 c0 -7 -9 -15 -20 -18 -15 -4 -20 -14 -20 -41 0 -25 -4 -36 -15 -36 -11
0 -15 13 -15 53 l0 53 35 1 c22 1 35 -4 35 -12z m93 4 c3 -2 7 -25 9 -51 4
-37 2 -48 -8 -48 -10 0 -14 13 -14 40 0 33 -3 40 -20 40 -17 0 -20 -7 -20 -40
0 -29 -4 -40 -15 -40 -11 0 -15 13 -15 54 l0 54 40 -2 c22 -1 41 -4 43 -7z
m111 -5 c27 -27 20 -44 -20 -44 -41 0 -44 -25 -3 -26 36 0 38 -19 2 -22 -23
-2 -35 3 -47 20 -21 30 -20 44 4 68 24 24 43 25 64 4z m100 0 c9 -8 16 -32 16
-53 0 -37 -1 -38 -40 -39 -28 -1 -42 3 -46 13 -8 20 13 45 38 45 11 0 18 5 15
13 -2 6 -14 11 -25 9 -23 -3 -30 13 -9 21 22 10 35 7 51 -9z m224 4 c7 -7 12
-31 12 -54 l0 -42 -42 2 c-36 1 -43 4 -43 21 0 14 10 23 34 31 25 8 30 13 20
20 -8 5 -22 7 -31 6 -20 -4 -24 14 -5 21 22 9 43 7 55 -5z m100 -7 c3 -9 -1
-11 -16 -7 -30 10 -35 -9 -6 -23 38 -17 30 -55 -13 -59 -23 -2 -33 1 -33 11 0
10 8 13 25 9 14 -2 25 0 25 6 0 5 -11 13 -25 16 -27 7 -33 34 -13 54 16 16 50
12 56 -7z m136 3 c27 -27 20 -44 -20 -44 -24 0 -34 -4 -31 -12 2 -7 16 -13 30
-13 35 0 36 -19 1 -23 -29 -4 -64 22 -64 47 0 26 29 61 50 61 10 0 26 -7 34
-16z m114 3 c18 -14 16 -97 -3 -97 -11 0 -15 11 -15 40 0 29 -4 40 -15 40 -11
0 -15 -11 -15 -40 0 -29 -4 -40 -15 -40 -11 0 -15 13 -15 53 l0 54 33 0 c17 0
38 -4 45 -10z m146 -3 c27 -27 20 -44 -20 -44 -41 0 -44 -25 -3 -26 35 0 39
-18 6 -22 -33 -4 -67 22 -67 50 0 21 34 58 54 58 8 0 22 -7 30 -16z m201 5 c3
-5 14 -3 25 3 29 18 50 -6 50 -58 0 -32 -4 -44 -14 -44 -10 0 -16 14 -18 43
-2 23 -7 42 -13 42 -5 0 -11 -19 -13 -42 -2 -29 -8 -43 -17 -43 -9 0 -15 14
-17 43 -2 23 -7 42 -13 42 -5 0 -11 -19 -13 -42 -2 -29 -8 -43 -18 -43 -10 0
-14 13 -14 53 l0 53 35 1 c19 1 37 -3 40 -8z m177 -6 c35 -32 15 -93 -30 -93
-35 0 -52 17 -52 51 0 51 46 75 82 42z m104 4 c4 -4 13 -2 20 4 22 18 54 1 54
-29 0 -15 3 -37 6 -49 5 -17 2 -23 -10 -23 -12 0 -16 10 -16 38 0 44 -8 56
-26 41 -8 -6 -10 -23 -7 -45 4 -27 2 -34 -11 -34 -12 0 -16 10 -16 39 0 43 -8
54 -29 41 -10 -5 -12 -19 -7 -44 6 -29 4 -36 -9 -36 -12 0 -15 12 -15 54 0 53
0 54 29 52 16 -1 33 -5 37 -9z m178 -9 c23 -33 20 -38 -20 -38 -24 0 -34 -4
-31 -12 2 -7 16 -12 31 -11 37 3 28 -21 -9 -25 -49 -6 -73 51 -38 90 22 24 49
23 67 -4z m116 2 c16 -25 12 -90 -5 -90 -11 0 -15 11 -15 38 0 43 -6 53 -26
45 -9 -3 -14 -20 -14 -44 0 -26 -4 -39 -14 -39 -10 0 -12 13 -10 53 2 28 3 52
4 52 0 0 16 0 35 0 21 0 40 -6 45 -15z m190 0 c24 -24 25 -38 4 -68 -18 -26
-56 -29 -78 -6 -20 20 -20 43 0 72 19 27 48 28 74 2z m60 -75 c0 -8 -7 -15
-15 -15 -8 0 -15 7 -15 15 0 8 7 15 15 15 8 0 15 -7 15 -15z"/>
<path d="M944 1176 c-7 -31 1 -46 27 -46 17 0 20 6 17 32 -4 42 -34 51 -44 14z"/>
<path d="M1264 1186 c-10 -26 0 -51 21 -51 16 0 20 7 20 30 0 33 -30 49 -41
21z"/>
<path d="M2330 1185 c-16 -19 -9 -49 13 -53 13 -3 17 3 17 27 0 35 -13 47 -30
26z"/>
<path d="M1485 1141 c-10 -18 17 -23 33 -7 15 15 15 16 -5 16 -12 0 -24 -4
-28 -9z"/>
<path d="M1800 1159 c0 -24 4 -30 18 -27 10 2 18 14 20 31 3 22 -1 27 -17 27
-17 0 -21 -6 -21 -31z"/>
<path d="M2117 1194 c-13 -13 -7 -24 14 -24 11 0 19 5 17 12 -5 14 -22 21 -31
12z"/>
<path d="M2220 1140 c0 -5 7 -10 15 -10 8 0 15 5 15 10 0 6 -7 10 -15 10 -8 0
-15 -4 -15 -10z"/>
<path d="M2440 1140 c0 -5 6 -10 14 -10 8 0 18 5 21 10 3 6 -3 10 -14 10 -12
0 -21 -4 -21 -10z"/>
<path d="M2677 1194 c-13 -13 -7 -24 14 -24 11 0 19 5 17 12 -5 14 -22 21 -31
12z"/>
<path d="M2937 1194 c-13 -13 -7 -24 14 -24 11 0 19 5 17 12 -5 14 -22 21 -31
12z"/>
<path d="M3307 1178 c-7 -23 5 -49 22 -46 9 2 17 15 19 31 3 21 -1 27 -17 27
-10 0 -21 -6 -24 -12z"/>
<path d="M3597 1194 c-13 -13 -7 -24 14 -24 11 0 19 5 17 12 -5 14 -22 21 -31
12z"/>
<path d="M3901 1191 c-7 -5 -11 -19 -9 -32 4 -31 42 -33 46 -3 4 25 -19 46
-37 35z"/>
<path d="M280 880 c0 -7 661 -10 1964 -10 1299 0 1967 3 1971 10 4 7 -653 10
-1964 10 -1307 0 -1971 -3 -1971 -10z"/>
<path d="M1262 843 c544 -2 1432 -2 1975 0 544 1 99 2 -987 2 -1086 0 -1531
-1 -988 -2z"/>
<path d="M352 644 c-39 -27 -54 -70 -47 -128 11 -80 30 -94 131 -95 76 0 85 2
102 24 11 13 22 47 26 75 6 45 4 55 -21 93 l-29 42 -70 2 c-50 2 -77 -2 -92
-13z m71 -26 c4 -10 7 -10 18 0 23 21 58 15 65 -12 3 -14 12 -27 20 -30 8 -3
14 -15 14 -26 0 -19 -6 -20 -105 -20 l-105 0 0 25 c0 16 6 25 15 25 8 0 15 8
15 18 0 10 3 22 7 25 11 12 51 8 56 -5z m-3 -134 c0 -35 -1 -35 -37 -32 -35 3
-38 6 -41 36 -3 31 -2 32 37 32 40 0 41 -1 41 -36z m100 1 c0 -33 -2 -35 -33
-35 -42 0 -45 3 -39 40 4 27 8 30 38 30 32 0 34 -2 34 -35z"/>
<path d="M380 595 c0 -10 10 -15 26 -15 22 0 25 2 14 15 -7 8 -19 15 -26 15
-8 0 -14 -7 -14 -15z"/>
<path d="M450 595 c-11 -13 -8 -15 14 -15 16 0 26 5 26 15 0 8 -6 15 -14 15
-7 0 -19 -7 -26 -15z"/>
<path d="M759 621 c-40 -41 -41 -98 0 -143 23 -26 36 -32 67 -31 71 2 99 5
116 14 12 7 25 5 40 -5 13 -7 32 -12 43 -10 11 3 34 5 51 5 17 1 37 5 44 9 8
5 23 4 34 -2 16 -9 24 -6 43 17 l24 27 20 -26 c21 -26 16 -26 163 -25 32 0 67
5 77 12 13 8 24 8 41 0 24 -12 38 -13 98 -12 43 1 33 1 207 -1 120 -2 147 0
169 15 24 16 27 16 45 -1 18 -16 78 -22 98 -10 5 3 23 1 42 -4 28 -8 39 -7 62
10 l27 21 28 -21 c25 -19 37 -20 90 -14 34 3 67 13 73 21 10 11 15 11 30 -3
16 -14 46 -17 194 -18 97 -1 180 1 186 5 6 3 26 2 45 -4 23 -7 41 -7 56 0 16
7 30 7 46 0 15 -7 30 -7 47 1 22 10 28 9 47 -13 25 -29 81 -34 112 -10 11 8
36 15 56 15 20 0 41 5 47 11 8 8 17 8 32 0 25 -14 139 -7 154 8 6 6 17 7 26 2
13 -7 130 -13 226 -13 11 0 31 1 45 1 14 0 45 0 69 0 31 -1 50 5 64 19 l20 20
-25 24 c-16 14 -26 34 -26 52 0 17 -9 37 -25 52 -31 28 -35 29 -58 8 -15 -14
-61 -16 -353 -17 -268 0 -339 -3 -347 -14 -14 -16 -31 -17 -47 -1 -8 8 -45 14
-95 14 -71 2 -83 5 -95 23 -19 28 -53 27 -82 -4 -21 -22 -28 -24 -84 -19 -36
4 -72 14 -88 25 -31 21 -54 24 -64 8 -3 -6 -18 -9 -32 -6 -14 3 -36 -2 -49
-10 -15 -10 -48 -15 -97 -15 -65 0 -77 -3 -97 -24 l-22 -23 -29 24 c-16 14
-40 25 -52 25 -13 0 -31 9 -41 20 -24 27 -30 26 -78 -15 -22 -19 -45 -35 -49
-35 -5 0 -14 13 -19 29 -13 38 -37 46 -63 23 -33 -31 -60 -42 -77 -31 -7 5
-26 9 -40 9 -14 0 -34 9 -44 20 -24 26 -31 25 -72 -10 -27 -24 -38 -28 -53
-20 -10 5 -31 10 -46 10 -15 0 -38 9 -50 21 l-22 21 -30 -22 c-24 -18 -47 -23
-108 -26 -43 -2 -89 -6 -103 -9 -14 -3 -32 -1 -40 4 -9 6 -22 4 -38 -6 -21
-14 -25 -14 -41 0 -13 11 -45 15 -145 14 -117 0 -129 2 -150 21 -35 33 -91 30
-128 -7z m799 -9 c2 -7 -6 -12 -17 -12 -21 0 -27 11 -14 24 9 9 26 2 31 -12z
m212 -60 l0 -79 -32 0 c-44 0 -58 13 -58 52 0 38 21 60 50 52 17 -4 20 0 20
24 0 16 5 29 10 29 6 0 10 -33 10 -78z m210 0 l0 -78 -37 1 c-32 0 -39 4 -47
27 -14 39 6 78 39 78 20 0 25 5 25 25 0 14 5 25 10 25 6 0 10 -33 10 -78z
m160 0 l0 -78 -35 -1 c-39 -1 -57 16 -57 52 0 35 21 58 49 52 20 -4 23 0 23
24 0 16 5 29 10 29 6 0 10 -33 10 -78z m473 56 c-24 -24 -37 -21 -27 6 3 9 16
16 27 16 l21 0 -21 -22z m257 -58 c0 -64 -3 -80 -15 -80 -12 0 -15 16 -15 80
0 64 3 80 15 80 12 0 15 -16 15 -80z m-1993 53 c3 -9 -6 -10 -33 -6 -29 5 -40
2 -50 -12 -32 -44 1 -103 51 -91 27 7 35 36 10 36 -8 0 -15 5 -15 11 0 6 10 9
23 7 16 -2 23 -11 25 -30 6 -49 -71 -64 -112 -22 -21 21 -20 83 1 106 19 21
93 22 100 1z m1653 -8 c0 -8 7 -15 15 -15 8 0 15 -4 15 -10 0 -5 -7 -10 -15
-10 -21 0 -19 -50 3 -66 16 -12 16 -13 -1 -20 -11 -4 -24 -1 -32 7 -15 17 -27
99 -14 99 5 0 9 7 9 15 0 8 5 15 10 15 6 0 10 -7 10 -15z m1334 0 c-4 -9 0
-15 10 -15 9 0 16 -4 16 -10 0 -5 -7 -10 -15 -10 -10 0 -15 -10 -15 -30 0 -21
5 -30 16 -30 9 0 14 -6 12 -12 -3 -7 -13 -13 -24 -13 -15 0 -20 8 -22 40 -2
22 -9 44 -15 48 -9 6 -9 10 1 14 6 2 12 11 12 19 0 8 7 14 15 14 9 0 12 -6 9
-15z m-2894 -25 c0 -4 -9 -10 -20 -13 -16 -4 -20 -14 -20 -46 0 -23 -4 -41
-10 -41 -5 0 -10 24 -10 53 0 53 1 54 30 55 17 0 30 -3 30 -8z m88 -45 l3 -51
-38 1 c-34 0 -38 3 -38 25 0 20 6 26 28 28 16 2 27 9 27 19 0 11 -7 14 -25 11
-14 -3 -25 -2 -25 2 0 14 15 21 40 18 23 -3 25 -8 28 -53z m109 43 c17 -14 18
-101 1 -96 -6 2 -12 22 -12 44 -1 32 -4 39 -21 39 -16 0 -21 -8 -23 -42 -5
-62 -22 -53 -22 10 0 54 0 54 32 55 18 0 38 -4 45 -10z m97 -26 c11 -40 22
-41 31 -2 6 28 21 47 31 38 6 -7 -37 -108 -46 -108 -7 0 -50 91 -50 105 0 20
26 -6 34 -33z m150 22 c3 -9 6 -32 6 -53 0 -36 -1 -37 -37 -36 -34 0 -38 3
-38 25 0 20 6 26 28 28 33 4 38 34 5 32 -34 -3 -40 -1 -33 10 10 16 62 12 69
-6z m96 6 c0 -4 -9 -10 -20 -13 -16 -4 -20 -14 -20 -46 0 -23 -4 -41 -10 -41
-5 0 -10 24 -10 53 0 53 1 54 30 55 17 0 30 -3 30 -8z m40 -45 c0 -30 -4 -55
-10 -55 -5 0 -10 25 -10 55 0 30 5 55 10 55 6 0 10 -25 10 -55z m98 43 c7 -7
12 -21 12 -31 0 -17 -5 -19 -35 -14 -19 3 -35 2 -35 -2 0 -17 30 -32 50 -26
11 4 20 2 20 -4 0 -6 -11 -13 -25 -17 -48 -12 -80 39 -55 87 12 21 50 25 68 7z
m215 4 c3 -4 7 -27 8 -51 3 -42 2 -44 -28 -47 -38 -4 -62 18 -43 41 7 8 21 15
31 15 11 0 19 7 19 16 0 12 -7 15 -25 12 -24 -5 -32 2 -18 15 9 9 51 9 56 -1z
m375 -4 c7 -7 12 -21 12 -31 0 -16 -6 -19 -35 -15 -28 3 -35 1 -32 -11 2 -11
12 -15 35 -13 37 2 43 -15 8 -24 -38 -9 -66 11 -66 49 0 38 15 57 45 57 12 0
26 -5 33 -12z m146 -4 c3 -9 6 -32 6 -53 0 -35 -2 -37 -35 -38 -59 -2 -72 50
-14 59 29 4 23 23 -7 21 -23 -2 -31 7 -17 20 13 13 61 7 67 -9z m96 0 c0 -8
-9 -14 -20 -14 -17 0 -20 -7 -20 -40 0 -29 -4 -40 -15 -40 -11 0 -15 13 -15
54 l0 54 35 0 c23 0 35 -5 35 -14z m120 -40 c0 -73 -24 -70 -28 4 -2 42 0 52
12 52 13 0 16 -12 16 -56z m100 41 c0 -5 -10 -10 -23 -10 -17 0 -23 -7 -25
-27 -3 -28 3 -32 41 -29 27 3 20 -18 -10 -25 -48 -12 -83 55 -47 91 17 17 65
17 64 0z m50 -23 c0 -43 6 -53 26 -45 9 3 14 20 14 44 0 26 4 39 13 39 10 0
13 -14 12 -51 l-2 -51 -36 -4 c-43 -4 -57 14 -57 70 0 25 4 36 15 36 11 0 15
-11 15 -38z m230 19 c14 -28 12 -52 -7 -73 -20 -22 -46 -23 -67 -2 -19 18 -21
65 -4 82 19 19 66 15 78 -7z m89 4 c-1 -5 -10 -9 -21 -7 -27 5 -22 -15 7 -22
28 -7 34 -36 10 -56 -17 -14 -69 -5 -60 11 4 5 15 7 25 4 28 -9 32 11 5 23
-24 11 -33 41 -18 56 11 10 54 3 52 -9z m161 5 c0 -5 -4 -10 -10 -10 -5 0 -10
-8 -10 -18 0 -10 -12 -23 -27 -29 l-28 -11 26 -1 c36 -1 53 -22 36 -45 -9 -12
-23 -17 -47 -14 l-35 3 -1 55 c0 30 4 61 9 68 11 14 87 16 87 2z m94 -6 c21
-20 20 -53 -1 -76 -46 -51 -117 24 -73 77 16 20 54 19 74 -1z m56 -22 c0 -43
6 -53 26 -45 9 3 14 20 14 44 0 28 4 39 15 39 11 0 15 -13 15 -53 l0 -53 -40
-1 c-46 -2 -60 14 -60 71 0 25 4 36 15 36 11 0 15 -11 15 -38z m160 27 c0 -6
-9 -13 -20 -16 -16 -4 -20 -14 -20 -44 0 -28 -4 -39 -15 -39 -11 0 -15 13 -15
53 l0 54 35 1 c19 1 35 -3 35 -9z m158 -46 c2 -43 0 -53 -12 -53 -12 0 -16 11
-16 46 0 59 -24 55 -28 -4 -2 -29 -8 -42 -18 -42 -10 0 -14 12 -14 45 0 33 -4
45 -15 45 -11 0 -15 -12 -15 -45 0 -33 -4 -45 -15 -45 -11 0 -15 13 -15 54 l0
53 73 -1 72 -1 3 -52z m100 45 c7 -7 12 -20 12 -30 0 -14 -8 -18 -36 -18 -30
0 -34 -3 -25 -14 6 -7 22 -11 36 -8 27 5 35 -12 9 -22 -40 -16 -74 8 -74 53 0
32 16 51 45 51 12 0 26 -5 33 -12z m137 -77 c7 -12 -12 -24 -25 -16 -11 7 -4
25 10 25 5 0 11 -4 15 -9z"/>
<path d="M1704 546 c-10 -26 1 -51 21 -51 15 0 21 8 23 33 3 27 0 32 -18 32
-11 0 -23 -6 -26 -14z"/>
<path d="M1915 549 c-4 -5 -4 -21 -1 -35 10 -37 40 -28 44 14 3 26 0 32 -17
32 -11 0 -23 -5 -26 -11z"/>
<path d="M2074 546 c-10 -26 1 -51 21 -51 15 0 21 8 23 33 3 27 0 32 -18 32
-11 0 -23 -6 -26 -14z"/>
<path d="M1007 513 c-13 -12 -7 -23 13 -23 11 0 20 7 20 15 0 15 -21 21 -33 8z"/>
<path d="M1365 509 c-4 -6 -4 -13 -1 -16 8 -8 36 5 36 17 0 13 -27 13 -35 -1z"/>
<path d="M1595 550 c-4 -6 5 -10 19 -10 14 0 26 5 26 10 0 6 -9 10 -19 10 -11
0 -23 -4 -26 -10z"/>
<path d="M1817 513 c-13 -12 -7 -23 13 -23 11 0 20 7 20 15 0 15 -21 21 -33 8z"/>
<path d="M2180 550 c0 -5 12 -10 26 -10 14 0 23 4 19 10 -3 6 -15 10 -26 10
-10 0 -19 -4 -19 -10z"/>
<path d="M2335 509 c-4 -6 -4 -13 -1 -16 8 -8 36 5 36 17 0 13 -27 13 -35 -1z"/>
<path d="M2915 540 c-8 -25 11 -51 31 -43 20 8 14 57 -8 61 -10 2 -19 -5 -23
-18z"/>
<path d="M3160 545 c0 -8 7 -15 15 -15 8 0 15 7 15 15 0 8 -7 15 -15 15 -8 0
-15 -7 -15 -15z"/>
<path d="M3150 470 c0 -5 11 -10 25 -10 14 0 25 5 25 10 0 6 -11 10 -25 10
-14 0 -25 -4 -25 -10z"/>
<path d="M3265 540 c-8 -25 11 -51 31 -43 20 8 14 57 -8 61 -10 2 -19 -5 -23
-18z"/>
<path d="M3745 550 c-4 -6 5 -10 20 -10 15 0 24 4 20 10 -3 6 -12 10 -20 10
-8 0 -17 -4 -20 -10z"/>
<path d="M282 248 c-9 -4 874 -7 1962 -7 1089 -1 1976 2 1972 6 -10 10 -3910
11 -3934 1z"/>
<path d="M262 215 c7 -7 3960 -7 3966 0 3 3 -889 5 -1983 5 -1094 0 -1986 -2
-1983 -5z"/>
</g>
</svg>
