<?xml version="1.0" standalone="no"?>
<!DOCTYPE svg PUBLIC "-//W3C//DTD SVG 20010904//EN"
 "http://www.w3.org/TR/2001/REC-SVG-20010904/DTD/svg10.dtd">
<svg version="1.0" xmlns="http://www.w3.org/2000/svg"
 width="900.000000pt" height="300.000000pt" viewBox="0 0 900.000000 300.000000"
 preserveAspectRatio="xMidYMid meet">
<metadata>
Created by potrace 1.10, written by Peter Selinger 2001-2011
</metadata>
<g transform="translate(0.000000,300.000000) scale(0.100000,-0.100000)"
fill="#000000" stroke="none">
<path d="M7998 2576 c-16 -36 -32 -38 -89 -10 -69 35 -102 26 -132 -35 -24
-47 -7 -63 33 -32 l31 22 43 -20 c61 -30 94 -27 128 11 29 32 32 45 22 72 -9
23 -23 20 -36 -8z"/>
<path d="M1095 2572 c-6 -4 -10 -132 -10 -347 0 -215 4 -343 10 -347 17 -12
65 -9 66 5 0 6 0 90 -1 184 -1 188 3 207 58 248 21 16 43 20 98 20 80 0 95 -8
125 -68 18 -34 20 -57 19 -205 -1 -92 -1 -173 -1 -180 1 -9 12 -12 34 -10 l32
3 -4 203 c-4 219 -11 250 -63 291 -37 29 -97 51 -140 51 -41 0 -105 -27 -127
-54 -25 -29 -33 -4 -30 93 2 53 -1 102 -5 109 -8 13 -45 16 -61 4z"/>
<path d="M3317 2574 c-4 -4 -4 -45 0 -91 5 -67 3 -83 -8 -84 -8 0 -45 -1 -84
-2 -69 -2 -70 -2 -70 -29 1 -34 -23 -37 -50 -8 -29 32 -102 60 -156 60 -113 0
-223 -93 -263 -223 -9 -27 -26 -10 -26 25 0 29 -28 85 -60 120 -31 34 -137 78
-188 78 -59 0 -133 -30 -160 -65 -28 -35 -40 -31 -44 13 -2 30 -7 38 -26 40
-12 2 -24 -3 -26 -10 -3 -7 -6 -167 -8 -356 l-4 -343 23 -5 c43 -11 50 7 45
120 -6 137 -2 147 42 104 33 -32 119 -68 163 -68 36 0 118 33 156 63 49 38 87
98 87 136 0 35 17 50 27 24 39 -111 100 -179 185 -206 30 -9 65 -17 78 -17 36
0 122 33 148 58 33 29 52 28 52 -3 0 -30 19 -40 56 -31 24 6 26 10 21 44 -4
20 -7 120 -8 222 l-2 185 52 3 53 3 -3 -228 -2 -228 33 0 34 0 -3 228 -3 227
44 0 c62 0 87 30 53 63 -10 11 -27 14 -56 10 l-41 -6 3 89 4 89 -30 3 c-17 2
-34 0 -38 -4z m-855 -236 c25 -8 60 -31 88 -59 39 -39 48 -55 54 -95 3 -26 3
-70 0 -97 -6 -41 -15 -57 -55 -97 -42 -42 -55 -49 -102 -55 -30 -4 -71 -2 -93
4 -44 12 -114 68 -114 91 0 8 -7 24 -15 34 -22 29 -19 112 6 163 22 46 72 91
123 109 42 16 60 16 108 2z m573 -14 c20 -9 52 -37 72 -61 35 -43 37 -48 37
-122 0 -63 -5 -85 -22 -113 -86 -139 -287 -126 -353 23 -23 49 -25 128 -4 155
8 10 15 26 15 35 0 22 74 82 118 96 45 14 89 10 137 -13z"/>
<path d="M7205 2523 c-19 -18 -19 -22 3 -46 15 -17 17 -48 20 -269 3 -212 1
-254 -13 -274 -29 -45 -21 -52 63 -56 42 -2 85 0 95 5 15 7 16 11 3 35 -23 47
-39 228 -27 317 6 44 12 130 13 190 l3 110 -73 1 c-52 2 -77 -2 -87 -13z"/>
<path d="M5160 2488 c-45 -13 -57 -23 -81 -70 -19 -37 -20 -52 -13 -241 7
-210 14 -246 54 -282 18 -16 36 -20 90 -20 61 0 71 3 96 28 28 28 28 29 28
165 l1 137 -58 3 c-44 2 -59 0 -63 -13 -10 -26 4 -61 30 -73 21 -9 23 -16 20
-59 -2 -26 -3 -56 -4 -65 0 -10 -11 -25 -24 -33 -20 -14 -29 -14 -48 -4 -13 7
-26 17 -30 23 -4 6 -8 95 -8 198 0 180 1 188 22 208 44 41 85 14 90 -60 3 -44
4 -45 38 -45 l35 0 -2 73 c-2 62 -6 78 -25 97 -19 19 -89 47 -108 44 -3 0 -21
-5 -40 -11z"/>
<path d="M4423 2481 c-4 -3 -8 -140 -8 -304 0 -257 2 -297 15 -298 8 0 58 0
110 0 95 2 95 2 128 36 32 34 32 36 32 135 0 99 0 100 -30 121 l-29 22 29 38
c27 33 30 44 30 111 0 71 -2 76 -32 105 -32 29 -38 31 -135 35 -56 3 -105 2
-110 -1z m168 -91 c15 -9 19 -22 19 -70 0 -52 -3 -62 -24 -76 -14 -8 -35 -14
-48 -12 -21 3 -23 9 -26 72 -2 38 -1 75 2 83 6 16 49 17 77 3z m17 -258 c6 -9
12 -43 12 -78 0 -76 -15 -96 -69 -92 l-36 3 -3 92 c-2 81 -1 92 15 95 30 6 67
-3 81 -20z"/>
<path d="M4823 2481 c-5 -3 -15 -49 -22 -101 -7 -52 -19 -125 -27 -162 -8 -37
-14 -95 -14 -130 0 -35 -6 -81 -14 -103 -8 -22 -17 -54 -21 -72 -6 -29 -4 -33
20 -39 15 -4 37 -2 50 4 20 9 24 20 27 64 l3 53 53 3 c49 3 53 1 63 -25 6 -15
8 -38 6 -51 -8 -43 46 -67 94 -42 18 10 18 13 5 39 -14 27 -26 95 -46 261 -4
41 -13 95 -19 120 -6 25 -11 73 -11 107 0 49 -4 64 -17 72 -20 10 -115 12
-130 2z m88 -242 c4 -57 12 -117 18 -133 15 -38 4 -48 -50 -44 -40 3 -44 5
-41 28 1 14 6 68 10 120 15 173 53 191 63 29z"/>
<path d="M5388 2483 c-2 -4 -1 -131 2 -280 l5 -273 28 -27 c25 -25 34 -28 98
-28 69 0 72 1 100 34 37 45 40 74 37 346 l-3 230 -40 0 -40 0 -5 -259 c-5
-247 -6 -259 -25 -266 -27 -10 -65 5 -66 27 0 10 -1 126 -2 258 l-2 240 -42 3
c-22 2 -43 -1 -45 -5z"/>
<path d="M5715 2475 c-9 -7 -10 -40 -4 -125 5 -63 7 -191 6 -285 -3 -166 -3
-170 -26 -181 -21 -11 -42 -37 -56 -74 -4 -8 -13 -29 -22 -47 -20 -41 -11 -67
20 -59 12 3 28 6 35 6 7 0 52 39 98 86 l85 86 57 -4 57 -3 0 45 0 45 -77 0
c-42 0 -81 5 -85 10 -5 6 -7 46 -4 90 l6 80 63 -3 62 -4 0 51 0 52 -65 -7
c-46 -5 -65 -3 -66 5 -4 50 -1 139 4 148 7 11 247 16 263 5 5 -4 7 -107 4
-252 -3 -141 -1 -251 4 -258 6 -8 25 -12 50 -10 l41 3 2 250 c1 138 2 256 2
263 1 9 26 12 91 12 65 0 90 -3 90 -12 0 -7 2 -125 3 -263 l2 -250 45 0 45 0
0 260 0 260 39 3 c23 2 45 11 52 20 7 9 15 14 19 10 4 -3 6 -128 6 -276 -1
-149 2 -272 6 -274 4 -2 65 -2 136 0 l127 3 0 46 0 46 -78 -6 c-42 -3 -83 -2
-90 2 -9 5 -12 32 -10 92 l3 84 70 0 70 0 0 45 0 45 -70 0 -70 0 0 80 0 80 88
-3 87 -4 0 52 0 53 -72 -7 c-68 -6 -659 -8 -917 -3 -65 1 -119 -2 -126 -8z"/>
<path d="M7512 2427 c-19 -7 -42 -24 -53 -37 -45 -58 -50 -82 -51 -238 -1
-143 0 -151 24 -193 34 -58 58 -79 101 -86 97 -15 161 36 162 131 0 48 -2 51
-25 51 -23 0 -25 -4 -28 -47 -2 -35 -9 -52 -25 -63 -61 -43 -92 2 -92 130 l0
80 85 5 85 5 -3 79 c-2 48 -9 92 -20 114 -31 65 -96 93 -160 69z m78 -144 l0
-73 -35 0 -35 0 0 70 c0 58 4 74 22 92 20 20 22 20 35 3 8 -12 13 -46 13 -92z"/>
<path d="M8189 2426 c-69 -21 -112 -84 -91 -131 9 -20 19 -25 46 -25 53 0 66
8 66 45 0 31 25 65 48 65 17 0 42 -42 42 -71 0 -26 -39 -69 -62 -69 -20 0 -94
-40 -115 -62 -19 -20 -22 -36 -25 -138 -3 -108 -2 -116 20 -140 33 -35 100
-35 137 0 l26 25 18 -24 c23 -30 105 -41 135 -18 19 14 19 16 3 40 -15 23 -17
55 -17 225 l0 199 -32 35 c-23 25 -47 39 -80 47 -55 13 -71 13 -119 -3z m109
-322 c-1 -95 -3 -109 -24 -133 -22 -25 -22 -26 -43 -7 -18 16 -21 31 -21 100
0 96 22 146 65 146 l25 0 -2 -106z"/>
<path d="M7719 2420 c-12 -8 -11 -14 4 -39 15 -26 17 -52 13 -239 -3 -148 -8
-216 -17 -230 -7 -12 -11 -23 -9 -26 3 -2 40 -6 82 -7 92 -4 107 5 84 48 -11
23 -16 76 -20 209 -5 155 -4 180 11 196 9 10 24 18 33 18 37 0 40 -18 40 -247
l0 -223 70 0 c74 0 80 5 54 45 -14 21 -15 53 -11 239 l6 214 -25 27 c-22 24
-31 27 -65 22 -23 -3 -48 -12 -58 -21 -22 -20 -40 -20 -55 -2 -13 16 -117 28
-137 16z"/>
<path d="M695 2401 c-63 -34 -98 -66 -132 -118 -32 -51 -34 -59 -35 -139 0
-93 18 -144 70 -199 44 -47 80 -66 159 -88 84 -22 223 44 267 126 10 20 16 43
13 51 -11 29 -46 16 -101 -38 -60 -59 -102 -72 -182 -60 -63 9 -125 71 -148
147 -17 54 -17 60 -1 112 10 30 29 68 44 86 30 37 98 69 146 69 64 0 151 -53
167 -101 2 -6 19 -11 38 -12 47 -3 50 22 8 76 -41 53 -53 62 -107 87 -54 25
-161 26 -206 1z"/>
<path d="M1716 2389 c-59 -30 -106 -66 -106 -83 0 -5 -6 -17 -14 -25 -17 -20
-36 -98 -36 -148 0 -95 61 -205 133 -241 84 -42 128 -48 196 -27 39 12 74 30
96 52 36 35 41 34 47 -17 2 -19 9 -25 28 -25 l25 0 0 265 0 265 -25 0 c-22 0
-25 -5 -28 -37 -4 -45 -14 -47 -50 -10 -69 69 -168 81 -266 31z m166 -52 c84
-29 148 -115 148 -197 0 -82 -68 -180 -138 -200 -86 -23 -142 -9 -202 51 -40
40 -49 56 -55 97 -12 89 2 137 54 191 64 65 122 82 193 58z"/>
<path d="M3636 2400 c-46 -21 -136 -96 -136 -112 0 -6 -8 -20 -17 -31 -15 -16
-18 -38 -18 -121 1 -92 3 -105 27 -142 39 -60 104 -110 171 -129 54 -16 62
-16 107 -1 27 9 54 16 61 16 7 0 27 14 45 31 33 32 59 32 49 0 -8 -25 19 -45
50 -37 l24 6 3 252 c2 165 -1 256 -8 265 -18 26 -58 12 -69 -24 -11 -39 -13
-40 -45 -10 -64 57 -167 73 -244 37z m147 -63 c41 -15 93 -57 120 -99 12 -20
17 -48 17 -101 0 -67 -3 -78 -32 -118 -43 -60 -66 -76 -115 -84 -99 -15 -178
23 -224 109 -41 77 -14 199 58 253 65 50 114 61 176 40z"/>
<path d="M4068 1773 c-2 -60 -3 -137 -3 -173 0 -60 -16 -96 -23 -51 -2 11 -14
27 -28 35 -21 15 -27 15 -52 2 -43 -24 -68 -48 -94 -91 -29 -46 -54 -70 -61
-58 -5 9 16 111 39 184 8 25 16 75 17 111 2 53 -2 70 -17 87 -11 11 -25 21
-31 21 -20 0 -45 -132 -45 -234 0 -50 -4 -107 -10 -126 -5 -19 -13 -75 -16
-125 -5 -70 -3 -98 9 -127 24 -58 40 -48 60 40 10 42 24 91 32 107 7 17 16 37
20 45 20 51 47 80 73 80 18 0 11 -109 -9 -160 -25 -63 -71 -134 -108 -167 -44
-39 -99 -54 -113 -29 -5 9 -15 16 -22 16 -31 0 -77 58 -103 130 -14 38 -14 37
65 98 27 20 92 152 92 185 0 24 -7 36 -31 55 -22 17 -69 -7 -125 -64 -68 -70
-86 -114 -86 -220 -1 -101 11 -131 69 -185 60 -56 228 -85 267 -46 10 9 22 17
27 17 14 0 80 62 90 85 5 11 13 27 18 35 18 31 31 66 39 104 17 89 49 24 36
-74 -5 -37 -2 -63 11 -98 23 -62 42 -82 77 -82 33 0 34 2 11 37 -16 24 -18 52
-17 223 1 148 5 208 18 249 9 32 16 90 16 141 0 77 -2 89 -23 108 -13 12 -33
22 -45 22 -21 0 -22 -4 -24 -107z m-415 -266 c-11 -58 -57 -125 -85 -127 -21
-1 16 126 47 160 25 28 46 9 38 -33z"/>
<path d="M7034 1862 c-26 -22 -36 -59 -26 -97 11 -39 63 -65 129 -65 l53 0 0
59 c0 49 -4 65 -26 90 -21 26 -33 31 -67 31 -25 -1 -51 -8 -63 -18z"/>
<path d="M6705 1824 c-10 -11 -15 -35 -15 -79 0 -73 -10 -84 -85 -94 l-40 -6
-3 -62 -3 -63 46 0 45 0 0 -169 0 -169 32 -27 c30 -25 34 -26 127 -22 114 6
78 6 289 0 l172 -4 -1 38 c-3 80 -11 98 -49 103 l-35 5 0 185 0 185 -130 0
c-71 0 -135 4 -142 8 -6 4 -31 3 -55 -2 -24 -6 -46 -7 -50 -3 -4 4 -8 48 -10
97 l-3 90 -37 2 c-23 1 -44 -4 -53 -13z m272 -260 c42 13 46 -3 44 -179 -1
-91 -5 -173 -8 -181 -7 -20 -51 -17 -79 5 -20 16 -35 18 -79 14 l-54 -6 -3
159 c-2 88 0 166 4 175 5 12 18 15 61 11 35 -3 57 0 62 7 5 9 10 9 20 1 8 -7
22 -9 32 -6z"/>
<path d="M5235 1654 c-16 -9 -40 -28 -52 -42 -21 -25 -22 -25 -28 -7 -14 45
-17 46 -132 48 -122 2 -123 2 -123 -53 0 -34 12 -43 59 -44 l36 -1 3 -166 c3
-184 1 -191 -61 -193 -29 -1 -32 -4 -35 -34 l-3 -32 178 2 178 3 3 64 c4 75
-4 84 -65 75 l-43 -6 0 109 c0 116 12 159 53 196 36 31 56 13 37 -34 -10 -24
-10 -33 4 -54 16 -24 22 -26 74 -23 55 3 57 4 55 31 -2 26 0 27 47 27 27 0 51
-3 53 -7 3 -5 1 -61 -3 -127 -8 -135 0 -188 38 -228 24 -27 30 -28 115 -28 84
0 91 2 128 31 42 33 59 31 59 -7 l0 -24 115 0 115 0 11 26 c17 46 4 64 -47 64
l-44 0 2 187 3 188 30 5 c24 4 30 10 30 30 l0 25 -110 -1 -110 -1 4 -170 c4
-177 1 -193 -42 -240 -17 -20 -31 -23 -88 -23 l-67 0 6 209 c6 246 16 229
-128 221 l-95 -5 -11 -55 -11 -55 -7 47 c-7 39 -14 51 -41 68 -38 24 -50 24
-90 4z"/>
<path d="M6192 1651 c-29 -10 -67 -31 -85 -49 -30 -31 -32 -36 -32 -106 0 -84
11 -104 79 -135 54 -25 142 -51 173 -51 44 0 83 -27 83 -59 0 -63 -141 -63
-222 0 -63 51 -138 48 -122 -4 4 -12 7 -35 8 -51 2 -41 37 -57 141 -67 122
-11 223 0 267 28 61 38 83 115 55 195 -13 38 -54 78 -79 78 -8 0 -19 5 -26 12
-6 6 -33 15 -59 19 -55 9 -131 28 -153 39 -22 11 -24 49 -3 65 39 30 160 12
215 -33 9 -8 32 -12 55 -10 l38 3 0 60 0 60 -33 -2 c-18 0 -41 -8 -51 -17 -14
-13 -19 -13 -32 -2 -22 21 -96 46 -132 45 -17 -1 -56 -9 -85 -18z"/>
<path d="M7455 1651 c-143 -53 -212 -216 -154 -363 57 -145 145 -185 362 -164
l112 11 0 55 0 55 -48 3 c-36 2 -54 -2 -74 -17 -28 -22 -84 -28 -126 -12 -13
5 -34 26 -46 46 -18 30 -21 52 -21 134 0 75 4 101 15 111 8 7 15 17 15 22 0
25 46 47 98 48 48 0 52 -2 52 -24 0 -13 -7 -29 -15 -36 -8 -7 -15 -25 -15 -41
0 -41 48 -69 118 -69 57 0 55 -3 52 78 -4 115 -71 172 -210 178 -45 2 -81 -3
-115 -15z"/>
<path d="M7928 1651 c-64 -30 -76 -47 -83 -117 -9 -81 1 -96 57 -89 63 8 93
26 96 58 2 17 -4 37 -13 48 -19 20 -14 49 9 49 44 0 122 -25 138 -44 22 -27
23 -69 1 -87 -30 -23 -62 -39 -81 -39 -10 0 -45 -9 -77 -20 -134 -46 -155 -65
-155 -136 0 -71 45 -134 105 -147 51 -11 140 0 156 19 6 8 18 14 25 14 8 0 14
5 14 10 0 19 39 10 71 -17 31 -26 39 -28 117 -26 46 1 90 7 97 13 13 11 25 85
17 107 -3 9 -21 11 -63 6 l-59 -6 0 157 c0 154 0 158 -26 192 -42 54 -99 74
-213 73 -69 0 -106 -6 -133 -18z m220 -324 c4 -58 -15 -93 -61 -112 -56 -23
-117 17 -117 77 0 55 59 89 150 84 23 -1 25 -6 28 -49z"/>
<path d="M3264 1642 c-22 -14 -61 -88 -77 -147 -10 -33 -22 -74 -28 -91 -5
-18 -12 -68 -16 -113 -5 -68 -3 -88 13 -121 22 -46 51 -63 80 -47 27 15 41 34
72 100 15 31 30 57 35 57 11 0 23 -37 31 -94 9 -58 47 -122 81 -138 14 -6 27
-9 30 -6 3 3 -6 39 -20 82 -31 95 -35 248 -8 332 16 51 16 55 -2 74 -10 11
-30 20 -45 20 -25 0 -28 -4 -33 -47 -8 -64 -30 -140 -45 -155 -7 -7 -12 -20
-12 -29 0 -9 -7 -22 -15 -29 -8 -7 -15 -18 -15 -26 0 -13 -30 -34 -49 -34 -17
0 -13 133 5 208 18 72 58 167 75 177 7 5 6 11 -2 21 -12 15 -37 18 -55 6z"/>
<path d="M4275 1613 c-27 -7 -64 -41 -82 -77 -14 -27 -14 -31 2 -42 16 -12 16
-16 -5 -71 -39 -104 -25 -231 32 -293 48 -54 115 -32 172 55 55 85 71 139 71
245 0 101 -8 123 -61 163 -24 18 -95 29 -129 20z m104 -127 c30 -48 30 -165 0
-221 -21 -38 -54 -75 -69 -75 -18 0 -58 61 -69 107 -10 40 -10 65 0 115 14 76
39 108 85 108 26 0 36 -7 53 -34z"/>
<path d="M3017 1569 c-46 -39 -65 -66 -88 -121 -6 -16 -15 -25 -20 -22 -14 8
-11 55 8 107 20 57 11 75 -30 56 -36 -16 -65 -80 -77 -170 -5 -41 -14 -92 -20
-114 -5 -22 -9 -119 -9 -215 0 -175 0 -175 27 -215 16 -23 36 -40 47 -40 18 0
19 11 20 195 0 192 6 235 41 315 7 17 15 37 19 45 20 51 66 110 86 110 23 0
25 -39 5 -120 -21 -86 -53 -147 -103 -197 -13 -12 -23 -27 -23 -32 0 -56 145
50 176 129 3 8 10 24 15 35 29 66 55 239 40 271 -17 38 -60 32 -114 -17z"/>
<path d="M1518 1553 c-9 -2 -26 -19 -38 -38 -16 -26 -30 -35 -61 -40 -22 -4
-52 -17 -67 -30 -21 -18 -32 -21 -46 -13 -25 14 -79 -24 -203 -145 -44 -43
-53 -48 -59 -33 -5 13 7 32 45 70 28 28 51 57 51 63 0 15 -35 26 -57 19 -20
-7 -100 -121 -105 -150 -2 -11 -21 -30 -43 -42 -51 -29 -100 -31 -115 -5 -16
30 -13 37 28 56 86 42 99 49 130 78 40 39 43 79 7 103 -23 15 -28 15 -76 -2
-63 -23 -120 -78 -157 -154 -22 -44 -37 -60 -72 -77 -54 -27 -68 -28 -98 -7
-33 23 -25 60 20 97 34 28 40 29 65 18 26 -12 30 -10 66 30 30 33 37 49 35 73
-4 44 -38 45 -115 4 -98 -52 -150 -100 -158 -147 -8 -51 2 -100 27 -131 17
-21 28 -25 74 -24 44 0 60 5 92 32 l40 31 32 -36 c31 -34 35 -35 81 -30 45 6
95 28 111 52 5 6 17 -2 31 -19 30 -37 45 -32 96 38 57 77 86 106 105 106 21 0
20 -11 -1 -41 -31 -42 -43 -68 -43 -92 0 -51 46 -61 100 -22 40 30 60 32 60 7
0 -21 30 -52 49 -52 18 0 71 30 102 58 22 20 31 22 48 13 12 -7 21 -18 21 -26
0 -36 114 -28 168 13 l32 24 21 -26 c11 -14 26 -26 32 -26 7 0 25 19 42 43 45
64 106 127 122 127 17 0 17 1 -22 -72 -25 -49 -28 -59 -17 -82 18 -39 62 -35
113 11 l40 37 27 -32 c24 -27 34 -32 73 -32 37 0 51 5 75 30 20 20 39 30 61
30 63 0 134 63 104 93 -8 8 -18 4 -35 -12 -15 -14 -32 -21 -40 -18 -20 8 -20
23 -1 31 11 4 15 22 15 75 0 61 -3 70 -23 84 -21 14 -28 13 -74 -2 -96 -32
-159 -98 -177 -183 -8 -35 -39 -53 -65 -38 -18 9 -18 12 -5 39 8 16 32 49 54
72 45 50 54 93 20 104 -11 3 -26 3 -34 -2 -19 -11 -107 -86 -173 -147 -40 -37
-54 -45 -58 -33 -4 9 14 35 50 72 44 46 53 60 44 71 -31 38 -98 -14 -145 -112
-19 -41 -35 -59 -64 -74 -55 -28 -94 -26 -108 5 -10 21 -8 26 17 45 16 11 37
20 48 20 10 0 40 19 66 42 72 61 82 103 31 126 -30 14 -95 -9 -148 -53 -44
-36 -96 -114 -96 -143 0 -23 -60 -65 -86 -60 -34 6 -38 33 -15 79 52 101 59
109 97 109 23 0 94 59 94 78 0 7 -6 22 -12 33 -10 17 -10 23 0 26 17 7 15 30
-4 37 -17 6 -19 6 -46 -1z m-574 -162 c7 -11 -60 -78 -85 -84 -33 -9 -35 21
-3 46 53 42 79 54 88 38z m753 -8 c5 -13 -65 -70 -92 -75 -34 -6 -22 24 24 59
43 33 61 37 68 16z m-320 -19 c2 -6 -19 -35 -47 -65 -27 -29 -50 -57 -50 -61
0 -15 -42 -30 -53 -19 -15 15 12 61 67 119 39 41 74 52 83 26z m857 -23 c3 -4
-1 -17 -9 -27 -8 -10 -15 -35 -15 -55 0 -45 -27 -72 -67 -67 -26 3 -28 6 -27
42 1 33 9 47 42 78 40 37 65 47 76 29z"/>
<path d="M4515 1070 c-4 -6 -4 -21 -1 -33 7 -31 10 -186 3 -194 -4 -3 -22 6
-41 21 -41 31 -85 34 -129 9 -62 -36 -86 -73 -102 -163 -14 -73 -2 -172 27
-225 45 -84 152 -106 225 -46 l38 32 3 -31 c3 -30 3 -30 68 -30 l65 0 -8 68
c-9 78 -10 190 -3 427 l5 170 -72 3 c-44 2 -74 -1 -78 -8z m-11 -325 c11 -17
16 -47 16 -103 0 -65 -3 -82 -20 -100 -20 -22 -65 -29 -85 -14 -47 33 -59 134
-25 202 18 36 24 40 59 40 30 0 42 -5 55 -25z"/>
<path d="M5589 1063 c0 -5 0 -152 0 -328 l0 -320 73 0 c52 0 73 4 72 13 -1 6
-2 154 -2 327 l-2 315 -70 0 c-38 0 -70 -3 -71 -7z"/>
<path d="M6703 1018 c-19 -21 -20 -28 -12 -76 11 -58 2 -82 -31 -82 -32 0 -50
-12 -50 -31 0 -25 26 -35 46 -19 32 27 37 -2 32 -205 l-4 -196 24 -6 c12 -3
26 -2 30 2 4 4 7 102 7 218 l0 212 60 13 c33 7 75 20 94 28 18 8 35 13 38 10
2 -2 -6 -21 -19 -43 -61 -101 -87 -183 -90 -291 -3 -74 -1 -82 22 -107 39 -42
65 -48 114 -25 62 28 146 106 146 136 0 28 -31 46 -38 23 -3 -8 -27 -35 -54
-61 -54 -52 -101 -69 -125 -45 -13 13 -13 17 3 34 113 114 174 227 174 322 0
48 -4 65 -20 81 -24 24 -47 25 -72 4 -14 -14 -20 -14 -33 -4 -16 13 -64 10
-132 -10 -65 -19 -77 -10 -69 53 5 36 3 57 -6 70 -13 17 -15 17 -35 -5z m322
-168 c13 -21 -35 -138 -101 -247 -34 -58 -73 -55 -49 4 8 19 15 42 15 50 0 21
49 133 78 181 15 23 46 30 57 12z"/>
<path d="M933 1013 c-29 -6 -29 -19 -2 -34 18 -9 20 -16 14 -47 -4 -20 -13
-45 -21 -56 -8 -11 -14 -32 -14 -46 0 -14 -7 -34 -15 -44 -8 -11 -15 -30 -15
-42 0 -12 -7 -35 -15 -50 -8 -16 -15 -39 -15 -51 0 -12 -4 -25 -10 -28 -5 -3
-10 -24 -10 -46 0 -72 -25 -42 -75 91 -9 25 -23 60 -31 78 -8 18 -14 39 -14
47 0 7 -6 26 -14 42 -53 107 -57 139 -20 153 46 18 14 30 -77 30 -70 0 -89 -3
-89 -14 0 -8 9 -16 21 -18 25 -4 89 -115 89 -155 0 -10 7 -27 15 -37 8 -11 15
-30 15 -42 0 -13 4 -25 10 -29 5 -3 14 -20 19 -38 5 -18 19 -57 31 -87 12 -30
24 -64 27 -75 2 -11 8 -29 12 -40 5 -11 12 -33 17 -50 5 -16 14 -29 19 -29 17
2 44 58 44 92 1 19 7 35 16 38 8 4 15 18 15 34 0 15 9 37 20 50 11 13 20 35
20 50 0 15 7 33 15 40 8 7 15 24 15 39 0 14 7 35 15 45 8 11 15 30 15 42 0 12
7 35 15 50 8 16 15 36 15 45 0 19 44 69 60 69 6 0 20 -5 31 -10 18 -10 19 -24
19 -271 0 -222 -2 -260 -15 -264 -49 -16 -49 -15 -36 -28 12 -12 157 -15 169
-2 4 3 -5 16 -21 27 l-27 20 0 249 0 249 25 16 c39 26 20 35 -68 34 -45 -1
-102 1 -127 3 -25 3 -55 3 -67 0z"/>
<path d="M1375 1013 c-126 -4 -131 -6 -100 -37 l25 -25 0 -241 0 -241 -26 -24
c-21 -19 -23 -26 -12 -30 13 -5 284 -9 348 -6 14 1 42 -1 62 -5 47 -8 88 2 88
20 0 8 -11 16 -23 20 -24 6 -24 6 -30 218 -4 117 -3 216 1 220 4 4 30 -20 57
-54 28 -34 59 -72 70 -84 11 -12 37 -40 58 -63 81 -88 203 -227 223 -255 32
-45 48 -27 40 48 -8 80 -8 73 4 136 6 30 10 120 9 199 l-2 145 27 21 c33 27
33 32 -5 40 -45 10 -119 -3 -119 -21 0 -8 9 -14 20 -14 11 0 22 -6 25 -12 2
-7 5 -106 7 -220 2 -146 0 -208 -8 -208 -6 0 -34 28 -62 63 -28 34 -66 78 -84
97 -18 20 -80 89 -138 155 -58 66 -112 127 -121 136 -18 19 -160 28 -334 22z
m192 -67 l28 -26 3 22 c6 38 20 44 46 19 l25 -24 -5 -246 c-3 -135 -7 -247 -7
-248 -1 0 -11 -3 -22 -5 -16 -2 -21 3 -23 30 -4 37 -27 43 -36 8 -5 -21 -12
-24 -96 -30 -50 -4 -95 -4 -100 -1 -10 6 -13 512 -3 528 3 6 38 7 84 4 66 -4
82 -9 106 -31z"/>
<path d="M1550 761 c0 -10 -45 -26 -102 -36 -73 -12 -57 -45 23 -45 31 0 55
-7 71 -20 14 -10 28 -16 32 -13 3 3 6 33 6 65 0 45 -3 58 -15 58 -8 0 -15 -4
-15 -9z"/>
<path d="M2435 990 c-8 -16 -15 -42 -15 -58 0 -17 -6 -32 -14 -35 -8 -3 -18
-23 -22 -44 -4 -20 -13 -44 -21 -51 -7 -7 -13 -26 -13 -42 0 -15 -7 -41 -15
-56 -8 -16 -15 -38 -15 -49 0 -11 -7 -29 -15 -39 -8 -11 -15 -32 -15 -47 0
-15 -4 -31 -10 -34 -5 -3 -10 -17 -10 -31 0 -16 -12 -37 -32 -55 -28 -25 -31
-31 -18 -40 16 -10 105 -7 117 5 4 3 -3 16 -16 27 -23 22 -22 45 5 84 8 11 14
32 14 48 0 15 7 38 15 50 13 20 22 22 106 22 72 0 93 -3 99 -15 13 -27 32 -84
42 -129 10 -41 8 -46 -12 -63 -26 -21 -20 -24 62 -31 88 -8 131 11 74 33 -29
11 -73 101 -93 190 -3 14 -12 34 -19 45 -8 11 -14 31 -14 45 0 14 -5 31 -11
37 -6 6 -14 26 -19 44 -9 38 -27 88 -47 136 -7 17 -13 40 -13 51 0 19 -18 32
-46 32 -7 0 -20 -13 -29 -30z m40 -107 c4 -16 13 -43 21 -61 8 -18 14 -41 14
-50 0 -10 7 -27 15 -38 8 -10 15 -27 15 -36 0 -16 -10 -18 -72 -18 -70 0 -119
15 -90 27 6 2 12 14 12 26 0 12 7 35 15 51 8 15 15 48 15 71 0 42 4 48 42 54
4 0 10 -11 13 -26z"/>
<path d="M6107 901 c-33 -29 -97 -138 -97 -165 0 -8 -7 -27 -15 -42 -8 -16
-15 -41 -15 -56 0 -15 -5 -47 -12 -71 -20 -76 29 -167 90 -167 25 0 112 82
112 105 0 3 9 27 21 52 23 51 39 45 39 -14 0 -46 58 -103 105 -103 18 0 37 5
40 10 11 18 25 10 25 -14 0 -23 26 -43 39 -30 3 3 9 51 12 107 9 138 22 202
55 266 29 56 92 111 126 111 31 0 18 34 -15 38 -55 6 -117 -51 -166 -152 -31
-63 -42 -45 -34 51 6 77 -4 107 -34 96 -16 -6 -15 -74 4 -330 6 -82 6 -82 -21
-92 -37 -15 -70 1 -89 42 -26 54 -21 230 8 325 7 22 6 23 -27 17 -30 -6 -40
-3 -61 19 -33 33 -49 33 -90 -3z m77 -50 c26 -28 23 -141 -4 -206 -46 -106
-59 -131 -83 -157 -29 -32 -49 -35 -67 -13 -17 20 -6 162 15 202 8 15 15 36
15 45 0 9 4 19 9 22 5 3 12 18 16 33 8 35 52 93 69 93 7 0 21 -9 30 -19z"/>
<path d="M7177 906 c-104 -64 -91 -128 54 -266 95 -90 108 -124 64 -164 -33
-31 -94 -35 -144 -10 -30 15 -34 15 -49 0 -16 -16 -15 -18 8 -36 14 -11 40
-22 58 -26 50 -10 128 1 147 19 17 17 45 11 60 -13 3 -6 18 -10 32 -10 38 0
103 72 132 148 25 64 41 67 41 9 0 -55 56 -116 107 -117 19 0 36 -7 41 -16 5
-9 18 -14 33 -12 23 3 24 6 30 113 3 61 11 123 17 138 7 16 12 39 12 52 0 35
47 123 76 142 23 14 27 14 40 1 26 -25 34 -85 34 -251 0 -90 5 -167 10 -178
11 -20 45 -26 54 -10 4 5 19 3 36 -6 38 -18 66 -10 103 31 30 32 63 96 69 131
5 30 21 24 29 -12 10 -51 41 -95 82 -116 l38 -20 41 29 c41 28 80 82 71 97
-10 17 -44 6 -55 -18 -12 -27 -41 -39 -79 -33 -32 4 -52 49 -57 125 -4 57 11
204 25 239 8 21 -28 30 -39 10 -9 -16 -13 -14 -40 18 -37 45 -62 46 -102 4
-52 -54 -82 -118 -101 -210 -3 -16 -9 -28 -14 -28 -9 0 -21 48 -21 86 0 46
-22 120 -43 146 -12 15 -36 30 -52 34 -25 5 -36 0 -68 -32 -20 -20 -37 -43
-37 -49 0 -7 -8 -23 -19 -36 -10 -13 -21 -33 -24 -44 -3 -11 -4 7 -3 40 1 54
-1 60 -19 60 -19 0 -20 -8 -23 -182 -3 -196 -4 -200 -57 -187 -48 12 -60 48
-60 174 0 68 6 134 14 163 15 53 10 67 -19 49 -17 -10 -24 -8 -51 18 -18 16
-40 30 -50 30 -54 0 -153 -169 -171 -294 -2 -11 -5 -19 -8 -19 -3 0 -42 38
-87 85 -98 100 -105 123 -46 158 44 26 63 19 75 -28 14 -55 48 -36 48 26 0 33
-43 72 -79 72 -14 0 -43 -11 -64 -24z m370 -71 c12 -34 5 -153 -10 -182 -8
-15 -29 -58 -46 -94 -18 -37 -43 -77 -57 -90 -23 -22 -24 -22 -44 -4 -16 15
-20 31 -20 84 0 37 6 78 14 93 8 15 17 41 21 59 8 36 58 134 82 161 12 14 19
15 34 5 11 -7 22 -21 26 -32z m696 -9 c12 -24 17 -51 14 -70 -11 -61 -24 -111
-35 -131 -6 -11 -21 -42 -34 -69 -13 -27 -36 -62 -51 -77 -27 -27 -29 -28 -53
-13 -21 14 -24 24 -24 78 0 39 5 69 15 82 8 10 15 27 15 37 0 10 9 39 20 65
65 149 98 173 133 98z"/>
<path d="M3112 863 c-106 -52 -160 -168 -131 -285 31 -125 90 -169 225 -170
47 0 88 3 91 6 3 3 2 29 -3 58 l-9 53 -40 -3 c-63 -5 -93 11 -115 64 -24 56
-25 66 -3 112 27 58 51 73 105 69 54 -5 63 2 73 56 10 54 -4 67 -79 66 -44 0
-75 -7 -114 -26z"/>
<path d="M3400 870 c-42 -17 -45 -20 -42 -52 4 -52 20 -61 71 -43 24 8 55 15
70 15 38 0 73 -27 69 -53 -3 -19 -11 -23 -68 -28 -115 -10 -180 -67 -180 -158
0 -31 6 -55 15 -65 8 -8 15 -19 15 -24 0 -4 11 -19 25 -32 20 -19 36 -23 85
-23 50 0 65 4 86 24 l25 24 18 -23 c15 -20 24 -23 70 -20 l53 3 -1 158 c-2
160 -3 169 -27 223 -38 86 -169 120 -284 74z m170 -245 c15 -18 5 -83 -17
-107 -9 -10 -30 -18 -48 -18 -69 0 -70 106 -2 128 45 14 53 14 67 -3z"/>
<path d="M3779 884 c-1 -5 -2 -114 -3 -241 l-1 -233 73 0 72 0 0 160 c0 147 2
162 20 180 25 25 62 26 83 2 14 -16 17 -44 17 -180 l0 -162 74 0 74 0 -4 158
c-6 207 -16 254 -65 293 -52 41 -110 41 -162 -2 -40 -33 -67 -33 -67 1 0 14
-7 20 -24 20 -13 0 -38 3 -55 6 -17 4 -31 3 -32 -2z"/>
<path d="M4834 871 c-60 -33 -89 -72 -111 -151 -16 -57 -16 -99 -1 -158 15
-61 33 -88 82 -123 37 -28 44 -29 152 -29 130 0 142 7 122 73 -14 45 -24 49
-82 30 -43 -14 -49 -14 -93 4 -51 21 -70 42 -60 67 6 15 19 16 115 10 135 -8
152 -1 152 59 -2 142 -80 238 -192 236 -29 -1 -67 -9 -84 -18z m119 -97 c21
-20 27 -33 25 -57 l-3 -32 -65 0 c-64 0 -65 1 -68 28 -2 20 5 35 27 57 36 37
48 37 84 4z"/>
<path d="M5208 871 c-51 -17 -57 -29 -36 -78 7 -15 13 -30 14 -32 2 -1 26 5
54 14 81 27 140 6 140 -49 0 -13 -12 -16 -60 -16 -86 0 -139 -30 -173 -99 -32
-64 -16 -140 37 -182 22 -17 41 -22 88 -22 52 0 63 3 79 24 l19 24 18 -23 c16
-20 25 -23 77 -20 54 3 60 5 56 23 -2 11 -6 94 -10 185 -5 149 -8 168 -28 196
-50 71 -166 94 -275 55z m180 -280 c3 -34 -2 -49 -19 -67 -47 -50 -117 -17
-105 50 5 27 14 37 44 50 60 25 76 18 80 -33z"/>
</g>
</svg>
