<?xml version="1.0" standalone="no"?>
<!DOCTYPE svg PUBLIC "-//W3C//DTD SVG 20010904//EN"
 "http://www.w3.org/TR/2001/REC-SVG-20010904/DTD/svg10.dtd">
<svg version="1.0" xmlns="http://www.w3.org/2000/svg"
 width="450.000000pt" height="150.000000pt" viewBox="0 0 450.000000 150.000000"
 preserveAspectRatio="xMidYMid meet">
<metadata>
Created by potrace 1.10, written by Peter Selinger 2001-2011
</metadata>
<g transform="translate(0.000000,150.000000) scale(0.100000,-0.100000)"
fill="#000000" stroke="none">
<path d="M3832 1319 c-7 -12 -11 -23 -8 -26 6 -6 66 29 66 39 0 17 -46 7 -58
-13z"/>
<path d="M3955 1154 l0 -164 39 0 c31 0 37 3 32 16 -3 9 -6 82 -6 164 l0 148
-32 0 -33 0 0 -164z"/>
<path d="M2150 1280 c-18 -18 -20 -33 -20 -136 0 -134 7 -154 54 -154 42 0 66
26 66 73 0 30 -4 37 -20 37 -16 0 -20 -7 -20 -35 0 -29 -4 -35 -20 -35 -20 0
-21 5 -18 113 2 92 6 112 18 112 10 0 16 -12 18 -32 2 -25 8 -33 23 -33 15 0
19 7 19 35 0 39 -28 75 -60 75 -11 0 -29 -9 -40 -20z"/>
<path d="M2322 1284 c-21 -14 -22 -22 -22 -135 0 -139 7 -159 54 -159 57 0 66
21 66 153 0 104 -2 119 -20 137 -24 24 -48 25 -78 4z m58 -145 c0 -102 -1
-109 -20 -109 -19 0 -20 7 -20 108 0 60 3 111 6 115 3 3 12 3 20 0 11 -4 14
-30 14 -114z"/>
<path d="M2693 1293 c-55 -3 -63 -7 -63 -23 0 -15 7 -20 25 -20 l25 0 0 -130
c0 -123 1 -130 20 -130 19 0 20 7 20 130 0 123 1 130 20 130 15 0 20 7 20 25
0 14 -1 24 -2 23 -2 -1 -31 -3 -65 -5z"/>
<path d="M3160 1280 c-18 -18 -20 -33 -20 -134 0 -128 12 -158 64 -158 53 0
61 20 61 153 0 115 -1 122 -24 140 -30 24 -56 24 -81 -1z m62 -140 c0 -56 -3
-104 -6 -107 -3 -3 -12 -3 -21 0 -12 5 -15 26 -15 111 0 74 4 106 13 109 23 9
29 -11 29 -113z"/>
<path d="M2470 1140 c0 -143 1 -150 20 -150 18 0 20 7 20 65 0 67 7 77 35 49
11 -11 15 -30 13 -63 -3 -41 -1 -46 20 -49 20 -3 22 1 22 45 0 26 -6 59 -13
73 -11 21 -10 30 1 53 16 31 11 89 -9 113 -7 9 -30 14 -60 14 l-49 0 0 -150z
m84 94 c10 -27 7 -52 -10 -68 -23 -24 -34 -11 -34 40 0 36 3 44 19 44 10 0 22
-7 25 -16z"/>
<path d="M2816 1258 c-10 -59 -36 -248 -36 -258 0 -6 9 -10 20 -10 16 0 20 7
20 31 0 27 3 30 28 27 21 -2 28 -9 30 -30 3 -22 8 -28 28 -28 14 0 23 4 20 8
-3 4 -12 62 -21 128 -22 169 -20 164 -55 164 -25 0 -30 -4 -34 -32z m47 -110
c6 -64 5 -68 -15 -68 -19 0 -20 4 -14 46 3 26 6 61 6 77 0 56 17 14 23 -55z"/>
<path d="M2965 1140 l0 -150 47 0 c72 0 78 11 78 146 0 144 -5 154 -73 154
l-52 0 0 -150z m83 3 c-3 -93 -5 -108 -20 -111 -16 -3 -18 7 -18 107 0 105 1
111 20 111 20 0 21 -5 18 -107z"/>
<path d="M3634 1244 c-20 -29 -12 -67 29 -151 30 -61 30 -100 0 -55 -23 34
-42 28 -34 -10 6 -28 11 -33 41 -35 67 -6 80 63 30 161 -37 73 -40 104 -5 61
29 -35 36 -31 29 16 -5 32 -9 35 -40 36 -26 1 -39 -5 -50 -23z"/>
<path d="M3801 1251 c-45 -45 -52 -178 -13 -231 30 -39 80 -35 105 8 24 40 27
154 7 192 -27 51 -67 63 -99 31z m49 -126 c0 -105 -8 -140 -24 -99 -8 21 -8
199 1 207 18 19 23 -3 23 -108z"/>
<path d="M4095 1244 c-43 -46 -45 -176 -3 -229 29 -38 75 -31 101 13 24 41 28
154 7 192 -29 55 -68 64 -105 24z m55 -113 c0 -102 -9 -143 -24 -105 -8 21 -8
199 1 207 18 19 23 -2 23 -102z"/>
<path d="M352 1207 c-72 -40 -77 -145 -11 -202 36 -29 60 -31 99 -8 34 20 58
63 35 63 -8 0 -19 -9 -25 -20 -12 -23 -49 -35 -79 -25 -18 5 -51 51 -51 70 0
3 41 5 90 5 52 0 90 4 90 10 0 5 -7 28 -16 50 -24 60 -81 85 -132 57z m88 -37
c11 -11 20 -24 20 -30 0 -5 0 -13 0 -16 0 -3 -31 -6 -70 -7 -65 -2 -69 -1 -64
18 15 51 78 71 114 35z"/>
<path d="M551 1194 c-12 -15 -21 -31 -21 -36 0 -21 21 -47 55 -67 36 -21 45
-47 23 -69 -19 -19 -37 -14 -50 13 -6 14 -17 25 -25 25 -24 0 10 -64 40 -74
22 -8 31 -6 52 14 33 31 33 73 0 97 -65 45 -68 49 -61 71 9 28 31 28 50 1 19
-28 40 -16 25 14 -24 45 -58 49 -88 11z"/>
<path d="M743 1200 c-24 -14 -31 -15 -26 -5 3 9 -1 15 -11 15 -14 0 -16 -18
-16 -145 0 -126 2 -145 16 -145 13 0 15 9 12 48 l-3 48 33 -19 c44 -26 88 -14
119 32 41 60 23 145 -37 176 -38 19 -48 19 -87 -5z m92 -35 c35 -34 35 -96 0
-130 -31 -32 -59 -32 -90 0 -50 49 -18 155 45 155 12 0 32 -11 45 -25z"/>
<path d="M981 1211 c-7 -5 -22 -6 -32 -4 -18 5 -19 -2 -19 -106 0 -92 3 -111
15 -111 12 0 15 16 15 84 0 75 3 87 21 100 23 16 23 51 0 37z"/>
<path d="M1094 1211 c-40 -17 -64 -60 -64 -113 0 -43 4 -54 34 -84 35 -35 62
-42 99 -23 23 12 56 48 57 62 0 15 -30 6 -40 -13 -12 -23 -49 -35 -79 -25 -18
5 -51 51 -51 70 0 3 41 5 90 5 74 0 90 3 90 15 0 24 -25 78 -42 92 -21 18 -69
24 -94 14z m74 -38 c11 -10 23 -27 26 -38 5 -19 1 -20 -64 -18 -39 1 -70 4
-70 7 0 3 0 11 0 16 0 19 40 50 64 50 13 0 33 -8 44 -17z"/>
<path d="M1292 1203 c-40 -34 -32 -76 19 -108 33 -21 40 -31 37 -53 -4 -38
-44 -43 -58 -8 -5 14 -14 26 -20 26 -17 0 -11 -39 10 -60 11 -11 29 -20 40
-20 29 0 60 36 60 69 0 32 -20 58 -57 72 -29 11 -39 34 -23 54 18 21 41 19 47
-5 6 -23 33 -27 33 -5 0 19 -35 55 -54 55 -8 0 -23 -8 -34 -17z"/>
<path d="M1439 1199 c-33 -33 -23 -79 24 -104 43 -23 56 -50 34 -72 -19 -19
-47 -10 -54 17 -6 22 -33 28 -33 6 0 -21 40 -66 59 -66 9 0 27 7 39 16 19 13
22 24 20 57 -3 37 -7 44 -40 60 -29 14 -38 25 -38 43 0 34 30 44 48 16 18 -27
32 -28 32 -3 0 20 -35 51 -57 51 -7 0 -22 -9 -34 -21z"/>
<path d="M1604 1186 c-30 -30 -34 -40 -34 -86 0 -46 4 -56 34 -86 37 -37 62
-42 105 -19 30 15 61 69 61 104 0 39 -28 89 -59 105 -45 24 -69 20 -107 -18z
m111 -21 c51 -50 18 -155 -48 -155 -37 0 -70 42 -70 90 0 78 68 116 118 65z"/>
<path d="M3650 960 c0 -13 7 -20 20 -20 19 0 20 -7 20 -141 0 -132 -1 -141
-20 -146 -11 -3 -20 -12 -20 -19 0 -11 17 -14 70 -14 l70 0 0 35 c0 27 -4 35
-17 35 -16 0 -18 8 -15 66 2 38 9 67 15 69 7 2 24 6 40 9 l27 6 0 -110 0 -110
50 0 50 0 0 35 c0 27 -4 35 -17 35 -16 0 -18 8 -15 58 4 74 -17 131 -50 134
-41 2 -62 -2 -78 -17 -9 -8 -19 -15 -21 -15 -3 0 -3 29 -1 65 l4 65 -56 0
c-49 0 -56 -2 -56 -20z"/>
<path d="M2057 963 c-13 -12 -8 -65 6 -61 15 6 38 49 31 60 -6 10 -28 11 -37
1z"/>
<path d="M1166 840 c-26 -28 -61 -80 -78 -115 -21 -47 -37 -67 -53 -71 -46
-12 -60 19 -24 52 17 14 23 16 26 6 4 -10 9 -9 24 4 21 19 26 64 6 64 -28 0
-86 -51 -97 -85 -12 -35 -46 -55 -69 -40 -19 11 -12 21 24 38 40 19 65 61 47
79 -27 27 -112 -44 -112 -94 0 -22 -40 -35 -51 -17 -13 21 -12 24 27 71 55 64
82 138 51 138 -21 0 -77 -76 -98 -131 -23 -60 -24 -93 -3 -113 14 -14 18 -14
46 0 28 15 32 15 40 0 12 -21 41 -20 69 3 22 18 23 18 40 -3 18 -21 19 -21 50
-3 21 12 36 14 42 8 6 -6 25 6 54 37 40 43 43 44 28 15 -28 -58 -14 -87 26
-54 22 18 23 18 39 -2 12 -14 23 -18 38 -13 32 11 82 55 82 74 0 12 -7 9 -28
-11 -29 -28 -72 -36 -72 -14 0 6 18 22 39 34 61 35 65 93 6 77 -27 -8 -75 -60
-75 -83 0 -21 -25 -46 -34 -33 -2 4 4 21 15 38 41 62 14 72 -49 18 -50 -43
-55 -32 -9 22 79 92 114 154 88 154 -4 0 -29 -23 -55 -50z m-310 -47 c-23 -42
-36 -59 -36 -48 0 12 38 75 45 75 3 0 -1 -12 -9 -27z m94 -52 c0 -12 -42 -42
-49 -36 -5 6 29 45 41 45 4 0 8 -4 8 -9z m328 -18 c-15 -15 -30 -25 -33 -22
-7 8 33 49 48 49 6 0 -1 -12 -15 -27z"/>
<path d="M2880 883 c-8 -3 -23 -12 -32 -21 -16 -14 -18 -13 -18 1 0 14 -10 17
-50 17 -47 0 -50 -2 -50 -25 0 -17 5 -25 18 -25 16 0 18 -9 16 -82 -2 -46 -3
-86 -4 -90 0 -5 -7 -8 -15 -8 -8 0 -15 -7 -15 -15 0 -12 14 -15 65 -15 l65 0
0 35 c0 24 -5 35 -15 35 -11 0 -15 13 -15 53 0 62 20 97 56 97 24 0 24 0 24
-110 l0 -110 35 0 35 0 0 100 c0 88 2 100 19 110 11 5 28 10 38 10 18 0 19 -7
15 -92 -3 -65 -9 -95 -18 -101 -30 -18 -11 -27 56 -27 l70 0 0 35 c0 28 -4 35
-20 35 -18 0 -20 7 -20 78 0 42 -4 82 -8 89 -23 36 -112 33 -127 -5 -6 -15 -8
-15 -23 4 -18 23 -57 35 -82 27z"/>
<path d="M3242 879 c-52 -15 -74 -60 -70 -143 3 -62 7 -71 36 -97 53 -48 135
-37 172 23 36 59 20 182 -27 206 -31 16 -77 21 -111 11z m79 -65 c16 -20 16
-109 -1 -129 -7 -8 -28 -15 -46 -15 l-34 0 0 68 c0 40 5 73 12 80 17 17 53 15
69 -4z"/>
<path d="M4010 883 c-34 -12 -50 -37 -50 -75 0 -33 3 -38 23 -38 13 0 28 5 35
12 15 15 16 48 2 48 -5 0 -10 5 -10 10 0 13 36 13 61 0 22 -12 25 -43 7 -57
-7 -6 -31 -16 -53 -23 -71 -22 -89 -53 -65 -114 13 -34 53 -43 97 -22 32 15
37 15 53 1 18 -16 41 -19 78 -9 16 5 22 14 22 35 0 24 -4 29 -25 29 -24 0 -25
2 -25 70 0 38 -5 81 -12 94 -15 35 -91 56 -138 39z m80 -172 c0 -31 -25 -64
-43 -58 -6 2 -16 12 -24 23 -11 17 -10 23 3 42 8 12 26 22 40 22 20 0 24 -5
24 -29z"/>
<path d="M2442 867 c-5 -7 -22 -43 -37 -82 -15 -38 -29 -72 -32 -75 -2 -2 -3
29 -1 70 2 61 0 75 -12 75 -12 0 -16 -16 -18 -75 -4 -98 5 -160 24 -160 8 0
14 9 14 19 0 33 40 151 52 151 8 0 9 -32 6 -105 -3 -58 -2 -105 3 -105 14 0
29 72 35 181 6 91 5 107 -9 112 -8 3 -20 0 -25 -6z"/>
<path d="M3471 866 c-36 -20 -50 -55 -51 -124 0 -60 2 -66 34 -98 29 -29 41
-34 83 -34 76 0 93 8 93 41 0 24 -4 29 -25 29 -14 0 -25 -4 -25 -9 0 -13 -25
-20 -48 -14 -26 6 -42 44 -42 96 0 51 23 87 54 87 20 0 23 -5 22 -37 -1 -36 1
-38 32 -41 31 -3 32 -2 32 37 0 31 -6 44 -26 60 -31 24 -96 28 -133 7z"/>
<path d="M1484 845 c14 -13 26 -28 26 -32 0 -4 -14 -21 -31 -38 -41 -38 -62
-89 -54 -131 8 -46 22 -51 55 -19 l28 27 4 -23 c1 -13 10 -25 18 -27 13 -2 15
13 14 95 -1 54 -2 106 -3 116 -1 24 -37 57 -62 57 -21 0 -21 -1 5 -25z m21
-122 c-8 -58 -18 -78 -35 -68 -16 10 -7 68 15 102 22 34 28 24 20 -34z"/>
<path d="M1731 827 c-10 -23 -22 -58 -27 -77 -8 -34 -9 -32 -14 25 -4 51 -8
60 -25 60 -20 0 -28 -17 -59 -120 l-15 -50 2 95 c2 79 -1 95 -13 95 -12 0 -16
-19 -18 -96 -3 -97 9 -154 30 -147 6 2 21 42 32 89 l20 84 10 -74 c11 -78 31
-103 42 -54 7 32 45 153 48 153 1 0 2 -42 2 -92 -1 -86 12 -138 32 -138 4 0 6
35 4 78 -2 42 1 103 6 134 9 58 3 78 -25 78 -8 0 -22 -19 -32 -43z"/>
<path d="M1856 849 c-88 -69 -73 -239 22 -239 l27 0 -27 23 c-15 12 -32 35
-38 51 -9 25 -7 33 13 55 34 36 47 64 47 100 0 36 -8 38 -44 10z m14 -29 c0
-6 -8 -27 -17 -48 -14 -30 -17 -33 -20 -16 -5 25 13 74 27 74 5 0 10 -5 10
-10z"/>
<path d="M2011 863 c-15 -6 -61 -100 -61 -125 0 -10 -4 -18 -9 -18 -5 0 -5 20
0 46 9 49 6 64 -16 64 -30 0 -30 -237 0 -243 6 -1 11 16 13 38 3 44 29 134 43
150 5 5 9 -4 9 -23 0 -37 15 -43 23 -9 9 33 20 127 16 126 -2 0 -10 -3 -18 -6z"/>
<path d="M2145 849 c-68 -54 -76 -204 -12 -243 15 -9 23 -6 42 17 l24 28 7
-26 c8 -32 27 -32 52 0 l19 24 11 -24 c23 -51 32 -26 32 88 0 106 -2 115 -23
135 -13 12 -34 22 -46 22 l-24 0 27 -21 c31 -24 33 -50 7 -66 -11 -7 -34 -39
-52 -72 -41 -74 -63 -80 -80 -19 -13 51 -6 115 15 137 15 14 16 13 16 -10 0
-14 7 -34 15 -45 13 -18 14 -15 15 29 0 26 0 50 1 54 1 16 -19 12 -46 -8z
m138 -116 c-7 -55 -19 -83 -35 -83 -17 0 -3 88 17 110 10 11 20 20 21 20 2 0
1 -21 -3 -47z"/>
<path d="M2517 842 c-10 -10 -17 -30 -17 -43 1 -13 -2 -48 -6 -76 -10 -78 18
-133 59 -117 25 9 59 85 64 142 4 48 2 61 -17 85 -25 31 -60 35 -83 9z m67
-48 c18 -46 -3 -144 -30 -144 -31 0 -47 97 -24 141 13 23 46 25 54 3z"/>
<path d="M2050 835 c-19 -22 -26 -176 -9 -206 12 -22 14 -15 25 81 7 58 15
113 19 123 9 22 -17 24 -35 2z"/>
<path d="M333 751 c-44 -32 -58 -66 -43 -106 13 -34 32 -40 70 -20 23 12 35
14 43 6 16 -16 52 -13 67 4 7 8 19 15 26 15 8 0 14 -7 14 -15 0 -25 29 -17 44
13 8 15 24 36 36 47 l22 20 -17 -37 c-18 -36 -15 -68 4 -68 17 0 81 61 81 78
0 12 -5 11 -23 -6 -43 -40 -52 -18 -12 29 23 28 25 59 3 59 -6 0 -33 -22 -59
-49 -27 -26 -49 -43 -49 -36 0 6 9 20 20 30 24 22 26 48 3 43 -9 -2 -27 -23
-39 -48 l-23 -45 4 52 c3 29 0 55 -5 58 -28 17 -110 -49 -110 -89 0 -31 -66
-48 -77 -20 -7 19 36 62 46 45 9 -14 38 15 43 44 5 30 -24 29 -69 -4z m132
-38 c-4 -10 -8 -27 -10 -38 -1 -12 -10 -21 -24 -23 -20 -3 -22 0 -16 20 6 21
40 58 52 58 3 0 2 -8 -2 -17z"/>
<path d="M2720 425 l0 -165 30 0 30 0 0 165 0 165 -30 0 -30 0 0 -165z"/>
<path d="M415 563 c-121 -32 -149 -228 -42 -293 18 -11 47 -20 65 -20 37 0 92
25 92 41 0 8 -4 8 -14 0 -28 -24 -77 -31 -110 -17 -80 33 -90 207 -15 260 43
30 129 10 129 -30 0 -8 5 -14 10 -14 6 0 10 15 10 33 0 26 -4 32 -22 33 -13 0
-36 3 -53 6 -16 3 -39 4 -50 1z"/>
<path d="M1465 556 c-86 -39 -120 -147 -75 -236 35 -68 121 -92 182 -49 40 29
30 33 -18 9 -25 -13 -48 -18 -64 -15 -78 20 -113 128 -71 222 33 71 100 86
152 34 l29 -29 0 31 c0 26 -4 32 -22 33 -13 0 -36 3 -53 7 -18 4 -42 1 -60 -7z"/>
<path d="M1712 563 c-35 -7 -90 -68 -102 -114 -27 -98 38 -199 128 -199 37 0
92 25 92 41 0 8 -4 8 -14 0 -29 -24 -77 -31 -112 -16 -43 18 -64 61 -64 130 0
88 41 145 103 145 37 0 66 -16 77 -43 8 -19 9 -18 9 11 1 22 5 32 14 30 16 -6
23 -278 7 -278 -5 0 -10 -3 -10 -7 0 -5 16 -8 35 -8 19 0 35 3 35 8 0 4 -4 7
-10 7 -14 0 -13 267 1 275 5 4 19 -1 30 -11 17 -15 19 -31 19 -135 0 -68 -4
-120 -10 -124 -18 -11 -10 -20 20 -21 28 -1 29 0 15 16 -13 14 -15 38 -13 124
l3 106 95 -125 95 -125 3 142 c2 120 5 143 20 154 15 12 12 13 -22 14 -35 0
-38 -2 -23 -13 15 -11 17 -28 15 -124 l-3 -112 -95 124 -95 125 -90 -2 c-49
-1 -99 1 -110 4 -11 3 -30 3 -43 1z"/>
<path d="M2296 559 c-61 -17 -99 -77 -99 -155 0 -169 199 -214 258 -59 46 119
-48 247 -159 214z m106 -39 c50 -62 46 -174 -7 -227 -49 -49 -108 -41 -146 19
-16 27 -19 46 -17 107 3 69 6 75 37 103 29 26 39 30 75 25 25 -4 48 -14 58
-27z"/>
<path d="M3948 564 c-5 -4 -8 -25 -8 -46 0 -31 -3 -38 -20 -38 -11 0 -20 -4
-20 -10 0 -5 9 -10 20 -10 18 0 20 -7 20 -67 0 -76 -18 -110 -51 -92 -17 8
-19 23 -20 107 0 55 -4 89 -8 78 -7 -19 -8 -19 -13 2 -13 47 -56 17 -81 -57
l-14 -44 -8 86 c-4 48 -10 87 -14 87 -7 0 -3 -263 4 -287 3 -7 18 -13 34 -13
31 0 44 14 68 75 6 17 12 23 12 13 3 -55 48 -87 79 -56 9 9 12 6 12 -16 0 -15
4 -25 10 -21 6 3 10 51 10 110 l0 103 31 11 c41 14 62 13 29 -1 -25 -11 -25
-11 -2 -15 21 -4 22 -8 22 -111 0 -139 18 -124 22 18 l3 104 38 9 c20 5 37 13
37 18 0 11 -7 11 -48 0 l-32 -10 0 40 c0 24 -4 38 -10 34 -5 -3 -10 -17 -10
-30 0 -19 -7 -26 -27 -31 -16 -3 -33 -7 -40 -9 -8 -3 -13 11 -15 36 -2 23 -6
37 -10 33z m-107 -101 c8 -20 5 -42 -10 -93 -21 -70 -42 -97 -62 -84 -26 16
20 204 51 204 6 0 15 -12 21 -27z"/>
<path d="M607 473 c-14 -49 -33 -114 -42 -145 -9 -32 -21 -58 -26 -58 -5 0 -9
-3 -9 -7 0 -5 14 -8 30 -9 24 -1 28 2 19 12 -8 10 -8 27 1 64 l12 50 44 0 43
0 16 -51 c14 -48 14 -53 -3 -66 -16 -14 -16 -14 1 -9 10 3 30 6 44 6 20 0 22
2 11 13 -7 8 -31 75 -53 150 -22 75 -45 137 -51 137 -6 0 -23 -39 -37 -87z
m35 -81 c-19 -2 -36 -1 -38 1 -3 2 3 33 13 67 l17 63 21 -64 22 -64 -35 -3z"/>
<path d="M773 542 c14 -15 17 -41 17 -138 0 -73 -4 -124 -11 -131 -8 -8 0 -12
25 -15 40 -4 42 -3 21 18 -9 10 -15 34 -15 63 l0 48 42 6 c51 7 78 35 78 81
-1 58 -40 86 -121 86 -50 0 -51 -1 -36 -18z m111 -21 c12 -13 16 -32 14 -57
-2 -31 -9 -42 -31 -52 -47 -22 -57 -11 -57 63 0 65 0 65 28 65 16 0 37 -9 46
-19z"/>
<path d="M943 549 c15 -9 17 -27 17 -141 0 -108 -3 -133 -16 -142 -13 -10 -8
-12 25 -12 23 1 41 4 41 9 0 4 -4 7 -10 7 -6 0 -10 27 -10 60 0 59 0 60 29 60
43 0 81 35 81 75 0 47 -8 64 -41 80 -33 17 -146 21 -116 4z m117 -28 c14 -27
13 -86 -3 -99 -6 -6 -24 -13 -40 -17 l-27 -7 0 71 0 71 30 0 c19 0 33 -7 40
-19z"/>
<path d="M1112 548 c14 -11 17 -36 20 -131 3 -116 4 -119 31 -143 39 -34 90
-32 124 3 22 25 25 25 19 7 -5 -18 -2 -22 21 -27 34 -6 44 1 20 14 -25 14 -26
243 0 271 15 17 14 18 -27 18 -34 0 -41 -3 -32 -12 8 -8 12 -51 12 -125 0
-108 -1 -115 -25 -138 -13 -14 -33 -25 -45 -25 -11 0 -32 11 -45 25 -24 23
-25 30 -25 139 0 99 2 116 18 125 13 8 6 10 -32 11 -42 0 -47 -2 -34 -12z"/>
<path d="M4152 497 c-19 -22 -42 -84 -52 -139 -11 -58 5 -98 39 -98 24 0 81
55 81 78 0 11 -11 4 -34 -21 -34 -37 -66 -49 -66 -23 0 7 7 19 16 27 30 24 65
109 62 147 -3 40 -26 54 -46 29z m3 -113 c-15 -30 -31 -54 -36 -54 -11 0 -12
-3 7 61 9 30 23 65 32 79 l17 25 3 -28 c2 -17 -8 -52 -23 -83z"/>
<path d="M3075 476 c-23 -23 -25 -23 -25 -6 0 15 -7 20 -25 20 l-25 0 0 -115
0 -115 30 0 30 0 0 69 c0 71 14 101 46 101 16 0 20 55 4 65 -5 3 -21 -5 -35
-19z"/>
<path d="M2823 482 c-7 -4 -10 -17 -6 -30 6 -24 8 -25 38 -13 21 9 55 -3 55
-19 0 -6 -9 -10 -20 -10 -68 0 -111 -72 -76 -126 23 -34 44 -40 78 -21 15 9
28 12 28 7 0 -6 11 -10 25 -10 25 0 25 1 25 89 0 74 -3 92 -21 115 -17 21 -29
26 -67 26 -26 0 -52 -4 -59 -8z m87 -136 c0 -26 -24 -51 -40 -41 -14 8 -13 38
2 53 19 19 38 14 38 -12z"/>
<path d="M3151 464 c-69 -88 4 -257 81 -187 20 18 23 7 8 -32 -9 -24 -15 -27
-51 -23 -35 3 -40 1 -46 -20 -14 -58 110 -57 147 1 10 15 15 62 17 155 l3 132
-30 0 c-17 0 -30 -5 -30 -12 0 -9 -3 -9 -12 0 -21 21 -65 14 -87 -14z m87 -84
c4 -61 -9 -83 -35 -57 -20 20 -22 79 -3 101 22 27 35 12 38 -44z"/>
<path d="M3369 477 c-44 -34 -55 -144 -19 -190 37 -47 101 -44 142 7 35 43 16
173 -27 190 -27 10 -79 6 -96 -7z m75 -53 c11 -29 6 -90 -9 -110 -15 -19 -15
-19 -30 0 -15 20 -20 81 -9 110 3 9 14 16 24 16 10 0 21 -7 24 -16z"/>
</g>
</svg>
