<?xml version="1.0" standalone="no"?>
<!DOCTYPE svg PUBLIC "-//W3C//DTD SVG 20010904//EN"
 "http://www.w3.org/TR/2001/REC-SVG-20010904/DTD/svg10.dtd">
<svg version="1.0" xmlns="http://www.w3.org/2000/svg"
 width="400.000000pt" height="408.000000pt" viewBox="0 0 400.000000 408.000000"
 preserveAspectRatio="xMidYMid meet">
<metadata>
Created by potrace 1.10, written by Peter Selinger 2001-2011
</metadata>
<g transform="translate(0.000000,408.000000) scale(0.050000,-0.050000)"
fill="#000000" stroke="none">
<path d="M2660 8135 c0 -14 -56 -47 -125 -73 -1060 -403 -2012 -1323 -2434
-2352 -36 -88 -73 -169 -83 -179 -10 -10 -17 -253 -15 -540 2 -287 7 -489 11
-451 163 1550 1320 2932 2829 3380 727 216 1587 216 2314 0 1509 -448 2666
-1830 2829 -3380 4 -38 9 170 11 463 2 358 -4 536 -18 541 -12 4 -68 115 -126
246 -449 1020 -1350 1878 -2388 2272 -69 26 -125 59 -125 73 0 20 -278 25
-1340 25 -1062 0 -1340 -5 -1340 -25z"/>
<path d="M4190 7753 c-261 -86 -470 -293 -470 -466 0 -36 -19 -50 -106 -75
-508 -148 -473 -748 50 -856 l116 -24 0 -306 c0 -168 4 -306 8 -306 5 0 170
111 367 247 l358 246 63 -53 c253 -211 694 -134 897 156 68 97 71 99 193 109
582 46 664 715 107 870 -98 27 -125 45 -165 108 -97 154 -365 238 -576 180
-73 -20 -83 -17 -144 36 -146 128 -506 198 -698 134z m433 -132 c96 -30 149
-62 214 -128 l87 -88 63 32 c184 92 426 32 543 -136 52 -74 77 -92 161 -111
507 -116 424 -649 -102 -650 l-100 0 -103 -137 c-206 -276 -551 -323 -788
-109 l-76 69 -311 -213 -311 -213 0 187 c0 291 -16 328 -148 342 -485 50 -517
536 -42 644 94 21 101 27 117 101 79 361 408 530 796 410z"/>
<path d="M4611 7062 c-6 -9 3 -29 19 -42 42 -35 41 -266 -1 -308 -48 -48 -17
-72 91 -72 94 0 142 24 100 50 -53 33 -22 150 40 150 69 0 83 -59 31 -133 -39
-55 -23 -67 91 -67 93 0 140 24 98 50 -29 18 -26 325 4 335 55 18 -14 55 -105
55 -96 0 -135 -35 -79 -70 48 -29 21 -90 -40 -90 -62 0 -92 86 -36 105 12 4
16 18 8 31 -17 28 -204 33 -221 6z"/>
<path d="M4285 7007 c-51 -21 -225 -252 -225 -299 0 -44 8 -48 90 -48 77 0 90
-6 90 -40 0 -32 13 -40 70 -40 57 0 70 8 70 40 0 22 9 40 20 40 11 0 20 23 20
50 0 28 -9 50 -20 50 -11 0 -20 57 -20 130 0 134 -13 150 -95 117z m-45 -187
c0 -51 -8 -60 -50 -60 -61 0 -63 14 -7 74 56 58 57 58 57 -14z"/>
<path d="M3780 6986 c-53 -20 -100 -71 -100 -109 0 -39 49 -51 70 -17 19 31
70 24 70 -10 0 -17 -37 -71 -83 -120 l-82 -90 138 0 c77 0 149 -10 161 -22 28
-28 96 68 79 112 -13 33 -53 41 -53 10 0 -11 -18 -20 -40 -20 -53 0 -50 23 8
78 127 120 8 253 -168 188z"/>
<path d="M5165 6939 c-48 -19 -58 -48 -25 -69 11 -7 20 -43 20 -80 0 -37 -9
-73 -20 -80 -59 -37 -16 -70 90 -70 109 0 155 39 80 67 -29 11 -43 114 -18
138 7 7 29 2 49 -10 27 -17 43 -16 67 4 76 62 8 153 -75 101 -30 -18 -43 -19
-49 -3 -9 27 -56 28 -119 2z"/>
<path d="M5512 6930 c-55 -56 -5 -190 72 -190 9 0 16 -9 16 -20 0 -30 -52 -24
-80 10 -34 40 -60 38 -60 -6 0 -57 42 -84 131 -84 150 0 199 112 79 183 -68
40 -92 77 -50 77 11 0 38 -11 59 -24 48 -30 77 -6 48 40 -29 47 -172 56 -215
14z"/>
<path d="M2280 6054 c0 -217 196 -493 408 -573 l56 -21 -59 -67 c-256 -292
-365 -811 -257 -1230 l37 -146 73 13 72 13 -70 -74 c-71 -77 -62 -76 58 5 86
58 124 58 180 -1 l44 -48 -109 -9 c-538 -45 -728 -1409 -210 -1506 353 -66
686 713 519 1215 -25 74 -53 140 -64 146 -50 31 -9 44 50 16 96 -46 122 -149
121 -477 -4 -782 -562 -1293 -864 -790 -71 118 -84 109 -32 -25 255 -652 908
-294 1048 574 25 151 17 546 -11 616 -11 27 -4 35 27 35 47 0 55 -20 84 -220
109 -759 -454 -1658 -876 -1400 -96 58 -102 49 -24 -32 172 -179 362 -194 594
-47 43 27 51 22 160 -89 63 -64 97 -110 75 -102 -147 58 -272 23 -331 -92 -72
-141 -52 -182 40 -83 112 120 174 120 101 0 -76 -125 -45 -174 49 -76 117 122
224 131 143 12 -105 -155 -92 -212 25 -106 138 124 217 134 513 65 159 -38
304 -31 450 22 120 43 247 15 332 -74 93 -97 132 -20 46 90 -82 104 39 79 127
-26 29 -34 57 -62 64 -62 28 0 7 120 -30 167 l-42 53 41 0 c22 0 72 -28 111
-62 l71 -62 0 51 c0 121 -101 213 -232 213 l-56 0 86 88 86 88 113 -60 c193
-102 428 -49 540 121 l31 47 -79 -42 c-397 -213 -854 386 -882 1158 -10 282
18 445 79 456 32 7 34 -3 20 -99 -162 -1085 755 -2022 1061 -1083 17 54 20 80
7 59 -13 -21 -47 -73 -76 -117 -184 -282 -502 -180 -710 228 -177 347 -191
982 -24 1065 55 28 59 27 45 -5 -273 -627 153 -1601 575 -1314 400 271 138
1470 -321 1470 l-70 0 46 49 c52 56 101 46 218 -43 56 -43 64 -45 46 -12 -11
21 -57 64 -102 96 -45 31 -79 66 -75 78 15 44 69 32 134 -28 84 -79 93 -68
141 162 87 424 23 788 -198 1127 -54 81 -82 141 -68 146 130 43 300 251 368
449 50 147 41 185 -28 122 -155 -140 -424 -238 -760 -275 -404 -45 -684 -154
-834 -325 -93 -106 -77 -107 -205 20 -187 187 -474 293 -797 294 -257 0 -535
97 -712 249 -98 84 -107 86 -107 25z m438 -275 c72 -22 238 -48 380 -58 382
-28 602 -112 803 -304 123 -118 100 -118 234 4 202 185 472 285 826 307 237
15 390 54 553 140 134 72 153 63 98 -44 -89 -169 -246 -223 -642 -221 -405 3
-583 -56 -842 -276 -124 -105 -102 -105 -215 3 -210 201 -448 274 -903 278
-428 3 -601 81 -643 290 l-12 62 117 -71 c65 -39 176 -88 246 -110z m437 -431
c88 -14 98 -48 13 -48 -460 0 -663 -853 -299 -1256 548 -607 1333 339 847
1022 l-45 63 67 -47 c36 -26 113 -105 169 -175 102 -125 103 -126 132 -82 41
65 262 281 274 269 5 -6 -13 -45 -40 -87 -360 -552 150 -1356 697 -1100 518
242 495 1230 -32 1374 -152 41 -152 45 0 73 l148 29 88 -87 c525 -510 230
-1536 -441 -1536 -297 0 -608 265 -675 574 -34 160 -47 165 -77 32 -188 -846
-1249 -769 -1384 101 -61 388 190 945 407 906 36 -7 104 -18 151 -25z m323
-127 c379 -193 452 -834 132 -1154 -378 -378 -921 -26 -886 575 26 451 417
751 754 579z m1401 27 c495 -146 577 -987 123 -1262 -498 -300 -982 350 -710
955 116 258 346 379 587 307z m-529 -1417 c81 -51 92 -65 81 -110 -109 -453
44 -1173 322 -1514 l91 -111 -97 -100 c-477 -491 -925 -502 -1426 -34 -130
122 -169 178 -123 178 30 0 193 257 250 394 153 365 206 828 133 1152 -16 70
-14 74 68 122 46 28 117 86 158 131 89 99 77 101 133 -19 58 -124 56 -124 137
11 l67 112 56 -77 c31 -42 98 -103 150 -135z m-1544 -231 c53 -103 39 -568
-21 -702 -122 -274 -313 -321 -356 -89 -86 459 219 1098 377 791z m2611 -30
c207 -236 205 -975 -3 -923 -147 37 -274 338 -274 652 0 370 102 470 277 271z"/>
<path d="M3150 4943 c-186 -115 -246 -363 -139 -577 173 -349 597 -196 593
214 -2 289 -251 488 -454 363z m119 -107 c44 -63 39 -168 -9 -216 -77 -77
-160 -22 -160 107 0 135 103 202 169 109z"/>
<path d="M4600 4944 c-226 -123 -265 -495 -72 -682 289 -280 669 152 473 536
-80 157 -261 223 -401 146z m271 -105 c68 -76 23 -259 -64 -259 -50 0 -107 78
-107 146 0 132 96 196 171 113z"/>
<path d="M3 3174 c-2 -413 3 -524 25 -560 16 -24 65 -131 110 -238 421 -998
1295 -1841 2364 -2280 l208 -86 1252 -5 1252 -6 178 62 c1060 368 2029 1284
2478 2341 48 114 97 210 109 214 14 5 20 183 18 541 -2 293 -7 502 -11 463
-163 -1550 -1320 -2932 -2829 -3380 -727 -216 -1587 -216 -2314 0 -1509 448
-2666 1830 -2829 3380 -4 39 -9 -162 -11 -446z"/>
<path d="M1480 2534 c-79 -40 -110 -125 -87 -238 25 -121 2 -165 -53 -99 -45
54 -48 78 -19 155 34 90 -10 108 -85 34 l-62 -63 36 -97 c123 -325 485 -290
387 37 -18 58 -18 84 -1 101 42 42 87 -22 80 -113 -7 -98 73 -121 117 -33 66
132 -182 382 -313 316z"/>
<path d="M6388 2409 c-77 -82 -119 -202 -84 -243 30 -38 63 -22 76 35 20 83
89 64 96 -26 8 -91 64 -104 101 -24 17 37 36 50 68 45 62 -8 68 -81 15 -157
-24 -33 -39 -74 -32 -91 35 -91 212 146 212 283 0 149 -111 234 -211 161 -34
-25 -41 -22 -73 30 -46 76 -87 73 -168 -13z"/>
<path d="M6107 2036 c-74 -78 -107 -138 -107 -195 0 -54 72 -55 86 -1 26 100
121 61 101 -42 -16 -77 28 -93 86 -30 55 58 69 62 103 28 39 -39 28 -80 -40
-150 -79 -82 -54 -137 39 -85 257 144 229 511 -33 437 -17 -5 -33 12 -41 42
-20 80 -116 78 -194 -4z"/>
<path d="M1662 2053 c-28 -34 5 -66 78 -76 57 -8 79 -71 32 -89 -18 -7 -57 10
-93 40 -34 29 -75 52 -92 52 -131 0 -149 -167 -25 -231 32 -17 58 -42 58 -56
0 -40 67 -93 117 -93 28 0 43 12 43 36 0 20 28 63 62 95 127 121 109 231 -50
308 -100 49 -101 49 -130 14z m24 -206 c16 -15 -22 -67 -48 -67 -10 0 -18 18
-18 40 0 38 39 54 66 27z"/>
<path d="M1940 1734 c0 -53 -104 -174 -149 -174 -47 0 -38 -29 33 -98 71 -69
131 -80 150 -27 43 119 166 199 166 108 0 -49 -70 -137 -121 -153 -58 -19 -48
-59 31 -119 78 -59 133 -61 142 -4 3 21 33 72 67 114 94 118 53 259 -76 259
-31 0 -43 10 -39 34 4 23 -18 47 -64 69 -99 49 -140 47 -140 -9z"/>
<path d="M5748 1612 c-148 -65 -202 -265 -97 -357 109 -95 211 -80 317 46 143
170 -18 398 -220 311z m90 -170 c70 -66 79 -102 25 -102 -54 0 -143 76 -143
121 0 56 46 48 118 -19z"/>
<path d="M5304 1474 c-70 -72 -78 -94 -36 -94 15 0 38 -13 52 -30 21 -25 18
-30 -16 -30 -152 0 -212 -232 -89 -342 86 -76 185 -79 242 -8 21 28 51 46 66
40 15 -6 59 16 97 48 l70 58 -54 50 c-29 27 -90 123 -135 212 -91 182 -107
189 -197 96z m82 -249 c55 -61 76 -139 44 -165 -37 -31 -68 -9 -102 71 -43
104 -6 165 58 94z"/>
<path d="M2590 1462 c16 -74 -83 -279 -162 -337 -79 -57 -55 -85 162 -182 175
-79 199 -84 252 -62 86 36 137 172 78 209 -33 20 -23 38 40 74 124 71 72 170
-145 276 -201 99 -243 103 -225 22z m246 -155 c7 -50 -57 -111 -93 -89 -22 14
-21 29 6 81 36 68 77 72 87 8z m-96 -178 c36 -42 -5 -129 -60 -129 -44 0 -50
31 -20 109 22 58 44 64 80 20z"/>
<path d="M4968 1150 c-28 -44 -36 -46 -56 -21 -19 27 -33 24 -107 -20 -97 -58
-103 -78 -40 -129 36 -30 45 -56 44 -137 -2 -124 17 -134 157 -88 111 37 152
99 78 118 -38 10 -84 83 -84 133 0 14 27 24 63 24 80 0 114 48 81 118 -30 67
-93 67 -136 2z"/>
<path d="M3055 1098 c-159 -92 -81 -378 104 -378 139 0 199 93 68 104 -70 6
-131 58 -102 87 7 8 55 -1 106 -18 113 -39 129 -31 129 59 0 135 -178 220
-305 146z m185 -90 c0 -15 -16 -28 -37 -28 -50 0 -67 21 -41 52 25 31 78 15
78 -24z"/>
<path d="M4424 1027 c-70 -35 -114 -95 -94 -127 22 -35 66 -21 105 33 41 56
85 51 85 -10 0 -21 -33 -50 -85 -74 -91 -42 -115 -95 -76 -168 27 -50 132 -56
183 -9 26 23 44 26 73 11 84 -46 183 62 116 128 -17 18 -31 59 -31 91 0 131
-138 193 -276 125z m136 -236 c0 -16 -10 -35 -22 -42 -28 -18 -67 21 -49 49
20 32 71 27 71 -7z"/>
<path d="M3411 1013 c-26 -19 -30 -31 -14 -41 38 -24 26 -142 -20 -201 -57
-73 -21 -109 127 -125 123 -12 161 13 108 72 -34 38 -44 152 -14 171 9 6 29
-3 42 -19 14 -17 41 -30 60 -30 19 0 46 13 60 30 13 16 33 25 42 19 25 -16 22
-204 -3 -220 -39 -24 23 -69 95 -69 101 0 152 32 126 80 -26 49 -26 194 1 211
63 39 114 -168 56 -226 -36 -36 64 -73 153 -56 80 15 78 6 39 191 -3 17 -7 53
-7 81 -4 115 -135 167 -222 89 -36 -33 -40 -33 -40 -3 0 39 -47 42 -138 11
-55 -19 -68 -17 -90 13 -25 34 -53 34 -137 -1 -25 -10 -35 -5 -35 18 0 41
-135 45 -189 5z"/>
</g>
</svg>
